<?xml version="1.0" encoding="UTF-8"?> <!-- Generator: Adobe Illustrator 22.0.1, SVG Export Plug-In . SVG Version: 6.00 Build 0) --> <svg xmlns="http://www.w3.org/2000/svg" xmlns:xlink="http://www.w3.org/1999/xlink" id="Layer_1" x="0px" y="0px" viewBox="0 0 182 214.1" xml:space="preserve"> <title>Changelogs_Releases</title> <path fill="#FFFFFF" d="M44.8,21.9c0,0.2,0,0.4,0,0.6C44.7,35,34.6,45,22.1,45c-2.2,0-4.4-0.3-6.5-0.9v139.2h113.5V21.9H44.8z"></path> <circle fill="#AFAFAF" cx="138.7" cy="86.5" r="16.3"></circle> <polygon fill="none" points="136.3,196.3 136.3,211 136.6,210.9 136.7,210.9 136.7,210.8 "></polygon> <path fill="none" d="M148.4,90c-0.1,0.2-0.2,0.4-0.3,0.6c0.3,0.3,0.6,0.7,0.8,1.2c1.3-2.6,1.5-5.5,0.7-8.2c-0.2,0.1-0.3,0.2-0.5,0.3 C149.5,85.9,149.2,88.1,148.4,90z"></path> <path fill="none" d="M98.9,140.7C99,140.7,99,140.7,98.9,140.7L98.9,140.7c0.1-0.1,0.1-0.1,0.1-0.1l13.2-6.3l12-5.7 c-0.3-1.2-0.6-2.4-0.9-3.6c-0.3-1.2-0.6-2.5-0.9-3.7c-3.4-14.6-6.4-28.5-5.5-41.9c0.6-10.6,4.3-20.9,10.7-29.4V23.3H56.8 c-1.6,11.1-8.8,20.5-19,25.1h4.3c2.8,0,5.1,2.3,5.1,5.1s-2.3,5.1-5.1,5.1H26.9c-2.8,0-5-2.3-5.1-5.1c0-0.8,0.2-1.6,0.6-2.3 c-1.9-0.1-3.9-0.4-5.7-0.9v131.3h81.8V173H56.4c-0.7,0-1.2-0.5-1.2-1.2s0.5-1.2,1.2-1.2h42.1v-5.3H91c-0.7,0-1.2-0.6-1.2-1.2 c0-0.7,0.5-1.2,1.2-1.2h7.5V158l-10.7-4c-0.6-0.2-0.8-0.8-0.6-1.4c0.1-0.1,0.1-0.3,0.2-0.4l11.4-11.4 C98.8,140.8,98.8,140.8,98.9,140.7C98.9,140.8,98.9,140.8,98.9,140.7L98.9,140.7z M26.6,81.5h15.2c2.8,0,5.1,2.3,5.1,5.1 s-2.3,5.1-5.1,5.1H26.6c-2.8,0-5.1-2.3-5.1-5.1S23.8,81.5,26.6,81.5z M42.1,164.1H26.9c-2.8,0-5.1-2.3-5.1-5.1s2.3-5.1,5.1-5.1l0,0 h15.2c2.8,0,5.1,2.3,5.1,5.1S44.9,164.1,42.1,164.1z M42.1,126.8H26.9c-2.8,0-5.1-2.3-5.1-5.1s2.3-5.1,5.1-5.1l0,0h15.2 c2.8,0,5.1,2.3,5.1,5.1S44.9,126.8,42.1,126.8z M105,128H91c-0.7,0-1.2-0.5-1.2-1.2s0.5-1.2,1.2-1.2h14c0.7,0,1.2,0.5,1.2,1.2 S105.7,128,105,128z M56.7,90.7H82c0.7,0,1.2,0.5,1.2,1.2c0,0.7-0.5,1.2-1.2,1.2c0,0,0,0,0,0H56.7c-0.7,0-1.2-0.5-1.2-1.2 S56,90.7,56.7,90.7C56.7,90.7,56.7,90.7,56.7,90.7z M55.5,84.1c0-0.7,0.5-1.2,1.2-1.2c0,0,0,0,0,0h14.2c0.7,0,1.2,0.5,1.2,1.2 s-0.5,1.2-1.2,1.2H56.7C56,85.4,55.5,84.8,55.5,84.1L55.5,84.1z M78.7,84.1c0-0.7,0.5-1.2,1.2-1.2h0h10.3c0.7,0,1.2,0.5,1.2,1.2 s-0.5,1.2-1.2,1.2H79.9C79.3,85.4,78.7,84.8,78.7,84.1L78.7,84.1z M56.7,98.4h43.4c0.7,0,1.2,0.5,1.2,1.2s-0.5,1.2-1.2,1.2H56.7 c-0.7,0-1.2-0.5-1.2-1.2S56,98.4,56.7,98.4z M79.7,117.8H90c0.7,0,1.2,0.5,1.2,1.2s-0.5,1.2-1.2,1.2l0,0H79.7 c-0.7,0-1.2-0.5-1.2-1.2S79,117.8,79.7,117.8z M105.3,93.1h-14c-0.7,0-1.2-0.5-1.2-1.2c0-0.7,0.5-1.2,1.2-1.2c0,0,0,0,0,0h14 c0.7,0,1.2,0.5,1.2,1.2C106.5,92.5,106,93.1,105.3,93.1C105.3,93.1,105.3,93.1,105.3,93.1z M112.1,85.4h-11.9 c-0.7,0-1.2-0.5-1.2-1.2s0.5-1.2,1.2-1.2l0,0h11.9c0.7,0,1.2,0.5,1.2,1.2S112.7,85.4,112.1,85.4C112.1,85.4,112.1,85.4,112.1,85.4z M105,59.6H91c-0.7,0-1.2-0.6-1.2-1.2c0-0.7,0.5-1.2,1.2-1.2h14c0.7,0,1.2,0.6,1.2,1.2C106.2,59.1,105.7,59.6,105,59.6z M99.8,49.4 h11.9c0.7,0,1.2,0.5,1.2,1.2s-0.5,1.2-1.2,1.2l0,0H99.8c-0.7,0-1.2-0.5-1.2-1.2S99.2,49.4,99.8,49.4z M79.7,49.4H90 c0.7,0,1.2,0.5,1.2,1.2s-0.5,1.2-1.2,1.2l0,0H79.7c-0.7,0-1.2-0.5-1.2-1.2S79,49.4,79.7,49.4z M56.4,49.4h14.2 c0.7,0,1.2,0.5,1.2,1.2s-0.5,1.2-1.2,1.2H56.4c-0.7,0-1.2-0.5-1.2-1.2S55.7,49.4,56.4,49.4L56.4,49.4z M56.4,57.2h25.3 c0.7,0,1.2,0.6,1.2,1.2c0,0.7-0.5,1.2-1.2,1.2H56.4c-0.7,0-1.2-0.6-1.2-1.2C55.2,57.7,55.7,57.2,56.4,57.2L56.4,57.2z M56.4,64.9 h43.4c0.7,0,1.2,0.5,1.2,1.2s-0.5,1.2-1.2,1.2H56.4c-0.7,0-1.2-0.5-1.2-1.2S55.7,64.9,56.4,64.9L56.4,64.9z M56.4,117.8h14.2 c0.7,0,1.2,0.5,1.2,1.2s-0.5,1.2-1.2,1.2H56.4c-0.7,0-1.2-0.5-1.2-1.2S55.7,117.8,56.4,117.8L56.4,117.8z M56.4,125.6h25.3 c0.7,0,1.2,0.5,1.2,1.2s-0.5,1.2-1.2,1.2H56.4c-0.7,0-1.2-0.5-1.2-1.2S55.7,125.6,56.4,125.6L56.4,125.6z M81.8,165.3H56.4 c-0.7,0-1.2-0.6-1.2-1.2c0-0.7,0.5-1.2,1.2-1.2h25.3c0.7,0,1.2,0.6,1.2,1.2C83,164.7,82.4,165.2,81.8,165.3z M55.2,156.3 c0-0.7,0.5-1.2,1.2-1.2c0,0,0,0,0,0h14.2c0.7,0,1.2,0.5,1.2,1.2s-0.5,1.2-1.2,1.2H56.4C55.7,157.5,55.2,157,55.2,156.3 C55.2,156.3,55.2,156.3,55.2,156.3L55.2,156.3z M90,155.1c0.7,0,1.2,0.5,1.2,1.2s-0.5,1.2-1.2,1.2H79.7c-0.7,0-1.2-0.5-1.2-1.2 s0.5-1.2,1.2-1.2H90z M56.4,135.7c-0.7,0-1.2-0.5-1.2-1.2s0.5-1.2,1.2-1.2h43.4c0.7,0,1.2,0.5,1.2,1.2s-0.5,1.2-1.2,1.2H56.4z"></path> <path fill="#EFEFEF" d="M11.1,11.9c-0.3,0.3-0.7,0.3-1,0l-1.4-1.4c-2.6,3-4.2,6.9-4.3,10.9l2,0.1c0.4,0,0.7,0.3,0.7,0.7 C7,22.7,6.7,23,6.4,23h0l-2-0.1c0.2,4.8,2.2,9.3,5.8,12.5l1.4-1.5c0.3-0.3,0.7-0.3,1,0c0.3,0.3,0.3,0.7,0.1,1l-1.3,1.5 c3,2.3,6.6,3.7,10.4,3.8l0-2.1c0-0.4,0.3-0.7,0.7-0.7s0.7,0.3,0.7,0.7l0,0l0,2c4.5-0.2,8.7-2,11.9-5.2l-1.5-1.4 c-0.3-0.3-0.3-0.7,0-1s0.7-0.3,1,0l1.4,1.4c2.6-3.1,4.2-6.9,4.3-11l-2-0.1c-0.4,0-0.7-0.3-0.7-0.7s0.3-0.7,0.7-0.7l0,0l2,0.1 c-0.2-4.8-2.3-9.2-5.8-12.5L33,10.6c-0.3,0.3-0.7,0.3-1,0.1c-0.3-0.3-0.3-0.7-0.1-1l1.3-1.4c-3-2.3-6.6-3.7-10.4-3.8l0,2 c0,0.4-0.3,0.7-0.7,0.7h0c-0.4,0-0.7-0.3-0.7-0.7c0,0,0,0,0,0l0-1.9c-4.4,0.2-8.7,2-11.8,5.2l1.4,1.4C11.4,11.2,11.4,11.6,11.1,11.9 z M14.7,21.5h4.4c0.3-1.2,1.2-2.1,2.4-2.4v-9c0-0.4,0.3-0.7,0.7-0.7c0.4,0,0.7,0.3,0.7,0.7v9c1.7,0.4,2.8,2.1,2.4,3.8 c-0.4,1.7-2.1,2.8-3.8,2.4c-1.2-0.3-2.2-1.2-2.4-2.4h-4.4c-0.4,0-0.7-0.3-0.7-0.7C14,21.8,14.4,21.5,14.7,21.5L14.7,21.5z"></path> <path fill="#231834" d="M56.7,85.4h14.2c0.7,0,1.2-0.5,1.2-1.2s-0.5-1.2-1.2-1.2H56.7c-0.7,0-1.2,0.5-1.2,1.2S56,85.4,56.7,85.4z"></path> <path fill="#231834" d="M90.3,85.4c0.7,0,1.2-0.5,1.2-1.2s-0.5-1.2-1.2-1.2H79.9c-0.7,0-1.2,0.5-1.2,1.2s0.5,1.2,1.2,1.2H90.3z"></path> <path fill="#231834" d="M112.1,82.9h-11.9c-0.7,0-1.2,0.5-1.2,1.2s0.5,1.2,1.2,1.2l0,0h11.9c0.7,0,1.2-0.5,1.2-1.2 S112.7,82.9,112.1,82.9L112.1,82.9z"></path> <path fill="#231834" d="M56.7,93.1H82c0.7,0,1.2-0.5,1.2-1.2c0-0.7-0.5-1.2-1.2-1.2c0,0,0,0,0,0H56.7c-0.7,0-1.2,0.5-1.2,1.2 S56,93.1,56.7,93.1C56.7,93.1,56.7,93.1,56.7,93.1z"></path> <path fill="#231834" d="M105.3,90.7h-14c-0.7,0-1.2,0.5-1.2,1.2c0,0.7,0.5,1.2,1.2,1.2c0,0,0,0,0,0h14c0.7,0,1.2-0.5,1.2-1.2 C106.5,91.2,106,90.7,105.3,90.7C105.3,90.7,105.3,90.7,105.3,90.7z"></path> <path fill="#231834" d="M56.7,100.9h43.4c0.7,0,1.2-0.5,1.2-1.2s-0.5-1.2-1.2-1.2H56.7c-0.7,0-1.2,0.5-1.2,1.2S56,100.9,56.7,100.9z "></path> <path fill="#F71C85" d="M26.6,91.6h15.2c2.8,0,5.1-2.3,5.1-5.1s-2.3-5.1-5.1-5.1H26.6c-2.8,0-5.1,2.3-5.1,5.1S23.8,91.6,26.6,91.6z"></path> <path fill="#231834" d="M16.7,181.5V44c-0.8-0.2-1.6-0.5-2.4-0.8c0,0.1,0,0.1,0,0.2v139.2c0,0.7,0.5,1.2,1.2,1.2h83v-2.4H16.7z"></path> <path fill="#231834" d="M15.6,42.2c0.2,0.1,0.3,0.1,0.5,0.2C15.9,42.3,15.8,42.3,15.6,42.2z"></path> <path fill="#231834" d="M44.7,22.3c0,0.3,0,0.7,0,1h83v26.8c0.8-1,1.6-2.1,2.4-3.1V22c0-0.7-0.5-1.2-1.2-1.2c0,0,0,0,0,0H44.7 C44.7,21.3,44.7,21.8,44.7,22.3z"></path> <path fill="#00EAFF" d="M22.2,24c1,0,1.8-0.8,1.8-1.8c0-1-0.8-1.8-1.8-1.8c-1,0-1.8,0.8-1.8,1.8l0,0C20.5,23.2,21.3,24,22.2,24z"></path> <path fill="#231834" d="M44.7,20.8C44.1,11.8,38.1,3.9,29.5,1c-0.4-0.1-0.8,0.1-0.9,0.4s0.1,0.8,0.4,0.9C40.1,6.1,46,18,42.2,29.1 c-0.7,1.9-1.6,3.7-2.8,5.4c-0.2,0.3-0.2,0.8,0.2,1c0.3,0.2,0.8,0.2,1-0.2c0,0,0,0,0,0c2.5-3.5,4-7.7,4.1-12c0-0.3,0-0.7,0-1 C44.7,21.8,44.7,21.3,44.7,20.8z"></path> <path fill="#231834" d="M0.7,19.7c0.3,0,0.6-0.3,0.7-0.6C2.8,10,10,2.8,19.2,1.4c0.4-0.1,0.7-0.4,0.6-0.8C19.8,0.2,19.4,0,19,0 C9.2,1.4,1.5,9.1,0,18.9c-0.1,0.4,0.2,0.7,0.6,0.8C0.6,19.7,0.7,19.7,0.7,19.7z"></path> <path fill="#231834" d="M33.7,41.6c0.3-0.2,0.4-0.6,0.2-1c-0.2-0.3-0.6-0.4-1-0.2c0,0,0,0,0,0c-3.3,1.9-7,3-10.8,3 c-2.1,0-4.2-0.3-6.1-0.9c-0.2-0.1-0.3-0.1-0.5-0.2C8.6,39.9,3.3,34,1.7,26.8c-0.1-0.4-0.5-0.6-0.8-0.5c-0.4,0.1-0.6,0.5-0.5,0.8 c2.7,12.1,14.7,19.8,26.8,17.1C29.4,43.7,31.7,42.8,33.7,41.6L33.7,41.6z"></path> <path fill="#231834" d="M2.9,22.3c0,10.7,8.7,19.3,19.3,19.3c10.7,0,19.3-8.7,19.3-19.3c0-10.7-8.7-19.3-19.3-19.3c0,0,0,0,0,0 C11.6,3,2.9,11.6,2.9,22.3z M9.2,9.1l0.5,0.5c3.2-3.1,7.4-5,11.8-5.2l0-0.7c0-0.4,0.3-0.7,0.7-0.7c0.4,0,0.7,0.3,0.7,0.7l0,0.7 c3.8,0.1,7.4,1.5,10.4,3.8l0.5-0.5c0.3-0.3,0.7-0.3,1-0.1c0.3,0.3,0.3,0.7,0.1,1l-0.4,0.5c3.5,3.2,5.6,7.7,5.8,12.5l0.7,0 c0.4,0,0.7,0.3,0.7,0.7c0,0.4-0.3,0.7-0.7,0.7h0l-0.6,0c-0.2,4-1.7,7.9-4.3,11l0.5,0.5c0.3,0.3,0.3,0.7,0,1s-0.7,0.3-1,0L34.9,35 c-3.2,3.2-7.4,5-11.9,5.2l0,0.6c0,0.4-0.3,0.7-0.7,0.7h0c-0.4,0-0.7-0.3-0.7-0.7v0l0-0.6c-3.8-0.1-7.4-1.5-10.4-3.8l-0.4,0.5 c-0.3,0.3-0.7,0.3-1,0c-0.3-0.3-0.3-0.7-0.1-1l0.4-0.5c-3.5-3.2-5.6-7.7-5.8-12.5l-0.7,0c-0.4,0-0.7-0.3-0.7-0.7 c0-0.4,0.3-0.7,0.7-0.7l0.6,0c0.2-4,1.7-7.9,4.3-10.9l-0.5-0.5c-0.3-0.3-0.3-0.7,0-1C8.5,8.8,8.9,8.8,9.2,9.1 C9.2,9.1,9.2,9.1,9.2,9.1z"></path> <path fill="#231834" d="M22.2,20.4c1,0,1.8,0.8,1.8,1.8S23.2,24,22.2,24s-1.8-0.8-1.8-1.8c0,0,0,0,0,0c0,0.4-0.3,0.7-0.7,0.7 c0,0,0,0,0,0h-0.6c0.4,1.7,2.1,2.8,3.8,2.4c1.7-0.4,2.8-2.1,2.4-3.8c-0.3-1.2-1.2-2.2-2.4-2.4v0.6C23,20.1,22.6,20.4,22.2,20.4 C22.2,20.4,22.2,20.4,22.2,20.4z"></path> <path fill="#231834" d="M20.5,22.2c0-1,0.8-1.8,1.8-1.8c-0.4,0-0.7-0.3-0.7-0.7l0,0v-0.6c-1.2,0.3-2.1,1.2-2.4,2.4h0.6 C20.1,21.5,20.5,21.8,20.5,22.2L20.5,22.2z"></path> <path fill="#231834" d="M37.4,22.2c0,0.4,0.3,0.7,0.7,0.7c0,0,0,0,0,0l2,0.1l0.6,0h0c0.4,0,0.7-0.3,0.7-0.7c0-0.4-0.3-0.7-0.7-0.7 l-0.7,0l-2-0.1C37.8,21.5,37.4,21.8,37.4,22.2z"></path> <path fill="#231834" d="M6.4,23c0.4,0,0.7-0.3,0.7-0.7c0-0.4-0.3-0.7-0.7-0.7l-2-0.1l-0.6,0c-0.4,0-0.7,0.3-0.7,0.7 c0,0.4,0.3,0.7,0.7,0.7l0.7,0L6.4,23L6.4,23z"></path> <path fill="#231834" d="M22.1,7L22.1,7c0.4,0,0.7-0.3,0.7-0.7l0-2l0-0.7c0-0.4-0.3-0.7-0.7-0.7c-0.4,0-0.7,0.3-0.7,0.7l0,0.7l0,1.9 C21.4,6.7,21.7,7,22.1,7C22.1,7,22.1,7,22.1,7z"></path> <path fill="#231834" d="M22.4,37.4c-0.4,0-0.7,0.3-0.7,0.7c0,0,0,0,0,0l0,2.1l0,0.6c0,0.4,0.3,0.7,0.7,0.7c0,0,0,0,0,0h0 c0.4,0,0.7-0.3,0.7-0.7l0-0.6l0-2C23.1,37.8,22.8,37.4,22.4,37.4L22.4,37.4z"></path> <path fill="#231834" d="M8.2,10.1l0.5,0.5l1.4,1.4c0.3,0.3,0.7,0.3,1,0s0.3-0.7,0-1L9.7,9.5L9.2,9.1c-0.3-0.3-0.7-0.3-1,0 C7.9,9.4,7.9,9.8,8.2,10.1z"></path> <path fill="#231834" d="M33.4,32.5c-0.3,0.3-0.3,0.7,0,1c0,0,0,0,0,0l1.5,1.4l0.4,0.4c0.3,0.3,0.7,0.3,1,0s0.3-0.7,0-1l-0.5-0.5 l-1.4-1.4C34.1,32.3,33.7,32.3,33.4,32.5z"></path> <path fill="#231834" d="M12.5,33.9c-0.3-0.3-0.7-0.2-1,0.1l-1.4,1.5l-0.4,0.5c-0.3,0.3-0.2,0.7,0.1,1c0.3,0.3,0.7,0.2,1-0.1l0.4-0.5 l1.3-1.5C12.8,34.6,12.8,34.1,12.5,33.9C12.5,33.9,12.5,33.9,12.5,33.9z"></path> <path fill="#231834" d="M32,10.6c0.3,0.3,0.7,0.2,1-0.1l1.3-1.5l0.4-0.5c0.3-0.3,0.2-0.7-0.1-1c-0.3-0.3-0.7-0.2-1,0.1l-0.5,0.5 L32,9.6C31.7,9.9,31.7,10.3,32,10.6z"></path> <path fill="#231834" d="M22.2,20.4c0.4,0,0.7-0.3,0.7-0.7c0,0,0,0,0,0v-9.6c0-0.4-0.3-0.7-0.7-0.7c-0.4,0-0.7,0.3-0.7,0.7v9.6 C21.5,20.1,21.9,20.4,22.2,20.4L22.2,20.4z"></path> <path fill="#231834" d="M14.7,22.9h5c0.4,0,0.7-0.3,0.7-0.7c0-0.4-0.3-0.7-0.7-0.7h-5c-0.4,0-0.7,0.3-0.7,0.7 C14,22.6,14.4,22.9,14.7,22.9z"></path> <path fill="#231834" d="M56.4,51.8h14.2c0.7,0,1.2-0.5,1.2-1.2s-0.5-1.2-1.2-1.2H56.4c-0.7,0-1.2,0.5-1.2,1.2S55.7,51.8,56.4,51.8z"></path> <path fill="#231834" d="M79.7,51.8H90c0.7,0,1.2-0.5,1.2-1.2s-0.5-1.2-1.2-1.2l0,0H79.7c-0.7,0-1.2,0.5-1.2,1.2S79,51.8,79.7,51.8z"></path> <path fill="#231834" d="M99.8,51.8h11.9c0.7,0,1.2-0.5,1.2-1.2s-0.5-1.2-1.2-1.2l0,0H99.8c-0.7,0-1.2,0.5-1.2,1.2 S99.2,51.8,99.8,51.8z"></path> <path fill="#231834" d="M56.4,59.6h25.3c0.7,0,1.2-0.6,1.2-1.2c0-0.7-0.5-1.2-1.2-1.2H56.4c-0.7,0-1.2,0.6-1.2,1.2 C55.2,59.1,55.7,59.6,56.4,59.6z"></path> <path fill="#231834" d="M105,57.2H91c-0.7,0-1.2,0.6-1.2,1.2c0,0.7,0.5,1.2,1.2,1.2h14c0.7,0,1.2-0.6,1.2-1.2 C106.2,57.7,105.7,57.2,105,57.2z"></path> <path fill="#231834" d="M56.4,67.3h43.4c0.7,0,1.2-0.5,1.2-1.2s-0.5-1.2-1.2-1.2H56.4c-0.7,0-1.2,0.5-1.2,1.2S55.7,67.3,56.4,67.3z"></path> <path fill="#5ED45E" d="M26.9,58.4h15.2c2.8,0,5.1-2.3,5.1-5.1s-2.3-5.1-5.1-5.1H26.9c-1.9,0-3.6,1.1-4.5,2.7 c-0.4,0.7-0.6,1.5-0.6,2.3C21.9,56.2,24.1,58.4,26.9,58.4z"></path> <path fill="#231834" d="M56.4,120.2h14.2c0.7,0,1.2-0.5,1.2-1.2s-0.5-1.2-1.2-1.2H56.4c-0.7,0-1.2,0.5-1.2,1.2 S55.7,120.2,56.4,120.2z"></path> <path fill="#231834" d="M79.7,120.2H90c0.7,0,1.2-0.5,1.2-1.2s-0.5-1.2-1.2-1.2l0,0H79.7c-0.7,0-1.2,0.5-1.2,1.2 S79,120.2,79.7,120.2z"></path> <path fill="#231834" d="M56.4,128h25.3c0.7,0,1.2-0.5,1.2-1.2s-0.5-1.2-1.2-1.2H56.4c-0.7,0-1.2,0.5-1.2,1.2S55.7,128,56.4,128z"></path> <path fill="#231834" d="M105,125.6H91c-0.7,0-1.2,0.5-1.2,1.2s0.5,1.2,1.2,1.2h14c0.7,0,1.2-0.5,1.2-1.2S105.7,125.6,105,125.6z"></path> <path fill="#231834" d="M101,134.5c0-0.7-0.5-1.2-1.2-1.2c0,0,0,0,0,0H56.4c-0.7,0-1.2,0.5-1.2,1.2s0.5,1.2,1.2,1.2h43.4 C100.5,135.7,101,135.2,101,134.5z"></path> <path fill="#F71C85" d="M42.1,116.7H26.9c-2.8,0-5.1,2.3-5.1,5.1s2.3,5.1,5.1,5.1l0,0h15.2c2.8,0,5.1-2.3,5.1-5.1 S44.9,116.7,42.1,116.7z"></path> <path fill="#231834" d="M56.4,157.5h14.2c0.7,0,1.2-0.5,1.2-1.2s-0.5-1.2-1.2-1.2H56.4c-0.7,0-1.2,0.5-1.2,1.2 S55.7,157.5,56.4,157.5z"></path> <path fill="#231834" d="M78.4,156.3c0,0.7,0.5,1.2,1.2,1.2c0,0,0,0,0,0H90c0.7,0,1.2-0.5,1.2-1.2s-0.5-1.2-1.2-1.2l0,0H79.7 C79,155.1,78.4,155.6,78.4,156.3C78.4,156.3,78.4,156.3,78.4,156.3z"></path> <path fill="#231834" d="M81.8,162.8H56.4c-0.7,0-1.2,0.6-1.2,1.2c0,0.7,0.5,1.2,1.2,1.2h25.3c0.7,0,1.2-0.6,1.2-1.2 C83,163.4,82.4,162.8,81.8,162.8z"></path> <path fill="#231834" d="M89.7,164c0,0.7,0.5,1.2,1.2,1.2h7.5v-2.4H91C90.3,162.8,89.7,163.4,89.7,164z"></path> <path fill="#231834" d="M55.2,171.8c0,0.7,0.5,1.2,1.2,1.2c0,0,0,0,0,0h42.1v-2.4H56.4C55.7,170.6,55.2,171.1,55.2,171.8 C55.2,171.8,55.2,171.8,55.2,171.8z"></path> <path fill="#F71C85" d="M42.1,154H26.9c-2.8,0-5.1,2.3-5.1,5.1s2.3,5.1,5.1,5.1l0,0h15.2c2.8,0,5.1-2.3,5.1-5.1S44.9,154,42.1,154z"></path> <polygon fill="#FFFFFF" points="134.9,153.3 135.6,153 134.6,153.2 "></polygon> <path fill="#AFAFAF" d="M125.3,130.5l-8.1,3.9l-14.9,7.1l15.7,5.7c0.1-3.5,0.9-6.8,2.4-9.9c0.5-1,1.1-2,1.7-2.9 c1.1-1.5,2.3-2.9,3.6-4.2l0,0C125.6,130.3,125.5,130.4,125.3,130.5z"></path> <path fill="#AFAFAF" d="M128.4,151l2.9,1.1c-0.5-1-0.8-2-1.1-3.1C129.7,149.7,129.1,150.3,128.4,151z"></path> <path fill="#AFAFAF" d="M154.7,146.2l13.4-4.8l-14.7-7.1l-3.6-1.7c0.4,0.6,0.9,1.1,1.3,1.7C153.3,137.9,154.5,142,154.7,146.2z"></path> <path fill="#AFAFAF" d="M141.9,150.8l1.5-0.6c-0.3-0.4-0.6-0.8-0.9-1.2C142.3,149.7,142.1,150.3,141.9,150.8z"></path> <polygon fill="#FFFFFF" points="132.1,156 133.3,155 133.2,154.9 "></polygon> <path fill="#FFFFFF" d="M129.3,89.7c0-0.1,0-0.3,0-0.4C129.3,89.4,129.3,89.5,129.3,89.7L129.3,89.7z"></path> <path fill="#00EAFF" d="M147.1,91c-0.9,1-1.9,2-3,2.8l-0.2,0.1c0.2,0.1,0.5,0.2,0.7,0.3c0.7,0.3,1.5,0.3,2.2,0.1 c0.1,0,0.3-0.1,0.4-0.2c0.3-0.4,0.6-0.8,0.9-1.2C148.2,92.2,147.8,91.4,147.1,91z"></path> <path fill="#231834" d="M147.4,90.5c-0.1,0.1-0.2,0.3-0.3,0.4c0.7,0.4,1.1,1.2,1.1,2c0.2-0.3,0.3-0.5,0.5-0.8 c-0.1-0.3-0.2-0.6-0.4-0.9C148,91.1,147.7,90.8,147.4,90.5z"></path> <path fill="#231834" d="M144.6,94.2c-0.2-0.1-0.5-0.2-0.7-0.3c-0.2,0.1-0.3,0.2-0.4,0.4c0.3,0.2,0.6,0.4,1,0.5 c0.5,0.2,1,0.3,1.6,0.3c0.2,0,0.4,0,0.5,0c0.3-0.2,0.5-0.5,0.8-0.8c-0.1,0.1-0.3,0.1-0.4,0.2C146.1,94.5,145.3,94.5,144.6,94.2z"></path> <path fill="#00EAFF" d="M137.3,92.8c1.8-2,5.8-0.7,6,0.7l0,0c0.1-0.1,0.3-0.2,0.4-0.3l0,0c0,0,0.1-0.1,0.1-0.1l0.1-0.1l0.1,0 l0.1-0.1l0.1,0c0,0,0.1-0.1,0.1-0.1l0,0c0,0,0.1,0,0.1-0.1l0,0l0.1-0.1l0,0l0.1-0.1l0,0c0,0,0.1,0,0.1-0.1l0,0l0.1-0.1l0,0 c0,0,0.1-0.1,0.1-0.1l0,0l0.1-0.1l0,0c0,0,0.1-0.1,0.1-0.1l0,0c0,0,0.1-0.1,0.1-0.1l0,0c0,0,0.1-0.1,0.1-0.1l0,0 c0,0,0.1-0.1,0.1-0.1l0,0c0,0,0.1-0.1,0.1-0.1l0,0c0,0,0.1-0.1,0.1-0.1l0,0c0,0,0.1-0.1,0.1-0.1l0,0c0,0,0.1-0.1,0.1-0.1l0,0 c0,0,0.1-0.1,0.1-0.1l0,0c0,0,0.1-0.1,0.1-0.1l0,0c0,0,0.1-0.1,0.1-0.1l0,0c0,0,0-0.1,0.1-0.1l0,0c0,0,0.1-0.1,0.1-0.1l0,0 c0,0,0-0.1,0.1-0.1l0,0c0,0,0-0.1,0.1-0.1l0,0c0,0,0-0.1,0.1-0.1l0,0c0,0,0-0.1,0-0.1l0,0c-0.5,0.4-1.2,0.6-1.8,0.6 c-0.5,0-1-0.1-1.5-0.4c-0.4-0.2-0.7-0.5-0.9-0.8c-0.1-0.1-0.2-0.3-0.3-0.4l0,0l0,0c0-0.1-0.1-0.2-0.1-0.3c0-0.2,0.1-0.3,0.3-0.3 c0.2,0,0.3,0,0.4,0.2l0,0c0.4,0.6,0.9,1,1.6,1.2c1,0.1,2-0.3,2.7-1c0,0,0,0,0,0c0.1-0.3,0.2-0.5,0.2-0.8c0.1-0.6,0.2-1.1,0.3-1.7 c0-0.7,0-1.4-0.2-2.1c-0.3,0.2-0.6,0.4-0.8,0.5c-0.4,0.3-0.7,0.4-0.7,0.4c-0.2,0.1-0.4,0.3-0.7,0.4c0,0-0.1,0.1-0.1,0.1 c-0.3,0.2-0.7,0.3-1,0.3c-0.5,0-1.1-0.2-1.4-0.7c-0.4-0.5-0.5-1.2-0.3-1.8c0-0.1,0-0.2,0.1-0.2c0.1-0.1,0.1-0.2,0.2-0.3 c0.4-0.3,0.8-0.5,1.2-0.7c0.6-0.3,0.5-0.3,1-0.5c0.1,0,0.2-0.1,0.2-0.1c0.3-0.2,0.3-0.1,0.4-0.2c0.1-0.1,0.3-0.1,0.4-0.2 c0-0.1-0.1-0.1-0.1-0.2c-0.2-0.2-0.4-0.5-0.6-0.7c-0.4-0.4-0.9-0.8-1.5-1.1c0.1,0.2,0.1,0.5,0.1,0.7c-0.1,0.9-0.8,1.5-1.7,1.5 s-1.5-0.8-1.5-1.7c0-0.5,0.4-1,0.8-1.3c-0.1,0-0.2,0-0.4-0.1c-0.2,0-0.4,0-0.5,0c-0.3,0-0.6,0-1,0c0.5,0.4,0.5,1.1,0.1,1.6 c-0.4,0.5-1.1,0.5-1.6,0.1c-0.4-0.4-0.5-0.9-0.2-1.4c-0.4,0.1-0.8,0.2-1.2,0.3c0.3,0.3,0.4,0.7,0.1,1.1c-0.3,0.3-0.7,0.4-1.1,0.1 c-0.2-0.2-0.3-0.4-0.3-0.7c0,0,0-0.1,0-0.1c-0.3,0.1-0.5,0.2-0.8,0.4c0.3,0.2,0.5,0.5,0.3,0.9c-0.2,0.3-0.5,0.5-0.9,0.3 c-0.2-0.1-0.4-0.4-0.4-0.6l0,0c-0.2,0.1-0.5,0.3-0.7,0.5c0.2,0.1,0.4,0.3,0.4,0.5c0,0.3-0.3,0.5-0.6,0.5c0,0,0,0,0,0 c-0.3,0-0.5-0.2-0.5-0.5c-0.2,0.1-0.3,0.3-0.5,0.5c0.2,0.1,0.4,0.3,0.4,0.5c0,0.3-0.3,0.5-0.6,0.5c-0.2,0-0.4-0.2-0.5-0.4 c-0.1,0.1-0.1,0.2-0.2,0.2c0,0,0,0,0,0.1c-0.1,0.1-0.2,0.2-0.3,0.3c0,0,0,0.1-0.1,0.1c-0.1,0.1-0.1,0.2-0.2,0.3c0,0-0.1,0.1-0.1,0.1 c-0.1,0.1-0.1,0.2-0.2,0.3c0,0-0.1,0.1-0.1,0.1c-0.1,0.1-0.1,0.2-0.2,0.3c0,0,0,0.1-0.1,0.1c-0.1,0.1-0.1,0.2-0.2,0.3 c0,0.1-0.1,0.1-0.1,0.2c-0.1,0.1-0.1,0.2-0.2,0.3c0,0,0,0.1-0.1,0.1c-0.1,0.1-0.1,0.2-0.1,0.4c0,0,0,0.1,0,0.1 c0,0.1-0.1,0.3-0.1,0.4c0,0.1,0,0.1,0,0.2c0,0.1-0.1,0.3-0.1,0.4c0,0.1,0,0.1,0,0.2c0,0.1-0.1,0.3-0.1,0.4c0,0.1,0,0.1,0,0.2 c0,0.1,0,0.3-0.1,0.4c0,0.1,0,0.1,0,0.2c0,0.1,0,0.3,0,0.4c0,0.1,0,0.1,0,0.2c0,0.1,0,0.3,0,0.4c0,0.1,0,0.1,0,0.2 c0,0.1,0,0.3,0,0.4c0,0.1,0,0.1,0,0.2v0l0,0c0,0.1,0,0.3,0.1,0.4c0,0,0,0.1,0,0.1c-0.2,0.2-0.4,0.3-0.6,0.5c0,0-0.1,0.1-0.1,0.1 c-0.1,0.1-0.1,0.2-0.2,0.2c0,0,0,0,0,0c0.8,1.8,2.1,3.3,3.6,4.5c0.8-0.6,1.6-1.2,2.2-2c0.1-0.2,0.3-0.2,0.5-0.1 c0.1,0.1,0.2,0.3,0.1,0.4c0,0,0,0,0,0c-0.6,0.8-1.4,1.5-2.2,2c1.3,0.9,2.9,1.4,4.5,1.7C135.9,96.4,135.9,94.2,137.3,92.8z M137.8,85 c0.7-0.1,1.4,0.4,1.6,1.1c0.1,0.1,0.1,0.3,0.1,0.5c0.2,0.7-0.2,1.4-0.8,1.6c-0.9,0-1.7-0.7-1.7-1.7C136.9,85.9,137.2,85.3,137.8,85 L137.8,85z"></path> <path fill="#00EAFF" d="M143.8,96.8L143.8,96.8c-0.2-0.1-0.4-0.3-0.6-0.5C143.4,96.5,143.6,96.7,143.8,96.8z"></path> <path fill="#00EAFF" d="M142.9,78.4c-0.2-0.1-0.3-0.1-0.5-0.1c0,0-0.1,0-0.1,0c-0.1,0-0.2,0-0.3-0.1l0,0c-0.8,0.4-1.1,1.3-0.7,2.1 c0.4,0.8,1.3,1.1,2.1,0.7c0.7-0.4,1.1-1.3,0.7-2c-0.3-0.2-0.7-0.4-1.1-0.5C143,78.4,142.9,78.4,142.9,78.4z"></path> <path opacity="0.57" fill="#A9F7FF" d="M142.9,78.4c-0.2-0.1-0.3-0.1-0.5-0.1c0,0-0.1,0-0.1,0 c-0.1,0-0.2,0-0.3-0.1l0,0c-0.8,0.4-1.1,1.3-0.7,2.1c0.4,0.8,1.3,1.1,2.1,0.7c0.7-0.4,1.1-1.3,0.7-2c-0.3-0.2-0.7-0.4-1.1-0.5 C143,78.4,142.9,78.4,142.9,78.4z"></path> <path fill="#00EAFF" d="M138.2,78.8c0,0.6,0.4,1.1,1,1.2c0.6,0,1.1-0.4,1.2-1c0-0.3-0.1-0.7-0.4-0.9c-0.6,0-1.1,0.1-1.7,0.2 C138.3,78.5,138.2,78.6,138.2,78.8z"></path> <path opacity="0.57" fill="#A9F7FF" d="M138.2,78.8c0,0.6,0.4,1.1,1,1.2c0.6,0,1.1-0.4,1.2-1 c0-0.3-0.1-0.7-0.4-0.9c-0.6,0-1.1,0.1-1.7,0.2C138.3,78.5,138.2,78.6,138.2,78.8z"></path> <path fill="#00EAFF" d="M133.5,81.5c0.3,0,0.5-0.2,0.6-0.5c0,0,0,0,0,0c0-0.2-0.1-0.5-0.4-0.5c-0.2,0.2-0.4,0.3-0.6,0.5 C133,81.3,133.2,81.5,133.5,81.5z"></path> <path opacity="0.57" fill="#A9F7FF" d="M133.5,81.5c0.3,0,0.5-0.2,0.6-0.5c0,0,0,0,0,0 c0-0.2-0.1-0.5-0.4-0.5c-0.2,0.2-0.4,0.3-0.6,0.5C133,81.3,133.2,81.5,133.5,81.5z"></path> <path fill="#00EAFF" d="M136,79.1C136,79.2,136,79.2,136,79.1c0,0.5,0.3,0.9,0.7,0.9c0.4,0,0.8-0.3,0.8-0.7c0-0.3-0.1-0.5-0.3-0.7 l0,0C136.8,78.8,136.4,78.9,136,79.1z"></path> <path opacity="0.57" fill="#A9F7FF" d="M136,79.1C136,79.2,136,79.2,136,79.1c0,0.5,0.3,0.9,0.7,0.9 c0.4,0,0.8-0.3,0.8-0.7c0-0.3-0.1-0.5-0.3-0.7l0,0C136.8,78.8,136.4,78.9,136,79.1z"></path> <path fill="#00EAFF" d="M132,82C132,82,132,82,132,82c-0.1,0.1-0.1,0.1-0.1,0.1c0.1,0.3,0.4,0.4,0.7,0.3c0.2-0.1,0.3-0.2,0.4-0.5 c0-0.3-0.2-0.5-0.4-0.5c-0.1,0.1-0.1,0.1-0.2,0.2C132.2,81.8,132.1,81.9,132,82z"></path> <path opacity="0.57" fill="#A9F7FF" d="M132,82C132,82,132,82,132,82c-0.1,0.1-0.1,0.1-0.1,0.1 c0.1,0.3,0.4,0.4,0.7,0.3c0.2-0.1,0.3-0.2,0.4-0.5c0-0.3-0.2-0.5-0.4-0.5c-0.1,0.1-0.1,0.1-0.2,0.2C132.2,81.8,132.1,81.9,132,82z"></path> <path fill="#00EAFF" d="M134.3,80c0,0.4,0.2,0.7,0.6,0.7c0.4,0,0.7-0.2,0.7-0.6c0-0.3-0.1-0.5-0.4-0.6 C134.9,79.7,134.6,79.9,134.3,80L134.3,80z"></path> <path opacity="0.57" fill="#A9F7FF" d="M134.3,80c0,0.4,0.2,0.7,0.6,0.7c0.4,0,0.7-0.2,0.7-0.6 c0-0.3-0.1-0.5-0.4-0.6C134.9,79.7,134.6,79.9,134.3,80L134.3,80z"></path> <path fill="#231834" d="M144.8,89.6c-0.7-0.2-1.3-0.6-1.6-1.2l0,0c-0.1-0.1-0.2-0.2-0.4-0.2c-0.2,0-0.3,0.2-0.3,0.3 c0,0.1,0,0.2,0.1,0.3l0,0l0,0c0.1,0.2,0.2,0.3,0.3,0.4c0.3,0.3,0.6,0.6,0.9,0.8c0.5,0.3,1,0.4,1.5,0.4c0.6,0,1.3-0.3,1.8-0.6l0,0 c0,0,0-0.1,0-0.1c0-0.1,0-0.1,0.1-0.2c0-0.1,0.1-0.2,0.1-0.4c0.1-0.2,0.1-0.3,0.1-0.5c0,0,0,0,0,0C146.7,89.3,145.8,89.7,144.8,89.6 z"></path> <path fill="#00EAFF" d="M142.4,95.3c-0.2-0.3-0.2-0.6-0.1-0.9c0.3-0.3,0.6-0.6,1-0.8c-0.2-1.4-4.3-2.7-6-0.7 c-1.4,1.4-1.4,3.6-0.1,5.1c2.3,0.3,4.6,0,6.6-1c-0.2-0.1-0.4-0.3-0.6-0.5C142.9,96,142.6,95.7,142.4,95.3z"></path> <path opacity="0.57" fill="#A9F7FF" d="M142.4,95.3c-0.2-0.3-0.2-0.6-0.1-0.9c0.3-0.3,0.6-0.6,1-0.8 c-0.2-1.4-4.3-2.7-6-0.7c-1.4,1.4-1.4,3.6-0.1,5.1c2.3,0.3,4.6,0,6.6-1c-0.2-0.1-0.4-0.3-0.6-0.5C142.9,96,142.6,95.7,142.4,95.3z"></path> <path fill="#231834" d="M128.7,91.1c0,0,0.1-0.1,0.1-0.1c0.2-0.2,0.4-0.4,0.6-0.5c0,0,0-0.1,0-0.1c0-0.1,0-0.3-0.1-0.4l0,0v0 c0-0.1,0-0.1,0-0.2l0,0c0-0.1,0-0.3,0-0.4c0-0.1,0-0.2,0-0.2c0-0.1,0-0.3,0-0.4c0-0.1,0-0.1,0-0.2c0-0.1,0-0.3,0-0.4 c0-0.1,0-0.1,0-0.2c0-0.1,0-0.3,0.1-0.4c0-0.1,0-0.1,0-0.2c0-0.1,0.1-0.3,0.1-0.4c0-0.1,0-0.1,0-0.2c0-0.1,0.1-0.3,0.1-0.4 c0-0.1,0-0.1,0-0.2c0-0.1,0.1-0.3,0.1-0.4c0,0,0-0.1,0-0.1c0-0.1,0.1-0.2,0.1-0.4c0,0,0-0.1,0.1-0.1c0-0.1,0.1-0.2,0.2-0.3 c0-0.1,0.1-0.1,0.1-0.2c0.1-0.1,0.1-0.2,0.2-0.3c0,0,0-0.1,0.1-0.1c0.1-0.1,0.1-0.2,0.2-0.3c0,0,0.1-0.1,0.1-0.1 c0.1-0.1,0.1-0.2,0.2-0.3c0,0,0.1-0.1,0.1-0.1c0.1-0.1,0.1-0.2,0.2-0.3c0,0,0-0.1,0.1-0.1c0.1-0.1,0.2-0.2,0.3-0.3c0,0,0,0,0-0.1 c0.1-0.1,0.1-0.2,0.2-0.2c0,0,0-0.1,0.1-0.1c0,0,0,0,0,0c0.1-0.1,0.2-0.2,0.3-0.3c0.1-0.1,0.1-0.1,0.2-0.2c0.2-0.2,0.3-0.3,0.5-0.5 c0.2-0.2,0.4-0.4,0.6-0.5c0.2-0.2,0.4-0.3,0.7-0.5c0.3-0.2,0.6-0.4,0.9-0.5c0.3-0.1,0.5-0.3,0.8-0.4c0.4-0.2,0.8-0.3,1.2-0.5l0,0 c0.4-0.1,0.8-0.2,1.2-0.3c0.5-0.1,1.1-0.2,1.7-0.2c0.3,0,0.6,0,1,0c0.2,0,0.4,0,0.5,0c0.1,0,0.2,0,0.4,0.1l0,0c0.1,0,0.2,0,0.3,0.1 c0,0,0.1,0,0.1,0c0.2,0,0.3,0.1,0.5,0.1c0,0,0.1,0,0.1,0c0.4,0.1,0.7,0.3,1.1,0.5c0.5,0.3,1,0.7,1.5,1.1c0.2,0.2,0.4,0.5,0.6,0.7 c0.1,0.1,0.1,0.1,0.1,0.2c0.2-0.1,0.4-0.2,0.6-0.3c-0.3-0.4-0.6-0.7-0.9-1.1c-1.4-1.5-3.4-2.3-5.5-2.2c-1.2,0-2.4,0.2-3.5,0.6 c-2,0.6-3.7,1.7-5.2,3.2c-1,1-1.8,2.3-2.3,3.6c-0.7,1.6-1,3.3-0.8,5c0,0.1,0,0.3,0,0.4c-0.2,0.2-0.3,0.3-0.5,0.5 c0.1,0.2,0.2,0.5,0.3,0.7c0,0,0,0,0,0C128.6,91.2,128.7,91.2,128.7,91.1z"></path> <path fill="#231834" d="M134.9,94.2c0.1-0.1,0.1-0.3,0-0.4c0,0,0,0,0,0c-0.2-0.1-0.4-0.1-0.5,0.1c-0.6,0.8-1.4,1.5-2.2,2 c0.2,0.1,0.4,0.3,0.6,0.4C133.5,95.6,134.3,95,134.9,94.2z"></path> <path fill="#231834" d="M143,94.6c0.1-0.1,0.3-0.2,0.5-0.4c0.1-0.1,0.3-0.2,0.4-0.4l0.2-0.1c1.1-0.8,2.1-1.8,3-2.8 c0.1-0.1,0.2-0.3,0.3-0.4c0.1-0.2,0.3-0.4,0.4-0.7c0.9-2,1.1-4.2,0.6-6.3c-0.2,0.1-0.4,0.3-0.6,0.4c0.2,0.7,0.2,1.4,0.2,2.1 c0,0.6-0.1,1.2-0.3,1.7c-0.1,0.3-0.1,0.5-0.2,0.8c0,0.2-0.1,0.3-0.1,0.5c0,0.1-0.1,0.2-0.1,0.4c0,0.1,0,0.1-0.1,0.2c0,0,0,0.1,0,0.1 l0,0l0,0c0,0,0,0.1,0,0.1l0,0c0,0,0,0.1-0.1,0.1l0,0c0,0,0,0.1-0.1,0.1l0,0c0,0,0,0.1-0.1,0.1l0,0c0,0-0.1,0.1-0.1,0.1l0,0 c0,0,0,0.1-0.1,0.1l0,0c0,0-0.1,0.1-0.1,0.1l0,0c0,0-0.1,0.1-0.1,0.1l0,0c0,0-0.1,0.1-0.1,0.1l0,0c0,0-0.1,0.1-0.1,0.1l0,0 c0,0-0.1,0.1-0.1,0.1l0,0c0,0-0.1,0.1-0.1,0.1l0,0c0,0-0.1,0.1-0.1,0.1l0,0c0,0-0.1,0.1-0.1,0.1l0,0c0,0-0.1,0.1-0.1,0.1l0,0 c0,0-0.1,0.1-0.1,0.1l0,0c0,0-0.1,0.1-0.1,0.1l0,0l-0.1,0.1l0,0c0,0-0.1,0.1-0.1,0.1l0,0l-0.1,0.1l0,0c0,0-0.1,0-0.1,0.1l0,0 l-0.1,0.1l0,0l-0.1,0.1l0,0c0,0-0.1,0-0.1,0.1l0,0c0,0-0.1,0.1-0.1,0.1l-0.1,0l-0.1,0.1l-0.1,0l-0.1,0.1c0,0-0.1,0.1-0.1,0.1l0,0 c-0.1,0.1-0.3,0.2-0.4,0.3l0,0c-0.4,0.2-0.7,0.5-1,0.8c-0.1,0.3-0.1,0.7,0.1,0.9c0.2,0.4,0.5,0.8,0.8,1.1c0.2,0.2,0.4,0.3,0.6,0.5 c0.2-0.1,0.5-0.3,0.7-0.4C143.7,96,142.9,95.1,143,94.6z"></path> <path fill="#231834" d="M147.6,80.4l-0.1,0.1c0,0,0,0-0.1,0c-0.1,0-0.2,0.1-0.5,0.2c-0.2,0.1-0.4,0.2-0.6,0.3 c-0.1,0.1-0.2,0.1-0.4,0.2c-0.2,0.1-0.1,0.1-0.4,0.2c-0.1,0-0.1,0.1-0.2,0.1c-0.5,0.2-0.4,0.2-1,0.5c-0.4,0.2-0.8,0.4-1.2,0.7 c-0.1,0.1-0.2,0.2-0.2,0.3c0,0.1-0.1,0.2-0.1,0.2c-0.2,0.6-0.1,1.3,0.3,1.8c0.3,0.5,0.8,0.7,1.4,0.7c0.4,0,0.7-0.1,1-0.3 c0,0,0.1-0.1,0.1-0.1c0.2-0.1,0.4-0.3,0.7-0.4c0,0,0.3-0.2,0.7-0.4c0.2-0.1,0.5-0.3,0.8-0.5c0.2-0.1,0.4-0.2,0.6-0.4 c0.3-0.2,0.7-0.4,1.1-0.7c-0.1-0.2-0.1-0.3-0.2-0.4c-0.3,0.2-0.5,0.3-0.8,0.5c-0.1,0.1-0.1,0-0.1-0.1c-0.1-0.7-0.1-1.3,0.1-2 c-0.1-0.2-0.3-0.5-0.5-0.7L147.6,80.4L147.6,80.4z M144.4,85.1c0,0.1,0,0.1-0.1,0.1c-0.2,0-0.5-0.1-0.6-0.2 c-0.3-0.2-0.4-0.5-0.5-0.9c0-0.2,0-0.4,0-0.6c0-0.3,0.2-0.5,0.4-0.7c0.1,0,0.8-0.4,0.8-0.5c0,0.1,0,0.2-0.1,0.3 c-0.1,0.4-0.2,0.8-0.2,1.2C144.1,84.3,144.2,84.7,144.4,85.1L144.4,85.1z M146,84.4c-0.1,0.1-0.2,0.1-0.4,0.2c0,0-0.1,0-0.1,0.1 c-0.2,0.1-0.3,0.2-0.5,0.3c-0.1,0-0.1,0-0.2-0.1c-0.1-0.1-0.1-0.2-0.1-0.4c0-0.2-0.1-0.4-0.1-0.6c0-0.2,0-1.7,0.7-2 c0,0,0.1,0,0.1-0.1c0.2-0.1,0.4-0.2,0.6-0.3l0,0c0,0,0,0,0,0c0,0,0,0,0,0c-0.2,0.8-0.2,1.6,0,2.4c0,0.1,0,0.1,0,0.2 C146.2,84.3,146.1,84.4,146,84.4L146,84.4z M148,80.8c-0.2,0.8-0.2,1.6-0.1,2.4c0,0.1,0,0.1-0.1,0.1c-0.2,0.1-0.4,0.3-0.7,0.4 c-0.1,0.1-0.3,0.2-0.4,0.3c-0.1,0.1-0.5-2.3,0.1-2.7C147,81.2,147.9,80.8,148,80.8C148.1,80.7,148,80.8,148,80.8L148,80.8z"></path> <path fill="#D3CEC3" d="M144.4,82.4c0,0-0.8,0.4-0.8,0.5c-0.2,0.2-0.4,0.4-0.4,0.7c0,0.2,0,0.4,0,0.6c0.1,0.3,0.2,0.7,0.5,0.9 c0.2,0.1,0.4,0.2,0.6,0.2c0.1,0,0.1,0,0.1-0.1c-0.2-0.4-0.2-0.8-0.2-1.2c0-0.4,0.1-0.8,0.2-1.2C144.4,82.6,144.4,82.5,144.4,82.4z"></path> <path fill="#D3CEC3" d="M146.7,84c0.1-0.1,0.3-0.2,0.4-0.3c0.2-0.1,0.4-0.3,0.7-0.4c0.1,0,0.1-0.1,0.1-0.1c-0.1-0.8-0.1-1.6,0.1-2.4 c0,0,0-0.1,0,0c-0.1,0-1,0.5-1.1,0.5C146.2,81.6,146.7,84,146.7,84z"></path> <path fill="#D3CEC3" d="M148.3,82.9c0,0.1,0,0.1,0.1,0.1c0.3-0.2,0.5-0.3,0.8-0.5c-0.2-0.5-0.5-1-0.8-1.5 C148.3,81.5,148.2,82.2,148.3,82.9z"></path> <path fill="#D3CEC3" d="M146.1,84c-0.1-0.8-0.1-1.6,0-2.4c0,0,0,0,0,0c0,0,0,0,0,0l0,0c-0.2,0.1-0.4,0.2-0.6,0.3 c-0.1,0-0.1,0.1-0.1,0.1c-0.7,0.4-0.7,1.8-0.7,2c0,0.2,0,0.4,0.1,0.6c0,0.1,0.1,0.3,0.1,0.4c0.1,0.1,0.1,0.1,0.2,0.1 c0.2-0.1,0.3-0.2,0.5-0.3c0,0,0.1,0,0.1-0.1c0.1-0.1,0.2-0.1,0.4-0.2c0.1,0,0.2-0.1,0.1-0.2C146.1,84.2,146.1,84.1,146.1,84z"></path> <path fill="#FFFFFF" d="M138.7,88.1c0.6-0.3,1-1,0.8-1.6c0,0.3-0.1,0.6-0.4,0.7c-0.5,0-0.8-0.4-0.8-0.8c0-0.3,0.1-0.6,0.4-0.7 c0.3-0.1,0.6,0.1,0.7,0.4c-0.2-0.7-0.9-1.2-1.6-1.1c-0.8,0.5-1.1,1.5-0.6,2.4C137.5,87.8,138.1,88.2,138.7,88.1L138.7,88.1z"></path> <path fill="#231834" d="M138.7,85.6c-0.4,0.2-0.5,0.7-0.3,1.1c0.2,0.3,0.4,0.4,0.7,0.4c0.3-0.1,0.4-0.4,0.4-0.7c0-0.2,0-0.3-0.1-0.5 C139.3,85.8,139,85.6,138.7,85.6z"></path> <path fill="#EFEFEF" d="M139.2,49.9c-2.4-0.1-4.7-1-6.5-2.6c-19.4,21.9-14.5,46.4-7.9,74.2c5.7,1.8,11.8,2.5,17.8,2.1 c0.6-0.1,1.1,0.4,1.2,0.9c0.1,0.6-0.4,1.1-0.9,1.2c0,0,0,0,0,0c-1.3,0.1-2.5,0.2-3.8,0.2c-4.6-0.1-9.2-0.7-13.6-2 c0,0.2,0.1,0.4,0.1,0.6c0.3,1.2,0.6,2.4,0.9,3.7c7.3,2.7,15.4,2.7,22.7,0c0.4-1.1,0.7-2.3,1.1-3.4c0.1-0.2,0.2-0.5,0.2-0.7 c-1.2,0.4-2.3,0.8-3.5,1c-0.6,0.1-1.1-0.2-1.3-0.8c-0.1-0.6,0.2-1.1,0.8-1.3l0,0c1.5-0.3,3-0.8,4.4-1.4c0.1-0.1,0.3-0.1,0.4-0.1 c7.4-23.6,14.5-49.6-5.6-74.1C143.8,48.9,141.6,49.8,139.2,49.9L139.2,49.9z M152.2,86.7c0,7.4-6,13.4-13.4,13.4 c-7.4,0-13.4-6-13.4-13.4c0-7.4,6-13.4,13.4-13.4C146.2,73.3,152.2,79.3,152.2,86.7z"></path> <path fill="#FCD118" d="M120.1,147.9l6.1,2.2c2-1.7,3.2-3.3,3.6-4.8c0.1-0.6,0.7-0.9,1.3-0.8c0.4,0.1,0.8,0.5,0.8,0.9 c0.3,3.3,1.1,5.6,2.4,7.3c0.1,0.1,0.2,0.3,0.2,0.5l0.1,0l1-0.1l3.2-1.1c0,0,0,0,0-0.1c1.1-1.7,1.8-3.6,2-5.7c0.1-0.6,0.6-1,1.2-1 c0.3,0,0.6,0.2,0.8,0.5c0.8,1.4,1.7,2.6,2.8,3.7l7-2.5c-0.2-6.2-2.2-11.1-6.1-14.9c-0.2-0.2-0.3-0.5-0.3-0.8c-2.6,0.7-5.2,1-7.9,1 c-0.1,0-0.2,0-0.3,0c-3.3,0-6.6-0.5-9.9-1.4C123,135.1,120,141.3,120.1,147.9z M133.5,140.4c0.6-0.1,1.1,0.3,1.2,0.9c0,0,0,0,0,0 c0.1,1.8,0.7,3.6,1.8,5c1.7-1.2,2.9-2.9,3.4-4.9c0.1-0.6,0.7-0.9,1.3-0.8c0.6,0.1,0.9,0.7,0.8,1.3c-0.7,2.8-2.5,5.2-5,6.7 c-0.4,0.3-0.9,0.2-1.3-0.1c-1.7-1.6-2.7-3.8-3.1-7C132.5,141,132.9,140.5,133.5,140.4L133.5,140.4z"></path> <polygon fill="#00EAFF" points="99.8,142.8 90.1,152.6 122.9,164.7 132.1,156 133.2,154.9 "></polygon> <path fill="#00EAFF" d="M100.6,195.7l33.6,16V157l-10.3,9.7c-0.3,0.3-0.7,0.4-1.1,0.2l-22.2-8.2L100.6,195.7z"></path> <path fill="#00EAFF" d="M144.2,45.7c-1.5-1.7-3.1-3.4-4.8-5c-1.9,1.7-3.6,3.3-5.2,5C137.6,48.4,140.9,48.4,144.2,45.7z"></path> <path fill="#00EAFF" d="M153.9,148.8l-16.9,6l9.7,9.7l32.4-12.2l-8.6-9.5l-16.4,5.9C154,148.7,154,148.8,153.9,148.8z"></path> <path fill="#00EAFF" d="M136.7,210.8L136.7,210.8l33-15.2v-37.5l-23,8.6c-0.4,0.1-0.8,0.1-1.1-0.2l-9.3-9.3v39.2L136.7,210.8z M138.6,176.3c0-0.6,0.5-1.1,1.1-1.1c0.6,0,1.1,0.5,1.1,1.1v6c0,0.6-0.5,1.1-1.1,1.1c-0.6,0-1.1-0.5-1.1-1.1c0,0,0,0,0,0V176.3z M138.6,186.6c0-0.6,0.5-1.1,1.1-1.1c0.6,0,1.1,0.5,1.1,1.1c0,0,0,0,0,0v17l12-6.3c0.5-0.3,1.2-0.1,1.4,0.5c0.3,0.5,0.1,1.2-0.4,1.4 l-13.5,7.1c-0.5,0.3-1.2,0.1-1.4-0.4c-0.1-0.2-0.1-0.3-0.1-0.5V186.6z"></path> <path fill="#231834" d="M122.7,58.2c-3.3,6.6-5.2,13.8-5.6,21.2c-0.9,13.3,2,27.2,5.5,41.9c0.3,1.2,0.6,2.4,0.9,3.7 c0.3,1.2,0.6,2.4,0.9,3.6l0.1-0.1c0.5-0.3,1.2,0,1.4,0.5c0.2,0.4,0.1,0.8-0.1,1.1l0,0c0.5-0.4,0.9-0.9,1.4-1.3 c0.5-0.4,1.1-0.3,1.5,0.1c0.4,0.5,0.3,1.1-0.1,1.5l0,0c-0.1,0.1-0.3,0.2-0.4,0.4c3.2,0.9,6.5,1.4,9.9,1.4c0.1,0,0.2,0,0.3,0 c2.7,0,5.3-0.4,7.9-1c0.4-0.3,0.7-0.8,0.8-1.2c0.3-0.5,0.9-0.8,1.4-0.5c0,0,0,0,0,0l1.3,0.6c0.2-0.1,0.4-0.1,0.6-0.2 c0.3-0.1,0.5-0.4,0.6-0.7c0.4-1.3,0.8-2.6,1.2-3.9c0.4-1.3,0.9-2.7,1.3-4.1c3.8-12,7.5-25.3,7.3-38.6c-0.1-13.8-5.2-27.2-14.3-37.6 c0.4,0.4,0.4,1.1-0.1,1.5c-0.3,0.3-0.6,0.5-0.8,0.7c20.1,24.5,13,50.5,5.6,74.1c0.6,0,1.1,0.5,1.1,1.1c0,0.4-0.3,0.8-0.7,1 c-0.4,0.2-0.8,0.3-1.2,0.5c-0.1,0.2-0.2,0.5-0.2,0.7c-0.4,1.2-0.7,2.3-1.1,3.4c-7.3,2.7-15.4,2.7-22.7,0c-0.3-1.2-0.6-2.4-0.9-3.7 c0-0.2-0.1-0.4-0.1-0.6c-0.4-0.1-0.8-0.2-1.2-0.3c-0.6-0.2-0.9-0.8-0.7-1.3c0.2-0.6,0.8-0.9,1.3-0.7l0,0 c-6.6-27.8-11.5-52.3,7.9-74.2c-0.3-0.2-0.5-0.4-0.8-0.7c-0.4-0.4-0.5-1.1-0.1-1.5s1.1-0.5,1.5-0.1c0.3,0.2,0.6,0.5,0.8,0.7 c1.6-1.7,3.3-3.4,5.2-5c1.7,1.7,3.3,3.3,4.8,5c0.3-0.2,0.5-0.4,0.8-0.7c0.4-0.4,1.1-0.4,1.5,0c-2-2.3-4.1-4.5-6.3-6.6 c-0.4-0.4-1-0.4-1.4,0c-3.1,2.6-5.9,5.5-8.6,8.5c-0.9,1-1.7,2-2.4,3.1C125.8,52.6,124.2,55.4,122.7,58.2z"></path> <path fill="#231834" d="M125.4,86.7c0,7.4,6,13.4,13.4,13.4c7.4,0,13.4-6,13.4-13.4c0-7.4-6-13.4-13.4-13.4 C131.4,73.3,125.4,79.3,125.4,86.7z M147.6,79.6c0.2,0.2,0.3,0.4,0.4,0.6c0.2,0.2,0.3,0.5,0.5,0.7c0.3,0.5,0.6,1,0.8,1.5 c0.1,0.1,0.1,0.3,0.2,0.4c0.1,0.2,0.1,0.4,0.2,0.6c0.8,2.7,0.6,5.7-0.7,8.2c-0.1,0.2-0.2,0.3-0.3,0.5c-0.1,0.3-0.3,0.5-0.5,0.8 c-0.3,0.4-0.6,0.8-0.9,1.2c-0.2,0.3-0.5,0.5-0.8,0.8c-0.6,0.6-1.3,1.1-2,1.5c-0.2,0.1-0.5,0.3-0.7,0.4l0,0 c-3.5,1.7-7.7,1.5-11.1-0.6c-0.2-0.1-0.4-0.3-0.6-0.4c-1.6-1.2-2.8-2.7-3.6-4.5c-0.1-0.2-0.2-0.4-0.3-0.7c-0.1-0.2-0.2-0.5-0.2-0.7 c-1.8-6,1.6-12.3,7.6-14C140,74.6,144.7,76.1,147.6,79.6L147.6,79.6z"></path> <path fill="#231834" d="M145,45.1c-0.3,0.2-0.5,0.5-0.8,0.7c-3.3,2.7-6.5,2.7-10.1,0c-0.3-0.2-0.6-0.4-0.8-0.7 c-0.4-0.4-1.1-0.3-1.5,0.1s-0.3,1.1,0.1,1.5l0,0c0.3,0.2,0.5,0.5,0.8,0.7c1.8,1.5,4.1,2.4,6.5,2.6h0.1c2.3-0.1,4.6-1,6.3-2.5 c0.3-0.2,0.6-0.5,0.8-0.7c0.4-0.4,0.5-1.1,0.1-1.5l0,0l0,0C146.1,44.7,145.4,44.7,145,45.1z"></path> <path fill="#231834" d="M146.4,123c-0.6,0.1-0.9,0.7-0.8,1.3c0.1,0.6,0.7,0.9,1.3,0.8c1.2-0.3,2.4-0.6,3.5-1 c0.4-0.1,0.8-0.3,1.2-0.5c0.5-0.2,0.8-0.8,0.6-1.4s-0.8-0.8-1.4-0.6c0,0,0,0,0,0C149.3,122.1,147.9,122.6,146.4,123z"></path> <path fill="#231834" d="M142.8,125.7c0.6-0.1,1-0.6,1-1.2c-0.1-0.6-0.6-1-1.2-1c0,0,0,0,0,0c-6,0.5-12-0.2-17.8-2.1l0,0 c-0.6-0.2-1.2,0.2-1.3,0.7c-0.2,0.6,0.2,1.1,0.7,1.3c0.4,0.1,0.8,0.2,1.2,0.3c4.4,1.3,9,1.9,13.6,2 C140.2,125.9,141.5,125.8,142.8,125.7z"></path> <path fill="#231834" d="M152.6,147l2.1-0.8c-0.1-4.2-1.4-8.3-3.6-11.9c-0.4-0.6-0.8-1.2-1.3-1.7l-2.3-1.1c-0.4-0.2-0.7-0.7-0.6-1.2 c-0.6,0.2-0.9,0.8-0.7,1.3c0.1,0.2,0.1,0.3,0.3,0.4C150.4,135.9,152.4,140.8,152.6,147z"></path> <path fill="#231834" d="M141.7,145.2c-0.5,0.1-0.8,0.5-0.8,0.9c-0.1,2-0.8,4-2,5.7c0,0,0,0,0,0.1l3-1.1c0.2-0.6,0.4-1.1,0.6-1.7 c0.3,0.4,0.6,0.8,0.9,1.2l2.2-0.8c-1.1-1.1-2-2.4-2.8-3.7C142.6,145.3,142.1,145.1,141.7,145.2z"></path> <path fill="#231834" d="M131.8,145.4c-0.1-0.6-0.6-1-1.2-0.9c-0.5,0-0.8,0.4-0.9,0.8c-0.4,1.5-1.6,3.2-3.6,4.8l2.3,0.8 c0.7-0.6,1.3-1.3,1.8-2c0.3,1.1,0.6,2.1,1.1,3.1l3.1,1.1c0-0.2-0.1-0.3-0.2-0.5C133,151.1,132.2,148.7,131.8,145.4z"></path> <path fill="#231834" d="M122.1,134.3c-0.6,0.9-1.2,1.9-1.7,2.9c-1.5,3.1-2.3,6.5-2.4,9.9l2.1,0.8c-0.1-6.6,2.9-12.9,8-17 c0.1-0.1,0.3-0.2,0.4-0.4c0.5-0.4,0.5-1.1,0.1-1.5c-0.4-0.5-1.1-0.5-1.5-0.1c-0.5,0.4-1,0.8-1.4,1.3 C124.4,131.4,123.2,132.8,122.1,134.3z"></path> <path fill="#231834" d="M135.6,148.5c0.4,0.3,0.9,0.4,1.3,0.1c2.5-1.5,4.3-3.9,5-6.7c0.1-0.6-0.2-1.2-0.8-1.3 c-0.6-0.1-1.2,0.2-1.3,0.8c-0.5,2-1.7,3.7-3.4,4.9c-1.1-1.5-1.7-3.2-1.8-5c-0.1-0.6-0.6-1-1.2-0.9c-0.6,0.1-1,0.6-0.9,1.2 c0,0,0,0,0,0C132.9,144.8,133.9,147,135.6,148.5z"></path> <path fill="#231834" d="M98.9,140.8C98.9,140.8,98.9,140.7,98.9,140.8L98.9,140.8L98.9,140.8z"></path> <polygon fill="#231834" points="99,140.7 99,140.7 99,140.7 "></polygon> <path fill="#231834" d="M181.7,152.1l-10.1-11.2c0,0,0,0,0,0c0.4,0.4,0.4,1.1,0,1.5c-0.1,0.1-0.3,0.2-0.4,0.3l-0.7,0.2l8.6,9.5 l-32.4,12.2l-9.7-9.7l-0.7,0.2v2.1l9.3,9.3c0.3,0.3,0.7,0.4,1.1,0.2l23-8.6v-0.3c0-0.6,0.5-1.1,1.1-1.1c0.4,0,0.8,0.2,1,0.6l9.5-3.6 c0.6-0.2,0.8-0.8,0.6-1.4C181.9,152.3,181.8,152.2,181.7,152.1L181.7,152.1z"></path> <path fill="#231834" d="M134.2,153.6l0.7-0.3l-0.3-0.1l-0.1,0l-3.1-1.1l-2.9-1.1l-2.3-0.8l-6.1-2.2l-2.1-0.8l-15.7-5.7l-2.1,1 l-0.3,0.4l33.4,12.1l0.1,0l0.2-0.2C133.4,154.2,133.7,153.7,134.2,153.6z"></path> <path fill="#231834" d="M134.2,213v-1.4l-33.6-16v-37l-2.1-0.8v38.4c0,0.4,0.2,0.8,0.6,1l35,16.6c0.3,0.1,0.5,0.1,0.8,0 C134.5,213.9,134.2,213.5,134.2,213z"></path> <path fill="#231834" d="M170.8,156.8c-0.6,0-1.1,0.5-1.1,1.1c0,0,0,0,0,0v37.7l-33,15.3l-0.1,0l-0.3,0.1v2c0,0.1,0,0.3-0.1,0.4 l35-16.2c0.4-0.2,0.6-0.6,0.6-1v-38.4C171.9,157.2,171.4,156.8,170.8,156.8L170.8,156.8z"></path> <path fill="#231834" d="M98.9,140.7L98.9,140.7C99,140.7,99,140.7,98.9,140.7L98.9,140.7C99,140.7,99,140.7,98.9,140.7z"></path> <path fill="#231834" d="M136.3,211v-56l-1.4,0.5c-0.5,0.2-1.1-0.1-1.4-0.6c0-0.1,0-0.1-0.1-0.2l-0.2,0.2l-1.1,1.1l-9.2,8.7 l-32.8-12.1l9.7-9.7l0.3-0.4l-0.2,0.1c-0.5,0.3-1.2,0-1.4-0.5c-0.2-0.4-0.1-0.9,0.3-1.3c0,0,0,0-0.1,0l-11.4,11.4 c-0.4,0.4-0.4,1.1,0,1.5c0.1,0.1,0.2,0.2,0.4,0.2l10.7,4l2.1,0.8l22.2,8.2c0.4,0.1,0.8,0.1,1.1-0.2l10.3-9.7v56c0,0.4,0.3,0.8,0.7,1 c0.1,0,0.2,0.1,0.4,0.1c0.6,0,1.1-0.5,1.1-1.1L136.3,211z"></path> <path fill="#231834" d="M147,130c-0.2,0.5,0,1.2,0.5,1.4l2.3,1.1l3.6,1.7l14.7,7.1l-13.4,4.8l-2.1,0.8l-7,2.5l-2.2,0.8l-1.5,0.6 l-3,1.1l-3.2,1.1l-0.7,0.3l-0.7,0.3c-0.6,0.2-0.8,0.8-0.7,1.4s0.8,0.8,1.4,0.7c0,0,0,0,0,0l1.4-0.5l0.7-0.2l16.9-6 c0.1,0,0.1,0,0.2-0.1l16.4-5.9l0.7-0.2c0.6-0.2,0.8-0.8,0.6-1.4c-0.1-0.2-0.1-0.3-0.3-0.4c0,0,0,0-0.1,0c-0.1-0.1-0.1-0.1-0.2-0.1 c0,0,0,0,0,0l0,0l0,0l-13-6.3l-8.6-4.2l-1.3-0.6C147.9,129.3,147.2,129.5,147,130C147,130,147,130,147,130z"></path> <path fill="#231834" d="M117.2,134.3l8.1-3.9c0.5-0.3,0.8-0.9,0.5-1.4s-0.9-0.8-1.4-0.5l-0.1,0.1l-12,5.7l-13.2,6.3c0,0,0,0-0.1,0 l0,0c0,0-0.1,0-0.1,0.1c0,0,0,0,0,0c0,0,0,0-0.1,0.1c-0.4,0.4-0.5,1.1-0.1,1.5c0.3,0.4,0.8,0.5,1.3,0.3l0.2-0.1l2.1-1L117.2,134.3z"></path> <path fill="#231834" d="M139.7,183.4c0.6,0,1.1-0.5,1.1-1.1v-6c0-0.6-0.5-1.1-1.1-1.1c-0.6,0-1.1,0.5-1.1,1.1v6 C138.6,182.9,139.1,183.4,139.7,183.4z"></path> <path fill="#231834" d="M139.1,206.3c0.3,0.2,0.7,0.2,1,0l13.5-7.1c0.5-0.3,0.7-0.9,0.4-1.4c-0.3-0.5-0.9-0.7-1.4-0.4l-12,6.3v-17 c0-0.6-0.5-1.1-1.1-1.1c-0.6,0-1.1,0.5-1.1,1.1c0,0,0,0,0,0v18.8C138.6,205.7,138.8,206.1,139.1,206.3z"></path> </svg> 