<?xml version="1.0" encoding="UTF-8"?> <svg xmlns="http://www.w3.org/2000/svg" width="359.2955" height="212.6584" viewBox="0 0 359.2955 212.6584"><defs><style>.a{fill:#00eaff;}.b{fill:#231834;}.c{fill:#fff;}.d{fill:#f71c85;}.e{fill:#a9f7ff;opacity:0.57;}.f{fill:none;}.g{fill:#d3cec3;}.h{fill:#efefef;}.i{fill:#323031;}.j{fill:#fcd118;}.k{fill:#c2935f;}</style></defs><title>customer_adoption</title><ellipse class="a" cx="113.0079" cy="141.5227" rx="19.1508" ry="13.4752" transform="matrix(0.9882, -0.1533, 0.1533, 0.9882, -20.3545, 18.9914)"></ellipse><path class="b" d="M124.1312,153.5006a27.4435,27.4435,0,0,1-8.8138,2.9138,25.27,25.27,0,0,1-14.9377-1.9713c-4.4429-2.1973-7.2387-5.6566-7.8721-9.741s.9831-8.228,4.5516-11.6678a26.7888,26.7888,0,0,1,28.5768-4.4321c4.4429,2.1973,7.2384,5.6568,7.8721,9.7411s-.9831,8.2279-4.5517,11.6678A22.0255,22.0255,0,0,1,124.1312,153.5006Zm-20.7286-21.1538a18.8408,18.8408,0,0,0-4.13,2.9835c-2.8,2.699-4.0832,5.8536-3.6133,8.883s2.6483,5.6473,6.1343,7.3716a23.6226,23.6226,0,0,0,24.95-3.87c2.8-2.6989,4.0833-5.8536,3.6133-8.883-1.0041-6.4734-9.6036-10.5331-19.17-9.05A24.2407,24.2407,0,0,0,103.4026,132.3468Z"></path><rect class="c" x="187.3696" y="127.7376" width="10.4348" height="13.1658" transform="translate(-40.959 110.0717) rotate(-28.9663)"></rect><path class="d" d="M125.7125,143.1889a30.7914,30.7914,0,0,0,42.0206,12.4134l21.4319-11.8635L182.7893,132.22l-21.4321,11.863a17.6078,17.6078,0,0,1-24.1479-7.3178,17.9051,17.9051,0,0,1,7.4367-23.6416L165.752,101.44l-6.3759-11.5192-20.9876,11.6172c-14.87,8.2307-20.5565,26.9149-12.6763,41.65Z"></path><rect class="c" x="163.9566" y="85.4391" width="10.4345" height="13.166" transform="translate(-23.403 93.4406) rotate(-28.966)"></rect><path class="b" d="M133.2644,155.3916a33.1953,33.1953,0,0,0,10.204,5.0264,32.8478,32.8478,0,0,0,25.3972-2.77l22.3695-12.3823c.03-.0136.0623-.0182.0918-.0346a1.1489,1.1489,0,0,0,.1169-.0809l11.0514-6.1174a1.17,1.17,0,0,0,.4568-1.5894l-7.5088-13.5646a1.1714,1.1714,0,0,0-1.5893-.4563l-11.08,6.1333c-.033.0145-.067.0248-.0992.0426s-.0592.0413-.0892.0617l-22.36,12.3771a15.2685,15.2685,0,0,1-20.9378-6.3466,15.55,15.55,0,0,1,6.4916-20.5216l33.3032-18.4343a1.1685,1.1685,0,0,0,.4563-1.5888L172.03,81.5806a1.1689,1.1689,0,0,0-1.5889-.4569l-11.027,6.1039a.8482.8482,0,0,0-.2965.1641L137.256,99.4928c-15.9815,8.8456-22.0852,28.9427-13.6055,44.7988l0,0A32.9253,32.9253,0,0,0,133.2644,155.3916Zm60.699-29.357L200.34,137.553l-9.13,5.0538-6.3756-11.5192ZM170.55,83.736l6.3763,11.5189-9.1294,5.0534-6.376-11.5191Zm-32.1618,17.8024,20.9876-11.6172L165.752,101.44l-21.106,11.6829a17.9051,17.9051,0,0,0-7.4367,23.6416,17.6078,17.6078,0,0,0,24.1479,7.3178l21.4321-11.863,6.3757,11.5191-21.4319,11.8635a30.7914,30.7914,0,0,1-42.0206-12.4134l0,0C117.832,128.4533,123.5187,109.7691,138.3885,101.5384Z"></path><path class="b" d="M201.7708,129.946a1.1688,1.1688,0,0,0,1.2567.0793l8.8344-4.89a1.1691,1.1691,0,0,0-1.1325-2.0456l-8.8344,4.89a1.17,1.17,0,0,0-.1242,1.9663Z"></path><path class="b" d="M199.6721,126.2289a1.1957,1.1957,0,0,0,.1836.1106,1.1693,1.1693,0,0,0,1.561-.5468l3.7959-7.8847a1.1692,1.1692,0,1,0-2.1072-1.0138L199.31,124.779A1.1689,1.1689,0,0,0,199.6721,126.2289Z"></path><path class="b" d="M214.2043,133.5792a1.1683,1.1683,0,0,0-1.0324-1.2918l-8.6973-.9689a1.1693,1.1693,0,0,0-.2588,2.3242l8.6972.9689A1.1692,1.1692,0,0,0,214.2043,133.5792Z"></path><path class="b" d="M187.41,80.96l-8.8344,4.89a1.1691,1.1691,0,1,0,1.1325,2.0457l8.8344-4.89A1.1691,1.1691,0,0,0,187.41,80.96Z"></path><path class="b" d="M176.352,84.0991a1.2037,1.2037,0,0,0,.1836.1106,1.1694,1.1694,0,0,0,1.561-.5468l3.7962-7.8845a1.1692,1.1692,0,1,0-2.1072-1.0138l-3.7962,7.8845A1.169,1.169,0,0,0,176.352,84.0991Z"></path><path class="b" d="M180.3362,91.2954a1.1648,1.1648,0,0,0,.56.2175l8.6976.969a1.1692,1.1692,0,0,0,.2588-2.3241l-8.6975-.9691a1.1693,1.1693,0,0,0-.8184,2.1067Z"></path><path class="a" d="M174.7391,199.8323q-.3867-.2371-.7512-.4956t-.7121-.5336q-.2578-.2041-.506-.4175c-4.1384-3.5551-6.3651-8.974-10.1269-12.9151a18.4811,18.4811,0,0,0-1.4267-1.3491q-.5014-.4246-1.0423-.8114-.2709-.1929-.5526-.3754a47.0458,47.0458,0,0,0-7.3391-3.9084,38.7758,38.7758,0,0,0-7.94-2.409h0c1.7675-.6034,3.5771-1.09,5.3-1.7213q.1847-.0677.3679-.1376.3663-.14.7266-.2908a13.0864,13.0864,0,0,0,4.8487-3.2817c.1139-.1273.23-.25.34-.3854,3.0059-3.6944,4.3728-8.5093,5.578-13.0322,1.3624-5.1378,2.4713-10.6451,2.1327-15.9916-.04-.6518-.1063-1.3095-.2061-1.96-.06-.3906-.132-.7787-.2177-1.1618s-.1854-.7609-.3-1.1309a9.5555,9.5555,0,0,0-1.9634-3.6188,7.1447,7.1447,0,0,0-3.2641-2.061,1.2226,1.2226,0,0,0-.1379-.03,1.158,1.158,0,0,0-.1239-.013c-.0167-.001-.0339-.0039-.05-.0041a1.507,1.507,0,0,0-1.2682.8592,2.0469,2.0469,0,0,0-.1675.3882,17.6619,17.6619,0,0,1-.613,1.6619,18.8821,18.8821,0,0,1-2.6343,4.3663,32.6909,32.6909,0,0,1-6.9059,6.197c-1.8485,1.3011-3.6893,2.583-5.4827,3.9216q-.7684.5738-1.5244,1.163a54.4114,54.4114,0,0,0-5.0719,4.4418,42.41,42.41,0,0,0-7.9221,10.6208c-.0581.1136-.4017,1-.78,1.98-.4956,1.314-1.0426,2.7832-1.108,2.8116h0a15.6019,15.6019,0,0,1-12.8386,1.3246h0c-.1966-.0431-.3932-.086-.5888-.1345-.0765-.0436-.1516-.0908-.2277-.1353-9.3856-3.2973-16.731-13.3988-14.4566-17.9658.39-.7841,2.6388-2.3467,5.8058-4.9071l.0392-.0316c.7506-.6066,1.55-1.2479,2.3856-1.92l.0881-.071q.296-.2379.5975-.4809.2549-.2053.5129-.4136l.2906-.235q.2126-.1719.427-.3459.1512-.1226.3028-.2457.333-.27.6694-.5452c.0678-.0554.1362-.1116.2041-.1672q.2616-.2141.525-.4307.1392-.1145.279-.23.2619-.216.5252-.4346c.0731-.0606.146-.1208.2192-.1818q.3512-.2919.7036-.588.1254-.1052.2508-.2112.2552-.2148.51-.4314.1325-.1122.2647-.2248.3573-.3045.7143-.6117c.0515-.0444.1028-.0893.1543-.1338q.2955-.2553.59-.5127.1277-.1116.2552-.2236.2753-.2417.5489-.4848.1-.0888.2-.1775.3534-.3151.7034-.6325.1112-.1006.2215-.2017.2613-.2382.52-.4773.118-.1089.2356-.2179.3477-.3231.6906-.6473c.039-.037.0774-.0742.1163-.1112q.2943-.28.5839-.5607.1122-.1088.2235-.2177.2625-.2564.52-.5131c.0569-.0566.1145-.1132.171-.17q.3268-.3273.6451-.655c.0605-.0623.12-.1245.18-.1868q.2433-.2525.4812-.5047c.0652-.0691.1306-.1383.1951-.2074q.31-.3315.61-.6625c.0215-.0238.042-.0475.0634-.0712q.2711-.3012.532-.6016c.0594-.0682.1179-.1363.1765-.2045q.2258-.2623.4434-.5241c.0437-.0525.0884-.105.1315-.1574q.27-.3284.5272-.655c.044-.0559.0863-.1115.13-.1673q.2-.2571.39-.5129c.0478-.0642.0959-.1285.1429-.1926.16-.2187.3171-.4369.4669-.654l.02-.03c.1429-.2078.2793-.4146.4118-.6207.04-.0624.0793-.1247.1185-.1869q.1619-.2575.3125-.513c.0284-.0483.0582-.0968.086-.145q.1833-.3173.3477-.631c.0253-.0484.0486-.0963.0733-.1446q.1282-.251.2438-.4993c.0272-.0586.0546-.1173.0809-.1757.093-.2078.1817-.4147.26-.62q.2131-.5538.4168-1.1029.4071-1.098.7757-2.1774c6.7715-19.8265,3.8564-34.979-6.7648-48.194q-1.7052-2.1216-3.672-4.18a37.0291,37.0291,0,0,0-14.8944-9.5189q-.3657-.1257-.7346-.2444-1.4755-.4747-2.9992-.8384-.3807-.091-.7642-.175-.7671-.1682-1.545-.3086-1.1667-.2107-2.3565-.36-1.5861-.1986-3.21-.2879a58.9332,58.9332,0,0,0-22.19,3.3657C55.9623,65.1814,45.5085,70.6211,37.2761,79.48c-9.3809,10.0947-19.2845,26.7012-17.496,46.7622q.0439.4929.0973.9886l0,.0037.0075.0727q.1369,1.2531.3359,2.5237.0664.4236.14.8489c-1.1509.9683-2.2741,2.0029-3.3563,3.095q-.32.3231-.6359.6524-.6309.6586-1.2417,1.34-1.2207,1.362-2.35,2.8009-.2815.3587-.5566.7212a52.78,52.78,0,0,0-3.9308,5.963q-.2136.3792-.4185.7589-.6145,1.1391-1.1461,2.2778-.3538.7583-.6681,1.5124t-.5863,1.501a30.1059,30.1059,0,0,0-.9118,2.9447q-.1822.7239-.3172,1.4326t-.22,1.3985q-.05.4083-.0827.8057-.0653.7949-.0611,1.5457a11.6454,11.6454,0,0,0,1.4394,5.8441q.1575.273.3323.5343a9.5317,9.5317,0,0,0,.7676.9979q.2091.2376.4352.4634c2.3836,2.3783,5.6849,3.4332,9.8262,3.1334,4.28-.31,10.0119-2.362,15.852-5.757q1.16-.6746,2.3228-1.4189c.3361-.215.672-.4329,1.0073-.6567A61.4469,61.4469,0,0,0,49.3454,150.44a2.1254,2.1254,0,0,1,2.9225-.3611,1.765,1.765,0,0,1,.3126,2.5262,69.2963,69.2963,0,0,1-14.22,12.9225,131.7705,131.7705,0,0,0,15.9205,15.1653q3.2406,2.6385,6.844,5.2915c21.8693,16.0785,45.5938,8.5091,56.7208,3.356q.71-.3289,1.351-.6427.32-.1565.622-.3077.1511-.0757.2973-.15c.4878-.2472.937-.4822,1.3452-.7008q.1224-.0657.24-.1293.3528-.1908.66-.3624c.41-.2282.7583-.4285,1.0416-.5941q.1416-.0828.2615-.1538c.3992-.2362.614-.37.6271-.3692.3642.0141,5.95,10.985,10.3109,14.9095a29.65,29.65,0,0,0,13.6374,6.8287q.82.18,1.6764.3385t1.7395.2876q.8834.13,1.7893.2282t1.8261.16q.46.0307.9226.0518.9251.0417,1.8562.0415c5.5809-.0057,11.2108-1.2237,15.2846-4.7051a15.4934,15.4934,0,0,0,1.9-1.9342,1.4558,1.4558,0,0,0,.3255-.6265,1.4038,1.4038,0,0,0-.1626-1.0033A1.8685,1.8685,0,0,0,174.7391,199.8323Z"></path><circle class="e" cx="97.6999" cy="67.0943" r="9.1678"></circle><circle class="e" cx="78.2923" cy="63.1575" r="6.4247"></circle><circle class="e" cx="44.1774" cy="75.5503" r="3.0226"></circle><circle class="e" cx="63.3062" cy="65.3176" r="4.5254"></circle><circle class="e" cx="37.7608" cy="81.2363" r="3.0226"></circle><circle class="e" cx="52.6312" cy="70.198" r="3.7852"></circle><path class="b" d="M112.957,130.2115a16.234,16.234,0,0,1-8.7927-2.127,20.57,20.57,0,0,1-5.4573-4.565,14.4859,14.4859,0,0,1-1.81-2.5115l-.0177-.0295.002-.0014a2.0794,2.0794,0,0,1-.304-1.4873,2.155,2.155,0,0,1,1.7188-1.77,2.2059,2.2059,0,0,1,2.2741,1.0348c.0323.0535.0617.1076.089.1626.4124.6786,3.6815,5.7619,9.4345,6.8072,4.5977.8354,10.1319-1.1239,15.5957-5.786a1.6752,1.6752,0,0,1,2.6072.26,2.1548,2.1548,0,0,1-.24,3.0378C122.2548,128.1857,117.1822,130.02,112.957,130.2115Z"></path><path class="f" d="M111.0556,171.5321c-.2739-.0835-.5457-.1747-.8164-.27.0761.0445.1511.0917.2276.1353C110.6624,171.4461,110.859,171.489,111.0556,171.5321Z"></path><path class="f" d="M174.7391,199.8322a14.9277,14.9277,0,0,1-1.4633-1.0291c-5.5-4.3529-7.6419-11.9784-13.6545-15.8685a42.7182,42.7182,0,0,0-15.2788-6.3175c4.04-1.3793,8.3-2.1476,11.2433-5.4314.1139-.1273.23-.25.34-.3854,3.0059-3.6944,4.3728-8.5093,5.578-13.0322,1.3624-5.1378,2.4713-10.6451,2.1327-15.9916-.2562-4.1714-1.5842-8.5848-5.9515-9.933a1.5335,1.5335,0,0,0-1.748,1.2,18.42,18.42,0,0,1-3.2473,6.0282,32.6909,32.6909,0,0,1-6.9059,6.197,88.0254,88.0254,0,0,0-12.079,9.5264,42.41,42.41,0,0,0-7.9221,10.6208c-.1358.266-1.8345,4.7594-1.8883,4.7912h0c.0573-.0249.9824,1.8119-.2888,2.5807-9.1781,5.5506-25.3907,10.7337-36.8854,10.1619-7.6-.3781-14.8218-2.5963-20.2739-7.9035-8.1022-7.8871-8.6063-20.9951-.1793-30.6291,10.2595-11.729,33.9354-4.3011,35.3214,3.972,7.3347-5.9294,19.4944-15.2793,22.3145-22.6047C133,102.1563,128.8846,85.0339,114.6585,70.13,102.879,57.79,84.7552,55.3426,65.965,61.7633,55.9623,65.1814,45.5085,70.6211,37.2761,79.48c-9.3706,10.0835-19.2632,26.6643-17.5026,46.6956l.0066.0666q.0439.4929.0973.9886l.0079.0764q.1825,1.6708.476,3.3726c-1.1509.9683-2.2741,2.0029-3.3563,3.095-6.8322,6.8937-12.08,15.9457-12.9822,23.3036-.5339,4.3551.4183,7.7836,2.8307,10.1911,2.3836,2.3783,5.6849,3.4332,9.8262,3.1334,4.28-.31,10.0119-2.362,15.852-5.757,1.1092-.6449,2.2223-1.3364,3.33-2.0756A61.4469,61.4469,0,0,0,49.3454,150.44a2.1254,2.1254,0,0,1,2.9225-.3611,1.765,1.765,0,0,1,.3126,2.5262,69.2963,69.2963,0,0,1-14.22,12.9225,141.8961,141.8961,0,0,0,22.7645,20.4569c29.78,21.8941,62.9988-.0606,63.1667-.054.3642.0141,5.95,10.985,10.3109,14.9095a29.65,29.65,0,0,0,13.6374,6.8287c8.7491,1.9257,20.7536,2.0507,26.9945-5.5317A1.5,1.5,0,0,0,174.7391,199.8322Z"></path><path class="e" d="M66.2669,144.4174c-8.427,9.634-7.9229,22.742.1793,30.6291,5.4521,5.3072,12.674,7.5254,20.2739,7.9035,11.4947.5718,27.7073-4.6113,36.8854-10.1619,1.2712-.7688.3461-2.6056.2888-2.5807h0a15.6019,15.6019,0,0,1-12.8386,1.3246c-.1966-.0431-.3932-.086-.5888-.1345-.0765-.0436-.1515-.0908-.2276-.1353-9.3856-3.2972-16.7311-13.3988-14.4567-17.9658.39-.7841,2.6388-2.3467,5.8058-4.9071h0C100.2023,140.1163,76.5264,132.6884,66.2669,144.4174Z"></path><path class="f" d="M121.4806,130.0048c-.047.0641-.0951.1284-.1429.1926C121.3855,130.1332,121.4336,130.0689,121.4806,130.0048Z"></path><path class="f" d="M121.9678,129.32l-.02.03Z"></path><path class="f" d="M120.2906,131.5326c-.0431.0524-.0878.1049-.1315.1574C120.2028,131.6375,120.2475,131.585,120.2906,131.5326Z"></path><path class="f" d="M120.9474,130.71c-.0433.0558-.0856.1114-.13.1673C120.8618,130.8217,120.9041,130.7661,120.9474,130.71Z"></path><path class="f" d="M114.527,137.5276q-.1173.109-.2356.2179Q114.4095,137.6365,114.527,137.5276Z"></path><path class="f" d="M122.4981,128.5128c-.0392.0622-.0784.1245-.1185.1869C122.42,128.6373,122.4588,128.575,122.4981,128.5128Z"></path><path class="f" d="M122.8966,127.8548c-.0278.0482-.0576.0967-.086.145C122.839,127.9515,122.8688,127.903,122.8966,127.8548Z"></path><path class="f" d="M123.3176,127.0792c-.0247.0483-.048.0962-.0733.1446C123.27,127.1754,123.2929,127.1275,123.3176,127.0792Z"></path><path class="f" d="M116.1413,135.9907q-.1115.1089-.2235.2177Q116.03,136.0995,116.1413,135.9907Z"></path><path class="f" d="M115.3339,136.7691c-.0389.037-.0773.0742-.1163.1112C115.2566,136.8433,115.295,136.8061,115.3339,136.7691Z"></path><path class="f" d="M116.8327,135.3078c-.0565.0566-.1141.1132-.171.17C116.7186,135.421,116.7762,135.3644,116.8327,135.3078Z"></path><path class="f" d="M117.6579,134.466c-.06.0623-.12.1245-.18.1868C117.5383,134.5905,117.5978,134.5283,117.6579,134.466Z"></path><path class="f" d="M119.0072,133.02c-.0214.0237-.0419.0474-.0634.0712C118.9653,133.0676,118.9858,133.044,119.0072,133.02Z"></path><path class="f" d="M119.7157,132.2141c-.0586.0682-.1171.1363-.1765.2045C119.5986,132.35,119.6571,132.2823,119.7157,132.2141Z"></path><path class="f" d="M118.3342,133.7539c-.0645.0691-.13.1383-.1951.2074C118.2043,133.8921,118.27,133.823,118.3342,133.7539Z"></path><path class="f" d="M123.6423,126.4042c-.0263.0584-.0537.1171-.0809.1757C123.5886,126.5213,123.616,126.4626,123.6423,126.4042Z"></path><path class="f" d="M125.0953,122.5044q-.3687,1.0794-.7757,2.1774Q124.7267,123.5838,125.0953,122.5044Z"></path><path class="f" d="M122.3616,187.0472q-.3072.1712-.66.3624Q122.0541,187.2188,122.3616,187.0472Z"></path><path class="f" d="M123.6647,186.2993q-.12.071-.2615.1538Q123.5448,186.37,123.6647,186.2993Z"></path><path class="f" d="M152.2822,179.0262a38.7833,38.7833,0,0,0-7.94-2.4091h0A38.7758,38.7758,0,0,1,152.2822,179.0262Z"></path><path class="f" d="M160.4212,133.3777a7.21,7.21,0,0,0-2.7363-1.5342,1.2073,1.2073,0,0,0-.138-.03,1.2226,1.2226,0,0,1,.1379.03A7.21,7.21,0,0,1,160.4212,133.3777Z"></path><path class="f" d="M172.77,198.3856c-4.1383-3.5551-6.3651-8.974-10.1269-12.9151C166.4047,189.4116,168.6314,194.8305,172.77,198.3856Z"></path><path class="f" d="M157.3726,131.7964c.0165,0,.0337.0031.05.0041C157.4063,131.8,157.3891,131.7966,157.3726,131.7964Z"></path><path class="f" d="M160.1739,183.31q.5417.3859,1.0423.8114Q160.7148,183.6968,160.1739,183.31Z"></path><path class="f" d="M111.0556,171.5321c-.2739-.0835-.5457-.1747-.8164-.27h0c.0761.0445.1512.0917.2277.1353C110.6624,171.4461,110.859,171.489,111.0556,171.5321Z"></path><path class="f" d="M61.1251,185.984q-3.6078-2.6525-6.844-5.2915,3.2406,2.6385,6.844,5.2916c21.8693,16.0784,45.5938,8.509,56.7208,3.3559C106.7189,194.4931,82.9944,202.0625,61.1251,185.984Z"></path><path class="f" d="M155.3239,134.7057a17.6619,17.6619,0,0,0,.613-1.6619A17.6619,17.6619,0,0,1,155.3239,134.7057Z"></path><path class="f" d="M125.0953,122.5044c6.7716-19.8265,3.8565-34.9791-6.7648-48.194C128.9517,87.5254,131.8668,102.6779,125.0953,122.5044Z"></path><path class="f" d="M16.68,170.4028c4.28-.31,10.0119-2.362,15.852-5.757q1.16-.6746,2.3228-1.4189-1.1612.7431-2.3228,1.4189C26.6916,168.0408,20.96,170.0927,16.68,170.4028Z"></path><path class="f" d="M37.2761,79.48c-9.3706,10.0835-19.2632,26.6643-17.5026,46.6956l.0066.0666C17.9916,106.1811,27.8952,89.5746,37.2761,79.48Z"></path><path class="f" d="M111.2519,140.4556c-.0515.0445-.1028.0894-.1543.1338C111.1491,140.545,111.2,140.5,111.2519,140.4556Z"></path><path class="f" d="M109.6083,141.8573q-.1254.1057-.2508.2112Q109.4829,141.9634,109.6083,141.8573Z"></path><path class="f" d="M108.6539,142.6565c-.0732.061-.1461.1212-.2192.1818C108.5079,142.7776,108.5807,142.7175,108.6539,142.6565Z"></path><path class="f" d="M110.3833,141.2011q-.1323.1126-.2647.2248Q110.2511,141.3136,110.3833,141.2011Z"></path><path class="f" d="M152.69,139.072a18.8821,18.8821,0,0,0,2.6343-4.3663A18.8856,18.8856,0,0,1,152.69,139.072Z"></path><path class="f" d="M112.0971,139.7193q-.1275.1121-.2552.2236Q111.97,139.8313,112.0971,139.7193Z"></path><path class="f" d="M107.91,143.2729q-.14.1152-.279.23Q107.77,143.3881,107.91,143.2729Z"></path><path class="f" d="M112.8461,139.057q-.1.089-.2.1775C112.7127,139.1753,112.78,139.1164,112.8461,139.057Z"></path><path class="f" d="M113.771,138.2228q-.1107.1008-.2215.2017Q113.6607,138.3239,113.771,138.2228Z"></path><path class="f" d="M123.8943,170.2074c.0654-.0284.6124-1.4976,1.108-2.8116C124.4951,168.7085,123.9251,170.1892,123.8943,170.2074Z"></path><path class="f" d="M107.1055,143.9334c-.0679.0556-.1363.1118-.2041.1672C106.9692,144.0452,107.0375,143.989,107.1055,143.9334Z"></path><path class="f" d="M104.6987,145.886q-.3014.2429-.5975.4809Q104.3978,146.1286,104.6987,145.886Z"></path><path class="f" d="M104.0131,146.4379c-.8357.672-1.635,1.3133-2.3856,1.92C102.3773,147.7518,103.1784,147.1091,104.0131,146.4379Z"></path><path class="f" d="M106.232,144.6458q-.1519.1236-.3028.2457C106.03,144.81,106.1306,144.7283,106.232,144.6458Z"></path><path class="f" d="M105.5022,145.2374l-.2906.235Z"></path><path class="b" d="M179.411,200.4031a5.5869,5.5869,0,0,0-2.6425-3.88,11.0927,11.0927,0,0,1-1.0834-.7638,28.3956,28.3956,0,0,1-5.4105-6.6159c-2.1838-3.26-4.6593-6.9541-8.54-9.4654a51.969,51.969,0,0,0-6.12-3.4209,15.2027,15.2027,0,0,0,2.8647-2.4819l.0712-.0787c.1321-.1459.2627-.2926.3869-.4456,3.6558-4.4931,5.1948-10.267,6.3193-14.4873,1.2575-4.742,2.65-10.9863,2.2553-17.2251-.5553-9.0352-5.0279-12.2762-8.6819-13.404-.0254-.0079-.0507-.0155-.0761-.0228a5.0773,5.0773,0,0,0-1.3975-.1971,5.4479,5.4479,0,0,0-5.1241,3.97,14.5261,14.5261,0,0,1-2.5787,4.7686,28.7179,28.7179,0,0,1-6.1043,5.4414l-.7305.5139a86.2477,86.2477,0,0,0-11.86,9.4433,46.1575,46.1575,0,0,0-8.6335,11.5993c-.2126.4162-1.2972,3.2827-1.3975,3.5478a20.7605,20.7605,0,0,1-5.4563.9409c-5.4614.3655-16.4335-8.3835-15.8917-12.9165.9825-1.0309,3.8578-3.3416,6.2128-5.234,7.9151-6.3607,18.755-15.0719,21.7339-22.8094,9.207-23.9153,6.0106-42.8947-10.0593-59.73-8.1233-8.51-19.1925-13.008-32.01-13.008A64.2864,64.2864,0,0,0,64.71,58.09C52.21,62.3608,42.0232,68.6684,34.4324,76.837a74.3625,74.3625,0,0,0-13.7068,20.86,59.1086,59.1086,0,0,0-4.7881,29.1826q.1074,1.1384.2608,2.2731C7.7945,136.8249,1.269,147.64.1694,156.6059c-.6775,5.5242.6854,10.1619,3.9415,13.4113a15.218,15.218,0,0,0,11.1949,4.3189q.81,0,1.6542-.0612c6.5665-.4757,13.1573-3.6053,18.1-6.6095A145.5873,145.5873,0,0,0,58.8257,189.112a52.6689,52.6689,0,0,0,31.8237,10.47c13.952,0,25.8372-5.0264,32.3037-8.4441,2.7983,4.7365,5.9827,9.8256,9.0537,12.5891a33.3853,33.3853,0,0,0,15.3985,7.7332,50.23,50.23,0,0,0,10.6052,1.1986h.0006c8.8775,0,15.8626-2.7767,20.2007-8.03A5.2755,5.2755,0,0,0,179.411,200.4031ZM175.56,201.51a1.4558,1.4558,0,0,1-.3255.6265,15.4934,15.4934,0,0,1-1.9,1.9342c-4.0738,3.4814-9.7037,4.6994-15.2846,4.7051q-.93.0009-1.8562-.0415-.4624-.021-.9226-.0518-.92-.0615-1.8261-.16t-1.7893-.2282q-.8834-.13-1.7395-.2876t-1.6764-.3385a29.65,29.65,0,0,1-13.6374-6.8287c-4.3614-3.9245-9.9467-14.8954-10.3109-14.9095-.0131-.0005-.2279.133-.6271.3692q-.12.071-.2615.1538c-.2833.1656-.6318.3659-1.0416.5941q-.3072.1712-.66.3624-.1175.0636-.24.1293c-.4082.2186-.8574.4536-1.3452.7008q-.1463.0742-.2973.15-.302.1512-.622.3077-.64.3127-1.351.6427c-11.127,5.1531-34.8515,12.7225-56.7208-3.3559q-3.6078-2.6526-6.844-5.2916a131.7705,131.7705,0,0,1-15.9205-15.1653,69.2963,69.2963,0,0,0,14.22-12.9225,1.765,1.765,0,0,0-.3126-2.5262,2.1254,2.1254,0,0,0-2.9225.3611A61.4469,61.4469,0,0,1,35.8618,162.57c-.3353.2238-.6712.4417-1.0073.6567q-1.1612.7431-2.3228,1.4189c-5.84,3.395-11.5722,5.4469-15.852,5.757-4.1413.3-7.4426-.7551-9.8262-3.1334q-.2262-.2257-.4352-.4634a9.5317,9.5317,0,0,1-.7676-.9979q-.1747-.2613-.3323-.5343A11.6454,11.6454,0,0,1,3.879,159.43q-.0042-.7507.0611-1.5457.0327-.3973.0827-.8057.0846-.69.22-1.3985t.3172-1.4326a30.1059,30.1059,0,0,1,.9118-2.9447q.2721-.7467.5863-1.501t.6681-1.5124q.53-1.1371,1.1461-2.2778.2048-.38.4185-.7589a52.78,52.78,0,0,1,3.9308-5.963q.2751-.3624.5566-.7212,1.1264-1.435,2.35-2.8009.6105-.6812,1.2417-1.34.3156-.3292.6359-.6524c1.0822-1.0921,2.2054-2.1267,3.3563-3.095q-.0737-.4254-.14-.8489-.1995-1.27-.3359-2.5237l-.0075-.0727,0-.0037q-.0534-.4958-.0973-.9886l-.0066-.0666c-1.7606-20.0313,8.132-36.6121,17.5026-46.6956,8.2324-8.8588,18.6862-14.2985,28.6889-17.7166a58.9332,58.9332,0,0,1,22.19-3.3657q1.623.0894,3.21.2879,1.19.1489,2.3565.36.7779.1406,1.545.3086.3836.084.7642.175,1.5229.3636,2.9992.8384.3689.1186.7346.2444A37.0291,37.0291,0,0,1,114.6585,70.13q1.9663,2.06,3.672,4.18c10.6213,13.2149,13.5364,28.3675,6.7648,48.194q-.3687,1.0794-.7757,2.1774-.2035.5492-.4168,1.1029c-.0788.2048-.1675.4117-.26.62-.0263.0584-.0537.1171-.0809.1757q-.1155.2484-.2438.4993c-.0247.0483-.048.0962-.0733.1446q-.1644.3137-.3477.631c-.0278.0482-.0576.0967-.086.145q-.1506.2554-.3125.513c-.0393.0622-.0784.1245-.1185.1869-.1325.2061-.2689.4129-.4118.6207l-.02.03c-.15.2171-.3067.4353-.4669.654-.047.0641-.0951.1284-.1429.1926q-.1906.2558-.39.5129c-.0433.0558-.0856.1114-.13.1673q-.2568.3266-.5272.655c-.0431.0524-.0878.1049-.1315.1574q-.2176.2618-.4434.5241c-.0586.0682-.1171.1363-.1765.2045q-.2614.3-.532.6016c-.0214.0238-.0419.0474-.0634.0712q-.2989.3309-.61.6625c-.0645.0691-.13.1382-.1951.2074q-.2379.2523-.4812.5047c-.06.0623-.12.1245-.18.1868q-.3184.3276-.6451.655c-.0565.0566-.1141.1132-.171.17q-.258.2568-.52.5131-.1115.1089-.2235.2177-.29.2806-.5839.5607c-.0389.037-.0773.0742-.1163.1112q-.3423.3243-.6906.6473-.1173.109-.2356.2179-.2589.2391-.52.4773-.1107.1008-.2215.2017-.35.3173-.7034.6325c-.0665.0594-.1334.1183-.2.1775q-.2738.2432-.5489.4848-.1275.1121-.2552.2236-.2944.2572-.59.5127c-.0515.0445-.1028.0894-.1543.1338q-.3568.3075-.7143.6117-.1325.1128-.2647.2248-.2552.2166-.51.4314-.1254.1057-.2508.2112-.3523.2958-.7036.588c-.0732.061-.146.1211-.2192.1818q-.2632.2184-.5252.4346-.14.1153-.279.23-.2634.2167-.525.4307c-.068.0556-.1363.1118-.2041.1672q-.3367.2751-.6694.5452c-.1014.0825-.2019.164-.3028.2457q-.2145.1738-.427.3459l-.2906.235q-.2585.2085-.5129.4136-.3018.2433-.5975.4809l-.0881.071c-.8347.6712-1.6358,1.3139-2.3856,1.92l-.0392.0316c-3.167,2.56-5.4154,4.123-5.8058,4.9071-2.2744,4.567,5.071,14.6685,14.4566,17.9658h0c.2707.0951.5425.1863.8164.27h0a15.6019,15.6019,0,0,0,12.8386-1.3246h0c.0308-.0182.6008-1.4989,1.108-2.8116.3786-.98.7222-1.866.78-1.98a42.41,42.41,0,0,1,7.9221-10.6208,54.4114,54.4114,0,0,1,5.0719-4.4418q.7554-.59,1.5244-1.163c1.7934-1.3386,3.6342-2.62,5.4827-3.9216a32.6909,32.6909,0,0,0,6.9059-6.197,18.8856,18.8856,0,0,0,2.6343-4.3663,17.6619,17.6619,0,0,0,.613-1.6619,2.0469,2.0469,0,0,1,.1675-.3882,1.507,1.507,0,0,1,1.2682-.8592c.0165,0,.0337.0031.05.0041a1.158,1.158,0,0,1,.1239.013,1.2073,1.2073,0,0,1,.138.03,7.1449,7.1449,0,0,1,3.264,2.061,9.5555,9.5555,0,0,1,1.9634,3.6188c.1149.37.2144.7479.3,1.1309s.1578.7712.2177,1.1618c.1.651.1661,1.3087.2061,1.96.3386,5.3465-.77,10.8538-2.1327,15.9916-1.2052,4.5229-2.5721,9.3378-5.578,13.0322-.11.1349-.226.2581-.34.3854a13.0864,13.0864,0,0,1-4.8487,3.2817q-.36.1512-.7266.2908-.1833.07-.3679.1376c-1.723.6313-3.5326,1.1179-5.3,1.7213h0a38.7833,38.7833,0,0,1,7.94,2.4091,47.0458,47.0458,0,0,1,7.3391,3.9084q.2819.1823.5526.3754.5417.3859,1.0423.8114a18.4811,18.4811,0,0,1,1.4267,1.3491c3.7618,3.9411,5.9886,9.36,10.1269,12.9151q.2483.2133.506.4175.3475.275.7121.5336t.7512.4955a1.868,1.868,0,0,1,.6584.6746A1.4038,1.4038,0,0,1,175.56,201.51Z"></path><path class="b" d="M172.8354,58.5938c-.2337-1.5362-1.1914-2.0528-2.781-2.141a7.0557,7.0557,0,0,0-.78-.0093A26.1868,26.1868,0,0,0,163.6,57.53c-4.9261,1.3944-9.7327,3.1184-14.4925,4.9707-2.7541,1.0718-5.4927,2.186-8.2292,3.3057-4.8223,1.9731-9.5866,4.0821-14.3634,6.1618h0l-.5983.3114c-.1192.0456-.2413.0852-.3574.1378-.93.4212-4.4412,2.0748-8.5874,4.0687-1.0823.5205-.7868.3718-2.5858,1.2466-.365.1776-.8092.3938-1.3766.67-2.9857,1.4543-2.4,1.192-5.9487,2.9333-1.712.84-6.4707,3.1361-7.2775,3.9734a6.9614,6.9614,0,0,0-1.1852,1.7733A7.6452,7.6452,0,0,0,98.1,88.4261a11.9793,11.9793,0,0,0,1.7482,10.4587,8.9251,8.9251,0,0,0,8.1076,3.9143,13.8947,13.8947,0,0,0,5.925-1.8c.2795-.148.5533-.3061.828-.4626,1.3154-.7492,2.59-1.5712,3.9245-2.2871.0141.0185,1.5891-.943,4.1471-2.5359,5.223-3.2526,14.5536-9.1442,23.1325-14.7467,1.1594-.7572,2.3044-1.5088,3.4244-2.2481,4.6794-3.0893,8.9091-5.96,11.81-8.0823a77.0953,77.0953,0,0,0,8.6123-7.063c1.2987-1.2743,2.7731-2.5431,3.0565-4.4222A2.4908,2.4908,0,0,0,172.8354,58.5938ZM107.8475,99.2071c.2472.5111.1835.6111-.3981.6084a6.0218,6.0218,0,0,1-3.7389-1.2343,8.1128,8.1128,0,0,1-2.9271-5.0974,8.8947,8.8947,0,0,1-.0085-3.3132,5.5768,5.5768,0,0,1,2.3924-3.85c.3713-.2354,4.6149-2.4828,4.8959-2.6411a9.4375,9.4375,0,0,1-.3273,1.5693c.0357.0937-1.1935,5.102-1.1966,7.1885A15.1691,15.1691,0,0,0,107.8475,99.2071ZM118.1145,79.1a.5707.5707,0,0,1-.0445.1409c-1.1215,2.3247-.8113,10.3689-.1225,13.9777a9.8307,9.8307,0,0,0,.26,1.0872c.2045.3909-.39.9-.7518,1.1035-.8743.4929-1.2174.7221-2.0844,1.2275-.2383.1389-.4752.28-.7123.4215a32.2181,32.2181,0,0,1-2.8371,1.5677c-.5449.2543-.6917.2135-.9966-.3082a8.0184,8.0184,0,0,1-.8753-2.163,20.3652,20.3652,0,0,1-.3846-3.427c-.087-1.2363.2888-9.674,4.1182-11.8414.0007,0,.2975-.1505.7415-.368A26.9052,26.9052,0,0,1,118.11,78.95a.1538.1538,0,0,0,.0123-.03A.5252.5252,0,0,1,118.1145,79.1Zm10.9968-4.8318c-.135.4567-1.7408,5.5122-.7566,13.98.0494.4255.02.6023-.3181.8093-1.2822.7858-2.59,1.5283-3.8578,2.3384-.8448.54-1.73,1.0135-2.5761,1.5516-.4851.3085-2.9235-13.6833.8187-15.83.544-.2455,6.1179-2.9678,6.5384-3.0736C129.2748,73.9408,129.1479,74.1444,129.1113,74.2684Zm9.71-3.97a21.0786,21.0786,0,0,0-1.2153,5.5941,15.5,15.5,0,0,0,.6617,6.1129c.1111.3449.1018.5841-.2429.798-2.1317,1.3233-4.2487,2.67-6.3758,4.0009-.4653.2911-.5237.2578-.65-.2889-.2946-1.274-1.47-9.4749,1.9515-13.8424.8251-1.0532,4.3831-2.28,5.6214-2.7863a.5465.5465,0,0,1,.3905-.0584A1.3309,1.3309,0,0,1,138.8215,70.2984Zm9.7976,5.1643a.5434.5434,0,0,1-.2561.7886q-3.5049,2.2666-6.98,4.5795c-.364.2424-.462.1579-.5538-.219a14.1557,14.1557,0,0,1-.03-6.502,13.0573,13.0573,0,0,1,2.4879-6.0428,2.0912,2.0912,0,0,1,.9288-.672c1.4629-.5654,4.5266-1.8236,4.5652-1.8051.1665.08-.7085,2.26-.8746,3.31A12.7437,12.7437,0,0,0,148.6191,75.4627Zm9.8847-6.7353c.0772.218.145.3793-.11.5624q-3.5214,2.5353-7.11,4.9744a.8985.8985,0,0,1-.18.0661,9.9932,9.9932,0,0,1-.4293-5.4085h0l0,0a8.41,8.41,0,0,1,3.0664-5.2054c.0541-.0451,2.6356-1.0479,3.9991-1.4644l.1275-.0431a1.5281,1.5281,0,0,1,.7034-.2128,10.5743,10.5743,0,0,0-.623,3.3495A9.5854,9.5854,0,0,0,158.5038,68.7274Zm9.0075-6.7556a76.5223,76.5223,0,0,1-6.3489,5.2579,1.7705,1.7705,0,0,1-.2257.1208,12.72,12.72,0,0,1-.0312-3.4714h0a5.31,5.31,0,0,1,2.05-3.3132.9857.9857,0,0,1,.3542-.1472,33.1555,33.1555,0,0,1,5.62-1.24,6.118,6.118,0,0,1,.7755-.0239C169.9245,59.16,168.3418,61.1792,167.5113,61.9718Z"></path><path class="g" d="M108.0632,83.6791c-.281.1583-4.5246,2.4057-4.8959,2.6411a5.5768,5.5768,0,0,0-2.3924,3.85,8.8947,8.8947,0,0,0,.0085,3.3132,8.1128,8.1128,0,0,0,2.9271,5.0974,6.0218,6.0218,0,0,0,3.7389,1.2343c.5816.0027.6453-.0973.3981-.6084a15.1691,15.1691,0,0,1-1.3082-6.77c.0031-2.0865,1.2323-7.0948,1.1966-7.1885A9.4375,9.4375,0,0,0,108.0632,83.6791Z"></path><path class="g" d="M128.96,74.0446c-.4205.1058-5.9944,2.8281-6.5384,3.0736-3.7422,2.1466-1.3038,16.1384-.8187,15.83.8464-.5381,1.7313-1.0116,2.5761-1.5516,1.2674-.81,2.5756-1.5526,3.8578-2.3384.3378-.207.3675-.3838.3181-.8093-.9842-8.4682.6216-13.5237.7566-13.98C129.1479,74.1444,129.2748,73.9408,128.96,74.0446Z"></path><path class="g" d="M138.572,69.8867c-1.2383.506-4.7963,1.7331-5.6214,2.7863-3.4212,4.3675-2.2461,12.5684-1.9515,13.8424.1264.5467.1848.58.65.2889,2.1271-1.3309,4.2441-2.6776,6.3758-4.0009.3447-.2139.354-.4531.2429-.798a15.5,15.5,0,0,1-.6617-6.1129,21.0786,21.0786,0,0,1,1.2153-5.5941,1.3309,1.3309,0,0,0,.141-.47A.5465.5465,0,0,0,138.572,69.8867Z"></path><path class="g" d="M148.782,65.59c-.0386-.0185-3.1023,1.24-4.5652,1.8051a2.0912,2.0912,0,0,0-.9288.672A13.0573,13.0573,0,0,0,140.8,74.11a14.1557,14.1557,0,0,0,.03,6.502c.0918.3769.19.4614.5538.219q3.4742-2.3135,6.98-4.5795a.5434.5434,0,0,0,.2561-.7886,12.7437,12.7437,0,0,1-.7117-6.5624C148.0735,67.85,148.9485,65.67,148.782,65.59Z"></path><path class="g" d="M114.4252,80.5186c-.444.2175-.7408.3684-.7415.368-3.8294,2.1674-4.2052,10.6051-4.1182,11.8414a20.3652,20.3652,0,0,0,.3846,3.427,8.0184,8.0184,0,0,0,.8753,2.163c.3049.5217.4517.5625.9966.3082a32.2181,32.2181,0,0,0,2.8371-1.5677c.2371-.1412.474-.2826.7123-.4215.867-.5054,1.21-.7346,2.0844-1.2275.3617-.2039.9563-.7126.7518-1.1035a9.8307,9.8307,0,0,1-.26-1.0872c-.6888-3.6088-.999-11.653.1225-13.9777a.5707.5707,0,0,0,.0445-.1409c.0056-.1106.0084-.1743.0073-.1809a.1538.1538,0,0,1-.0123.03A26.9052,26.9052,0,0,0,114.4252,80.5186Z"></path><path class="g" d="M169.7051,59.1548a6.118,6.118,0,0,0-.7755.0239,33.1555,33.1555,0,0,0-5.62,1.24.9857.9857,0,0,0-.3542.1472,5.31,5.31,0,0,0-2.05,3.3132h0a12.72,12.72,0,0,0,.0312,3.4714,1.7705,1.7705,0,0,0,.2257-.1208,76.5223,76.5223,0,0,0,6.3489-5.2579C168.3418,61.1792,169.9245,59.16,169.7051,59.1548Z"></path><path class="g" d="M153.7413,63.7161a8.41,8.41,0,0,0-3.0664,5.2054l0,0h0a9.9932,9.9932,0,0,0,.4293,5.4085.8985.8985,0,0,0,.18-.0661q3.591-2.4357,7.11-4.9744c.2545-.1831.1867-.3444.11-.5624a9.5854,9.5854,0,0,1-.5555-3.3821,10.5743,10.5743,0,0,1,.623-3.3495C158.2786,62.0147,153.7954,63.671,153.7413,63.7161Z"></path><ellipse class="c" cx="71.8072" cy="108.0016" rx="7.3966" ry="9.6653" transform="translate(-27.0584 24.0599) rotate(-16.0483)"></ellipse><ellipse class="b" cx="75.6224" cy="107.1764" rx="3.5874" ry="4.6877" transform="translate(-26.6816 25.0824) rotate(-16.0483)"></ellipse><path class="h" d="M234.8852,39.1384a18.3591,18.3591,0,1,0,14.7359,21.3769A18.38,18.38,0,0,0,234.8852,39.1384Zm7.0874,18.1656c-.3817,2.0757-2.3257,4.0183-5.7775,5.7753a35.2809,35.2809,0,0,1-6.0748,2.3373l-.0714.02-.06-.0441a35.1685,35.1685,0,0,1-4.8457-4.3444c-2.6011-2.8687-3.7262-5.3765-3.3442-7.4538l.1088-.5915a4.6525,4.6525,0,0,1,9.1516,1.6821.9512.9512,0,0,0,1.871.3438c.1352-.7365-1.1034-2.3252-1.2107-3.0268l2.6642-1.8365c1.0477-.8187,2.6558.89,3.9637,1.13a4.6578,4.6578,0,0,1,3.7342,5.4172Z"></path><path class="i" d="M209.76,82.104l-.9238.5134a.994.994,0,0,0,.9655,1.7379l.9239-.5134a.9941.9941,0,1,0-.9656-1.7379Z"></path><path class="i" d="M215.8266,78.7354l-3.8143,2.1184a.9939.9939,0,0,0,.9649,1.7379l3.8147-2.1185a.994.994,0,1,0-.9653-1.7378Z"></path><path class="d" d="M237.086,50.19c-1.33-.0084-3.2115-1.41-4.1-.4206l-2.3025,2.2735c.2282.6721,1.7252,2.02,1.7207,2.7689a.9512.9512,0,0,1-1.9023-.0118,4.6524,4.6524,0,0,0-9.3047-.058l-.0038.6014c-.0134,2.1121,1.5324,4.3848,4.5945,6.7552a35.16,35.16,0,0,0,5.53,3.4314l.0671.0329.0668-.032a35.29,35.29,0,0,0,5.5733-3.3624c3.0919-2.3328,4.6668-4.585,4.68-6.6954l.0038-.6014A4.6575,4.6575,0,0,0,237.086,50.19Z"></path><path class="i" d="M237.098,48.2879A6.56,6.56,0,0,0,232.18,50.462a.951.951,0,0,0,.0725,1.3437.98.98,0,0,0,1.3432-.0728,4.6522,4.6522,0,0,1,8.113,3.1385l-.0038.6014c-.0133,2.11-1.5882,4.3626-4.68,6.6954a35.29,35.29,0,0,1-5.5733,3.3624l-.0668.032-.0671-.0329a35.16,35.16,0,0,1-5.53-3.4314c-3.0621-2.37-4.6079-4.6431-4.5945-6.7552l.0038-.6014a4.6524,4.6524,0,0,1,9.3047.058.9512.9512,0,0,0,1.9023.0118,6.5544,6.5544,0,0,0-13.1085-.0818l-.0038.6013a8.0676,8.0676,0,0,0,1.9221,4.96,20.0174,20.0174,0,0,0,4.0194,3.7721,36.4059,36.4059,0,0,0,5.75,3.4164.9678.9678,0,0,0,.3889.0854.9435.9435,0,0,0,.3881-.0805,36.0639,36.0639,0,0,0,5.794-3.3434,20.03,20.03,0,0,0,4.068-3.721,8.0707,8.0707,0,0,0,1.9842-4.9355l.0038-.6013A6.5617,6.5617,0,0,0,237.098,48.2879Z"></path><path class="i" d="M222.8807,55.1035a.833.833,0,1,0,1.6659.0105,1.5016,1.5016,0,0,1,1.416-1.57.8331.8331,0,0,0,.01-1.6661A3.1658,3.1658,0,0,0,222.8807,55.1035Z"></path><path class="f" d="M238.3472,51.2954c-1.3079-.24-2.916-1.9488-3.9637-1.13l-2.6642,1.8365c.1073.7016,1.3459,2.29,1.2107,3.0268a.9512.9512,0,0,1-1.871-.3438,4.6525,4.6525,0,0,0-9.1516-1.6821l-.1088.5915c-.382,2.0773.7431,4.5851,3.3442,7.4538a35.1685,35.1685,0,0,0,4.8457,4.3444l.06.0441.0714-.02a35.2809,35.2809,0,0,0,6.0748-2.3373c3.4518-1.757,5.3958-3.7,5.7775-5.7753l.1088-.5914A4.6578,4.6578,0,0,0,238.3472,51.2954Z"></path><path class="i" d="M235.2243,37.2943a20.2343,20.2343,0,1,0,13,8.4163A20.1022,20.1022,0,0,0,235.2243,37.2943Zm-6.98,37.9568a18.3591,18.3591,0,1,1,21.3768-14.7358A18.38,18.38,0,0,1,228.2443,75.2511Z"></path><path class="i" d="M200.721,74.236,198.8,75.3033a.9938.9938,0,1,0,.965,1.7377l1.9215-1.0666a.9942.9942,0,1,0-.9652-1.7384Z"></path><path class="i" d="M205.79,71.4208l-1.6181.9a.994.994,0,0,0,.9654,1.7378l1.6183-.8992a.9942.9942,0,0,0-.9656-1.7381Z"></path><path class="i" d="M198.6445,63.5938l-.924.5128a.9942.9942,0,0,0,.9649,1.7385l.9238-.5133a.9939.9939,0,1,0-.9647-1.738Z"></path><path class="i" d="M206.0625,60.6114a.994.994,0,0,0-1.3517-.3866l-3.815,2.1185a.9941.9941,0,0,0,.9651,1.7383l3.815-2.1185A.9943.9943,0,0,0,206.0625,60.6114Z"></path><path class="h" d="M257.6018,82.25a18.3591,18.3591,0,1,0,14.7359,21.3769A18.38,18.38,0,0,0,257.6018,82.25Z"></path><path class="i" d="M232.4765,125.2151l-.9238.5134a.994.994,0,0,0,.9656,1.7378l.9238-.5133a.9941.9941,0,1,0-.9656-1.7379Z"></path><path class="i" d="M238.5432,121.8465l-3.8143,2.1183a.9939.9939,0,0,0,.9649,1.738l3.8148-2.1185a.994.994,0,1,0-.9654-1.7378Z"></path><path class="i" d="M257.9409,80.4054a20.2343,20.2343,0,1,0,13,8.4163A20.1017,20.1017,0,0,0,257.9409,80.4054Zm-6.98,37.9568a18.3591,18.3591,0,1,1,21.3768-14.7358A18.38,18.38,0,0,1,250.9609,118.3622Z"></path><path class="i" d="M223.4376,117.3471l-1.9213,1.0672a.9939.9939,0,1,0,.965,1.7378l1.9216-1.0667a.9942.9942,0,1,0-.9653-1.7383Z"></path><path class="i" d="M228.5061,114.5319l-1.6181.9a.994.994,0,0,0,.9654,1.7378l1.6184-.8992a.9942.9942,0,0,0-.9657-1.7381Z"></path><path class="i" d="M221.3611,106.7049l-.924.5128a.9942.9942,0,0,0,.9649,1.7385l.9239-.5134a.9939.9939,0,1,0-.9648-1.7379Z"></path><path class="i" d="M228.7791,103.7225a.9939.9939,0,0,0-1.3517-.3866l-3.815,2.1185a.9941.9941,0,0,0,.9651,1.7383l3.815-2.1185A.9942.9942,0,0,0,228.7791,103.7225Z"></path><path class="j" d="M254.6209,91.0505a9.7009,9.7009,0,1,0,9.7009,9.7009A9.712,9.712,0,0,0,254.6209,91.0505Zm-5.5518,5.9677a2.77,2.77,0,0,1,2.4558-1.3134,2.4118,2.4118,0,0,1,2.2368,1.3271.8168.8168,0,0,1-.3661,1.0953.8166.8166,0,0,1-1.0951-.3657.7826.7826,0,0,0-.7669-.4237,1.2471,1.2471,0,0,0-1.0173.4373.8166.8166,0,1,1-1.4472-.7569Zm10.4631,6.3123a5.5743,5.5743,0,0,1-9.8232.0011.8615.8615,0,1,1,1.5176-.8159,3.8512,3.8512,0,0,0,6.7879,0,.8614.8614,0,0,1,1.5177.8152Zm.3828-5.69a.8113.8113,0,0,1-.4006.48.8274.8274,0,0,1-.3782.0927.8148.8148,0,0,1-.7239-.438,1.2154,1.2154,0,0,0-1.0007-.4377.7987.7987,0,0,0-.7836.4241.8119.8119,0,0,1-.7308.4516.8319.8319,0,0,1-.3645-.0855.8171.8171,0,0,1-.3656-1.0957,2.4,2.4,0,0,1,2.2127-1.3271h.0342a2.7987,2.7987,0,0,1,2.4459,1.3138A.8106.8106,0,0,1,259.915,97.6407Z"></path><path class="i" d="M254.6209,89.466a11.2852,11.2852,0,1,0,11.2847,11.2854A11.2983,11.2983,0,0,0,254.6209,89.466Zm0,20.9862a9.7009,9.7009,0,1,1,9.7009-9.7008A9.7117,9.7117,0,0,1,254.6209,110.4522Z"></path><path class="i" d="M250.5163,97.7751a1.2471,1.2471,0,0,1,1.0173-.4373.7826.7826,0,0,1,.7669.4237.8166.8166,0,0,0,1.4612-.73,2.4118,2.4118,0,0,0-2.2368-1.3271,2.77,2.77,0,0,0-2.4558,1.3134.8166.8166,0,0,0,1.4472.7569Z"></path><path class="i" d="M257.414,95.7048H257.38a2.4,2.4,0,0,0-2.2127,1.3271.8171.8171,0,0,0,.3656,1.0957.8319.8319,0,0,0,.3645.0855.8119.8119,0,0,0,.7308-.4516.7987.7987,0,0,1,.7836-.4241,1.2154,1.2154,0,0,1,1.0007.4377.8148.8148,0,0,0,.7239.438.8274.8274,0,0,0,.3782-.0927.8175.8175,0,0,0,.3455-1.1018A2.7987,2.7987,0,0,0,257.414,95.7048Z"></path><path class="i" d="M259.1811,102.1644a.861.861,0,0,0-1.1666.3509,3.8512,3.8512,0,0,1-6.7879,0,.8615.8615,0,1,0-1.5176.8159,5.5743,5.5743,0,0,0,9.8232-.0011A.8608.8608,0,0,0,259.1811,102.1644Z"></path><path class="i" d="M287.5236,76.2467l-1.689.9387A1.8175,1.8175,0,0,0,287.6,80.3629l1.6892-.9387a1.8175,1.8175,0,1,0-1.7656-3.1775Z"></path><path class="i" d="M298.6159,70.0876l-6.974,3.8731a1.8173,1.8173,0,0,0,1.7642,3.1777l6.9749-3.8735a1.8173,1.8173,0,1,0-1.7651-3.1773Z"></path><path class="i" d="M270.9969,61.8609l-3.5128,1.9513a1.8171,1.8171,0,1,0,1.7643,3.1772l3.5134-1.95a1.8177,1.8177,0,1,0-1.7649-3.1783Z"></path><path class="i" d="M280.2642,56.7136l-2.9586,1.6445a1.8174,1.8174,0,0,0,1.7651,3.1774l2.9591-1.644a1.8177,1.8177,0,0,0-1.7656-3.1779Z"></path><path class="i" d="M267.2,42.4026l-1.6893.9377a1.8177,1.8177,0,0,0,1.7641,3.1787l1.6892-.9387a1.8172,1.8172,0,1,0-1.764-3.1777Z"></path><path class="i" d="M280.7633,36.95a1.8171,1.8171,0,0,0-2.4714-.7069l-6.9754,3.8735a1.8177,1.8177,0,0,0,1.7646,3.1783l6.9754-3.8734A1.8179,1.8179,0,0,0,280.7633,36.95Z"></path><path class="b" d="M359.29,33.1455A32.5779,32.5779,0,0,0,327.2857.0047c-.1931-.003-.3849-.0047-.577-.0047a32.5776,32.5776,0,0,0-.5594,65.15c.1952.0034.389.0047.5834.0047A32.578,32.578,0,0,0,359.29,33.1455ZM326.7029,2.0813c.1813,0,.3642.0017.5462.005a30.4877,30.4877,0,0,1,22.1653,50.8482,6.6772,6.6772,0,0,0-3.7852-2.6652c-1.4139-.3856-3.2251-.738-4.9771-1.0788-1.9353-.3764-3.9364-.7664-5.2872-1.1807l-.0072-.0025a2.2627,2.2627,0,0,1-1.5853-2.1919l.0518-2.9632a12.3041,12.3041,0,0,0,4.0118-5.2352c.1064-.2677.1958-.5238.268-.765a2.3335,2.3335,0,0,0,1.6794-1.8885,32.7775,32.7775,0,0,1,.7349-3.2986,8.03,8.03,0,0,0,.3747-2.2768,3.4679,3.4679,0,0,0-.501-2.1107,16.5763,16.5763,0,0,0,.1585-11.8642,1.069,1.069,0,0,0,.2175-.1444,1.041,1.041,0,0,0,.3158-1.09,9.3227,9.3227,0,0,0-8.506-6.278c-1.0805-.4133-6.2811-2.089-12.8756,1.0706a12.46,12.46,0,0,0-7.0186,12.2762,33.5306,33.5306,0,0,0,1.0126,5.5206,3.4052,3.4052,0,0,0-.605,2.1344,8.0372,8.0372,0,0,0,.2951,2.2889,32.73,32.73,0,0,1,.6193,3.3216,2.3293,2.3293,0,0,0,1.5822,1.9353,10.3791,10.3791,0,0,0,3.7175,6.0005c-.002.023-.0079.0448-.0083.0681l-.0528,3.0438a2.2631,2.2631,0,0,1-1.6642,2.1372c-1.524.4107-3.5615.8328-5.532,1.2414-1.4149.2927-2.8778.5963-4.129.8911a6.768,6.768,0,0,0-4.1011,2.8642,30.4853,30.4853,0,0,1,22.885-50.6138Zm11.0965,12.2328a14.594,14.594,0,0,1,.8077,11.8208l-2.6132-7.46a1.04,1.04,0,0,0-.8521-.6885l-9.993-1.26a8.7963,8.7963,0,0,0-.9568-.0529A6.7442,6.7442,0,0,0,319.68,18.24a5.27,5.27,0,0,0-1.7422,3.4171,6.99,6.99,0,0,0-2.4278,3.8075,30.2,30.2,0,0,1-.7528-4.4017,10.3684,10.3684,0,0,1,5.845-10.2136c6.3607-3.05,11.1364-1.0483,11.333-.9629a1.0386,1.0386,0,0,0,.3892.0881,7.1282,7.1282,0,0,1,5.8176,3.0032,1.0587,1.0587,0,0,0-.1643.1382A1.042,1.042,0,0,0,337.7994,14.3141ZM315.6512,30.683a.8881.8881,0,0,0,.104-.0054,1.04,1.04,0,0,0,.9286-.9012c.369-2.8392,1.4847-6.171,2.4956-6.4122a1.0408,1.0408,0,0,0,.7993-1.0056,3.3053,3.3053,0,0,1,1.0852-2.564,4.9537,4.9537,0,0,1,3.841-1.0009l9.3374,1.1777,3.239,9.246a1.0127,1.0127,0,0,0,1.3011.6356,7.3977,7.3977,0,0,1-.2725,1.2644,34.5556,34.5556,0,0,0-.7762,3.4842.4123.4123,0,0,1-.4533.3009,1.0358,1.0358,0,0,0-1.0547.8714,5.4634,5.4634,0,0,1-.3253,1.0774,10.34,10.34,0,0,1-4.5281,5.143c-1.0794.6133-2.0559,1.1513-2.0559,1.1513a5.7839,5.7839,0,0,1-2.1354.6891,5.8633,5.8633,0,0,1-1.1736-.0047,5.7627,5.7627,0,0,1-2.473-.9141l-2.4952-1.7537A8.3143,8.3143,0,0,1,317.6,35.8871l0-.0021c-.0257-.1436-.0478-.2893-.0661-.435a1.0643,1.0643,0,0,0-1.0059-.9094c-.191-.0094-.4262-.0711-.4607-.3171a34.5236,34.5236,0,0,0-.6546-3.5086l-.0166-.0722A1.0255,1.0255,0,0,0,315.6512,30.683Zm5.6746,14.9148.029-1.67,1.02.7161a7.85,7.85,0,0,0,3.4135,1.2556,7.7467,7.7467,0,0,0,.8317.044c.2545,0,.5089-.0122.7616-.0366a7.8729,7.8729,0,0,0,2.9256-.93s.6157-.3394,1.4115-.7867l-.0278,1.589a4.3422,4.3422,0,0,0,1.4349,3.2785c-2.3909,1.4209-7.7469,3.6573-12.8276-.7534A4.329,4.329,0,0,0,321.3258,45.5978Zm-12.9294,6.2591c1.2237-.2887,2.6728-.5889,4.0741-.8789,2-.4147,4.068-.8429,5.6512-1.27a4.225,4.225,0,0,0,.4453-.1608,11.8275,11.8275,0,0,0,8.2213,3.4052,15.71,15.71,0,0,0,8.4658-2.8085c1.4068.39,3.2291.745,5.0006,1.0894,1.7144.334,3.4873.679,4.8269,1.0442a4.5952,4.5952,0,0,1,2.8432,2.2132l-.0226.0229a30.4554,30.4554,0,0,1-42.5987-.2558A4.69,4.69,0,0,1,308.3964,51.8569Z"></path><path class="c" d="M316.0669,34.2235c.0345.246.27.3077.4607.3171a1.0643,1.0643,0,0,1,1.0059.9094c.0183.1457.04.2914.0661.435l0,.0021a8.3143,8.3143,0,0,0,3.4392,5.2751l2.4952,1.7537a5.7627,5.7627,0,0,0,2.473.9141,5.8633,5.8633,0,0,0,1.1736.0047,5.7839,5.7839,0,0,0,2.1354-.6891s.9765-.538,2.0559-1.1513a10.34,10.34,0,0,0,4.5281-5.143,5.4634,5.4634,0,0,0,.3253-1.0774,1.0358,1.0358,0,0,1,1.0547-.8714.4123.4123,0,0,0,.4533-.3009,34.5556,34.5556,0,0,1,.7762-3.4842,7.3977,7.3977,0,0,0,.2725-1.2644,1.0127,1.0127,0,0,1-1.3011-.6356l-3.239-9.246-9.3374-1.1777a4.9537,4.9537,0,0,0-3.841,1.0009,3.3053,3.3053,0,0,0-1.0852,2.564,1.0408,1.0408,0,0,1-.7993,1.0056c-1.0109.2412-2.1266,3.573-2.4956,6.4122a1.04,1.04,0,0,1-.9286.9012.8881.8881,0,0,1-.104.0054,1.0255,1.0255,0,0,1-.2555-.04l.0166.0722A34.5236,34.5236,0,0,1,316.0669,34.2235Z"></path><path class="k" d="M338.1419,12.9772a7.1282,7.1282,0,0,0-5.8176-3.0032,1.0386,1.0386,0,0,1-.3892-.0881c-.1966-.0854-4.9723-2.087-11.333.9629a10.3684,10.3684,0,0,0-5.845,10.2136,30.2,30.2,0,0,0,.7528,4.4017,6.99,6.99,0,0,1,2.4278-3.8075A5.27,5.27,0,0,1,319.68,18.24a6.7442,6.7442,0,0,1,4.5121-1.566,8.7963,8.7963,0,0,1,.9568.0529l9.993,1.26a1.04,1.04,0,0,1,.8521.6885l2.6132,7.46a14.594,14.594,0,0,0-.8077-11.8208,1.042,1.042,0,0,1,.1782-1.1987A1.0587,1.0587,0,0,1,338.1419,12.9772Z"></path><path class="a" d="M347.9022,54.5138l.0226-.0229a4.5952,4.5952,0,0,0-2.8432-2.2132c-1.34-.3652-3.1125-.71-4.8269-1.0442-1.7715-.3444-3.5938-.7-5.0006-1.0894a15.71,15.71,0,0,1-8.4658,2.8085,11.8275,11.8275,0,0,1-8.2213-3.4052,4.225,4.225,0,0,1-.4453.1608c-1.5832.4269-3.6513.8551-5.6512,1.27-1.4013.29-2.85.59-4.0741.8789a4.69,4.69,0,0,0-3.0929,2.4011,30.4554,30.4554,0,0,0,42.5987.2558Z"></path><path class="c" d="M333.1257,49.0573a4.3422,4.3422,0,0,1-1.4349-3.2785l.0278-1.589c-.7958.4473-1.4115.7867-1.4115.7867a7.8729,7.8729,0,0,1-2.9256.93c-.2527.0244-.5071.0366-.7616.0366a7.7467,7.7467,0,0,1-.8317-.044,7.85,7.85,0,0,1-3.4135-1.2556l-1.02-.7161-.029,1.67a4.329,4.329,0,0,1-1.0277,2.7061C325.3788,52.7146,330.7348,50.4782,333.1257,49.0573Z"></path></svg> 