<?xml version="1.0" encoding="utf-8"?>
<!-- Generator: Adobe Illustrator 22.0.1, SVG Export Plug-In . SVG Version: 6.00 Build 0)  -->
<svg version="1.1" id="Layer_1" xmlns="http://www.w3.org/2000/svg" xmlns:xlink="http://www.w3.org/1999/xlink" x="0px" y="0px"
	 viewBox="0 0 429 390" style="enable-background:new 0 0 429 390;" xml:space="preserve">
<style type="text/css">
	.st0{fill:#00EAFF;}
	.st1{fill:#231834;}
	.st2{opacity:0.57;fill:#A9F7FF;}
	.st3{fill:none;}
	.st4{fill:#FFFFFF;}
	.st5{fill:#D3CEC3;}
</style>
<g>

		<ellipse transform="matrix(0.3349 -0.9423 0.9423 0.3349 -24.638 391.1177)" class="st0" cx="264.7" cy="213" rx="29.3" ry="41.6"/>
	<path class="st1" d="M273.6,247.4c-6.5,0-13.3-1.2-19.9-3.5c-11.1-4-20.6-10.8-26.5-19.2c-6.2-8.8-8-18.3-5-26.8
		c3-8.5,10.4-14.7,20.8-17.6c9.9-2.8,21.6-2.1,32.7,1.8c11.1,4,20.6,10.8,26.5,19.2c6.2,8.8,8,18.3,5,26.8
		c-3,8.5-10.4,14.7-20.8,17.6C282.4,246.9,278.1,247.4,273.6,247.4z M255.8,185.5c-3.8,0-7.5,0.5-11,1.4c-8.1,2.3-13.9,7-16.1,13.3
		c-2.2,6.3-0.8,13.5,4.1,20.4c5.1,7.3,13.4,13.2,23.2,16.7c9.8,3.5,19.9,4.1,28.5,1.7c8.1-2.3,13.9-7,16.1-13.3
		c4.8-13.4-7.5-30.1-27.3-37.1C267.5,186.6,261.5,185.5,255.8,185.5z"/>
	<path class="st0" d="M398.9,339.8c-0.6-0.3-1.1-0.7-1.6-1.1c-0.5-0.4-1-0.8-1.5-1.2c-0.4-0.3-0.7-0.6-1.1-0.9
		c-9-7.7-13.8-19.5-22-28.1c-1-1-2-2-3.1-2.9c-0.7-0.6-1.5-1.2-2.3-1.8c-0.4-0.3-0.8-0.6-1.2-0.8c-5-3.3-10.4-6.2-16-8.5
		c-5.6-2.3-11.4-4.1-17.3-5.2c0,0,0,0,0,0c0,0,0,0,0,0c3.8-1.3,7.8-2.4,11.5-3.7c0.3-0.1,0.5-0.2,0.8-0.3c0.5-0.2,1.1-0.4,1.6-0.6
		c3.9-1.6,7.5-3.8,10.5-7.1c0.2-0.3,0.5-0.5,0.7-0.8c6.5-8,9.5-18.5,12.1-28.3c3-11.2,5.4-23.1,4.6-34.8c-0.1-1.4-0.2-2.8-0.4-4.3
		c-0.1-0.8-0.3-1.7-0.5-2.5c-0.2-0.8-0.4-1.7-0.7-2.5c-0.9-3-2.3-5.7-4.3-7.9c-0.4-0.4-0.7-0.8-1.1-1.1c-1.6-1.5-3.6-2.6-6-3.3
		c-0.1,0-0.2,0-0.3-0.1c-0.1,0-0.2,0-0.3,0c0,0-0.1,0-0.1,0c-1.2,0-2.2,0.9-2.8,1.9c-0.2,0.3-0.3,0.6-0.4,0.8
		c-0.4,1.2-0.8,2.5-1.3,3.6c-1.5,3.5-3.4,6.6-5.7,9.5c-4.1,5.2-9.4,9.5-15,13.5c-4,2.8-8,5.6-11.9,8.5c-1.1,0.8-2.2,1.7-3.3,2.5
		c-3.8,3-7.5,6.2-11,9.7c-6.8,6.8-12.9,14.5-17.2,23.1c-0.1,0.2-0.9,2.2-1.7,4.3c-1.1,2.9-2.3,6.1-2.4,6.1c0,0,0,0,0,0
		c-9.1,5.4-18.9,5.6-27.9,2.9l0,0c-0.4-0.1-0.9-0.2-1.3-0.3c-0.2-0.1-0.3-0.2-0.5-0.3c-20.4-7.2-36.4-29.1-31.4-39.1
		c0.8-1.7,5.7-5.1,12.6-10.7c0,0,0.1,0,0.1-0.1c1.6-1.3,3.4-2.7,5.2-4.2c0.1-0.1,0.1-0.1,0.2-0.2c0.4-0.3,0.9-0.7,1.3-1
		c0.4-0.3,0.7-0.6,1.1-0.9c0.2-0.2,0.4-0.3,0.6-0.5c0.3-0.2,0.6-0.5,0.9-0.8c0.2-0.2,0.4-0.4,0.7-0.5c0.5-0.4,1-0.8,1.5-1.2
		c0.1-0.1,0.3-0.2,0.4-0.4c0.4-0.3,0.8-0.6,1.1-0.9c0.2-0.2,0.4-0.3,0.6-0.5c0.4-0.3,0.8-0.6,1.1-0.9c0.2-0.1,0.3-0.3,0.5-0.4
		c0.5-0.4,1-0.8,1.5-1.3c0.2-0.2,0.4-0.3,0.5-0.5c0.4-0.3,0.7-0.6,1.1-0.9c0.2-0.2,0.4-0.3,0.6-0.5c0.5-0.4,1-0.9,1.6-1.3
		c0.1-0.1,0.2-0.2,0.3-0.3c0.4-0.4,0.9-0.7,1.3-1.1c0.2-0.2,0.4-0.3,0.6-0.5c0.4-0.4,0.8-0.7,1.2-1.1c0.1-0.1,0.3-0.3,0.4-0.4
		c0.5-0.5,1-0.9,1.5-1.4c0.2-0.1,0.3-0.3,0.5-0.4c0.4-0.3,0.8-0.7,1.1-1c0.2-0.2,0.3-0.3,0.5-0.5c0.5-0.5,1-0.9,1.5-1.4
		c0.1-0.1,0.2-0.2,0.3-0.2c0.4-0.4,0.8-0.8,1.3-1.2c0.2-0.2,0.3-0.3,0.5-0.5c0.4-0.4,0.8-0.7,1.1-1.1c0.1-0.1,0.2-0.2,0.4-0.4
		c0.5-0.5,0.9-0.9,1.4-1.4c0.1-0.1,0.3-0.3,0.4-0.4c0.4-0.4,0.7-0.7,1-1.1c0.1-0.2,0.3-0.3,0.4-0.5c0.4-0.5,0.9-1,1.3-1.4
		c0-0.1,0.1-0.1,0.1-0.2c0.4-0.4,0.8-0.9,1.2-1.3c0.1-0.1,0.3-0.3,0.4-0.4c0.3-0.4,0.6-0.8,1-1.1c0.1-0.1,0.2-0.2,0.3-0.3
		c0.4-0.5,0.8-1,1.1-1.4c0.1-0.1,0.2-0.2,0.3-0.4c0.3-0.4,0.6-0.7,0.8-1.1c0.1-0.1,0.2-0.3,0.3-0.4c0.3-0.5,0.7-1,1-1.4
		c0,0,0,0,0-0.1c0.3-0.5,0.6-0.9,0.9-1.3c0.1-0.1,0.2-0.3,0.3-0.4c0.2-0.4,0.5-0.7,0.7-1.1c0.1-0.1,0.1-0.2,0.2-0.3
		c0.3-0.5,0.5-0.9,0.8-1.4c0.1-0.1,0.1-0.2,0.2-0.3c0.2-0.4,0.4-0.7,0.5-1.1c0.1-0.1,0.1-0.3,0.2-0.4c0.2-0.5,0.4-0.9,0.6-1.3
		c0.3-0.8,0.6-1.6,0.9-2.4c0.6-1.6,1.2-3.2,1.7-4.7c14.7-43.1,8.4-76.1-14.7-104.8c-2.5-3.1-5.1-6.1-8-9.1
		c-9.2-9.6-20.2-16.5-32.4-20.7c-0.5-0.2-1.1-0.4-1.6-0.5c-2.1-0.7-4.3-1.3-6.5-1.8c-0.6-0.1-1.1-0.3-1.7-0.4
		c-1.1-0.2-2.2-0.5-3.4-0.7c-1.7-0.3-3.4-0.6-5.1-0.8c-2.3-0.3-4.6-0.5-7-0.6c-15.3-0.8-31.7,1.6-48.2,7.3
		C140.7,47,118,58.8,100.1,78.1c-20.4,21.9-41.9,58.1-38,101.7c0.1,0.7,0.1,1.4,0.2,2.1c0,0,0,0,0,0c0,0.1,0,0.1,0,0.2
		c0.2,1.8,0.4,3.6,0.7,5.5c0.1,0.6,0.2,1.2,0.3,1.8c-2.5,2.1-4.9,4.4-7.3,6.7c-0.5,0.5-0.9,0.9-1.4,1.4c-0.9,1-1.8,1.9-2.7,2.9
		c-1.8,2-3.5,4-5.1,6.1c-0.4,0.5-0.8,1-1.2,1.6c-3.2,4.2-6.1,8.6-8.5,13c-0.3,0.5-0.6,1.1-0.9,1.7c-0.9,1.7-1.7,3.3-2.5,5
		c-0.5,1.1-1,2.2-1.5,3.3c-0.5,1.1-0.9,2.2-1.3,3.3c-0.8,2.2-1.5,4.3-2,6.4c-0.3,1-0.5,2.1-0.7,3.1c-0.2,1-0.4,2-0.5,3
		c-0.1,0.6-0.1,1.2-0.2,1.8c-0.1,1.2-0.1,2.3-0.1,3.4c0,4.9,1.1,9.1,3.1,12.7c0.2,0.4,0.5,0.8,0.7,1.2c0.5,0.8,1.1,1.5,1.7,2.2
		c0.3,0.3,0.6,0.7,0.9,1c5.2,5.2,12.4,7.5,21.4,6.8c9.3-0.7,21.8-5.1,34.5-12.5c1.7-1,3.4-2,5.1-3.1c0.7-0.5,1.5-0.9,2.2-1.4
		c10.6-7,20.9-16,29.3-26.4c1.6-1.9,4.4-2.3,6.4-0.8c1.7,1.3,2.1,3.8,0.7,5.5c-8,9.9-19,19.9-30.9,28.1c9.5,10.9,21,21.9,34.6,33
		c4.7,3.8,9.7,7.7,14.9,11.5c47.6,35,99.1,18.5,123.3,7.3c1-0.5,2-0.9,2.9-1.4c0.5-0.2,0.9-0.4,1.4-0.7c0.2-0.1,0.4-0.2,0.6-0.3
		c1.1-0.5,2-1,2.9-1.5c0.2-0.1,0.4-0.2,0.5-0.3c0.5-0.3,1-0.5,1.4-0.8c0.9-0.5,1.6-0.9,2.3-1.3c0.2-0.1,0.4-0.2,0.6-0.3
		c0.9-0.5,1.3-0.8,1.4-0.8c0.8,0,12.9,23.9,22.4,32.4c8.4,7.6,18.6,12.4,29.7,14.8c1.2,0.3,2.4,0.5,3.6,0.7c1.2,0.2,2.5,0.4,3.8,0.6
		c1.3,0.2,2.6,0.4,3.9,0.5c1.3,0.1,2.6,0.3,4,0.3c0.7,0,1.3,0.1,2,0.1c1.3,0.1,2.7,0.1,4,0.1c12.1,0,24.4-2.7,33.2-10.2
		c1.5-1.3,2.9-2.7,4.1-4.2c0.4-0.4,0.6-0.9,0.7-1.4c0.2-0.8,0-1.5-0.4-2.2C400.1,340.7,399.6,340.2,398.9,339.8z"/>
	<circle class="st2" cx="189.2" cy="42.6" r="14"/>
	<circle class="st2" cx="156.7" cy="47.3" r="9.8"/>
	<circle class="st2" cx="231.4" cy="51.2" r="19.9"/>
	<circle class="st2" cx="115.1" cy="69.6" r="6.6"/>
	<circle class="st2" cx="101.1" cy="81.9" r="6.6"/>
	<circle class="st2" cx="133.4" cy="57.9" r="8.2"/>
	<path class="st3" d="M400.4,341.3c-0.3-0.6-0.8-1.1-1.4-1.5c-0.6-0.3-1.1-0.7-1.6-1.1c0.5,0.4,1.1,0.7,1.6,1.1
		C399.6,340.2,400.1,340.7,400.4,341.3z"/>
	<path class="st3" d="M368,196.7c0,0,0.1,0,0.1,0C368.1,196.7,368.1,196.7,368,196.7z"/>
	<path class="st1" d="M264.6,188.4c-7.7,0.3-14.1-1.8-19.1-4.6c-5.4-3.1-9.5-7.1-11.9-9.9c-2.1-2.5-3.3-4.2-3.9-5.5c0,0,0,0,0-0.1
		l0,0c-0.9-1.8-0.8-2.6-0.7-3.2c0.3-1.9,1.8-3.5,3.7-3.8c1.9-0.4,3.9,0.6,4.9,2.3c0.1,0.1,0.1,0.2,0.2,0.4c0.9,1.5,8,12.5,20.5,14.8
		c10,1.8,22-2.4,33.9-12.6c2-1.7,4-1.4,5.7,0.6c1.7,2,1.4,4.9-0.5,6.6C284.8,184,273.8,188,264.6,188.4z"/>
	<path class="st3" d="M62.2,181.9c0,0.1,0,0.1,0,0.2C62.2,182,62.2,182,62.2,181.9z"/>
	<path class="st3" d="M260.5,278.3c-0.6-0.2-1.2-0.4-1.8-0.6c0.2,0.1,0.3,0.2,0.5,0.3C259.6,278.1,260,278.2,260.5,278.3z"/>
	<path class="st3" d="M398.9,339.8c-1.1-0.7-2.2-1.4-3.2-2.2c-12-9.5-16.6-26-29.7-34.5c-10.1-6.5-21.4-11.5-33.2-13.7
		c8.8-3,18-4.7,24.4-11.8c0.2-0.3,0.5-0.5,0.7-0.8c6.5-8,9.5-18.5,12.1-28.3c3-11.2,5.4-23.1,4.6-34.8c-0.6-9.1-3.4-18.7-12.9-21.6
		c-1.9-0.5-3.3,1.1-3.8,2.6c-1.6,5-4,9.3-7.1,13.1c-4.1,5.2-9.4,9.5-15,13.5c-9.2,6.5-18.3,12.7-26.3,20.7
		c-6.8,6.8-12.9,14.5-17.2,23.1c-0.3,0.6-4,10.3-4.1,10.4c0,0,0,0,0,0l0,0c0.1-0.1,2.1,3.9-0.6,5.6c-20,12.1-55.2,23.3-80.2,22.1
		c-16.5-0.8-32.2-5.6-44.1-17.2c-17.6-17.1-18.7-45.7-0.4-66.6c22.3-25.5,73.8-9.4,76.8,8.6c15.9-12.9,42.4-33.2,48.5-49.2
		c19.8-51.4,10.8-88.6-20.1-121c-25.6-26.8-65-32.2-105.9-18.2C140.7,47,118,58.8,100.1,78.1C79.7,100,58.2,136.1,62,179.6
		c0,0,0,0.1,0,0.1c0.1,0.7,0.1,1.4,0.2,2.1c0,0.1,0,0.1,0,0.2c0.3,2.4,0.6,4.9,1,7.3c-2.5,2.1-4.9,4.4-7.3,6.7
		c-14.9,15-26.3,34.7-28.2,50.7c-1.2,9.5,0.9,16.9,6.2,22.2c5.2,5.2,12.4,7.5,21.4,6.8c9.3-0.7,21.8-5.1,34.5-12.5
		c2.4-1.4,4.8-2.9,7.2-4.5c10.6-7,20.9-16,29.3-26.4c1.6-1.9,4.4-2.3,6.4-0.8c1.7,1.3,2.1,3.8,0.7,5.5c-8,9.9-19,19.9-30.9,28.1
		c12.8,14.6,29.1,29.5,49.5,44.5c64.8,47.6,137-0.1,137.3-0.1c0.8,0,12.9,23.9,22.4,32.4c8.4,7.6,18.6,12.4,29.7,14.8
		c19,4.2,45.1,4.5,58.7-12C401.5,343.1,400.7,340.9,398.9,339.8z"/>
	<path class="st2" d="M163.1,219.3c-18.3,20.9-17.2,49.4,0.4,66.6c11.9,11.5,27.6,16.4,44.1,17.2c25,1.2,60.2-10,80.2-22.1
		c2.8-1.7,0.8-5.7,0.6-5.6l0,0c-9.1,5.4-18.9,5.6-27.9,2.9c-0.4-0.1-0.9-0.2-1.3-0.3c-0.2-0.1-0.3-0.2-0.5-0.3
		c-20.4-7.2-36.4-29.1-31.4-39.1c0.8-1.7,5.7-5.1,12.6-10.7l0,0C236.9,210,185.4,193.8,163.1,219.3z"/>
	<path class="st3" d="M283.1,188c-0.1,0.1-0.2,0.3-0.3,0.4C282.9,188.2,283,188.1,283.1,188z"/>
	<path class="st3" d="M284.2,186.5C284.2,186.5,284.2,186.5,284.2,186.5C284.2,186.5,284.2,186.5,284.2,186.5z"/>
	<path class="st3" d="M280.6,191.3c-0.1,0.1-0.2,0.2-0.3,0.3C280.4,191.5,280.5,191.4,280.6,191.3z"/>
	<path class="st3" d="M282,189.5c-0.1,0.1-0.2,0.2-0.3,0.4C281.8,189.7,281.9,189.6,282,189.5z"/>
	<path class="st3" d="M268,204.3c-0.2,0.2-0.3,0.3-0.5,0.5C267.7,204.6,267.9,204.5,268,204.3z"/>
	<path class="st3" d="M285.4,184.7c-0.1,0.1-0.2,0.3-0.3,0.4C285.2,185,285.3,184.9,285.4,184.7z"/>
	<path class="st3" d="M286.2,183.3c-0.1,0.1-0.1,0.2-0.2,0.3C286.1,183.5,286.2,183.4,286.2,183.3z"/>
	<path class="st3" d="M287.1,181.6c-0.1,0.1-0.1,0.2-0.2,0.3C287,181.8,287.1,181.7,287.1,181.6z"/>
	<path class="st3" d="M271.5,201c-0.2,0.2-0.3,0.3-0.5,0.5C271.2,201.3,271.4,201.1,271.5,201z"/>
	<path class="st3" d="M269.8,202.7c-0.1,0.1-0.2,0.2-0.3,0.2C269.6,202.8,269.7,202.8,269.8,202.7z"/>
	<path class="st3" d="M273,199.5c-0.1,0.1-0.2,0.2-0.4,0.4C272.8,199.7,272.9,199.6,273,199.5z"/>
	<path class="st3" d="M274.8,197.7c-0.1,0.1-0.3,0.3-0.4,0.4C274.6,197.9,274.7,197.8,274.8,197.7z"/>
	<path class="st3" d="M277.8,194.5c0,0.1-0.1,0.1-0.1,0.2C277.7,194.6,277.7,194.6,277.8,194.5z"/>
	<path class="st3" d="M279.3,192.8c-0.1,0.1-0.3,0.3-0.4,0.4C279.1,193.1,279.2,192.9,279.3,192.8z"/>
	<path class="st3" d="M276.3,196.1c-0.1,0.2-0.3,0.3-0.4,0.5C276,196.4,276.2,196.3,276.3,196.1z"/>
	<path class="st3" d="M287.8,180.1c-0.1,0.1-0.1,0.3-0.2,0.4C287.7,180.4,287.8,180.3,287.8,180.1z"/>
	<path class="st3" d="M291,171.7c-0.5,1.6-1.1,3.1-1.7,4.7C289.9,174.8,290.5,173.2,291,171.7z"/>
	<path class="st3" d="M278.2,315.6c-0.9,0.5-1.9,0.9-2.9,1.4C276.3,316.5,277.2,316,278.2,315.6z"/>
	<path class="st3" d="M285.1,312c-0.4,0.2-0.9,0.5-1.4,0.8C284.1,312.5,284.6,312.2,285.1,312z"/>
	<path class="st3" d="M287.9,310.4c-0.2,0.1-0.4,0.2-0.6,0.3C287.5,310.6,287.7,310.5,287.9,310.4z"/>
	<path class="st3" d="M33,268c-0.6-0.7-1.2-1.4-1.7-2.2C31.8,266.6,32.3,267.3,33,268z"/>
	<path class="st3" d="M279.5,314.9c-0.4,0.2-0.9,0.4-1.4,0.7C278.6,315.4,279.1,315.1,279.5,314.9z"/>
	<path class="st3" d="M30.6,264.7c-2.1-3.6-3.1-7.8-3.1-12.7C27.5,256.8,28.5,261.1,30.6,264.7z"/>
	<path class="st3" d="M37,221.1c2.5-4.4,5.4-8.8,8.5-13C42.4,212.4,39.5,216.7,37,221.1z"/>
	<path class="st3" d="M51.9,200.5c0.9-1,1.8-2,2.7-2.9C53.7,198.5,52.8,199.5,51.9,200.5z"/>
	<path class="st3" d="M46.8,206.6c1.6-2.1,3.3-4.1,5.1-6.1C50.1,202.5,48.4,204.5,46.8,206.6z"/>
	<path class="st3" d="M28.2,243.8c0.2-1,0.4-2.1,0.7-3.1C28.6,241.7,28.4,242.8,28.2,243.8z"/>
	<path class="st3" d="M30.9,234.3c0.4-1.1,0.8-2.2,1.3-3.3C31.7,232.1,31.3,233.2,30.9,234.3z"/>
	<path class="st3" d="M33.6,227.7c0.8-1.6,1.6-3.3,2.5-5C35.2,224.4,34.4,226.1,33.6,227.7z"/>
	<path class="st3" d="M283.1,313.1c-0.9,0.5-1.9,1-2.9,1.5C281.2,314.1,282.2,313.5,283.1,313.1z"/>
	<path class="st3" d="M350.1,294.6c-5.6-2.3-11.3-4.1-17.3-5.2c0,0,0,0,0,0C338.8,290.4,344.6,292.2,350.1,294.6z"/>
	<path class="st3" d="M367.8,195.3c-1.6-1.5-3.6-2.6-5.9-3.3c-0.1,0-0.2,0-0.3-0.1c0.1,0,0.2,0,0.3,0.1
		C364.2,192.7,366.2,193.8,367.8,195.3z"/>
	<path class="st3" d="M394.7,336.7c-9-7.7-13.8-19.5-22-28.1C380.8,317.1,385.7,328.9,394.7,336.7z"/>
	<path class="st3" d="M361.2,191.9c0,0,0.1,0,0.1,0C361.3,191.9,361.2,191.9,361.2,191.9z"/>
	<path class="st3" d="M367.3,303.9c0.8,0.6,1.5,1.1,2.3,1.8C368.8,305,368.1,304.4,367.3,303.9z"/>
	<path class="st3" d="M260.5,278.3c-0.6-0.2-1.2-0.4-1.8-0.6c0,0,0,0,0,0c0.2,0.1,0.3,0.2,0.5,0.3
		C259.6,278.1,260,278.2,260.5,278.3z"/>
	<path class="st3" d="M151.9,309.7c-5.2-3.8-10.2-7.7-14.9-11.5C141.7,302,146.7,305.8,151.9,309.7c47.6,35,99.1,18.5,123.3,7.3
		C251,328.2,199.5,344.6,151.9,309.7z"/>
	<path class="st3" d="M356.7,198.2c0.5-1.2,0.9-2.4,1.3-3.6C357.7,195.8,357.2,197,356.7,198.2z"/>
	<path class="st3" d="M291,171.7c14.7-43.1,8.4-76.1-14.7-104.8C299.4,95.6,305.7,128.5,291,171.7z"/>
	<path class="st3" d="M55.3,275.8c9.3-0.7,21.8-5.1,34.5-12.5c1.7-1,3.4-2,5.1-3.1c-1.7,1.1-3.4,2.1-5.1,3.1
		C77,270.7,64.6,275.1,55.3,275.8z"/>
	<path class="st3" d="M62,179.8c0.1,0.7,0.1,1.4,0.2,2.1c0,0,0,0,0,0c0,0,0,0,0,0C62.1,181.2,62.1,180.5,62,179.8z"/>
	<path class="st3" d="M100.1,78.1C79.7,100,58.2,136.1,62,179.6c0,0,0,0.1,0,0.1C58.1,136.2,79.7,100.1,100.1,78.1z"/>
	<path class="st3" d="M260.9,210.7c-0.1,0.1-0.2,0.2-0.3,0.3C260.7,210.9,260.8,210.8,260.9,210.7z"/>
	<path class="st3" d="M257.3,213.7c-0.2,0.2-0.4,0.3-0.5,0.5C257,214,257.1,213.9,257.3,213.7z"/>
	<path class="st3" d="M255.3,215.5c-0.2,0.1-0.3,0.3-0.5,0.4C254.9,215.7,255.1,215.6,255.3,215.5z"/>
	<path class="st3" d="M259,212.3c-0.2,0.2-0.4,0.3-0.6,0.5C258.6,212.6,258.8,212.5,259,212.3z"/>
	<path class="st3" d="M351,207.7c2.3-2.9,4.2-6,5.7-9.5C355.2,201.7,353.3,204.8,351,207.7z"/>
	<path class="st3" d="M262.7,209.1c-0.2,0.2-0.4,0.3-0.6,0.5C262.4,209.4,262.6,209.3,262.7,209.1z"/>
	<path class="st3" d="M253.6,216.8c-0.2,0.2-0.4,0.3-0.6,0.5C253.2,217.1,253.4,217,253.6,216.8z"/>
	<path class="st3" d="M264.4,207.6c-0.1,0.1-0.3,0.3-0.4,0.4C264.1,207.9,264.2,207.8,264.4,207.6z"/>
	<path class="st3" d="M266.4,205.8c-0.2,0.1-0.3,0.3-0.5,0.4C266.1,206.1,266.2,206,266.4,205.8z"/>
	<path class="st3" d="M288.4,275.4c0.1-0.1,1.3-3.3,2.4-6.1C289.7,272.1,288.5,275.3,288.4,275.4z"/>
	<path class="st3" d="M251.9,218.3c-0.1,0.1-0.3,0.2-0.4,0.4C251.6,218.5,251.7,218.4,251.9,218.3z"/>
	<path class="st3" d="M246.7,222.5c-0.4,0.4-0.9,0.7-1.3,1C245.8,223.2,246.2,222.9,246.7,222.5z"/>
	<path class="st3" d="M245.2,223.7c-1.8,1.5-3.6,2.9-5.2,4.2C241.6,226.6,243.3,225.2,245.2,223.7z"/>
	<path class="st3" d="M250,219.8c-0.2,0.2-0.4,0.4-0.7,0.5C249.5,220.2,249.8,220,250,219.8z"/>
	<path class="st3" d="M248.4,221.1c-0.2,0.2-0.4,0.3-0.6,0.5C248,221.4,248.2,221.3,248.4,221.1z"/>
	<ellipse transform="matrix(0.961 -0.2764 0.2764 0.961 -31.9116 53.8765)" class="st4" cx="175.1" cy="140.1" rx="16.1" ry="21"/>
	<ellipse transform="matrix(0.961 -0.2764 0.2764 0.961 -31.0923 56.0998)" class="st1" cx="183.4" cy="138.3" rx="7.8" ry="10.2"/>
	<path class="st1" d="M409.1,341c-0.5-3.5-2.6-6.5-5.7-8.4c-0.8-0.5-1.5-1-2.4-1.7c-4.5-3.6-8-8.8-11.8-14.4
		c-4.7-7.1-10.1-15.1-18.6-20.6c-4.4-2.8-8.8-5.3-13.3-7.4c2.2-1.5,4.3-3.2,6.2-5.4l0.2-0.2c0.3-0.3,0.6-0.6,0.8-1
		c7.9-9.8,11.3-22.3,13.7-31.5c2.7-10.3,5.8-23.9,4.9-37.5c-1.2-19.6-10.9-26.7-18.9-29.1c-0.1,0-0.1,0-0.2,0c-1-0.3-2-0.4-3-0.4
		c-5.1,0-9.5,3.5-11.1,8.6c-1.2,3.7-3,7.1-5.6,10.4c-3.1,3.9-7.3,7.6-13.3,11.8l-1.6,1.1c-8.7,6.1-17.8,12.5-25.8,20.5
		c-8.1,8.1-14.4,16.6-18.8,25.2c-0.5,0.9-2.8,7.1-3,7.7c-4,1.4-7.9,1.8-11.9,2c-11.9,0.8-35.7-18.2-34.6-28.1
		c2.1-2.2,8.4-7.3,13.5-11.4c17.2-13.8,40.8-32.8,47.3-49.6c20-52,13.1-93.3-21.9-129.9c-17.7-18.5-41.7-28.3-69.6-28.3
		c-14.5,0-29.7,2.7-45.1,7.9c-27.2,9.3-49.3,23-65.8,40.8c-8.7,9.4-21,24.9-29.8,45.4c-8.9,20.7-12.4,42.1-10.4,63.5
		c0.2,1.7,0.3,3.3,0.6,4.9c-18.3,16.7-32.5,40.2-34.9,59.7c-1.5,12,1.5,22.1,8.6,29.2c6.3,6.2,14.4,9.4,24.3,9.4
		c1.2,0,2.4,0,3.6-0.1c14.3-1,28.6-7.8,39.4-14.4c13.9,15.9,31.1,31.5,51.7,46.6c20.5,15.1,43.8,22.8,69.2,22.8
		c30.3,0,56.2-10.9,70.2-18.4c6.1,10.3,13,21.4,19.7,27.4c9.2,8.3,20.5,14,33.5,16.8c7.7,1.7,15.7,2.6,23.1,2.6c0,0,0,0,0,0
		c19.3,0,34.5-6,43.9-17.5C408.7,347.6,409.6,344.3,409.1,341z M400.7,343.4c-0.1,0.5-0.3,0.9-0.7,1.4c-1.3,1.5-2.7,2.9-4.1,4.2
		c-8.9,7.6-21.1,10.2-33.2,10.2c-1.3,0-2.7,0-4-0.1c-0.7,0-1.3-0.1-2-0.1c-1.3-0.1-2.7-0.2-4-0.3c-1.3-0.1-2.6-0.3-3.9-0.5
		c-1.3-0.2-2.5-0.4-3.8-0.6c-1.2-0.2-2.5-0.5-3.6-0.7c-11-2.4-21.2-7.3-29.7-14.8c-9.5-8.5-21.6-32.4-22.4-32.4c0,0-0.5,0.3-1.4,0.8
		c-0.2,0.1-0.4,0.2-0.6,0.3c-0.6,0.4-1.4,0.8-2.3,1.3c-0.4,0.2-0.9,0.5-1.4,0.8c-0.2,0.1-0.3,0.2-0.5,0.3c-0.9,0.5-1.9,1-2.9,1.5
		c-0.2,0.1-0.4,0.2-0.6,0.3c-0.4,0.2-0.9,0.4-1.4,0.7c-0.9,0.5-1.9,0.9-2.9,1.4c-24.2,11.2-75.8,27.7-123.3-7.3
		c-5.2-3.8-10.2-7.7-14.9-11.5c-13.6-11.1-25.1-22.1-34.6-33c11.9-8.2,22.9-18.2,30.9-28.1c1.4-1.7,1.1-4.2-0.7-5.5
		c-2-1.5-4.8-1.1-6.4,0.8c-8.4,10.4-18.8,19.3-29.3,26.4c-0.7,0.5-1.5,1-2.2,1.4c-1.7,1.1-3.4,2.1-5.1,3.1
		c-12.7,7.4-25.2,11.8-34.5,12.5c-9,0.7-16.2-1.6-21.4-6.8c-0.3-0.3-0.6-0.7-0.9-1c-0.6-0.7-1.2-1.4-1.7-2.2
		c-0.3-0.4-0.5-0.8-0.7-1.2c-2.1-3.6-3.1-7.8-3.1-12.7c0-1.1,0-2.2,0.1-3.4c0-0.6,0.1-1.2,0.2-1.8c0.1-1,0.3-2,0.5-3
		c0.2-1,0.4-2.1,0.7-3.1c0.5-2.1,1.2-4.2,2-6.4c0.4-1.1,0.8-2.2,1.3-3.3c0.5-1.1,0.9-2.2,1.5-3.3c0.8-1.6,1.6-3.3,2.5-5
		c0.3-0.6,0.6-1.1,0.9-1.7c2.5-4.4,5.4-8.8,8.5-13c0.4-0.5,0.8-1,1.2-1.6c1.6-2.1,3.3-4.1,5.1-6.1c0.9-1,1.8-2,2.7-2.9
		c0.5-0.5,0.9-1,1.4-1.4c2.4-2.4,4.8-4.6,7.3-6.7c-0.1-0.6-0.2-1.2-0.3-1.8c-0.3-1.8-0.5-3.7-0.7-5.5c0-0.1,0-0.1,0-0.2c0,0,0,0,0,0
		c-0.1-0.7-0.1-1.4-0.2-2.1c0,0,0-0.1,0-0.1c-3.8-43.6,17.7-79.6,38.1-101.5C118,58.8,140.7,47,162.4,39.6c16.6-5.7,33-8.2,48.2-7.3
		c2.4,0.1,4.7,0.3,7,0.6c1.7,0.2,3.4,0.5,5.1,0.8c1.1,0.2,2.2,0.4,3.4,0.7c0.6,0.1,1.1,0.2,1.7,0.4c2.2,0.5,4.4,1.1,6.5,1.8
		c0.5,0.2,1.1,0.3,1.6,0.5c12.2,4.2,23.2,11.1,32.4,20.7c2.9,3,5.5,6,8,9.1c23.1,28.7,29.4,61.7,14.7,104.8
		c-0.5,1.6-1.1,3.1-1.7,4.7c-0.3,0.8-0.6,1.6-0.9,2.4c-0.2,0.4-0.4,0.9-0.6,1.3c-0.1,0.1-0.1,0.3-0.2,0.4c-0.2,0.4-0.3,0.7-0.5,1.1
		c-0.1,0.1-0.1,0.2-0.2,0.3c-0.2,0.5-0.5,0.9-0.8,1.4c-0.1,0.1-0.1,0.2-0.2,0.3c-0.2,0.4-0.4,0.7-0.7,1.1c-0.1,0.1-0.2,0.3-0.3,0.4
		c-0.3,0.4-0.6,0.9-0.9,1.3c0,0,0,0,0,0.1c-0.3,0.5-0.7,0.9-1,1.4c-0.1,0.1-0.2,0.3-0.3,0.4c-0.3,0.4-0.6,0.7-0.8,1.1
		c-0.1,0.1-0.2,0.2-0.3,0.4c-0.4,0.5-0.8,0.9-1.1,1.4c-0.1,0.1-0.2,0.2-0.3,0.3c-0.3,0.4-0.6,0.8-1,1.1c-0.1,0.1-0.3,0.3-0.4,0.4
		c-0.4,0.4-0.8,0.9-1.2,1.3c0,0.1-0.1,0.1-0.1,0.2c-0.4,0.5-0.9,1-1.3,1.4c-0.1,0.2-0.3,0.3-0.4,0.5c-0.3,0.4-0.7,0.7-1,1.1
		c-0.1,0.1-0.3,0.3-0.4,0.4c-0.5,0.5-0.9,0.9-1.4,1.4c-0.1,0.1-0.2,0.2-0.4,0.4c-0.4,0.4-0.8,0.7-1.1,1.1c-0.2,0.2-0.3,0.3-0.5,0.5
		c-0.4,0.4-0.8,0.8-1.3,1.2c-0.1,0.1-0.2,0.2-0.3,0.2c-0.5,0.5-1,0.9-1.5,1.4c-0.2,0.2-0.3,0.3-0.5,0.5c-0.4,0.3-0.8,0.7-1.1,1
		c-0.2,0.1-0.3,0.3-0.5,0.4c-0.5,0.5-1,0.9-1.5,1.4c-0.1,0.1-0.3,0.3-0.4,0.4c-0.4,0.4-0.8,0.7-1.2,1.1c-0.2,0.2-0.4,0.3-0.6,0.5
		c-0.4,0.4-0.9,0.7-1.3,1.1c-0.1,0.1-0.2,0.2-0.3,0.3c-0.5,0.4-1,0.9-1.6,1.3c-0.2,0.2-0.4,0.3-0.6,0.5c-0.4,0.3-0.7,0.6-1.1,0.9
		c-0.2,0.2-0.4,0.3-0.5,0.5c-0.5,0.4-1,0.9-1.5,1.3c-0.2,0.1-0.3,0.3-0.5,0.4c-0.4,0.3-0.8,0.6-1.1,0.9c-0.2,0.2-0.4,0.3-0.6,0.5
		c-0.4,0.3-0.8,0.6-1.1,0.9c-0.1,0.1-0.3,0.2-0.4,0.4c-0.5,0.4-1,0.8-1.5,1.2c-0.2,0.2-0.4,0.4-0.7,0.5c-0.3,0.3-0.6,0.5-0.9,0.8
		c-0.2,0.2-0.4,0.3-0.6,0.5c-0.4,0.3-0.7,0.6-1.1,0.9c-0.4,0.4-0.9,0.7-1.3,1c-0.1,0.1-0.1,0.1-0.2,0.2c-1.8,1.5-3.6,2.9-5.2,4.2
		c0,0-0.1,0-0.1,0.1c-6.9,5.6-11.8,9-12.6,10.7c-4.9,9.9,11,31.9,31.4,39.1c0,0,0,0,0,0c0.6,0.2,1.2,0.4,1.8,0.6l0,0
		c9,2.7,18.8,2.5,27.9-2.9c0,0,0,0,0,0c0.1,0,1.3-3.3,2.4-6.1c0.8-2.1,1.6-4.1,1.7-4.3c4.3-8.6,10.5-16.3,17.2-23.1
		c3.5-3.5,7.2-6.7,11-9.7c1.1-0.9,2.2-1.7,3.3-2.5c3.9-2.9,7.9-5.7,11.9-8.5c5.7-4,10.9-8.3,15-13.5c2.3-2.9,4.2-6,5.7-9.5
		c0.5-1.2,0.9-2.4,1.3-3.6c0.1-0.3,0.2-0.6,0.4-0.8c0.6-1,1.6-1.9,2.8-1.9c0,0,0.1,0,0.1,0c0.1,0,0.2,0,0.3,0c0.1,0,0.2,0,0.3,0.1
		c2.4,0.7,4.3,1.9,5.9,3.3c0.4,0.4,0.8,0.7,1.1,1.1c2,2.2,3.4,4.9,4.3,7.9c0.2,0.8,0.5,1.6,0.7,2.5c0.2,0.8,0.3,1.7,0.5,2.5
		c0.2,1.4,0.4,2.8,0.4,4.3c0.7,11.6-1.7,23.6-4.6,34.8c-2.6,9.8-5.6,20.3-12.1,28.3c-0.2,0.3-0.5,0.6-0.7,0.8
		c-3,3.3-6.6,5.5-10.5,7.1c-0.5,0.2-1,0.4-1.6,0.6c-0.3,0.1-0.5,0.2-0.8,0.3c-3.7,1.4-7.7,2.4-11.5,3.7c0,0,0,0,0,0
		c5.9,1.1,11.7,2.9,17.3,5.2c5.6,2.3,10.9,5.2,16,8.5c0.4,0.3,0.8,0.5,1.2,0.8c0.8,0.6,1.5,1.1,2.3,1.8c1.1,0.9,2.1,1.9,3.1,2.9
		c8.2,8.6,13,20.4,22,28.1c0.4,0.3,0.7,0.6,1.1,0.9c0.5,0.4,1,0.8,1.5,1.2c0.5,0.4,1.1,0.7,1.6,1.1c0.6,0.4,1.1,0.9,1.4,1.5
		C400.8,341.9,400.9,342.7,400.7,343.4z"/>
	<path class="st1" d="M394.8,32.7c-0.5-3.3-2.6-4.5-6-4.7c-0.6,0-1.1-0.1-1.7,0c-4.2,0.2-8.3,1.2-12.3,2.4
		c-10.7,3-21.2,6.8-31.5,10.8c-6,2.3-11.9,4.8-17.9,7.2c-10.5,4.3-20.8,8.9-31.2,13.4l0,0c-0.4,0.2-0.9,0.5-1.3,0.7
		c-0.3,0.1-0.5,0.2-0.8,0.3c-2,0.9-9.7,4.5-18.7,8.8c-2.4,1.1-1.7,0.8-5.6,2.7c-0.8,0.4-1.8,0.9-3,1.5c-6.5,3.2-5.2,2.6-12.9,6.4
		c-3.7,1.8-14.1,6.8-15.8,8.6c-1.4,1.5-2.3,3.2-2.6,3.9c-0.4,0.9-0.8,1.9-1.1,2.9c-2.2,8.1-1.1,15.8,3.8,22.7
		c4.3,6,10.3,8.8,17.6,8.5c4.6-0.2,8.8-1.8,12.9-3.9c0.6-0.3,1.2-0.7,1.8-1c2.9-1.6,5.6-3.4,8.5-5c0,0,3.5-2.1,9-5.5
		c11.4-7.1,31.6-19.9,50.3-32.1c2.5-1.6,5-3.3,7.4-4.9c10.2-6.7,19.4-13,25.7-17.6c6.5-4.8,12.9-9.7,18.7-15.4
		c2.8-2.8,6-5.5,6.6-9.6C394.8,33.6,394.9,33,394.8,32.7z M253.5,121c0.5,1.1,0.4,1.3-0.9,1.3c-3,0-5.7-0.9-8.1-2.7
		c-3.6-2.8-5.5-6.7-6.4-11.1c-0.4-2.4-0.5-4.8,0-7.2c0.7-3.4,2.1-6.4,5.2-8.4c0.8-0.5,10-5.4,10.6-5.7c0.1,0.7-0.7,3.4-0.7,3.4
		c0.1,0.2-2.6,11.1-2.6,15.6C250.6,111.4,251.2,116.3,253.5,121z M275.8,77.3c0,0.1,0,0.2-0.1,0.3c-2.4,5.1-1.8,22.5-0.3,30.4
		c0.2,0.9,0.4,1.7,0.6,2.4c0.4,0.8-0.8,2-1.6,2.4c-1.9,1.1-2.6,1.6-4.5,2.7c-0.5,0.3-1,0.6-1.5,0.9c-2,1.2-4,2.4-6.2,3.4
		c-1.2,0.6-1.5,0.5-2.2-0.7c-0.9-1.5-1.5-3-1.9-4.7c-0.6-2.5-0.7-5-0.8-7.5c-0.2-2.7,0.6-21,9-25.7c0,0,0.6-0.3,1.6-0.8
		c2.2-1.1,6.1-2.9,8-3.4c0,0,0,0,0-0.1C275.9,77,275.9,77.1,275.8,77.3z M299.7,66.8c-0.3,1-3.8,12-1.6,30.4c0.1,0.9,0,1.3-0.7,1.8
		c-2.8,1.7-5.6,3.3-8.4,5.1c-1.8,1.2-3.8,2.2-5.6,3.4c-1.1,0.7-6.4-29.8,1.8-34.4c1.2-0.5,13.3-6.5,14.2-6.7
		C300.1,66.1,299.8,66.5,299.7,66.8z M320.8,58.1c-1.5,3.9-2.3,8-2.6,12.2c-0.4,4.5,0,9,1.4,13.3c0.2,0.7,0.2,1.3-0.5,1.7
		c-4.6,2.9-9.2,5.8-13.9,8.7c-1,0.6-1.1,0.6-1.4-0.6c-0.6-2.8-3.2-20.6,4.2-30.1c1.8-2.3,9.5-5,12.2-6.1c0.3-0.1,0.5-0.2,0.8-0.1
		C321.2,57.5,321,57.8,320.8,58.1z M342.2,69.4c0.3,0.8,0.2,1.2-0.6,1.7c-5.1,3.3-10.1,6.6-15.2,10c-0.8,0.5-1,0.3-1.2-0.5
		c-1.1-4.7-1.1-9.4-0.1-14.1c0.8-4.8,2.4-9.3,5.4-13.1c0.5-0.7,1.2-1.1,2-1.5c3.2-1.2,9.8-4,9.9-3.9c0.4,0.2-1.5,4.9-1.9,7.2
		C339.8,60,340.4,64.8,342.2,69.4z M363.6,54.7c0.2,0.5,0.3,0.8-0.2,1.2c-5.1,3.7-10.3,7.3-15.5,10.8c-0.1,0.1-0.2,0.1-0.4,0.1
		c-1.4-3.8-1.7-7.8-0.9-11.8c0,0,0,0,0,0c0,0,0,0,0,0c0.8-4.6,3.1-8.3,6.7-11.3c0.1-0.1,5.7-2.3,8.7-3.2c0.1,0,0.2-0.1,0.3-0.1
		c0.4-0.3,0.9-0.4,1.5-0.5c-0.8,2.4-1.3,4.8-1.4,7.3C362.4,49.9,362.8,52.3,363.6,54.7z M383.2,40c-4.3,4.1-9.1,7.8-13.8,11.4
		c-0.1,0.1-0.3,0.1-0.5,0.3c-0.7-2.6-0.1-7.5-0.1-7.5c0,0,0,0,0,0c0.5-3,2.2-5.3,4.5-7.2c0.2-0.2,0.5-0.2,0.8-0.3
		c4-1.1,8-2.3,12.2-2.7c0.6-0.1,1.1-0.1,1.7-0.1C388.5,33.9,385,38.3,383.2,40z"/>
	<g>
		<path class="st5" d="M254,87.2c-0.6,0.3-9.8,5.2-10.6,5.7c-3.1,2-4.5,4.9-5.2,8.4c-0.5,2.4-0.4,4.8,0,7.2
			c0.9,4.4,2.7,8.3,6.4,11.1c2.4,1.8,5.1,2.7,8.1,2.7c1.3,0,1.4-0.2,0.9-1.3c-2.3-4.7-2.9-9.6-2.8-14.7c0-4.5,2.7-15.4,2.6-15.6
			C253.2,90.6,254,88,254,87.2z"/>
		<path class="st5" d="M299.4,66.3c-0.9,0.2-13,6.1-14.2,6.7c-8.1,4.7-2.8,35.1-1.8,34.4c1.8-1.2,3.8-2.2,5.6-3.4
			c2.8-1.8,5.6-3.4,8.4-5.1c0.7-0.5,0.8-0.8,0.7-1.8c-2.1-18.4,1.4-29.4,1.6-30.4C299.8,66.5,300.1,66.1,299.4,66.3z"/>
		<path class="st5" d="M320.3,57.2c-2.7,1.1-10.4,3.8-12.2,6.1c-7.4,9.5-4.9,27.3-4.2,30.1c0.3,1.2,0.4,1.3,1.4,0.6
			c4.6-2.9,9.2-5.8,13.9-8.7c0.7-0.5,0.8-1,0.5-1.7c-1.4-4.3-1.8-8.8-1.4-13.3c0.4-4.2,1.2-8.2,2.6-12.2c0.1-0.3,0.3-0.7,0.3-1
			C320.8,57,320.6,57.2,320.3,57.2z"/>
		<path class="st5" d="M342.5,47.9c-0.1,0-6.7,2.7-9.9,3.9c-0.8,0.3-1.5,0.8-2,1.5c-3,3.9-4.6,8.4-5.4,13.1c-1,4.7-1.1,9.4,0.1,14.1
			c0.2,0.8,0.4,1,1.2,0.5c5-3.4,10.1-6.7,15.2-10c0.7-0.5,0.9-0.9,0.6-1.7c-1.7-4.6-2.3-9.4-1.5-14.3
			C341,52.8,342.9,48.1,342.5,47.9z"/>
		<path class="st5" d="M267.8,80.4c-1,0.5-1.6,0.8-1.6,0.8c-8.3,4.7-9.1,23.1-9,25.7c0.2,2.5,0.2,5,0.8,7.5c0.4,1.7,1,3.2,1.9,4.7
			c0.7,1.1,1,1.2,2.2,0.7c2.1-1,4.1-2.2,6.2-3.4c0.5-0.3,1-0.6,1.5-0.9c1.9-1.1,2.6-1.6,4.5-2.7c0.8-0.4,2.1-1.5,1.6-2.4
			c-0.2-0.6-0.4-1.4-0.6-2.4c-1.5-7.8-2.2-25.3,0.3-30.4c0-0.1,0.1-0.2,0.1-0.3c0-0.2,0-0.4,0-0.4c0,0,0,0,0,0.1
			C273.9,77.4,270,79.3,267.8,80.4z"/>
		<path class="st5" d="M388,33.9c-0.6,0-1.1,0-1.7,0.1c-4.2,0.4-8.2,1.5-12.2,2.7c-0.3,0.1-0.6,0.2-0.8,0.3c-2.3,1.9-4,4.2-4.5,7.2
			c0,0,0,0,0,0c0,0-0.6,5,0.1,7.5c0.2-0.1,0.4-0.2,0.5-0.3c4.7-3.6,9.5-7.3,13.8-11.4C385,38.3,388.5,33.9,388,33.9z"/>
		<path class="st5" d="M353.3,43.8c-3.6,3-5.9,6.7-6.7,11.3c0,0,0,0,0,0c0,0,0,0,0,0c-0.8,4-0.4,7.9,0.9,11.8
			c0.2-0.1,0.3-0.1,0.4-0.1c5.2-3.5,10.4-7.1,15.5-10.8c0.6-0.4,0.4-0.7,0.2-1.2c-0.8-2.4-1.2-4.8-1.2-7.4c0-2.5,0.5-4.9,1.4-7.3
			C363.2,40.1,353.4,43.7,353.3,43.8z"/>
	</g>
</g>
</svg>
