<?xml version="1.0" encoding="utf-8"?>
<!-- Generator: Adobe Illustrator 22.0.1, SVG Export Plug-In . SVG Version: 6.00 Build 0)  -->
<svg version="1.1" id="Layer_1" xmlns="http://www.w3.org/2000/svg" xmlns:xlink="http://www.w3.org/1999/xlink" x="0px" y="0px"
	 viewBox="0 0 427 82" style="enable-background:new 0 0 427 82;" xml:space="preserve">
<style type="text/css">
	path{fill:#FFFFFF;}
</style>
<g>
	<path  d="M61.4,67.4c0,0.6-0.4,1-1,1H46.1c-0.6,0-1-0.2-1.2-0.8c-1.2-2.8-2.7-5.8-4-8.5l-11.3-23c-1-2.1-1.9-3.9-2.9-6
		c-0.6-1.2-1.4-0.7-1.4,0.3c0.7,5,0.9,8.8,0.9,14.5v22.4c0,0.6-0.4,1-1,1H14.4c-0.6,0-1-0.4-1-1V12.9c0-0.6,0.4-1,1-1h14.2
		c0.6,0,1,0.2,1.2,0.8c1.3,2.8,2.8,5.8,4.1,8.5l11.4,23.2c1,2.1,1.8,3.9,2.9,5.8c0.6,1.3,1.4,0.8,1.3-0.3c-0.8-5-0.9-8.6-0.9-14.4
		V12.9c0-0.6,0.4-1,1-1h10.8c0.6,0,1,0.4,1,1V67.4z"/>
	<path  d="M92.7,68.5c-2.8,0.6-5.5,0.9-7.6,0.9c-13.1,0-20.2-7.9-20.2-20.4c0-12.6,7.3-20.5,19.8-20.5
		c10,0,16.1,5.3,16.1,13.5c0,6.4-4.5,10.1-13.7,11.3l-9.3,1.4c1.5,2.8,3.5,4,7.3,4c1.7,0,4-0.3,5.1-0.6l4.8-1c0.6-0.2,1,0.1,1.2,0.7
		l2.2,8.3c0.2,0.7-0.2,1.1-0.8,1.3L92.7,68.5z M85.3,45.2c2.5-0.2,3.7-1.4,3.7-3.1c0-1.9-1.6-2.9-4.8-2.9c-3.4,0-6.9,2.2-7.2,7.3
		L85.3,45.2z"/>
	<path  d="M132.9,42.6c-1.4,2.6-3.5,4.7-5.4,5.6c-0.4,0.2-0.4,0.6-0.1,0.7c2.2,1.4,3.8,3,5.5,6l6.8,12.3
		c0.4,0.7,0.2,1.3-0.7,1.3h-11.6c-0.6,0-1-0.2-1.3-0.7l-4.7-9.1c-0.5-0.9-0.9-0.9-1.4,0l-4.8,9.1c-0.2,0.5-0.6,0.7-1.2,0.7h-11.7
		c-0.9,0-1.1-0.6-0.7-1.3l6.8-12.3c1.7-2.8,3.4-4.7,5.5-6c0.3-0.2,0.3-0.5-0.1-0.7c-1.7-1-3.9-3.2-5.4-5.6L102,30.6
		c-0.4-0.7-0.2-1.3,0.7-1.3h11.5c0.6,0,1,0.2,1.2,0.7l4.8,9.2c0.4,0.9,0.9,0.9,1.4,0l4.7-9.2c0.3-0.5,0.6-0.7,1.3-0.7h11.4
		c0.9,0,1.1,0.6,0.7,1.3L132.9,42.6z"/>
	<path  d="M169.3,29.3c0.6,0,1,0.4,1,1v9c0,0.6-0.4,1-1,1h-9v14.5c0,2.1,0.8,3.3,2.1,3.3c0.7,0,1.4-0.1,2-0.3
		c0.6-0.2,1.1-0.2,1.4,0.5l3.8,7.7c0.2,0.6,0.2,1.1-0.3,1.4c-1.9,1.3-4.5,1.9-6.9,1.9c-9.3,0-14.7-5.4-14.7-14.5V40.4h-4.2
		c-0.6,0-1-0.4-1-1v-9c0-0.6,0.4-1,1-1h4.2v-8.7c0-0.6,0.2-1,0.9-1.2l10.5-3.5c0.7-0.2,1.2,0.1,1.2,0.9v12.5H169.3z"/>
	<path  d="M203.9,13.6c10.6,0,16.9,5.5,16.9,14.9c0,7.3-4.5,12.1-11.7,14.5c-1,0.3-1,0.8-0.1,1.3
		c3.9,1.9,6.5,5.7,8.2,9.8l5.8,13.7c0.2,0.6,0,0.9-0.5,0.9h-4.2c-0.4,0-0.6-0.2-0.8-0.6l-5.2-12c-3.1-7.5-7.8-10.9-15.7-10.9h-9.2
		v22.8c0,0.5-0.2,0.7-0.7,0.7H183c-0.5,0-0.7-0.2-0.7-0.7V14.3c0-0.5,0.2-0.7,0.7-0.7H203.9z M199.1,40.2c10.5,0,16.4-4.2,16.4-11.6
		c0-6.5-4.4-10.3-11.6-10.3h-16.4v21.9H199.1z"/>
	<path  d="M251.4,68.1c-2.8,0.9-5.6,1.2-8.6,1.2c-11,0-17.6-7.7-17.6-20c0-12.2,6.6-19.9,17.5-19.9
		c9,0,14.5,4.4,14.5,11.8c0,5.6-3.5,8.9-10.7,10.1l-15.6,2.6c1,6.7,5.3,10.6,11.9,10.6c2.7,0,5.2-0.3,7.4-1l2.4-0.7
		c0.5-0.1,0.8,0.1,1,0.6l1,3.2c0.1,0.5-0.1,0.8-0.6,0.9L251.4,68.1z M245.6,46.9c4.2-0.7,6.4-2.6,6.4-5.6c0-4.5-3.4-7.1-9.3-7.1
		c-7.4,0-11.9,5-12.1,15.3L245.6,46.9z"/>
	<path  d="M268.3,61.6c0,1.8,0.7,2.9,2.1,2.9c0.2,0,0.5,0,0.7-0.1c0.4-0.2,0.7,0,0.9,0.4l1.4,3.1c0.2,0.4,0,0.8-0.4,1
		c-0.8,0.2-1.7,0.4-2.6,0.4c-4.6,0-7.3-2.8-7.3-7.7V12.8c0-0.5,0.2-0.7,0.7-0.7h3.8c0.5,0,0.7,0.2,0.7,0.7V61.6z"/>
	<path  d="M302.5,68.1c-2.8,0.9-5.6,1.2-8.6,1.2c-11,0-17.6-7.7-17.6-20c0-12.2,6.6-19.9,17.5-19.9
		c9,0,14.5,4.4,14.5,11.8c0,5.6-3.5,8.9-10.7,10.1l-15.6,2.6c1,6.7,5.3,10.6,11.9,10.6c2.7,0,5.2-0.3,7.4-1l2.4-0.7
		c0.5-0.1,0.8,0.1,1,0.6l1,3.2c0.1,0.5-0.1,0.8-0.6,0.9L302.5,68.1z M296.6,46.9c4.2-0.7,6.4-2.6,6.4-5.6c0-4.5-3.4-7.1-9.3-7.1
		c-7.4,0-11.9,5-12.1,15.3L296.6,46.9z"/>
	<path  d="M319.3,30.6c2.3-0.7,5.2-1.2,8.5-1.2c9.7,0,15.8,5.8,15.8,15.5v22.8c0,0.5-0.2,0.7-0.7,0.7h-2.5
		c-0.5,0-0.7-0.2-0.8-0.7l-0.2-3.6c-0.2-1-0.8-1-1.6-0.1c-2.7,3.4-6.8,5.2-12.7,5.2c-8.1,0-12.8-4.4-12.8-11.5
		c0-6.9,4.9-11.7,14.1-11.7h12.1v-1c0-6.8-3.8-10.7-10.7-10.7c-2.8,0-5.3,0.3-7.3,1l-2.8,0.8c-0.5,0.2-0.8,0-1-0.5l-0.9-3.1
		c-0.2-0.5,0-0.8,0.5-1L319.3,30.6z M326.4,50.5c-6.1,0-8.9,2.8-8.9,6.9c0,4.5,2.9,7.1,8,7.1c8.2,0,12.9-4.7,12.9-13v-1H326.4z"/>
	<path  d="M359.5,49.7c-5.9-1.5-8.6-4.6-8.6-9.9c0-6.5,5-10.4,13.7-10.4c3.5,0,6.9,0.5,9.3,1.2l3.1,1
		c0.5,0.2,0.6,0.5,0.5,1l-0.9,3.1c-0.2,0.5-0.5,0.6-1,0.5l-3-0.9c-2.2-0.6-5.2-1-8-1c-5.4,0-8.5,2.2-8.5,5.6c0,2.8,1.5,4.6,5.1,5.6
		l9.3,2.6c6.2,1.6,8.9,5,8.9,10.1c0,6.9-5.4,11.1-14.5,11.1c-4.7,0-8.8-0.6-12.1-1.8l-2.2-0.7c-0.5-0.2-0.6-0.5-0.5-1l1.1-3.2
		c0.2-0.4,0.5-0.6,0.9-0.4l2.1,0.7c2.7,1,6.4,1.6,10.6,1.6c5.9,0,9.3-2.4,9.3-6.3c0-3-1.7-4.7-5.4-5.8L359.5,49.7z"/>
	<path  d="M410.1,68.1c-2.8,0.9-5.6,1.2-8.6,1.2c-11,0-17.6-7.7-17.6-20c0-12.2,6.6-19.9,17.5-19.9
		c9,0,14.5,4.4,14.5,11.8c0,5.6-3.5,8.9-10.7,10.1l-15.6,2.6c1,6.7,5.3,10.6,11.9,10.6c2.7,0,5.2-0.3,7.4-1l2.4-0.7
		c0.5-0.1,0.8,0.1,1,0.6l1,3.2c0.1,0.5-0.1,0.8-0.6,0.9L410.1,68.1z M404.3,46.9c4.2-0.7,6.4-2.6,6.4-5.6c0-4.5-3.4-7.1-9.3-7.1
		c-7.4,0-11.9,5-12.1,15.3L404.3,46.9z"/>
</g>
</svg>
