<?xml version="1.0" encoding="UTF-8"?> <svg xmlns="http://www.w3.org/2000/svg" id="Layer_1" data-name="Layer 1" width="218.5" height="220.49" viewBox="0 0 218.5 220.49"><title>nr_icon_track</title><circle cx="108.73" cy="108.73" r="108.73" transform="translate(-18.18 21.91) rotate(-10.63)" fill="#00eaff"></circle><path d="M80.63,180.37h0a9.23,9.23,0,0,1-10.92-7.05l-6.08-28.18a9.22,9.22,0,0,1,7.05-10.92h0a9.21,9.21,0,0,1,10.92,7l6.07,28.19A9.21,9.21,0,0,1,80.63,180.37Z" fill="#fe712c"></path><path d="M78.69,182.5a11.18,11.18,0,0,1-10.86-8.77l-6.07-28.19a11.09,11.09,0,0,1,16.87-11.66,11,11,0,0,1,4.84,7l6.08,28.19A11.11,11.11,0,0,1,81,182.24h0A11,11,0,0,1,78.69,182.5Zm-6.08-46.57a7.28,7.28,0,0,0-7.1,8.8l6.08,28.19a7.28,7.28,0,0,0,8.64,5.57h0a7.28,7.28,0,0,0,5.57-8.64l-6.08-28.18a7.31,7.31,0,0,0-7.11-5.74Z" fill="#231834"></path><path d="M135.55,40.06c-.47,7.4,5.35,31.55,14.59,59.56s18.93,50.83,23.72,56.52c-13-7.7-53.34-22.84-99.21-7.7L60.42,105.32C106.3,90.17,129.72,54,135.55,40.06Z" fill="#fe712c"></path><path d="M173.86,158.06a1.9,1.9,0,0,1-1-.27C158,149,118.44,136,75.26,150.26A1.93,1.93,0,0,1,72.83,149L58.6,105.92a1.93,1.93,0,0,1,.11-1.47,2,2,0,0,1,1.11-1c43.21-14.26,67.27-48.21,74-64.17a1.92,1.92,0,0,1,3.68.86C137,47.43,143.11,72.17,152,99s18.67,50.32,23.36,55.9a1.92,1.92,0,0,1-1.47,3.15Zm-58.87-18c22.53,0,41.68,5.64,53.53,11.11-5.4-10.14-13-29.28-20.2-51s-12.43-41.65-14.13-53c-9.65,17.67-33.06,46-71.35,59.3l13,39.51A130.19,130.19,0,0,1,115,140.09Z" fill="#231834"></path><ellipse cx="156.72" cy="97.43" rx="17.69" ry="61.83" transform="translate(-22.64 54.03) rotate(-18.27)" fill="#fe712c"></ellipse><path d="M174.4,158.33c-5,0-11-4.9-17.44-14.38-6.93-10.19-13.62-24.52-18.85-40.37s-8.39-31.36-8.88-43.66c-.54-13.26,2.06-21.22,7.51-23S149,40,156.48,50.92c6.93,10.18,13.63,24.52,18.86,40.37C185,120.63,188.8,154,176.7,158A7.38,7.38,0,0,1,174.4,158.33Zm-35.34-118a3.68,3.68,0,0,0-1.11.17c-3.5,1.16-5.33,8.34-4.89,19.22.48,12,3.57,27.1,8.69,42.62s11.65,29.51,18.39,39.41c6.12,9,11.87,13.69,15.36,12.53s5.32-8.33,4.89-19.21c-.49-12-3.57-27.1-8.69-42.62S160.05,63,153.31,53.08C147.8,45,142.6,40.37,139.06,40.37Z" fill="#231834"></path><path d="M41.29,111.66,55.5,154.72c-12.1,3.4-21.35-3.86-25.17-15.42S29.54,116.13,41.29,111.66Z" fill="#fe712c"></path><path d="M49.69,157.47c-9.53,0-17.49-6.4-21.18-17.57-4.53-13.73.22-25.52,12.09-30a1.92,1.92,0,0,1,2.51,1.19l14.21,43.07a1.91,1.91,0,0,1-1.3,2.45A23.25,23.25,0,0,1,49.69,157.47Zm-9.57-43.22a16.26,16.26,0,0,0-8.34,9.21c-1.56,4.38-1.42,9.79.37,15.24,4.22,12.78,13.21,16,20.87,14.62Z" fill="#231834"></path><rect x="47.89" y="107.34" width="20.16" height="45.39" transform="translate(-37.84 24.72) rotate(-18.27)" fill="#c14f21"></rect><path d="M55.51,156.66a1.92,1.92,0,0,1-1.82-1.32l-14.23-43.1a1.92,1.92,0,0,1,1.22-2.42l19.14-6.32a1.93,1.93,0,0,1,1.47.11,2,2,0,0,1,1,1.11l14.22,43.1a1.91,1.91,0,0,1-1.22,2.42l-19.14,6.32A1.8,1.8,0,0,1,55.51,156.66ZM43.7,112.86l13,39.46,15.5-5.12-13-39.46Z" fill="#231834"></path><ellipse cx="153.85" cy="98.39" rx="12.08" ry="55.21" transform="translate(-23.09 53.18) rotate(-18.27)" fill="#c14f21"></ellipse><path d="M156.66,96.5a18.12,18.12,0,0,0-20.42-11.87c1.42,5.45,3.1,11.14,5,17s3.95,11.39,6,16.61A18.1,18.1,0,0,0,156.66,96.5Z" fill="#fff"></path><path d="M147.31,120.12a2,2,0,0,1-.67-.12,1.92,1.92,0,0,1-1.11-1.09c-2.14-5.35-4.19-11-6.09-16.72s-3.59-11.48-5.06-17.07a1.92,1.92,0,0,1,1.53-2.38A19.9,19.9,0,0,1,158.48,95.9h0a19.91,19.91,0,0,1-10.3,24A1.89,1.89,0,0,1,147.31,120.12Zm-8.65-33.83c1.32,4.83,2.8,9.76,4.43,14.69s3.37,9.79,5.19,14.44a15.81,15.81,0,0,0-9.62-29.13Z" fill="#070707"></path></svg> 