<?xml version="1.0" encoding="UTF-8"?> <svg xmlns="http://www.w3.org/2000/svg" id="Layer_1" data-name="Layer 1" width="217.45" height="217.47" viewBox="0 0 217.45 217.47"><title>nr_icon_track</title><circle cx="108.73" cy="108.51" r="108.73" transform="translate(-18.14 21.91) rotate(-10.63)" fill="#00eaff"></circle><path d="M137.28,75H83.9l-34.7,34.7v2.67l10.68,10.68v8l48,48.05s2.67,2.67,5.34,2.67a8,8,0,0,0,8-8c0-2.67-2.67-5.34-2.67-5.34l5.34,5.34s2.67,2.67,5.34,2.67a8,8,0,0,0,8-8c0-2.67-2.66-5.34-2.66-5.34l2.66,2.67s2.67,2.67,5.34,2.67a8,8,0,0,0,8-8c0-2.67-2.67-5.33-2.67-5.33l-5.34-5.34s2.67,2.67,5.34,2.67a8,8,0,0,0,8-8c0-2.67-2.67-5.34-2.67-5.34l-2.67-2.67h2.67L164,125.73v-5.34l8-8v-2.67Z" fill="#fff"></path><path d="M59.88,141.74a8,8,0,0,0,8,8c2.67,0,5.34-2.67,5.34-2.67L62.55,136.4S59.88,139.07,59.88,141.74Z" fill="#fff"></path><path d="M70.56,152.42a8,8,0,0,0,8,8c2.67,0,5.34-2.67,5.34-2.67L73.23,147.08S70.56,149.75,70.56,152.42Z" fill="#fff"></path><path d="M81.23,163.09a8,8,0,0,0,8,8c2.67,0,5.34-2.67,5.34-2.67L83.9,157.75S81.23,160.42,81.23,163.09Z" fill="#fff"></path><path d="M91.91,173.77a8,8,0,0,0,8,8c2.67,0,5.34-2.67,5.34-2.67L94.58,168.43S91.91,171.1,91.91,173.77Z" fill="#fff"></path><rect x="25.91" y="71.7" width="67.94" height="22.65" transform="translate(-41.17 66.66) rotate(-45)" fill="#231834"></rect><rect x="149.98" y="49.05" width="22.65" height="67.94" transform="translate(-11.46 138.38) rotate(-45)" fill="#fe712c"></rect><rect x="83.9" y="72.34" width="53.38" height="5.34" fill="#231834"></rect><path d="M153.3,139.07a2.67,2.67,0,0,1-1.89-4.56l9.9-9.89v-5.34l8.79-8.79a2.67,2.67,0,1,1,3.77,3.78l-7.23,7.22v5.34l-11.45,11.46A2.69,2.69,0,0,1,153.3,139.07Z" fill="#231834"></path><path d="M148,157.75a2.69,2.69,0,0,1-1.89-.78l-29.36-29.36a2.67,2.67,0,1,1,3.78-3.77l29.36,29.36a2.67,2.67,0,0,1-1.89,4.55Z" fill="#231834"></path><path d="M148,155.09c-3.67,0-6.87-3.1-7.22-3.46a2.67,2.67,0,0,1,3.77-3.77c.77.76,2.41,1.89,3.45,1.89a5.35,5.35,0,0,0,5.34-5.34c0-1-1.13-2.68-1.9-3.46a2.67,2.67,0,0,1,3.79-3.77c.35.36,3.45,3.56,3.45,7.23A10.69,10.69,0,0,1,148,155.09Z" fill="#231834"></path><path d="M142.62,171.1c-3.67,0-6.87-3.1-7.22-3.45L106,138.29a2.67,2.67,0,1,1,3.77-3.78l29.36,29.36c.77.76,2.41,1.89,3.45,1.89a5.34,5.34,0,0,0,5.34-5.34c0-1-1.13-2.68-1.89-3.46a2.67,2.67,0,0,1,3.78-3.76c.35.35,3.45,3.56,3.45,7.22A10.69,10.69,0,0,1,142.62,171.1Z" fill="#231834"></path><path d="M129.28,179.11c-3.67,0-6.87-3.1-7.23-3.45L95.36,149a2.67,2.67,0,1,1,3.78-3.78l26.69,26.69c.77.76,2.4,1.89,3.45,1.89a5.35,5.35,0,0,0,5.34-5.34c0-1-1.14-2.68-1.9-3.46a2.67,2.67,0,0,1,3.78-3.76c.36.35,3.45,3.55,3.45,7.22A10.69,10.69,0,0,1,129.28,179.11Z" fill="#231834"></path><path d="M113.26,184.45c-3.67,0-6.87-3.1-7.22-3.46L57.21,132.17v-8l-9.89-9.89a2.67,2.67,0,1,1,3.77-3.78L62.55,122v8l47.26,47.26c.77.76,2.41,1.89,3.45,1.89a5.35,5.35,0,0,0,5.34-5.34c0-1.05-1.13-2.68-1.89-3.46a2.67,2.67,0,0,1,3.78-3.77c.35.36,3.45,3.56,3.45,7.23A10.69,10.69,0,0,1,113.26,184.45Z" fill="#231834"></path><path d="M67.89,152.42a10.69,10.69,0,0,1-10.68-10.68c0-3.67,3.1-6.87,3.45-7.23a2.67,2.67,0,1,1,3.78,3.78c-.76.77-1.89,2.41-1.89,3.45a5.35,5.35,0,0,0,5.34,5.34c1,0,2.68-1.13,3.46-1.9A2.67,2.67,0,0,1,75.11,149C74.76,149.32,71.56,152.42,67.89,152.42Z" fill="#231834"></path><path d="M78.56,163.09a10.69,10.69,0,0,1-10.67-10.67c0-3.67,3.1-6.88,3.45-7.23A2.67,2.67,0,1,1,75.11,149c-.75.76-1.88,2.4-1.88,3.45a5.33,5.33,0,0,0,5.33,5.33c1,0,2.69-1.13,3.46-1.89a2.67,2.67,0,0,1,3.77,3.78C85.44,160,82.23,163.09,78.56,163.09Z" fill="#231834"></path><path d="M89.24,173.77a10.69,10.69,0,0,1-10.68-10.68c0-3.67,3.1-6.87,3.46-7.22a2.67,2.67,0,0,1,3.77,3.77c-.76.77-1.89,2.41-1.89,3.45a5.35,5.35,0,0,0,5.34,5.34c1.05,0,2.68-1.13,3.46-1.89a2.67,2.67,0,0,1,3.77,3.78C96.11,170.67,92.91,173.77,89.24,173.77Z" fill="#231834"></path><path d="M99.92,184.45a10.69,10.69,0,0,1-10.68-10.68c0-3.67,3.1-6.87,3.45-7.23a2.67,2.67,0,0,1,3.78,3.78c-.76.77-1.89,2.4-1.89,3.45a5.35,5.35,0,0,0,5.34,5.34c1,0,2.68-1.13,3.46-1.9a2.67,2.67,0,0,1,3.76,3.78C106.79,181.35,103.59,184.45,99.92,184.45Z" fill="#231834"></path><path d="M153.3,141.74a2.67,2.67,0,0,1-1.89-.78l-35.48-35.48V91H111.7L99.14,103.59c-.36.35-3.56,3.45-7.23,3.45A10.69,10.69,0,0,1,81.23,96.37c0-3.67,3.1-6.88,3.45-7.23l16-16a2.67,2.67,0,1,1,3.77,3.77l-16,16c-.76.77-1.89,2.41-1.89,3.46a5.34,5.34,0,0,0,5.34,5.33c1,0,2.68-1.13,3.46-1.89l14.12-14.12h11.78v17.58l33.92,33.91a2.67,2.67,0,0,1-1.89,4.56Z" fill="#231834"></path><path d="M132,112.38h-8V107h8a5.34,5.34,0,0,0,5.33-5.34h5.34A10.69,10.69,0,0,1,132,112.38Z" fill="#231834"></path><polygon points="177.32 118.82 125.5 67.01 143.41 49.1 147.18 52.88 133.05 67.01 177.32 111.28 191.45 97.15 195.22 100.92 177.32 118.82" fill="#231834"></polygon><polygon points="43.87 118.82 25.96 100.92 29.74 97.15 43.87 111.28 88.14 67.01 74.01 52.88 77.78 49.1 95.68 67.01 43.87 118.82" fill="#231834"></polygon><path d="M177.32,101.7a2.69,2.69,0,0,1-1.89-.78l-5.33-5.34a2.67,2.67,0,0,1,3.77-3.77l5.34,5.34a2.67,2.67,0,0,1-1.89,4.55Z" fill="#231834"></path><path d="M43.87,101.7A2.67,2.67,0,0,1,42,97.15l5.34-5.34a2.67,2.67,0,1,1,3.77,3.77l-5.34,5.34A2.65,2.65,0,0,1,43.87,101.7Z" fill="#fff"></path></svg> 