<?xml version="1.0" encoding="UTF-8"?> <svg xmlns="http://www.w3.org/2000/svg" id="Layer_1" data-name="Layer 1" width="217.4533" height="217.4699" viewBox="0 0 217.4533 217.4699"><defs><style>.cls-1{fill:#00eaff;}.cls-2{fill:#fff;}.cls-3{fill:#fe712c;}.cls-4{fill:#231834;}</style></defs><title>nr_icon_ideation-05</title><circle class="cls-1" cx="108.6899" cy="108.6259" r="108.7317" transform="translate(-18.1654 21.9033) rotate(-10.6253)"></circle><path class="cls-2" d="M107.035,123.33l-45.516-18.742L49.9052,119.6852l11.6186,5.4676a2.577,2.577,0,0,1,.5086.2393L95.2412,141.02Z"></path><path class="cls-2" d="M98.3145,145.7529a2.5893,2.5893,0,0,1-3.2592.9072L63.2645,131.7v21.3217l45.0885,21.2181V130.6952Z"></path><path class="cls-3" d="M106.4058,77v19.8L124.24,70.8571h-8.9767a2.5915,2.5915,0,0,1-2.5913-2.5912v-19.8L94.8378,74.4085h8.9768A2.5914,2.5914,0,0,1,106.4058,77Z"></path><polygon class="cls-2" points="127.94 139.574 167.735 119.677 157.342 104.666 115.05 123.169 127.94 139.574"></polygon><path class="cls-2" d="M155.6673,153.064V131.5046l-27.3,13.65a2.5906,2.5906,0,0,1-3.1963-.7168l-11.6355-14.8088V174.13Z"></path><path class="cls-4" d="M155.6673,153.064,113.5355,174.13v4.1926a2.5855,2.5855,0,0,1-1.4962,2.3406c.0207-.01.0432-.0128.0637-.023l47.3143-23.6572a2.591,2.591,0,0,0,1.4324-2.3176V128.9133l-5.1824,2.5913Z"></path><path class="cls-4" d="M110.399,180.8541c-.0422-.0091-.0808-.0268-.1222-.0379C110.318,180.8272,110.3574,180.8452,110.399,180.8541Z"></path><path class="cls-4" d="M111.6478,180.8049c-.0476.0135-.0925.0331-.1413.0439C111.5547,180.8381,111.6,180.8184,111.6478,180.8049Z"></path><path class="cls-4" d="M62.0324,125.3921a2.577,2.577,0,0,0-.5086-.2393Z"></path><path class="cls-4" d="M108.353,178.3227v-4.0833L63.2645,153.0213V131.7l-5.1825-2.4388v25.4047A2.5911,2.5911,0,0,0,59.57,157.01l50.2711,23.6571c.0134.0064.0281.0082.0416.0143A2.5879,2.5879,0,0,1,108.353,178.3227Z"></path><path class="cls-4" d="M160.0448,99.56c-.0136-.013-.03-.0225-.0436-.0351l.0035.0036C160.0174,99.54,160.0324,99.5479,160.0448,99.56Z"></path><path class="cls-4" d="M59.54,99.1177c.0748-.0365.15-.072.2273-.101C59.6894,99.046,59.6149,99.0811,59.54,99.1177Z"></path><path class="cls-4" d="M160.1674,99.7014c-.0138-.0152-.0263-.0318-.04-.0467.0119.0125.0222.0271.0339.04Z"></path><path class="cls-4" d="M61.519,104.5875l45.516,18.742,1.7533-2.63.0034-.0041c.0276-.0412.0632-.0757.093-.1152.05-.0656.1008-.1293.1573-.1907.0259-.0281.0465-.0607.0736-.0877.04-.04.0868-.07.1292-.1074.0347-.03.0619-.0661.0987-.095.0238-.0188.0508-.03.0751-.0477.03-.0219.056-.0481.0868-.0688.051-.0341.1069-.0576.16-.0878.0651-.0372.1295-.0748.1967-.1058.03-.014.0577-.0318.0884-.0445.0522-.0217.1076-.0327.1611-.0509.0778-.0265.1547-.0529.2339-.0718.0294-.007.0566-.0187.0863-.0247.0528-.0107.1072-.01.16-.0174.0844-.0115.168-.0225.2527-.0257.0315-.0013.0624-.008.094-.0081l.0052-.0005c.0354,0,.0682.0089.1032.01.0151.0006.03.0032.0453.0041.0822.0048.1636.01.245.0223.0372.0057.0744.0068.1114.0141.052.01.1.03.1508.0432.0766.02.1519.0412.2267.0682.0357.013.0722.0209.1075.0356.0481.02.0912.0477.1378.07.0756.0366.1491.0758.2213.12.0288.0177.06.028.0884.0469l.0042.0034c.0412.0276.0758.0632.1152.0931.0656.05.1292.1008.1906.1573.0281.0258.0606.0463.0875.0733.04.04.0706.087.1078.13.03.0347.0661.0619.0949.0986l2.0684,2.6326,42.2922-18.5029-.72-1.0406-5.6012-1.85L110.9135,119.322l-42.7661-17.61L62.24,103.65Z"></path><path class="cls-4" d="M160.382,99.954c-.0136-.02-.03-.0363-.044-.0554l.0089.0141C160.3577,99.9275,160.3714,99.9388,160.382,99.954Z"></path><path class="cls-4" d="M58.7449,99.7217c.0541-.0609.1078-.1219.1677-.1778C58.853,99.5993,58.7994,99.66,58.7449,99.7217Z"></path><path class="cls-4" d="M59.3137,99.2386c-.0711.0439-.1371.0941-.2039.1448l.0281-.02C59.1956,99.3209,59.252,99.2768,59.3137,99.2386Z"></path><path class="cls-4" d="M110.2768,180.8162a2.5929,2.5929,0,0,1-.3942-.1347A2.5819,2.5819,0,0,0,110.2768,180.8162Z"></path><path class="cls-4" d="M112.0393,180.6633a2.578,2.578,0,0,1-.3915.1416A2.5661,2.5661,0,0,0,112.0393,180.6633Z"></path><path class="cls-4" d="M111.5065,180.8488a2.5844,2.5844,0,0,1-.5623.0651A2.5859,2.5859,0,0,0,111.5065,180.8488Z"></path><path class="cls-4" d="M110.9442,180.9139a2.5919,2.5919,0,0,1-.5452-.06A2.5917,2.5917,0,0,0,110.9442,180.9139Z"></path><polygon class="cls-4" points="108.353 130.695 108.353 174.239 110.91 175.443 113.535 174.13 113.535 129.629 111.116 126.55 108.353 130.695"></polygon><path class="cls-4" d="M113.5355,178.3227V174.13l-2.6253,1.3126-2.5572-1.2033v4.0833a2.5479,2.5479,0,0,0,1.9238,2.4935c.0414.0111.08.0288.1222.0379a2.4874,2.4874,0,0,0,1.1075-.0053c.0488-.0108.0937-.03.1413-.0439a2.56,2.56,0,0,0,1.8877-2.4822Z"></path><path class="cls-4" d="M112.0719,119.8141c-.0466-.0227-.09-.0506-.1378-.07.0381.0158.0734.041.111.0588Z"></path><path class="cls-4" d="M110.4318,119.5975c-.03.006-.0569.0177-.0863.0247l.01-.0017C110.3812,119.6145,110.4057,119.6027,110.4318,119.5975Z"></path><path class="cls-4" d="M111.6,119.64c-.0508-.0134-.0988-.0329-.1508-.0432.0451.009.0886.028.1335.0394Z"></path><path class="cls-4" d="M112.501,120.0775c-.0394-.03-.074-.0655-.1152-.0931.0374.0251.0664.0574.1021.084Z"></path><path class="cls-4" d="M112.7791,120.3081c-.0269-.027-.0594-.0475-.0875-.0733l.0059.0061C112.7231,120.2646,112.7546,120.2835,112.7791,120.3081Z"></path><path class="cls-4" d="M109.1156,120.3019c-.0271.027-.0477.06-.0736.0877l.0064-.0061C109.072,120.3578,109.091,120.3264,109.1156,120.3019Z"></path><path class="cls-4" d="M108.8847,120.58c-.03.04-.0654.074-.093.1152.025-.0374.0573-.0663.0838-.1019Z"></path><path class="cls-4" d="M109.5054,119.983c-.0308.0207-.0569.0469-.0868.0688l.0091-.0057C109.4545,120.0266,109.4779,120.0013,109.5054,119.983Z"></path><path class="cls-4" d="M109.9505,119.7449c-.0307.0127-.0582.0305-.0884.0445l.0143-.0055C109.9018,119.7725,109.9248,119.7555,109.9505,119.7449Z"></path><path class="cls-4" d="M110.9442,119.5458l-.0052.0005c.0362,0,.0722.0084.1084.01C111.0124,119.5547,110.98,119.5458,110.9442,119.5458Z"></path><path class="cls-4" d="M60.6732,124.9982a2.5676,2.5676,0,0,1,.8506.1546l-11.6186-5.4676L61.519,104.5875l-1.8325-.7546c-.0232-.0095-.0421-.0245-.0648-.0346a2.5934,2.5934,0,0,1-.3171-.17c-.0349-.0217-.0719-.04-.1055-.0636a2.5785,2.5785,0,0,1-.3533-.2925c-.0247-.0246-.0446-.0525-.0682-.078a2.5558,2.5558,0,0,1-.2266-.2785c-.03-.0431-.0558-.088-.0831-.1328a2.5724,2.5724,0,0,1-.144-.27c-.0243-.0531-.0468-.106-.0675-.1607-.014-.0368-.0331-.07-.0454-.1079-.0149-.0453-.0179-.0912-.03-.1367a2.5474,2.5474,0,0,1-.0587-.2668c-.013-.082-.0211-.163-.0262-.2447-.0053-.0844-.0071-.168-.004-.2531a2.5686,2.5686,0,0,1,.0233-.2594c.0109-.0787.0244-.1563.0427-.2347a2.5892,2.5892,0,0,1,.0807-.27c.0151-.0429.0211-.0869.0386-.13.0123-.03.0314-.0543.0446-.0834a2.57,2.57,0,0,1,.1319-.2466c.04-.0682.08-.1358.1259-.1991.0156-.0215.0262-.046.0424-.067l-.0029.003L43.8335,119.0786a2.5911,2.5911,0,0,0,.9507,3.9244l13.2978,6.2578v-1.6714A2.5914,2.5914,0,0,1,60.6732,124.9982Z"></path><path class="cls-4" d="M96.1571,146.9072a2.5907,2.5907,0,0,0,2.1574-1.1543l10.0385-15.0577v-6.823l-1.318-.5427L95.2412,141.02,62.0324,125.3921a2.5826,2.5826,0,0,1,1.2321,2.1973v4.11l31.7908,14.96A2.5791,2.5791,0,0,0,96.1571,146.9072Z"></path><path class="cls-4" d="M59.54,99.1177c-.0492.024-.1013.04-.1491.0675.0419-.0238.0907-.038.1343-.06Z"></path><path class="cls-4" d="M59.8606,98.9769c-.032.01-.0615.028-.0932.04l.0107-.0033C59.8067,99.0029,59.8314,98.9865,59.8606,98.9769Z"></path><path class="cls-4" d="M59.11,99.3834c-.0435.0331-.0912.0585-.1329.0946.04-.0349.0888-.0608.1314-.0934Z"></path><path class="cls-4" d="M63.2645,127.5894a2.5826,2.5826,0,0,0-1.2321-2.1973l-.5086-.2393a2.5646,2.5646,0,0,0-3.4418,2.4366v1.6714L63.2645,131.7Z"></path><path class="cls-4" d="M108.353,122.137c0-.05.0119-.0963.0146-.1454a2.6055,2.6055,0,0,1,.0273-.27c.0134-.0824.0319-.1621.0529-.2419.0214-.0815.0453-.1613.0747-.2407s.0627-.1549.0993-.23.0758-.1488.12-.2209c.0183-.03.0306-.0632.05-.0921l-.0034.0041-1.7533,2.63,1.318.5427Z"></path><path class="cls-4" d="M110.1116,119.694c-.0535.0182-.1089.0292-.1611.0509.0479-.02.1-.0295.15-.0466Z"></path><path class="cls-4" d="M109.2448,120.1945c-.0424.0371-.089.0672-.1292.1074.0378-.0377.0834-.0667.1236-.102Z"></path><path class="cls-4" d="M111.4491,119.5967c-.037-.0073-.0742-.0084-.1114-.0141l.0243.0053C111.3905,119.5925,111.4209,119.5911,111.4491,119.5967Z"></path><path class="cls-4" d="M59.3046,103.6287c-.0349-.0217-.0717-.04-.1055-.0636C59.2327,103.5884,59.27,103.607,59.3046,103.6287Z"></path><path class="cls-4" d="M111.0927,119.56c-.0152-.0009-.03-.0035-.0453-.0041.0134.0005.0261.0032.04.004Z"></path><path class="cls-4" d="M110.939,119.5463c-.0316,0-.0625.0068-.094.0081l.0113,0C110.8844,119.5536,110.9107,119.5464,110.939,119.5463Z"></path><path class="cls-4" d="M109.6654,119.8952c-.0531.03-.109.0537-.16.0878.047-.0315.1006-.0528.15-.0813Z"></path><path class="cls-4" d="M110.5923,119.58c-.0533.0074-.1077.0067-.16.0174.0467-.0094.0969-.0078.1445-.0146Z"></path><path class="cls-4" d="M58.8458,103.2726c-.0244-.0242-.0447-.0528-.0682-.078C58.8012,103.22,58.8211,103.248,58.8458,103.2726Z"></path><path class="cls-4" d="M59.1379,99.3636l-.0281.02-.0015.0012Z"></path><path class="cls-4" d="M112.8869,120.4376c-.0372-.0425-.0675-.0892-.1078-.13.0378.0378.0667.0834.102.1235Z"></path><path class="cls-4" d="M58.2773,100.45c-.0175.0426-.0235.0866-.0386.13.0254-.072.0517-.1436.0832-.2129C58.3087,100.396,58.29,100.4205,58.2773,100.45Z"></path><path class="cls-4" d="M58.4538,100.12c.04-.0676.08-.1353.1259-.1991C58.5339,99.9845,58.4942,100.0521,58.4538,100.12Z"></path><path class="cls-4" d="M59.7781,99.0134l-.0107.0033c-.0775.029-.1525.0645-.2273.101l-.0148.0079A2.5778,2.5778,0,0,1,59.7781,99.0134Z"></path><path class="cls-4" d="M58.1809,102.1082a2.5892,2.5892,0,0,1-.0587-.2668A2.5474,2.5474,0,0,0,58.1809,102.1082Z"></path><path class="cls-4" d="M58.1153,101.0842c.011-.0791.0246-.1574.0427-.2347C58.14,100.9279,58.1262,101.0055,58.1153,101.0842Z"></path><path class="cls-4" d="M58.096,101.5967c-.0052-.0848-.0071-.1692-.004-.2531C58.0889,101.4287,58.0907,101.5123,58.096,101.5967Z"></path><path class="cls-4" d="M58.3239,102.5135c-.024-.0526-.0468-.1059-.0675-.1607C58.2771,102.4075,58.3,102.46,58.3239,102.5135Z"></path><path class="cls-4" d="M58.551,102.9161c-.03-.0426-.0558-.0881-.0831-.1328C58.4952,102.8281,58.5211,102.873,58.551,102.9161Z"></path><path class="cls-4" d="M61.4812,103.8993a2.5412,2.5412,0,0,1-1.86-.101c.0227.01.0416.0251.0648.0346l1.8325.7546.7208-.9371Z"></path><path class="cls-4" d="M112.3858,119.9844l-.0042-.0034c-.0284-.0189-.06-.0292-.0884-.0469l.0006,0C112.3235,119.9528,112.3569,119.965,112.3858,119.9844Z"></path><path class="cls-4" d="M111.9341,119.7437c-.0353-.0147-.0718-.0226-.1075-.0356l.0175.0076C111.8734,119.7266,111.9053,119.7317,111.9341,119.7437Z"></path><polygon class="cls-4" points="108.353 123.872 108.353 130.695 111.116 126.55 109.328 124.274 108.353 123.872"></polygon><path class="cls-4" d="M108.3949,121.7211c.0133-.0815.0319-.1619.0529-.2419C108.4268,121.559,108.4083,121.6387,108.3949,121.7211Z"></path><path class="cls-4" d="M110.5763,119.5829c-.0476.0068-.0978.0052-.1445.0146-.0261.0052-.0506.017-.0765.023C110.4285,119.6035,110.5023,119.5934,110.5763,119.5829Z"></path><path class="cls-4" d="M110.1,119.6983c-.0494.0171-.102.0266-.15.0466-.0257.0106-.0487.0276-.0741.039C109.95,119.7506,110.025,119.7244,110.1,119.6983Z"></path><path class="cls-4" d="M111.0869,119.56c-.0134-.0008-.0261-.0035-.04-.004-.0362-.0015-.0722-.01-.1084-.01-.0283,0-.0546.0073-.0827.0083C110.9334,119.5521,111.01,119.5559,111.0869,119.56Z"></path><path class="cls-4" d="M108.8755,120.5936c-.0265.0356-.0588.0645-.0838.1019-.0194.0289-.0317.0624-.05.0921C108.7825,120.7209,108.8283,120.6569,108.8755,120.5936Z"></path><path class="cls-4" d="M111.5826,119.6361c-.0449-.0114-.0884-.03-.1335-.0394-.0282-.0056-.0586-.0042-.0871-.0088C111.4363,119.6,111.51,119.6176,111.5826,119.6361Z"></path><path class="cls-4" d="M112.4879,120.0684c-.0357-.0266-.0647-.0589-.1021-.084-.0289-.0194-.0623-.0316-.092-.05C112.3605,119.9753,112.4245,120.0212,112.4879,120.0684Z"></path><path class="cls-4" d="M112.8811,120.4316c-.0353-.04-.0642-.0857-.102-.1235-.0245-.0246-.056-.0435-.0816-.0672A2.6121,2.6121,0,0,1,112.8811,120.4316Z"></path><path class="cls-4" d="M112.0451,119.8025c-.0376-.0178-.0729-.043-.111-.0588-.0288-.012-.0607-.0171-.09-.028C111.9124,119.741,111.9788,119.7714,112.0451,119.8025Z"></path><path class="cls-4" d="M109.2392,120.2c-.04.0353-.0858.0643-.1236.102-.0246.0245-.0436.0559-.0672.0816A2.5723,2.5723,0,0,1,109.2392,120.2Z"></path><path class="cls-4" d="M108.5225,121.2385c.0289-.0782.0627-.1546.0993-.23C108.5852,121.0836,108.5518,121.16,108.5225,121.2385Z"></path><path class="cls-4" d="M109.6551,119.9017c-.0491.0285-.1027.05-.15.0813-.0275.0183-.0509.0436-.0777.0631A2.5777,2.5777,0,0,1,109.6551,119.9017Z"></path><path class="cls-4" d="M108.9068,123.7378a2.57,2.57,0,0,1-.5392-1.7462c-.0027.0491-.0146.0956-.0146.1454v1.7352l.9747.4014Z"></path><path class="cls-4" d="M159.3956,99.1212c.0669.0328.1352.0621.1994.1008C159.5318,99.1839,159.4628,99.1542,159.3956,99.1212Z"></path><path class="cls-4" d="M160.1674,99.7014a2.5363,2.5363,0,0,1,.1706.1972C160.2863,99.8286,160.226,99.7661,160.1674,99.7014Z"></path><path class="cls-4" d="M160.0012,99.5247c-.0609-.0557-.1294-.1026-.196-.1526l.0066.0052C159.8758,99.4254,159.9417,99.4705,160.0012,99.5247Z"></path><path class="cls-4" d="M157.229,99.06a2.5456,2.5456,0,0,1,.3928-.1269c.0342-.0087.0675-.0247.1018-.032a2.9256,2.9256,0,0,1,1.2125.0465c.0647.0176.13.0321.1933.0547-.02-.0073-.0375-.0192-.0581-.026L125.2749,87.8138a2.5912,2.5912,0,0,0-1.6256,4.9209l27.3715,9.0406,6.1992-2.7121Z"></path><path class="cls-4" d="M160.3469,99.9127l-.0089-.0141a2.5363,2.5363,0,0,0-.1706-.1972l-.0065-.0069A2.5812,2.5812,0,0,1,160.3469,99.9127Z"></path><path class="cls-4" d="M157.6218,98.9334c.0343-.0087.0673-.0247.1018-.032C157.6893,98.9087,157.656,98.9247,157.6218,98.9334Z"></path><path class="cls-4" d="M158.9361,98.9479a2.5657,2.5657,0,0,0-.8679-.085A2.581,2.581,0,0,1,158.9361,98.9479Z"></path><path class="cls-4" d="M160.0047,99.5283l-.0035-.0036c-.06-.0542-.1254-.0993-.1894-.1474C159.877,99.4264,159.9439,99.4725,160.0047,99.5283Z"></path><path class="cls-4" d="M156.128,102.9118a2.5862,2.5862,0,0,1,1.101-3.8515l-.009.0029-6.1992,2.7121,5.6012,1.85Z"></path><path class="cls-4" d="M58.9769,99.478c-.0234.02-.0417.0449-.0643.0659l.0093-.0075C58.9413,99.5184,58.957,99.4953,58.9769,99.478Z"></path><path class="cls-4" d="M59.391,99.1852c-.0276.0157-.05.0368-.0773.0534l.0058-.0031C59.3442,99.22,59.3659,99.2,59.391,99.1852Z"></path><path class="cls-4" d="M60.25,98.8876c.0782-.013.1563-.0194.2353-.0252a2.5588,2.5588,0,0,1,.26-.0089c.0835.0023.1657.0122.2489.0225.0816.01.1622.02.2435.0389a2.5555,2.5555,0,0,1,.2706.0809c.05.0172.1015.0248.1513.0453l6.4875,2.6713,27.8555-9.1382A2.5914,2.5914,0,1,0,94.3872,87.65L59.8654,98.9747l-.0048.0022c.0454-.015.0933-.02.14-.032C60.0829,98.9224,60.1652,98.9019,60.25,98.8876Z"></path><path class="cls-4" d="M58.7449,99.7217c-.04.0451-.0861.0849-.1228.1325.0324-.042.0724-.0737.1068-.1132Z"></path><path class="cls-4" d="M60,98.9449c.0828-.0223.1657-.0433.25-.0573C60.1652,98.9019,60.0829,98.9224,60,98.9449Z"></path><path class="cls-4" d="M60.9945,98.876c.0815.01.1629.0208.2435.0389C61.1567,98.8965,61.0761,98.8862,60.9945,98.876Z"></path><path class="cls-4" d="M59.32,99.2355l-.0058.0031c-.0617.0382-.1181.0823-.1758.125C59.1977,99.3194,59.2567,99.2741,59.32,99.2355Z"></path><path class="cls-4" d="M58.9219,99.5364l-.0093.0075c-.06.0559-.1136.1169-.1677.1778l-.016.0193A2.6064,2.6064,0,0,1,58.9219,99.5364Z"></path><path class="cls-4" d="M61.5086,98.9958a2.5615,2.5615,0,0,1,.7444.3872,2.5914,2.5914,0,0,1,.4743,3.6338l-.4875.6336,5.9076-1.938L61.66,99.0411C61.61,99.0206,61.5588,99.013,61.5086,98.9958Z"></path><path class="cls-4" d="M60.4855,98.8624c.0866-.0063.1731-.0112.26-.0089A2.5588,2.5588,0,0,0,60.4855,98.8624Z"></path><path class="cls-4" d="M58.092,101.3436a2.584,2.584,0,0,1,.0233-.2594A2.5686,2.5686,0,0,0,58.092,101.3436Z"></path><path class="cls-4" d="M60.7456,98.8535c.0829.0023.1659.012.2489.0225C60.9113,98.8657,60.8291,98.8558,60.7456,98.8535Z"></path><path class="cls-4" d="M58.4679,102.7833a2.6234,2.6234,0,0,1-.144-.27A2.5724,2.5724,0,0,0,58.4679,102.7833Z"></path><path class="cls-4" d="M58.1222,101.8414c-.0129-.0809-.021-.1626-.0262-.2447C58.1011,101.6784,58.1092,101.7594,58.1222,101.8414Z"></path><path class="cls-4" d="M59.6217,103.7983a2.58,2.58,0,0,1-.3171-.17A2.5934,2.5934,0,0,0,59.6217,103.7983Z"></path><path class="cls-4" d="M60,98.9449c-.0462.0124-.0941.017-.14.032-.0292.01-.0539.026-.0825.0365C59.8508,98.9865,59.9252,98.9652,60,98.9449Z"></path><path class="cls-4" d="M58.3219,100.3669a2.59,2.59,0,0,1,.1319-.2466A2.57,2.57,0,0,0,58.3219,100.3669Z"></path><path class="cls-4" d="M60.25,98.8876c.0776-.0129.1563-.0193.2353-.0252C60.4065,98.8682,60.3284,98.8746,60.25,98.8876Z"></path><path class="cls-4" d="M58.158,100.85a2.6207,2.6207,0,0,1,.0807-.27A2.5892,2.5892,0,0,0,58.158,100.85Z"></path><path class="cls-4" d="M59.5253,99.1256c-.0436.0216-.0924.0358-.1343.06-.0251.0143-.0468.0352-.0715.05C59.386,99.1947,59.4556,99.16,59.5253,99.1256Z"></path><path class="cls-4" d="M58.7776,103.1946a2.5926,2.5926,0,0,1-.2266-.2785A2.5558,2.5558,0,0,0,58.7776,103.1946Z"></path><path class="cls-4" d="M58.211,102.2449c.0123.0378.0314.0711.0454.1079-.03-.08-.0533-.1621-.0755-.2446C58.1931,102.1537,58.1961,102.2,58.211,102.2449Z"></path><path class="cls-4" d="M59.1083,99.3846c-.0426.0326-.0911.0585-.1314.0934-.02.0173-.0356.04-.055.0584C58.9812,99.4819,59.0446,99.4331,59.1083,99.3846Z"></path><path class="cls-4" d="M61.238,98.9149a2.6031,2.6031,0,0,1,.2706.0809A2.5555,2.5555,0,0,0,61.238,98.9149Z"></path><path class="cls-4" d="M59.1991,103.5651a2.5641,2.5641,0,0,1-.3533-.2925A2.5785,2.5785,0,0,0,59.1991,103.5651Z"></path><path class="cls-4" d="M58.7289,99.741c-.0344.04-.0744.0712-.1068.1132-.0162.021-.0268.0455-.0424.067C58.6258,99.8574,58.6778,99.8,58.7289,99.741Z"></path><path class="cls-4" d="M61.4812,103.8993l.7586-.2489.4875-.6336a2.5914,2.5914,0,0,0-.4743-3.6338,2.5615,2.5615,0,0,0-.7444-.3872,2.6031,2.6031,0,0,0-.2706-.0809c-.0806-.0181-.162-.0288-.2435-.0389-.083-.0105-.166-.02-.2489-.0225-.087-.0023-.1735.0026-.26.0089-.079.0059-.1577.0123-.2353.0252-.0844.014-.1673.035-.25.0573-.0749.02-.1493.0416-.222.0685a2.5778,2.5778,0,0,0-.2528.1122c-.07.0346-.1393.0691-.2058.11-.0628.0386-.1218.0839-.1816.1281l-.03.021c-.0637.0485-.1271.0973-.1864.1518a2.6064,2.6064,0,0,0-.193.2046c-.0511.0586-.1031.1164-.1492.18s-.0859.1315-.1259.1991a2.59,2.59,0,0,0-.1319.2466c-.0315.0693-.0578.1409-.0832.2129a2.6207,2.6207,0,0,0-.0807.27c-.0181.0773-.0317.1556-.0427.2347a2.584,2.584,0,0,0-.0233.2594c-.0031.0839-.0012.1683.004.2531.0052.0821.0133.1638.0262.2447a2.5892,2.5892,0,0,0,.0587.2668c.0222.0825.0453.1648.0755.2446.0207.0548.0435.1081.0675.1607a2.6234,2.6234,0,0,0,.144.27c.0273.0447.0534.09.0831.1328a2.5926,2.5926,0,0,0,.2266.2785c.0235.0252.0438.0538.0682.078a2.5641,2.5641,0,0,0,.3533.2925c.0338.0234.0706.0419.1055.0636a2.5546,2.5546,0,0,0,2.1766.2706Z"></path><path class="cls-4" d="M160.0448,99.56c.03.0286.0534.0648.0822.0949C160.0983,99.6246,160.0747,99.5883,160.0448,99.56Z"></path><path class="cls-4" d="M159.3905,99.119l.0051.0022a2.5555,2.5555,0,0,0-.2662-.1186l.0028.0012A2.5892,2.5892,0,0,1,159.3905,99.119Z"></path><path class="cls-4" d="M159.8046,99.3716l.0006.0005a2.532,2.532,0,0,0-.21-.15l.0023.0016C159.67,99.2676,159.7363,99.3206,159.8046,99.3716Z"></path><path class="cls-4" d="M160.3891,99.9622l-.0071-.0082c.03.0426.05.0931.0777.1379a2.5778,2.5778,0,0,1,.14.2489c.01.02.0235.0371.0325.0578.022.05.0307.1019.0493.1526a2.6055,2.6055,0,0,1,.0869.2692c.02.08.0314.16.0432.24a2.5282,2.5282,0,0,1,.0286.2554,2.5847,2.5847,0,0,1-.0046.26c-.0044.08-.0085.16-.02.2406a2.58,2.58,0,0,1-.0613.2763c-.0138.0524-.0177.105-.0349.1572-.0083.025-.0214.047-.03.0717-.02.0538-.0434.1051-.0666.1575a2.5656,2.5656,0,0,1-.1366.27c-.0275.0468-.0559.0923-.0864.1374a2.5389,2.5389,0,0,1-.198.2545c-.0313.0359-.06.0728-.0937.107a2.5862,2.5862,0,0,1-.3493.3021c-.0091.0065-.02.0112-.0291.0176a2.5926,2.5926,0,0,1-.3858.2171c-.0163.0076-.03.0188-.0462.0261l-1.9546.8551,10.3922,15.011L127.94,139.5739l-12.89-16.4051-1.5147.6627v5.7974l11.6355,14.8088a2.5906,2.5906,0,0,0,3.1963.7168l27.3-13.65V127.312a2.5912,2.5912,0,0,1,5.1824,0v1.6013l11.8747-5.9373a2.5909,2.5909,0,0,0,.9718-3.7924Z"></path><path class="cls-4" d="M158.2585,124.7208a2.5913,2.5913,0,0,0-2.5912,2.5912v4.1926l5.1824-2.5913V127.312A2.5913,2.5913,0,0,0,158.2585,124.7208Z"></path><path class="cls-4" d="M160.8152,101.8163a2.6457,2.6457,0,0,1-.0613.2763A2.58,2.58,0,0,0,160.8152,101.8163Z"></path><path class="cls-4" d="M160.84,101.3159a2.5936,2.5936,0,0,1-.0046.26A2.5847,2.5847,0,0,0,160.84,101.3159Z"></path><path class="cls-4" d="M160.7685,100.82c.0194.0788.0312.1595.0432.24C160.8,100.98,160.7882,100.9,160.7685,100.82Z"></path><path class="cls-4" d="M160.6323,100.3986c-.009-.0207-.023-.0375-.0325-.0578.032.0681.0559.14.0818.21C160.663,100.5005,160.6543,100.4487,160.6323,100.3986Z"></path><path class="cls-4" d="M159.7581,103.55c-.0092.0066-.02.0112-.0291.0176C159.7382,103.5612,159.749,103.5565,159.7581,103.55Z"></path><path class="cls-4" d="M160.2011,103.1409c-.0313.0357-.0606.0733-.0937.107C160.1408,103.2137,160.17,103.1768,160.2011,103.1409Z"></path><path class="cls-4" d="M160.6887,102.3215c-.02.0542-.0437.1054-.0666.1575C160.6453,102.4266,160.6691,102.3753,160.6887,102.3215Z"></path><path class="cls-4" d="M160.4855,102.749c-.0276.0468-.0562.0928-.0864.1374C160.43,102.8413,160.458,102.7958,160.4855,102.749Z"></path><path class="cls-4" d="M159.1322,99.0038a2.5784,2.5784,0,0,1,.2583.1152A2.5892,2.5892,0,0,0,159.1322,99.0038Z"></path><path class="cls-4" d="M159.5973,99.2236c.0734.0444.1395.0972.2073.148C159.7363,99.3206,159.67,99.2676,159.5973,99.2236Z"></path><path class="cls-4" d="M111.8266,119.7081c-.0748-.027-.15-.0481-.2267-.0682.03.0078.0581.0182.0874.0271C111.7337,119.681,111.7807,119.6914,111.8266,119.7081Z"></path><path class="cls-4" d="M112.8869,120.4376c.0175.02.0332.0412.05.0616.0543.066.1136.1274.1612.1985a2.5193,2.5193,0,0,1,.1239.2284c.0385.0721.0826.14.1142.2164a2.5623,2.5623,0,0,1,.0818.2633c.0216.073.0506.1427.0658.2182a2.6033,2.6033,0,0,1,.0512.5078l.0006.0052v1.6945l1.5147-.6627-2.0684-2.6326C112.953,120.5,112.9173,120.4723,112.8869,120.4376Z"></path><path class="cls-4" d="M110.3455,119.6222c-.0792.0189-.1561.0453-.2339.0718.03-.01.06-.0182.09-.0272C110.25,119.6523,110.2963,119.6338,110.3455,119.6222Z"></path><path class="cls-4" d="M109.8621,119.7894c-.0672.031-.1316.0686-.1967.1058.02-.0115.0409-.0215.0614-.0324C109.7721,119.8385,109.8153,119.811,109.8621,119.7894Z"></path><path class="cls-4" d="M109.4186,120.0518c-.0243.0178-.0513.0289-.0751.0477-.0368.0289-.064.0646-.0987.095.0183-.016.0376-.03.0562-.0457C109.34,120.1164,109.3775,120.0819,109.4186,120.0518Z"></path><path class="cls-4" d="M112.2932,119.9341c-.0722-.0442-.1457-.0834-.2213-.12.0736.0359.1455.0743.215.1167Z"></path><path class="cls-4" d="M108.8847,120.58c.05-.0658.1015-.13.1573-.1907C108.9855,120.451,108.9343,120.5147,108.8847,120.58Z"></path><path class="cls-4" d="M111.0927,119.56c.0818.0046.1635.01.245.0223C111.2563,119.57,111.1749,119.5651,111.0927,119.56Z"></path><path class="cls-4" d="M112.501,120.0775c.0659.05.13.1015.1906.1573C112.63,120.1783,112.5666,120.1271,112.501,120.0775Z"></path><path class="cls-4" d="M110.5923,119.58c.0839-.0116.1679-.0224.2527-.0257C110.76,119.5576,110.6767,119.5686,110.5923,119.58Z"></path><path class="cls-4" d="M160.1609,99.6945c-.0117-.0127-.022-.0273-.0339-.04-.0288-.03-.0521-.0663-.0822-.0949-.0124-.0119-.0274-.02-.04-.0315C160.0611,99.58,160.11,99.6384,160.1609,99.6945Z"></path><path class="cls-4" d="M160.46,100.0919c-.0273-.0448-.0479-.0953-.0777-.1379-.0106-.0152-.0243-.0265-.0351-.0413C160.3886,99.97,160.4229,100.0316,160.46,100.0919Z"></path><path class="cls-4" d="M157.4458,103.8974l-.8238-.2721.72,1.0406,1.9546-.8551c.0166-.0073.03-.0185.0462-.0261a2.549,2.549,0,0,1-1.8974.1127Z"></path><polygon class="cls-4" points="111.116 126.55 113.535 129.629 113.535 123.831 112.679 124.206 111.116 126.55"></polygon><path class="cls-4" d="M111.6873,119.667c-.0293-.0089-.0577-.0193-.0874-.0271l-.0173-.0038C111.6178,119.6451,111.6523,119.6566,111.6873,119.667Z"></path><path class="cls-4" d="M110.3553,119.6205l-.01.0017c-.0492.0116-.0955.03-.1436.0446C110.2531,119.6515,110.3032,119.6327,110.3553,119.6205Z"></path><path class="cls-4" d="M113.5349,122.1318a2.5767,2.5767,0,0,1-.4347,1.4425l-.4212.6319.8565-.3747V122.137Z"></path><path class="cls-4" d="M109.0484,120.3835l-.0064.0061c-.0558.0608-.1074.1249-.1573.1907l-.0092.0133A2.585,2.585,0,0,1,109.0484,120.3835Z"></path><path class="cls-4" d="M109.8764,119.7839l-.0143.0055c-.0468.0216-.09.0491-.1353.0734C109.7766,119.8362,109.8252,119.8071,109.8764,119.7839Z"></path><path class="cls-4" d="M109.4277,120.0461l-.0091.0057c-.0411.03-.0784.0646-.1176.097C109.343,120.1141,109.3839,120.0779,109.4277,120.0461Z"></path><path class="cls-4" d="M112.6975,120.2409l-.0059-.0061c-.0607-.0558-.1247-.1074-.1906-.1573l-.0131-.0091A2.647,2.647,0,0,1,112.6975,120.2409Z"></path><path class="cls-4" d="M113.4179,121.4058c.0216.0729.0507.1437.0658.2182C113.4685,121.5485,113.44,121.4788,113.4179,121.4058Z"></path><path class="cls-4" d="M113.2219,120.9261c.0383.0721.0831.1413.1142.2164C113.3045,121.0665,113.26,120.9982,113.2219,120.9261Z"></path><path class="cls-4" d="M112.2869,119.9308c-.07-.0424-.1414-.0808-.215-.1167l-.0268-.0116A2.5741,2.5741,0,0,1,112.2869,119.9308Z"></path><path class="cls-4" d="M112.9368,120.4992c.0543.066.1143.1282.1612.1985C113.05,120.6266,112.9911,120.5652,112.9368,120.4992Z"></path><path class="cls-4" d="M111.8441,119.7157l-.0175-.0076c-.0459-.0167-.0929-.0271-.1393-.0411C111.74,119.6828,111.793,119.6967,111.8441,119.7157Z"></path><path class="cls-4" d="M109.7268,119.8628c-.02.0109-.0412.0209-.0614.0324l-.01.0065C109.6786,119.8881,109.7028,119.8757,109.7268,119.8628Z"></path><path class="cls-4" d="M109.301,120.1488c-.0186.0154-.0379.03-.0562.0457l-.0056.0054C109.2592,120.1821,109.28,120.1659,109.301,120.1488Z"></path><path class="cls-4" d="M113.4837,121.624a2.5981,2.5981,0,0,1,.0512.5078A2.6033,2.6033,0,0,0,113.4837,121.624Z"></path><path class="cls-4" d="M108.4478,121.4792c.0215-.0817.0456-.1623.0747-.2407C108.4931,121.3179,108.4692,121.3977,108.4478,121.4792Z"></path><path class="cls-4" d="M108.6218,121.0085c.0368-.0756.0762-.15.12-.2209C108.6976,120.86,108.6584,120.933,108.6218,121.0085Z"></path><path class="cls-4" d="M108.3676,121.9916a2.616,2.616,0,0,1,.0273-.27A2.6055,2.6055,0,0,0,108.3676,121.9916Z"></path><path class="cls-4" d="M110.8563,119.5546l-.0113,0c-.0848.0033-.1688.0141-.2527.0257l-.016.0028A2.58,2.58,0,0,1,110.8563,119.5546Z"></path><polygon class="cls-4" points="112.294 119.935 112.293 119.934 112.287 119.931 112.294 119.935"></polygon><path class="cls-4" d="M111.362,119.5879l-.0243-.0053c-.0815-.0125-.1632-.0177-.245-.0223h-.0058A2.5935,2.5935,0,0,1,111.362,119.5879Z"></path><path class="cls-4" d="M113.098,120.6977a2.5611,2.5611,0,0,1,.1239.2284A2.5193,2.5193,0,0,0,113.098,120.6977Z"></path><path class="cls-4" d="M113.3361,121.1425a2.594,2.594,0,0,1,.0818.2633A2.5623,2.5623,0,0,0,113.3361,121.1425Z"></path><path class="cls-4" d="M110.2019,119.6668c-.03.009-.06.0171-.09.0272l-.0112.0043C110.1337,119.6868,110.1679,119.6771,110.2019,119.6668Z"></path><path class="cls-4" d="M112.9368,120.4992c-.0167-.02-.0324-.0416-.05-.0616l-.0058-.006C112.9005,120.4536,112.9182,120.4767,112.9368,120.4992Z"></path><path class="cls-4" d="M110.9442,124.7283a2.5864,2.5864,0,0,1-.9867-.1954l-.63-.2593,1.7887,2.2765,1.5626-2.3439-.6963.3046A2.5835,2.5835,0,0,1,110.9442,124.7283Z"></path><path class="cls-4" d="M112.6975,120.2409a2.647,2.647,0,0,0-.21-.1725c-.0634-.0472-.1274-.0931-.1941-.1339l-.0069-.0037a2.5741,2.5741,0,0,0-.2418-.1283c-.0663-.0311-.1327-.0615-.201-.0868-.0511-.019-.1043-.0329-.1568-.0487-.035-.01-.0695-.0219-.1047-.0309-.0731-.0185-.1463-.0361-.2206-.0482a2.5935,2.5935,0,0,0-.2751-.0277c-.0769-.0043-.1535-.0081-.2306-.0056a2.58,2.58,0,0,0-.28.0283c-.074.0105-.1478.0206-.221.0376-.0521.0122-.1022.031-.1534.0463-.034.01-.0682.02-.1015.0315-.0754.0261-.1506.0523-.224.0856-.0512.0232-.1.0523-.15.0789-.024.0129-.0482.0253-.0717.0389a2.5777,2.5777,0,0,0-.2274.1444c-.0438.0318-.0847.068-.1267.1027-.0206.0171-.0418.0333-.0618.0511a2.3144,2.3144,0,0,0-.3637.3937c-.0472.0633-.093.1273-.1338.194-.0437.0713-.0831.1453-.12.2209s-.07.1518-.0993.23-.0532.159-.0747.2407c-.021.08-.04.16-.0529.2419a2.616,2.616,0,0,0-.0273.27,2.57,2.57,0,0,0,.5392,1.7462l.4209.5358.63.2593a2.5885,2.5885,0,0,0,2.0252-.0221l.6963-.3046.4212-.6319a2.5939,2.5939,0,0,0,.3835-1.95c-.0151-.0745-.0442-.1453-.0658-.2182a2.594,2.594,0,0,0-.0818-.2633c-.0311-.0751-.0759-.1443-.1142-.2164a2.5611,2.5611,0,0,0-.1239-.2284c-.0469-.07-.1069-.1325-.1612-.1985-.0186-.0225-.0363-.0456-.0557-.0676A2.6121,2.6121,0,0,0,112.6975,120.2409Z"></path><path class="cls-4" d="M160.1074,103.2479a2.5641,2.5641,0,0,1-.3493.3021A2.5862,2.5862,0,0,0,160.1074,103.2479Z"></path><path class="cls-4" d="M159.729,103.5676a2.6086,2.6086,0,0,1-.3858.2171A2.5926,2.5926,0,0,0,159.729,103.5676Z"></path><path class="cls-4" d="M159.1322,99.0038l-.0028-.0012c-.0633-.0226-.1286-.0371-.1933-.0547C159.0018,98.9658,159.0682,98.9808,159.1322,99.0038Z"></path><path class="cls-4" d="M160.3991,102.8864a2.5652,2.5652,0,0,1-.198.2545A2.5389,2.5389,0,0,0,160.3991,102.8864Z"></path><path class="cls-4" d="M159.5973,99.2236l-.0023-.0016c-.0642-.0387-.1325-.068-.1994-.1008l-.0051-.0022C159.46,99.1529,159.531,99.1836,159.5973,99.2236Z"></path><polygon class="cls-4" points="159.812 99.377 159.805 99.372 159.805 99.372 159.812 99.377"></polygon><path class="cls-4" d="M160.719,102.25c.0172-.0522.0211-.1048.0349-.1572-.02.0768-.0381.1543-.0652.2289C160.6976,102.2968,160.7107,102.2748,160.719,102.25Z"></path><path class="cls-4" d="M160.46,100.0919a2.554,2.554,0,0,1,.14.2489A2.5778,2.5778,0,0,0,160.46,100.0919Z"></path><path class="cls-4" d="M160.8357,101.5757c-.0045.0806-.0087.1612-.02.2406C160.8272,101.7357,160.8313,101.6561,160.8357,101.5757Z"></path><path class="cls-4" d="M160.6816,100.5512a2.6244,2.6244,0,0,1,.0869.2692A2.6055,2.6055,0,0,0,160.6816,100.5512Z"></path><path class="cls-4" d="M160.8117,101.0605a2.5545,2.5545,0,0,1,.0286.2554A2.5282,2.5282,0,0,0,160.8117,101.0605Z"></path><path class="cls-4" d="M160.6221,102.479a2.5777,2.5777,0,0,1-.1366.27A2.5656,2.5656,0,0,0,160.6221,102.479Z"></path><path class="cls-4" d="M157.7236,98.9014a2.5339,2.5339,0,0,1,.3446-.0385A2.5659,2.5659,0,0,0,157.7236,98.9014Z"></path><path class="cls-4" d="M157.229,99.06a2.5766,2.5766,0,0,1,.3928-.1269A2.5456,2.5456,0,0,0,157.229,99.06Z"></path><path class="cls-4" d="M160.1609,99.6945c-.0513-.0561-.1-.1145-.1562-.1662-.0608-.0558-.1277-.1019-.1929-.151l-.0072-.0057c-.0678-.0508-.1339-.1036-.2073-.148-.0663-.04-.1373-.0707-.2068-.1046a2.5784,2.5784,0,0,0-.2583-.1152c-.064-.023-.13-.038-.1961-.0559a2.581,2.581,0,0,0-.8679-.085,2.5339,2.5339,0,0,0-.3446.0385c-.0345.0073-.0675.0233-.1018.032a2.5766,2.5766,0,0,0-.3928.1269,2.5862,2.5862,0,0,0-1.101,3.8515l.494.7135.8238.2721a2.6342,2.6342,0,0,0,2.2832-.33c.0093-.0064.02-.011.0291-.0176a2.5641,2.5641,0,0,0,.3493-.3021c.0331-.0337.0624-.0713.0937-.107a2.5652,2.5652,0,0,0,.198-.2545c.03-.0446.0588-.0906.0864-.1374a2.5777,2.5777,0,0,0,.1366-.27c.0229-.0521.0469-.1033.0666-.1575.0271-.0746.0449-.1521.0652-.2289a2.6457,2.6457,0,0,0,.0613-.2763c.0118-.0794.016-.16.02-.2406a2.5936,2.5936,0,0,0,.0046-.26,2.5545,2.5545,0,0,0-.0286-.2554c-.012-.0806-.0238-.1613-.0432-.24a2.6244,2.6244,0,0,0-.0869-.2692c-.0259-.0708-.05-.1423-.0818-.21a2.554,2.554,0,0,0-.14-.2489c-.0368-.06-.0711-.122-.1128-.1792A2.5812,2.5812,0,0,0,160.1609,99.6945Z"></path><path class="cls-4" d="M144.0055,70.9531a2.5843,2.5843,0,0,0,1.8325-.7588L147.6322,68.4a2.5915,2.5915,0,1,0-3.6649-3.6649l-1.7942,1.7942a2.5913,2.5913,0,0,0,1.8324,4.4237Z"></path><path class="cls-4" d="M153.6848,61.2738a2.5843,2.5843,0,0,0,1.8325-.7588l1.7939-1.7938a2.5915,2.5915,0,0,0-3.6649-3.665L151.8524,56.85a2.5913,2.5913,0,0,0,1.8324,4.4237Z"></path><path class="cls-4" d="M153.6463,70.194a2.5912,2.5912,0,0,0,3.6649-3.6642l-1.7939-1.7943A2.5912,2.5912,0,0,0,151.8524,68.4Z"></path><path class="cls-4" d="M143.9677,60.515a2.5912,2.5912,0,0,0,3.6642-3.6649l-1.7943-1.7939a2.5913,2.5913,0,0,0-3.6642,3.665Z"></path><path class="cls-4" d="M78.349,44.7a2.5847,2.5847,0,0,0,1.8325-.7588l1.7942-1.7943a2.5915,2.5915,0,1,0-3.665-3.6649l-1.7942,1.7942A2.5913,2.5913,0,0,0,78.349,44.7Z"></path><path class="cls-4" d="M68.6322,48.1613,66.838,49.9551A2.5912,2.5912,0,1,0,70.5022,53.62l1.7941-1.7938a2.5912,2.5912,0,1,0-3.6641-3.6649Z"></path><path class="cls-4" d="M68.6318,43.9411a2.5915,2.5915,0,0,0,3.6649-3.665l-1.7942-1.7942a2.5915,2.5915,0,0,0-3.665,3.6649Z"></path><path class="cls-4" d="M78.3111,53.62a2.5912,2.5912,0,1,0,3.6642-3.6649L80.181,48.1613a2.5912,2.5912,0,1,0-3.6641,3.6649Z"></path><path class="cls-4" d="M63.8043,83.2675a2.5912,2.5912,0,1,0,3.6635-3.6656l-.493-.4926a2.5912,2.5912,0,1,0-3.6634,3.6656Z"></path><path class="cls-4" d="M56.7575,76.2211a2.5913,2.5913,0,1,0,3.6657-3.6635l-.4926-.493a2.5913,2.5913,0,0,0-3.6657,3.6635Z"></path><path class="cls-4" d="M65.1431,76.9806a2.5847,2.5847,0,0,0,1.8324-.7588l.493-.493a2.5915,2.5915,0,0,0-3.6649-3.6649l-.493.493a2.5913,2.5913,0,0,0,1.8325,4.4237Z"></path><path class="cls-4" d="M58.0977,84.0259a2.5843,2.5843,0,0,0,1.8325-.7588l.4926-.4926A2.5915,2.5915,0,1,0,56.7579,79.11l-.4926.4926a2.5913,2.5913,0,0,0,1.8324,4.4237Z"></path><path class="cls-4" d="M89.9121,79.591h11.3112v25.5518a2.5912,2.5912,0,0,0,4.7267,1.4681l25.3512-36.877a2.5914,2.5914,0,0,0-2.1353-4.0593H117.8546V40.1228a2.5913,2.5913,0,0,0-4.7266-1.4681L87.7768,75.5317a2.5914,2.5914,0,0,0,2.1353,4.0593Zm22.76-31.1246v19.8a2.5915,2.5915,0,0,0,2.5913,2.5912H124.24L106.4058,96.7993V77a2.5914,2.5914,0,0,0-2.5912-2.5913H94.8378Z"></path></svg> 