<?xml version="1.0" encoding="UTF-8"?> <svg xmlns="http://www.w3.org/2000/svg" id="Layer_1" data-name="Layer 1" width="217.4533" height="217.4699" viewBox="0 0 217.4533 217.4699"><defs><style>.cls-1{fill:#00eaff;}.cls-2{fill:#fff;}.cls-3{fill:#231834;}.cls-4{fill:#fe712c;}</style></defs><title>nr_icon_releasenotes</title><circle class="cls-1" cx="108.7265" cy="108.7681" r="108.7317" transform="translate(-18.191 21.9125) rotate(-10.6253)"></circle><path class="cls-2" d="M83.4839,47.9452v79.1639a3.42,3.42,0,0,0,3.4211,3.4183h71.6044a3.4191,3.4191,0,0,0,3.4182-3.4183V47.9452a3.4187,3.4187,0,0,0-3.4182-3.4176H86.905a3.42,3.42,0,0,0-3.4211,3.4176Z"></path><path class="cls-3" d="M135.882,153.5461a5.6524,5.6524,0,0,0,3.4558-5.2088V132.7612h11.8635a1.832,1.832,0,0,0,.0907.3733l9.6035,20.7644a1.1411,1.1411,0,0,1-.1577,1.0268,1.1684,1.1684,0,0,1-.5805.4342L92.4865,178.778h.0029a1.1642,1.1642,0,0,1-.3876.0671,1.2125,1.2125,0,0,1-.6827-.2158,1.1627,1.1627,0,0,1-.4342-.5829l-.07-.1724-10.56-23.8819H133.68a5.6234,5.6234,0,0,0,2.2022-.446ZM86.4439,128.1975a1.1949,1.1949,0,0,1-.522-.4288,1.1819,1.1819,0,0,1-.2012-.66V47.9452a1.1358,1.1358,0,0,1,.0936-.4605,1.2012,1.2012,0,0,1,.4283-.5217,1.1589,1.1589,0,0,1,.6624-.1985h71.6044a1.1851,1.1851,0,0,1,.4611.09,1.2065,1.2065,0,0,1,.5219.432,1.1869,1.1869,0,0,1,.2013.6585v79.1639a1.2265,1.2265,0,0,1-.0931.4582,1.1984,1.1984,0,0,1-.4319.5219,1.15,1.15,0,0,1-.6593.2014H86.905a1.1308,1.1308,0,0,1-.4611-.0931ZM58.6572,103.0264a2.2368,2.2368,0,0,0-2.2365,2.2366v43.0743a5.62,5.62,0,0,0,.446,2.2021,5.6555,5.6555,0,0,0,5.2088,3.4527H75.54a1.9355,1.9355,0,0,0,.0757.3381l11.2108,25.3521.0173-.009a5.6148,5.6148,0,0,0,7.1045,3.33h.0029l67.6678-23.418a5.6487,5.6487,0,0,0,3.8059-5.3426,5.7342,5.7342,0,0,0-.3094-1.8493c-.0323-.0871-.0466-.1223-.0849-.2065l-8.9853-19.426h2.4644a5.6547,5.6547,0,0,0,5.6549-5.6521V47.9452a5.6547,5.6547,0,0,0-5.6549-5.6543H86.905A5.6481,5.6481,0,0,0,81.25,47.9452V63.5213H62.0755a5.6547,5.6547,0,0,0-5.6548,5.6519V90.3547a2.2367,2.2367,0,1,0,4.4733,0h0V69.1732a1.1951,1.1951,0,0,1,.09-.4575,1.2155,1.2155,0,0,1,.432-.522,1.1816,1.1816,0,0,1,.6593-.2013H81.25v59.1167a5.648,5.648,0,0,0,5.6548,5.6521h47.9593v15.5761a1.1128,1.1128,0,0,1-.0938.4581,1.1842,1.1842,0,0,1-.4313.5249,1.1659,1.1659,0,0,1-.6594.2013H62.0755a1.2142,1.2142,0,0,1-.4581-.0938,1.1743,1.1743,0,0,1-.5219-.4312,1.1575,1.1575,0,0,1-.2015-.6593V105.263a2.2373,2.2373,0,0,0-2.2368-2.2366Z"></path><path class="cls-3" d="M149.3175,99.6674H96.0945a2.2356,2.2356,0,0,0,0,4.4711h53.223a2.2356,2.2356,0,1,0,0-4.4711Z"></path><path class="cls-3" d="M149.3175,74.4788H96.0945a2.2357,2.2357,0,0,0,0,4.4713h53.223a2.2357,2.2357,0,1,0,0-4.4713Z"></path><path class="cls-3" d="M149.3175,87.0715H96.0945a2.2372,2.2372,0,0,0,0,4.4743h53.223a2.2372,2.2372,0,0,0,0-4.4743Z"></path><path class="cls-3" d="M149.3175,112.26H96.0945a2.2368,2.2368,0,0,0,0,4.4735h53.223a2.2368,2.2368,0,0,0,0-4.4735Z"></path><path class="cls-4" d="M98.87,64.1675c-.3559.9518-.7018,1.9807-.9036,2.7113a.1344.1344,0,0,1-.1347.1059H96.293a.134.134,0,0,1-.1347-.1059c-.2018-.7212-.5482-1.74-.9036-2.7113l-.6635-1.7592c-.0383-.0865,0-.1444.0959-.1444h1.3171a.1442.1442,0,0,1,.1447.0961l.2883.8074a12.4591,12.4591,0,0,1,.5382,2.019c.0194.1253.1541.1253.173,0a9.8677,9.8677,0,0,1,.5288-2.019l.2888-.8074a.1436.1436,0,0,1,.1442-.0961h1.3171c.0959,0,.1347.0579.0959.1444Z"></path><path class="cls-4" d="M100.9479,60.3123a4.0191,4.0191,0,0,1,1.4041-.25c1.4807,0,2.3554.7115,2.3554,1.9133a1.3109,1.3109,0,0,1-.7788,1.3071c-.1059.0577-.1059.1159,0,.1636a1.6815,1.6815,0,0,1,1.01,1.6248c0,1.2694-.9613,2.0194-2.5766,2.0194a4.9747,4.9747,0,0,1-1.5672-.2694L100.15,66.6c-.0865-.0194-.1059-.0771-.0771-.1536l.3942-1.0289a.1047.1047,0,0,1,.1541-.077l.6153.2018a3.8683,3.8683,0,0,0,1.1248.2017c.6535,0,1.0477-.3265,1.0477-.8553,0-.4806-.3554-.8077-.9518-.8077H101.89a.1161.1161,0,0,1-.1248-.1253V62.8792a.1157.1157,0,0,1,.1248-.1247h.5576c.4618,0,.7307-.25.7307-.6059,0-.4615-.3171-.7307-.8266-.7307a2.9578,2.9578,0,0,0-.9906.1827l-.5383.1826c-.077.0289-.1247,0-.1535-.0767l-.3659-1.0577a.1121.1121,0,0,1,.0771-.1539Z"></path><path class="cls-4" d="M107.5645,66.1964a.88.88,0,1,1-.8847-.8942A.8165.8165,0,0,1,107.5645,66.1964Z"></path><path class="cls-4" d="M109.3052,60.3314a5.0428,5.0428,0,0,1,1.596-.2691c1.4518,0,2.3265.74,2.3265,2a1.9633,1.9633,0,0,1-1.173,1.7112l-1.4518.8942a1.167,1.167,0,0,0-.5.99h2.8843a.1162.1162,0,0,1,.1247.1252v1.0766a.1163.1163,0,0,1-.1247.1253H108.69a.1161.1161,0,0,1-.1248-.1253v-.5865a2.9665,2.9665,0,0,1,1.336-2.7978l1.4136-.8842a.6215.6215,0,0,0,.3747-.5288c0-.4039-.2882-.6442-.7882-.6442a3.5737,3.5737,0,0,0-1.1442.1924l-.6347.2018c-.0765.0288-.1248,0-.1536-.0768l-.3559-1.048c-.0288-.0771,0-.125.0771-.1538Z"></path><path class="cls-4" d="M116.0083,66.1964a.88.88,0,1,1-.8847-.8942A.8165.8165,0,0,1,116.0083,66.1964Z"></path><path class="cls-4" d="M117.749,60.3314a5.0427,5.0427,0,0,1,1.5959-.2691c1.4519,0,2.3266.74,2.3266,2a1.9633,1.9633,0,0,1-1.173,1.7112l-1.4518.8942a1.167,1.167,0,0,0-.4995.99h2.8843a.1162.1162,0,0,1,.1247.1252v1.0766a.1163.1163,0,0,1-.1247.1253h-4.2978a.1161.1161,0,0,1-.1248-.1253v-.5865a2.9665,2.9665,0,0,1,1.336-2.7978l1.4136-.8842a.6215.6215,0,0,0,.3747-.5288c0-.4039-.2882-.6442-.7883-.6442a3.5736,3.5736,0,0,0-1.1441.1924l-.6347.2018c-.0765.0288-.1248,0-.1536-.0768l-.3559-1.048c-.0288-.0771,0-.125.0771-.1538Z"></path></svg> 