<?xml version="1.0" encoding="UTF-8"?> <svg xmlns="http://www.w3.org/2000/svg" id="Layer_1" data-name="Layer 1" width="217.4533" height="217.4699" viewBox="0 0 217.4533 217.4699"><defs><style>.cls-1{fill:#00eaff;}.cls-2{fill:#fff;}.cls-3{fill:#231834;}</style></defs><title>nr_icon_backlog</title><circle class="cls-1" cx="108.6899" cy="108.7681" r="108.7317" transform="translate(-18.1916 21.9057) rotate(-10.6253)"></circle><path class="cls-2" d="M45.8667,156.08v18.1384H82.1433V156.08Zm27.2074,12.0922H54.9358a3.0231,3.0231,0,0,1,0-6.0461H73.0741a3.0231,3.0231,0,1,1,0,6.0461Z"></path><path class="cls-2" d="M45.8667,119.8036v18.1383H82.1433V119.8036Zm27.2074,12.0922H54.9358a3.0231,3.0231,0,0,1,0-6.0461H73.0741a3.0231,3.0231,0,1,1,0,6.0461Z"></path><path class="cls-2" d="M45.8667,47.25V65.3886H82.1433V47.25ZM73.0741,59.3425H54.9358a3.0231,3.0231,0,0,1,0-6.0461H73.0741a3.0231,3.0231,0,1,1,0,6.0461Z"></path><path class="cls-2" d="M82.1433,83.5269H45.8667v18.1383H82.1433ZM73.0741,95.6191H54.9358a3.023,3.023,0,0,1,0-6.046H73.0741a3.023,3.023,0,1,1,0,6.046Z"></path><path class="cls-2" d="M178.881,156.08V119.8036H142.6044V156.08Zm-27.2074-21.1614h18.1383a3.0231,3.0231,0,0,1,0,6.0462H151.6736a3.0231,3.0231,0,0,1,0-6.0462Z"></path><path class="cls-2" d="M178.881,101.6652V65.3886H142.6044v36.2766ZM151.6736,80.5038h18.1383a3.0231,3.0231,0,0,1,0,6.0462H151.6736a3.0231,3.0231,0,0,1,0-6.0462Z"></path><path class="cls-3" d="M82.1433,165.1494v9.0692H45.8667V156.08H82.1433v9.0692a3.0214,3.0214,0,0,1,3.0231-3.0231h3.023v-9.0691a3.0213,3.0213,0,0,0-3.023-3.0231H42.8436a3.0213,3.0213,0,0,0-3.0231,3.0231v24.1844a3.0214,3.0214,0,0,0,3.0231,3.0231H85.1664a3.0214,3.0214,0,0,0,3.023-3.0231v-9.0692h-3.023A3.0213,3.0213,0,0,1,82.1433,165.1494Z"></path><path class="cls-3" d="M82.1433,128.8727v9.0692H45.8667V119.8036H82.1433v9.0691a3.0213,3.0213,0,0,1,3.0231-3.023h3.023v-9.0692a3.0213,3.0213,0,0,0-3.023-3.023H42.8436a3.0213,3.0213,0,0,0-3.0231,3.023V140.965a3.0213,3.0213,0,0,0,3.0231,3.023H85.1664a3.0213,3.0213,0,0,0,3.023-3.023v-9.0692h-3.023A3.0213,3.0213,0,0,1,82.1433,128.8727Z"></path><path class="cls-3" d="M142.6044,137.9419V119.8036H178.881V156.08H142.6044V137.9419a3.0213,3.0213,0,0,1-3.0231,3.0231h-3.023v18.1383a3.0213,3.0213,0,0,0,3.023,3.023h42.3228a3.0213,3.0213,0,0,0,3.0231-3.023V116.7805a3.0213,3.0213,0,0,0-3.0231-3.023H139.5813a3.0213,3.0213,0,0,0-3.023,3.023v18.1383h3.023A3.0213,3.0213,0,0,1,142.6044,137.9419Z"></path><path class="cls-3" d="M181.9041,59.3425H139.5813a3.0213,3.0213,0,0,0-3.023,3.023V80.5038h3.023a3.0214,3.0214,0,0,1,3.0231,3.0231V65.3886H178.881v36.2766H142.6044V83.5269a3.0213,3.0213,0,0,1-3.0231,3.0231h-3.023v18.1383a3.0213,3.0213,0,0,0,3.023,3.0231h42.3228a3.0213,3.0213,0,0,0,3.0231-3.0231V62.3655A3.0213,3.0213,0,0,0,181.9041,59.3425Z"></path><path class="cls-3" d="M42.8436,107.7114H85.1664a3.0213,3.0213,0,0,0,3.023-3.0231V80.5038a3.0213,3.0213,0,0,0-3.023-3.023H42.8436a3.0214,3.0214,0,0,0-3.0231,3.023v24.1845A3.0213,3.0213,0,0,0,42.8436,107.7114Zm3.0231-24.1845H82.1433v18.1383H45.8667Z"></path><path class="cls-3" d="M82.1433,56.32v9.0691H45.8667V47.25H82.1433V56.32a3.0213,3.0213,0,0,1,3.0231-3.0231h3.023V44.2272a3.0213,3.0213,0,0,0-3.023-3.023H42.8436a3.0213,3.0213,0,0,0-3.0231,3.023V68.4117a3.0213,3.0213,0,0,0,3.0231,3.023H85.1664a3.0213,3.0213,0,0,0,3.023-3.023V59.3425h-3.023A3.0213,3.0213,0,0,1,82.1433,56.32Z"></path><path class="cls-3" d="M118.42,122.8267a18.13,18.13,0,0,0,8.1333,15.1152,18.0261,18.0261,0,0,1,10.005-3.0231,12.1042,12.1042,0,0,1-12.0923-12.0921V86.55H118.42Z"></path><path class="cls-3" d="M124.466,71.4347a18.1581,18.1581,0,0,0-18.1383-18.1383H88.1894v6.0461h18.1383A12.1043,12.1043,0,0,1,118.42,71.4347v9.0691h6.046Z"></path><path class="cls-3" d="M85.1664,53.2964a3.0231,3.0231,0,1,0,0,6.0461h3.023V53.2964Z"></path><rect class="cls-3" x="124.466" y="80.5038" width="12.0922" height="6.0461"></rect><path class="cls-3" d="M100.2817,98.6422v15.1153A12.1043,12.1043,0,0,1,88.1894,125.85v6.0461a18.1582,18.1582,0,0,0,18.1383-18.1383V98.6422A12.1043,12.1043,0,0,1,118.42,86.55V80.5038A18.1581,18.1581,0,0,0,100.2817,98.6422Z"></path><path class="cls-3" d="M85.1664,125.85a3.0231,3.0231,0,1,0,0,6.0461h3.023V125.85Z"></path><path class="cls-3" d="M142.6044,83.5269a3.0214,3.0214,0,0,0-3.0231-3.0231h-3.023V86.55h3.023A3.0213,3.0213,0,0,0,142.6044,83.5269Z"></path><rect class="cls-3" x="118.42" y="80.5038" width="6.0461" height="6.0461"></rect><path class="cls-3" d="M118.42,153.0572a9.0791,9.0791,0,0,1-9.0692,9.0691H88.1894v6.0461h21.1614a15.133,15.133,0,0,0,15.1152-15.1152,12.1042,12.1042,0,0,1,12.0923-12.0922,18.0261,18.0261,0,0,1-10.005-3.0231A18.13,18.13,0,0,0,118.42,153.0572Z"></path><path class="cls-3" d="M85.1664,162.1263a3.0231,3.0231,0,1,0,0,6.0461h3.023v-6.0461Z"></path><path class="cls-3" d="M136.5583,140.965v-6.0462a18.0261,18.0261,0,0,0-10.005,3.0231A18.0261,18.0261,0,0,0,136.5583,140.965Z"></path><path class="cls-3" d="M139.5813,140.965a3.0231,3.0231,0,0,0,0-6.0462h-3.023v6.0462Z"></path><path class="cls-3" d="M73.0741,89.5731H54.9358a3.023,3.023,0,0,0,0,6.046H73.0741a3.023,3.023,0,1,0,0-6.046Z"></path><path class="cls-3" d="M151.6736,86.55h18.1383a3.0231,3.0231,0,0,0,0-6.0462H151.6736a3.0231,3.0231,0,0,0,0,6.0462Z"></path><path class="cls-3" d="M151.6736,140.965h18.1383a3.0231,3.0231,0,0,0,0-6.0462H151.6736a3.0231,3.0231,0,0,0,0,6.0462Z"></path><path class="cls-3" d="M73.0741,125.85H54.9358a3.0231,3.0231,0,0,0,0,6.0461H73.0741a3.0231,3.0231,0,1,0,0-6.0461Z"></path><path class="cls-3" d="M73.0741,162.1263H54.9358a3.0231,3.0231,0,0,0,0,6.0461H73.0741a3.0231,3.0231,0,1,0,0-6.0461Z"></path><path class="cls-3" d="M73.0741,53.2964H54.9358a3.0231,3.0231,0,0,0,0,6.0461H73.0741a3.0231,3.0231,0,1,0,0-6.0461Z"></path></svg> 