<?xml version="1.0" encoding="UTF-8"?> <svg xmlns="http://www.w3.org/2000/svg" id="Layer_1" data-name="Layer 1" width="217.45" height="217.47" viewBox="0 0 217.45 217.47"><title>nr_icon_communicate</title><circle cx="108.72" cy="108.74" r="108.73" transform="translate(-18.19 21.91) rotate(-10.63)" fill="#00eaff"></circle><polygon points="113.38 186.24 164.99 157.57 164.99 139.1 113.38 170.57 113.38 186.24" fill="none"></polygon><polygon points="53.9 132.58 104.84 160.57 104.84 142.29 53.9 113.81 53.9 132.58" fill="none"></polygon><polygon points="113.38 160.56 164.99 129.09 164.99 113.44 113.38 142.29 113.38 160.56" fill="none"></polygon><polygon points="141.98 34.21 137.42 42.1 146.53 42.1 141.98 34.21" fill="#00eaa6"></polygon><polygon points="78.22 34.21 73.67 42.1 82.78 42.1 78.22 34.21" fill="#00eaa6"></polygon><polygon points="58.36 106.51 109.12 134.89 159.91 106.49 109.43 78.84 58.36 106.51" fill="#fe712c"></polygon><polygon points="109.45 73.98 94.94 81.83 123.78 81.83 109.45 73.98" fill="none"></polygon><polygon points="53.9 132.58 104.84 160.57 104.84 142.29 53.9 113.81 53.9 132.58" fill="#fff"></polygon><polygon points="113.38 160.56 164.99 129.09 164.99 113.44 113.38 142.29 113.38 160.56" fill="#fff"></polygon><path d="M172.6,105a4.18,4.18,0,0,0-1.81-2.26L145.92,89.09V50.65h8a4.28,4.28,0,0,0,3.7-6.41L145.68,23.53a4.27,4.27,0,0,0-7.4,0l-12,20.71A4.28,4.28,0,0,0,130,50.65h7.36V84.41l-4.7-2.58-21.19-11.6c-.12-.07-.28-.07-.41-.13a4.71,4.71,0,0,0-.83-.26,4.33,4.33,0,0,0-.8-.07,4.22,4.22,0,0,0-.79.07,4.06,4.06,0,0,0-.84.25c-.13.06-.28.06-.41.13h0L86,81.83,82.16,83.9V50.65h8a4.28,4.28,0,0,0,3.69-6.41l-12-20.71a4.27,4.27,0,0,0-7.4,0L62.57,44.24a4.28,4.28,0,0,0,3.7,6.41h7.35V88.52L47.46,102.7a4.25,4.25,0,0,0-2.24,3.72,4.05,4.05,0,0,0,.2.76c0,.11-.06.21-.06.32v52.59a4.25,4.25,0,0,0,2.21,3.74l7.24,4a4.28,4.28,0,0,0,4.11-7.5l-5-2.74V142.33l50.94,28v15.1L85.2,174.68a4.27,4.27,0,1,0-4.1,7.49l26,14.2a3.61,3.61,0,0,0,1,.24,4.19,4.19,0,0,0,4.13.07l59.15-32.86a4.26,4.26,0,0,0,2.2-3.73V107.5A4.14,4.14,0,0,0,172.6,105ZM142,34.21l4.55,7.89h-9.11Zm-63.76,0,4.56,7.89H73.67Zm26.62,126.36-50.94-28V113.81l50.94,28.48Zm60.15-3-51.61,28.67V170.57L165,139.1Zm0-28.47-51.61,31.46V142.29L165,113.44Zm2.57-22-58.44,32.67L50.66,107.11l-1.17-.66L95,81.83,109.45,74l14.33,7.85,45,24.62Z" fill="#231834"></path><path d="M49.49,106.45l1.17.66,58.46,32.67,58.44-32.67,1.18-.66L109.45,74Zm59.63,28.44L58.36,106.51l51.07-27.67,50.48,27.65Z" fill="#231834"></path><text transform="translate(83.95 112.72)" font-size="16.94" fill="#fff" font-family="Neris-Black, Neris" letter-spacing="-0.02em">v<tspan x="9.25" y="0" letter-spacing="-0.01em">3</tspan><tspan x="19.35" y="0" letter-spacing="0em">.2.2</tspan></text></svg> 