<?xml version="1.0" encoding="UTF-8"?> <svg xmlns="http://www.w3.org/2000/svg" id="Layer_1" data-name="Layer 1" width="217.45" height="217.47" viewBox="0 0 217.45 217.47"><title>nr_icon_track</title><circle cx="108.73" cy="108.95" r="108.73" transform="translate(-18.22 21.92) rotate(-10.63)" fill="#00eaff"></circle><path d="M167.22,173.59h-117a7.86,7.86,0,0,1-7.85-7.85V86.62a2.15,2.15,0,0,1,2.15-2.15H172.91a2.15,2.15,0,0,1,2.15,2.15v79.12A7.85,7.85,0,0,1,167.22,173.59Z" fill="#231834"></path><path d="M46.69,88.77v77a3.55,3.55,0,0,0,3.55,3.55h117a3.55,3.55,0,0,0,3.55-3.55v-77Z" fill="#fff"></path><rect x="143.59" y="146.42" width="10.54" height="10.54" rx="2.15" ry="2.15" fill="#231834"></rect><rect x="147.89" y="150.71" width="1.95" height="1.95" fill="#231834"></rect><rect x="123.54" y="146.42" width="10.54" height="10.54" rx="2.15" ry="2.15" fill="#231834"></rect><rect x="127.84" y="150.71" width="1.95" height="1.95" fill="#231834"></rect><rect x="103.43" y="146.42" width="10.54" height="10.54" rx="2.15" ry="2.15" fill="#231834"></rect><rect x="107.72" y="150.71" width="1.94" height="1.95" fill="#231834"></rect><rect x="83.38" y="146.42" width="10.54" height="10.54" rx="2.15" ry="2.15" fill="#231834"></rect><rect x="87.67" y="150.71" width="1.94" height="1.95" fill="#231834"></rect><rect x="63.32" y="146.42" width="10.54" height="10.54" rx="2.15" ry="2.15" fill="#231834"></rect><rect x="67.62" y="150.71" width="1.95" height="1.95" fill="#231834"></rect><rect x="79.81" y="121.26" width="17.66" height="17.66" rx="2.15" ry="2.15" fill="#231834"></rect><rect x="84.11" y="125.56" width="9.07" height="9.07" fill="#231834"></rect><rect x="143.59" y="124.83" width="10.54" height="10.54" rx="2.15" ry="2.15" fill="#231834"></rect><rect x="147.89" y="129.12" width="1.95" height="1.95" fill="#231834"></rect><rect x="123.54" y="124.83" width="10.54" height="10.54" rx="2.15" ry="2.15" fill="#231834"></rect><rect x="127.84" y="129.12" width="1.95" height="1.95" fill="#231834"></rect><rect x="103.43" y="124.83" width="10.54" height="10.54" rx="2.15" ry="2.15" fill="#231834"></rect><rect x="107.72" y="129.12" width="1.94" height="1.95" fill="#231834"></rect><rect x="63.32" y="124.83" width="10.54" height="10.54" rx="2.15" ry="2.15" fill="#231834"></rect><rect x="67.62" y="129.12" width="1.95" height="1.95" fill="#231834"></rect><rect x="143.59" y="103.24" width="10.54" height="10.54" rx="2.15" ry="2.15" fill="#231834"></rect><rect x="147.89" y="107.53" width="1.95" height="1.95" fill="#231834"></rect><rect x="123.54" y="103.24" width="10.54" height="10.54" rx="2.15" ry="2.15" fill="#231834"></rect><rect x="127.84" y="107.53" width="1.95" height="1.95" fill="#231834"></rect><rect x="103.43" y="103.24" width="10.54" height="10.54" rx="2.15" ry="2.15" fill="#231834"></rect><rect x="107.72" y="107.53" width="1.94" height="1.95" fill="#231834"></rect><rect x="83.38" y="103.24" width="10.54" height="10.54" rx="2.15" ry="2.15" fill="#231834"></rect><rect x="87.67" y="107.53" width="1.94" height="1.95" fill="#231834"></rect><rect x="63.32" y="103.24" width="10.54" height="10.54" rx="2.15" ry="2.15" fill="#231834"></rect><rect x="67.62" y="107.53" width="1.95" height="1.95" fill="#231834"></rect><path d="M93.91,113.77H83.38V103.24H93.91Zm-6.24-4.29h1.94v-2H87.67Z" fill="#231834"></path><path d="M73.86,113.77H63.32V103.24H73.86Zm-6.24-4.29h1.94v-2H67.62Z" fill="#231834"></path><path d="M114,113.77H103.43V103.24H114Zm-6.24-4.29h2v-2h-2Z" fill="#231834"></path><path d="M134.08,113.77H123.54V103.24h10.54Zm-6.24-4.29h1.95v-2h-1.95Z" fill="#231834"></path><path d="M154.13,113.77H143.59V103.24h10.54Zm-6.24-4.29h2v-2h-2Z" fill="#231834"></path><rect x="81.96" y="123.41" width="13.37" height="13.37" fill="#00eaa6"></rect><path d="M97.47,138.93H79.81V121.26H97.47Zm-13.36-4.3h9.07v-9.07H84.11Z" fill="#231834"></path><path d="M73.86,135.37H63.32V124.83H73.86Zm-6.24-4.3h1.94v-1.95H67.62Z" fill="#231834"></path><path d="M114,135.37H103.43V124.83H114Zm-6.24-4.3h2v-1.95h-2Z" fill="#231834"></path><path d="M134.08,135.37H123.54V124.83h10.54Zm-6.24-4.3h1.95v-1.95h-1.95Z" fill="#231834"></path><path d="M154.13,135.37H143.59V124.83h10.54Zm-6.24-4.3h2v-1.95h-2Z" fill="#231834"></path><path d="M93.91,157H83.38V146.42H93.91Zm-6.24-4.3h1.94v-1.95H87.67Z" fill="#231834"></path><path d="M73.86,157H63.32V146.42H73.86Zm-6.24-4.3h1.94v-1.95H67.62Z" fill="#231834"></path><path d="M114,157H103.43V146.42H114Zm-6.24-4.3h2v-1.95h-2Z" fill="#231834"></path><path d="M134.08,157H123.54V146.42h10.54Zm-6.24-4.3h1.95v-1.95h-1.95Z" fill="#231834"></path><path d="M154.13,157H143.59V146.42h10.54Zm-6.24-4.3h2v-1.95h-2Z" fill="#231834"></path><path d="M167.22,63.61H153.44V75.23h-8.22V63.61h-73V75.23H64V63.61H50.24a5.7,5.7,0,0,0-5.7,5.7V86.62H172.91V69.31A5.7,5.7,0,0,0,167.22,63.61Z" fill="#fe712c"></path><path d="M175.06,88.77H42.39V69.31a7.85,7.85,0,0,1,7.85-7.84H66.16V73.09h3.93V61.47h77.28V73.09h3.93V61.47h15.92a7.84,7.84,0,0,1,7.84,7.84ZM46.69,84.47H170.77V69.31a3.56,3.56,0,0,0-3.55-3.55H155.59V77.38H143.07V65.76H74.38V77.38H61.86V65.76H50.24a3.56,3.56,0,0,0-3.55,3.55Z" fill="#231834"></path><polygon points="64.01 75.23 72.23 75.23 72.23 64.1 72.23 63.62 72.23 51.99 64.01 51.99 64.01 63.62 64.01 64.1 64.01 75.23" fill="#fff"></polygon><path d="M72.24,77.38H64a2.15,2.15,0,0,1-2.15-2.15V52A2.14,2.14,0,0,1,64,49.85h8.23A2.14,2.14,0,0,1,74.38,52V75.23A2.14,2.14,0,0,1,72.24,77.38Zm-6.08-4.29h3.93v-19H66.16Z" fill="#231834"></path><polygon points="145.22 75.23 153.44 75.23 153.44 64.1 153.44 63.62 153.44 51.99 145.22 51.99 145.22 63.62 145.22 64.1 145.22 75.23" fill="#fff"></polygon><path d="M153.45,77.38h-8.23a2.15,2.15,0,0,1-2.15-2.15V52a2.14,2.14,0,0,1,2.15-2.14h8.23A2.14,2.14,0,0,1,155.59,52V75.23A2.14,2.14,0,0,1,153.45,77.38Zm-6.08-4.29h3.93v-19h-3.93Z" fill="#231834"></path><path d="M132.63,77.38H85.52a2.15,2.15,0,0,1,0-4.29h47.11a2.15,2.15,0,0,1,0,4.29Z" fill="#231834"></path></svg> 