<?xml version="1.0" encoding="utf-8"?>
<!-- Generator: Adobe Illustrator 22.0.1, SVG Export Plug-In . SVG Version: 6.00 Build 0)  -->
<svg version="1.1" id="Layer_1" xmlns="http://www.w3.org/2000/svg" xmlns:xlink="http://www.w3.org/1999/xlink" x="0px" y="0px"
	 viewBox="0 0 554.1 125.7" style="enable-background:new 0 0 554.1 125.7;" xml:space="preserve">
<style type="text/css">
	.st0{fill:#231834;}
	.st1{fill:none;}
	.st2{fill:#00EAFF;}
	.st3{opacity:0.57;fill:#A9F7FF;}
	.st4{fill:#FFFFFF;}
	.st5{fill:#D3CEC3;}
</style>
<g>
	<g>
		<g>
			<path class="st0" d="M199.6,89.8c0,0.6-0.4,1-1,1h-14.2c-0.6,0-1-0.2-1.2-0.8c-1.2-2.8-2.7-5.8-4-8.5l-11.3-23
				c-1-2.1-1.9-3.9-2.9-6c-0.6-1.2-1.4-0.7-1.4,0.3c0.7,5,0.9,8.8,0.9,14.5v22.4c0,0.6-0.4,1-1,1h-10.9c-0.6,0-1-0.4-1-1V35.2
				c0-0.6,0.4-1,1-1h14.2c0.6,0,1,0.2,1.2,0.8c1.3,2.8,2.8,5.8,4.1,8.5l11.4,23.2c1,2.1,1.8,3.9,2.9,5.8c0.6,1.3,1.4,0.8,1.3-0.3
				c-0.8-5-0.9-8.6-0.9-14.4V35.2c0-0.6,0.4-1,1-1h10.8c0.6,0,1,0.4,1,1L199.6,89.8L199.6,89.8z"/>
			<path class="st0" d="M230.9,90.8c-2.8,0.6-5.5,0.9-7.6,0.9c-13.1,0-20.2-7.9-20.2-20.4c0-12.6,7.3-20.5,19.8-20.5
				c10,0,16.1,5.3,16.1,13.5c0,6.4-4.5,10.1-13.7,11.3L216,77c1.5,2.8,3.5,4,7.3,4c1.7,0,4-0.3,5.1-0.6l4.8-1c0.6-0.2,1,0.1,1.2,0.7
				l2.2,8.3c0.2,0.7-0.2,1.1-0.8,1.3L230.9,90.8z M223.6,67.5c2.5-0.2,3.7-1.4,3.7-3.1c0-1.9-1.6-2.9-4.8-2.9
				c-3.4,0-6.9,2.2-7.2,7.3L223.6,67.5z"/>
			<path class="st0" d="M271.2,65c-1.4,2.6-3.5,4.7-5.4,5.6c-0.4,0.2-0.4,0.6-0.1,0.7c2.2,1.4,3.8,3,5.5,6l6.8,12.2
				c0.4,0.7,0.2,1.3-0.7,1.3h-11.6c-0.6,0-1-0.2-1.3-0.7l-4.7-9.1c-0.5-0.9-0.9-0.9-1.4,0l-4.8,9.1c-0.2,0.5-0.6,0.7-1.2,0.7h-11.7
				c-0.9,0-1.1-0.6-0.7-1.3l6.8-12.3c1.7-2.8,3.4-4.7,5.5-6c0.3-0.2,0.3-0.5-0.1-0.7c-1.7-1-3.9-3.2-5.4-5.6L240,52.8
				c-0.4-0.7-0.2-1.3,0.7-1.3h11.5c0.6,0,1,0.2,1.2,0.7l4.8,9.2c0.4,0.9,0.9,0.9,1.4,0l4.7-9.2c0.3-0.5,0.6-0.7,1.3-0.7H277
				c0.9,0,1.1,0.6,0.7,1.3L271.2,65z"/>
			<path class="st0" d="M307.5,51.6c0.6,0,1,0.4,1,1v9c0,0.6-0.4,1-1,1h-9v14.5c0,2.1,0.8,3.3,2.1,3.3c0.7,0,1.4-0.1,2-0.3
				c0.6-0.2,1.1-0.2,1.4,0.5l3.8,7.7c0.2,0.6,0.2,1.1-0.3,1.4c-1.9,1.3-4.5,1.9-6.9,1.9c-9.3,0-14.7-5.4-14.7-14.5V62.7h-4.2
				c-0.6,0-1-0.4-1-1v-9c0-0.6,0.4-1,1-1h4.2V43c0-0.6,0.2-1,0.9-1.2l10.5-3.5c0.7-0.2,1.2,0.1,1.2,0.9v12.5h9V51.6z"/>
			<path class="st0" d="M342.2,35.9c10.6,0,16.9,5.5,16.9,14.9c0,7.3-4.5,12.1-11.7,14.5c-1,0.3-1,0.8-0.1,1.3
				c3.9,1.9,6.5,5.7,8.2,9.8l5.8,13.7c0.2,0.6,0,0.9-0.5,0.9h-4.2c-0.4,0-0.6-0.2-0.8-0.6l-5.2-12c-3.1-7.5-7.8-10.9-15.7-10.9h-9.2
				v22.8c0,0.5-0.2,0.7-0.7,0.7h-3.8c-0.5,0-0.7-0.2-0.7-0.7V36.6c0-0.5,0.2-0.7,0.7-0.7H342.2z M337.3,62.6
				c10.5,0,16.4-4.2,16.4-11.6c0-6.5-4.4-10.3-11.6-10.3h-16.4v21.9H337.3z"/>
			<path class="st0" d="M389.7,90.4c-2.8,0.9-5.6,1.2-8.6,1.2c-11,0-17.6-7.7-17.6-20c0-12.2,6.6-19.9,17.5-19.9
				c9,0,14.5,4.4,14.5,11.8c0,5.6-3.5,8.9-10.7,10.1l-15.6,2.6c1,6.7,5.3,10.6,11.9,10.6c2.7,0,5.2-0.3,7.4-1l2.4-0.7
				c0.5-0.1,0.8,0.1,1,0.6l1,3.2c0.1,0.5-0.1,0.8-0.6,0.9L389.7,90.4z M383.8,69.3c4.2-0.7,6.4-2.6,6.4-5.6c0-4.5-3.4-7.1-9.3-7.1
				c-7.4,0-11.9,5-12.1,15.3L383.8,69.3z"/>
			<path class="st0" d="M406.5,84c0,1.8,0.7,2.9,2.1,2.9c0.2,0,0.5,0,0.7-0.1c0.4-0.2,0.7,0,0.9,0.4l1.4,3.1c0.2,0.4,0,0.8-0.4,1
				c-0.8,0.2-1.7,0.4-2.6,0.4c-4.6,0-7.3-2.8-7.3-7.7V35.1c0-0.5,0.2-0.7,0.7-0.7h3.8c0.5,0,0.7,0.2,0.7,0.7L406.5,84L406.5,84z"/>
			<path class="st0" d="M440.7,90.4c-2.8,0.9-5.6,1.2-8.6,1.2c-11,0-17.6-7.7-17.6-20c0-12.2,6.6-19.9,17.5-19.9
				c9,0,14.5,4.4,14.5,11.8c0,5.6-3.5,8.9-10.7,10.1l-15.6,2.6c1,6.7,5.3,10.6,11.9,10.6c2.7,0,5.2-0.3,7.4-1l2.4-0.7
				c0.5-0.1,0.8,0.1,1,0.6l1,3.2c0.1,0.5-0.1,0.8-0.6,0.9L440.7,90.4z M434.9,69.3c4.2-0.7,6.4-2.6,6.4-5.6c0-4.5-3.4-7.1-9.3-7.1
				c-7.4,0-11.9,5-12.1,15.3L434.9,69.3z"/>
			<path class="st0" d="M457.5,53c2.3-0.7,5.2-1.2,8.5-1.2c9.7,0,15.8,5.8,15.8,15.5v22.8c0,0.5-0.2,0.7-0.7,0.7h-2.5
				c-0.5,0-0.7-0.2-0.8-0.7l-0.2-3.6c-0.2-1-0.8-1-1.6-0.1c-2.7,3.4-6.8,5.2-12.7,5.2c-8.1,0-12.8-4.4-12.8-11.5
				c0-6.9,4.9-11.7,14.1-11.7h12.1v-1c0-6.8-3.8-10.7-10.7-10.7c-2.8,0-5.3,0.3-7.3,1l-2.8,0.8c-0.5,0.2-0.8,0-1-0.5l-0.9-3.1
				c-0.2-0.5,0-0.8,0.5-1L457.5,53z M464.7,72.9c-6.1,0-8.9,2.8-8.9,6.9c0,4.5,2.9,7.1,8,7.1c8.2,0,12.9-4.7,12.9-13v-1H464.7z"/>
			<path class="st0" d="M497.8,72.1c-5.9-1.5-8.6-4.6-8.6-9.9c0-6.5,5-10.4,13.7-10.4c3.5,0,6.9,0.5,9.3,1.2l3.1,1
				c0.5,0.2,0.6,0.5,0.5,1l-0.9,3.1c-0.2,0.5-0.5,0.6-1,0.5l-3-0.9c-2.2-0.6-5.2-1-8-1c-5.4,0-8.5,2.2-8.5,5.6
				c0,2.8,1.5,4.6,5.1,5.6l9.3,2.6c6.2,1.6,8.9,5,8.9,10.1c0,6.9-5.4,11.1-14.5,11.1c-4.7,0-8.8-0.6-12.1-1.8l-2.2-0.7
				c-0.5-0.2-0.6-0.5-0.5-1l1.1-3.2c0.2-0.4,0.5-0.6,0.9-0.4l2.1,0.7c2.7,1,6.4,1.6,10.6,1.6c5.9,0,9.3-2.4,9.3-6.3
				c0-3-1.7-4.7-5.4-5.8L497.8,72.1z"/>
			<path class="st0" d="M548.3,90.4c-2.8,0.9-5.6,1.2-8.6,1.2c-11,0-17.6-7.7-17.6-20c0-12.2,6.6-19.9,17.5-19.9
				c9,0,14.5,4.4,14.5,11.8c0,5.6-3.5,8.9-10.7,10.1l-15.6,2.6c1,6.7,5.3,10.6,11.9,10.6c2.7,0,5.2-0.3,7.4-1l2.4-0.7
				c0.5-0.1,0.8,0.1,1,0.6l1,3.2c0.1,0.5-0.1,0.8-0.6,0.9L548.3,90.4z M542.5,69.3c4.2-0.7,6.4-2.6,6.4-5.6c0-4.5-3.4-7.1-9.3-7.1
				c-7.4,0-11.9,5-12.1,15.3L542.5,69.3z"/>
		</g>
	</g>
	<g>
		<path class="st1" d="M13.3,86.7c-0.2-0.2-0.3-0.4-0.6-0.7C12.9,86.2,13,86.4,13.3,86.7z"/>
		<path class="st1" d="M12.5,85.5c-0.7-1.1-1-2.4-1-4C11.5,83.1,11.8,84.4,12.5,85.5z"/>
		<path class="st1" d="M11.7,79c0.1-0.3,0.1-0.7,0.2-1C11.9,78.3,11.8,78.7,11.7,79z"/>
		<path class="st1" d="M12.6,76c0.1-0.3,0.2-0.7,0.4-1C12.8,75.3,12.7,75.7,12.6,76z"/>
		<path class="st1" d="M13.5,73.9c0.2-0.6,0.6-1,0.8-1.6C13.9,72.9,13.7,73.4,13.5,73.9z"/>
		<g>
			
				<ellipse transform="matrix(0.3349 -0.9423 0.9423 0.3349 -5.4725 130.6174)" class="st2" cx="89.8" cy="69.2" rx="10.7" ry="15.2"/>
			<path class="st0" d="M93,81.8c-2.4,0-4.8-0.4-7.3-1.3c-4.1-1.4-7.5-3.9-9.7-7c-2.3-3.2-2.9-6.7-1.8-9.8c1.1-3.1,3.8-5.4,7.6-6.4
				c3.6-1,7.9-0.8,12,0.7c4.1,1.4,7.5,3.9,9.7,7c2.3,3.2,2.9,6.7,1.8,9.8c-1.1,3.1-3.8,5.4-7.6,6.4C96.2,81.6,94.7,81.8,93,81.8z
				 M86.5,59.1c-1.4,0-2.8,0.2-4,0.5c-3,0.8-5.1,2.5-5.9,4.8c-0.8,2.3-0.3,4.9,1.5,7.5c1.9,2.7,4.9,4.8,8.5,6.1
				c3.6,1.3,7.3,1.5,10.4,0.6c3-0.8,5.1-2.5,5.9-4.8c1.7-4.9-2.7-11-10-13.6C90.8,59.5,88.6,59.1,86.5,59.1z"/>
			<path class="st2" d="M138.8,115.5c-0.2-0.1-0.4-0.3-0.6-0.4c-0.2-0.1-0.4-0.3-0.6-0.4c-0.1-0.1-0.3-0.2-0.4-0.3
				c-3.3-2.8-5.1-7.1-8-10.3c-0.4-0.4-0.7-0.7-1.1-1.1c-0.3-0.2-0.5-0.4-0.8-0.6c-0.1-0.1-0.3-0.2-0.4-0.3c-1.8-1.2-3.8-2.2-5.8-3.1
				c-2-0.9-4.1-1.5-6.3-1.9c0,0,0,0,0,0c0,0,0,0,0,0c1.4-0.5,2.8-0.9,4.2-1.4c0.1,0,0.2-0.1,0.3-0.1c0.2-0.1,0.4-0.2,0.6-0.2
				c1.4-0.6,2.8-1.4,3.9-2.6c0.1-0.1,0.2-0.2,0.3-0.3c2.4-2.9,3.5-6.8,4.4-10.4c1.1-4.1,2-8.5,1.7-12.7c0-0.5-0.1-1-0.2-1.6
				c0-0.3-0.1-0.6-0.2-0.9c-0.1-0.3-0.1-0.6-0.2-0.9c-0.3-1.1-0.8-2.1-1.6-2.9c-0.1-0.1-0.3-0.3-0.4-0.4c-0.6-0.5-1.3-1-2.2-1.2
				c0,0-0.1,0-0.1,0c0,0-0.1,0-0.1,0c0,0,0,0,0,0c-0.4,0-0.8,0.3-1,0.7c-0.1,0.1-0.1,0.2-0.1,0.3c-0.1,0.5-0.3,0.9-0.5,1.3
				c-0.5,1.3-1.3,2.4-2.1,3.5c-1.5,1.9-3.4,3.5-5.5,4.9c-1.5,1-2.9,2.1-4.4,3.1c-0.4,0.3-0.8,0.6-1.2,0.9c-1.4,1.1-2.8,2.3-4,3.5
				c-2.5,2.5-4.7,5.3-6.3,8.4c0,0.1-0.3,0.8-0.6,1.6c-0.4,1-0.8,2.2-0.9,2.2c0,0,0,0,0,0c-3.3,2-6.9,2.1-10.2,1.1l0,0
				c-0.2,0-0.3-0.1-0.5-0.1c-0.1,0-0.1-0.1-0.2-0.1c-7.5-2.6-13.3-10.6-11.5-14.3c0.3-0.6,2.1-1.9,4.6-3.9c0,0,0,0,0,0
				c0.6-0.5,1.2-1,1.9-1.5c0,0,0,0,0.1-0.1c0.2-0.1,0.3-0.3,0.5-0.4c0.1-0.1,0.3-0.2,0.4-0.3c0.1-0.1,0.2-0.1,0.2-0.2
				c0.1-0.1,0.2-0.2,0.3-0.3c0.1-0.1,0.2-0.1,0.2-0.2c0.2-0.1,0.4-0.3,0.5-0.4c0.1,0,0.1-0.1,0.2-0.1c0.1-0.1,0.3-0.2,0.4-0.3
				c0.1-0.1,0.1-0.1,0.2-0.2c0.1-0.1,0.3-0.2,0.4-0.3c0.1,0,0.1-0.1,0.2-0.1c0.2-0.2,0.4-0.3,0.6-0.5c0.1-0.1,0.1-0.1,0.2-0.2
				c0.1-0.1,0.3-0.2,0.4-0.3c0.1-0.1,0.1-0.1,0.2-0.2c0.2-0.2,0.4-0.3,0.6-0.5c0,0,0.1-0.1,0.1-0.1c0.2-0.1,0.3-0.3,0.5-0.4
				c0.1-0.1,0.1-0.1,0.2-0.2c0.1-0.1,0.3-0.3,0.4-0.4c0.1,0,0.1-0.1,0.2-0.1c0.2-0.2,0.4-0.3,0.6-0.5c0.1-0.1,0.1-0.1,0.2-0.2
				c0.1-0.1,0.3-0.3,0.4-0.4c0.1-0.1,0.1-0.1,0.2-0.2c0.2-0.2,0.4-0.3,0.5-0.5c0,0,0.1-0.1,0.1-0.1c0.2-0.1,0.3-0.3,0.5-0.4
				c0.1-0.1,0.1-0.1,0.2-0.2c0.1-0.1,0.3-0.3,0.4-0.4c0,0,0.1-0.1,0.1-0.1c0.2-0.2,0.3-0.3,0.5-0.5c0,0,0.1-0.1,0.1-0.1
				c0.1-0.1,0.3-0.3,0.4-0.4c0.1-0.1,0.1-0.1,0.2-0.2c0.2-0.2,0.3-0.4,0.5-0.5c0,0,0,0,0.1-0.1c0.1-0.2,0.3-0.3,0.4-0.5
				c0-0.1,0.1-0.1,0.1-0.2c0.1-0.1,0.2-0.3,0.4-0.4c0,0,0.1-0.1,0.1-0.1c0.1-0.2,0.3-0.3,0.4-0.5c0,0,0.1-0.1,0.1-0.1
				c0.1-0.1,0.2-0.3,0.3-0.4c0-0.1,0.1-0.1,0.1-0.2c0.1-0.2,0.3-0.3,0.4-0.5c0,0,0,0,0,0c0.1-0.2,0.2-0.3,0.3-0.5
				c0,0,0.1-0.1,0.1-0.1c0.1-0.1,0.2-0.3,0.2-0.4c0,0,0-0.1,0.1-0.1c0.1-0.2,0.2-0.3,0.3-0.5c0,0,0-0.1,0.1-0.1
				c0.1-0.1,0.1-0.3,0.2-0.4c0,0,0-0.1,0.1-0.1c0.1-0.2,0.1-0.3,0.2-0.5c0.1-0.3,0.2-0.6,0.3-0.9c0.2-0.6,0.4-1.2,0.6-1.7
				c5.4-15.8,3.1-27.8-5.4-38.3c-0.9-1.1-1.9-2.2-2.9-3.3c-3.4-3.5-7.4-6-11.8-7.6c-0.2-0.1-0.4-0.1-0.6-0.2
				c-0.8-0.3-1.6-0.5-2.4-0.7c-0.2,0-0.4-0.1-0.6-0.1c-0.4-0.1-0.8-0.2-1.2-0.2c-0.6-0.1-1.2-0.2-1.9-0.3c-0.8-0.1-1.7-0.2-2.6-0.2
				c-5.6-0.3-11.6,0.6-17.6,2.7c-7.9,2.7-16.3,7-22.8,14.1c-7.5,8-15.3,21.2-13.9,37.2c0,0.3,0,0.5,0.1,0.8c0,0,0,0,0,0
				c0,0,0,0,0,0.1c0.1,0.7,0.2,1.3,0.3,2c0,0.2,0.1,0.4,0.1,0.7c-0.9,0.8-1.8,1.6-2.7,2.5c-0.2,0.2-0.3,0.3-0.5,0.5
				c-0.3,0.3-0.7,0.7-1,1.1c-0.6,0.7-1.3,1.5-1.9,2.2C10,67,9.9,67.2,9.7,67.4c-1.2,1.5-2.2,3.1-3.1,4.7c-0.1,0.2-0.2,0.4-0.3,0.6
				c-0.3,0.6-0.6,1.2-0.9,1.8C5.2,75,5,75.4,4.8,75.8c-0.2,0.4-0.3,0.8-0.5,1.2c-0.3,0.8-0.5,1.6-0.7,2.3c-0.1,0.4-0.2,0.8-0.3,1.1
				c-0.1,0.4-0.1,0.7-0.2,1.1c0,0.2,0,0.4-0.1,0.6c0,0.4-0.1,0.8,0,1.2c0,1.8,0.4,3.3,1.1,4.6c0.1,0.1,0.2,0.3,0.3,0.4
				c0.2,0.3,0.4,0.5,0.6,0.8c0.1,0.1,0.2,0.2,0.3,0.4c1.9,1.9,4.5,2.7,7.8,2.5c3.4-0.2,8-1.9,12.6-4.6c0.6-0.4,1.2-0.7,1.8-1.1
				c0.3-0.2,0.5-0.3,0.8-0.5c3.9-2.6,7.6-5.8,10.7-9.6c0.6-0.7,1.6-0.8,2.3-0.3c0.6,0.5,0.7,1.4,0.2,2c-2.9,3.6-7,7.3-11.3,10.3
				c3.5,4,7.7,8,12.6,12c1.7,1.4,3.5,2.8,5.4,4.2c17.4,12.8,36.2,6.8,45.1,2.7c0.4-0.2,0.7-0.3,1.1-0.5c0.2-0.1,0.3-0.2,0.5-0.2
				c0.1,0,0.2-0.1,0.2-0.1c0.4-0.2,0.7-0.4,1.1-0.6c0.1,0,0.1-0.1,0.2-0.1c0.2-0.1,0.4-0.2,0.5-0.3c0.3-0.2,0.6-0.3,0.8-0.5
				c0.1,0,0.1-0.1,0.2-0.1c0.3-0.2,0.5-0.3,0.5-0.3c0.3,0,4.7,8.7,8.2,11.8c3.1,2.8,6.8,4.5,10.8,5.4c0.4,0.1,0.9,0.2,1.3,0.3
				c0.5,0.1,0.9,0.2,1.4,0.2c0.5,0.1,0.9,0.1,1.4,0.2s1,0.1,1.5,0.1c0.2,0,0.5,0,0.7,0c0.5,0,1,0,1.5,0c4.4,0,8.9-1,12.1-3.7
				c0.5-0.5,1-1,1.5-1.5c0.1-0.2,0.2-0.3,0.3-0.5c0.1-0.3,0-0.6-0.1-0.8C139.2,115.8,139.1,115.6,138.8,115.5z"/>
			<circle class="st3" cx="62.2" cy="6.9" r="5.1"/>
			<circle class="st3" cx="50.3" cy="8.6" r="3.6"/>
			<circle class="st3" cx="77.6" cy="10.1" r="7.3"/>
			<circle class="st3" cx="35.1" cy="16.8" r="2.4"/>
			<circle class="st3" cx="30" cy="21.3" r="2.4"/>
			<circle class="st3" cx="41.8" cy="12.5" r="3"/>
			<path class="st1" d="M139.4,116c-0.1-0.2-0.3-0.4-0.5-0.5c-0.2-0.1-0.4-0.3-0.6-0.4c0.2,0.1,0.4,0.3,0.6,0.4
				C139.1,115.6,139.2,115.8,139.4,116z"/>
			<path class="st1" d="M127.5,63.2C127.5,63.2,127.6,63.2,127.5,63.2C127.6,63.2,127.5,63.2,127.5,63.2z"/>
			<path class="st0" d="M89.7,60.2c-2.8,0.1-5.2-0.7-7-1.7c-2-1.1-3.5-2.6-4.3-3.6c-0.8-0.9-1.2-1.5-1.4-2c0,0,0,0,0,0l0,0
				c-0.3-0.6-0.3-0.9-0.2-1.2c0.1-0.7,0.7-1.3,1.4-1.4c0.7-0.1,1.4,0.2,1.8,0.8c0,0,0,0.1,0.1,0.1c0.3,0.5,2.9,4.6,7.5,5.4
				c3.7,0.7,8-0.9,12.4-4.6c0.7-0.6,1.5-0.5,2.1,0.2c0.6,0.7,0.5,1.8-0.2,2.4C97.1,58.6,93.1,60,89.7,60.2z"/>
			<path class="st1" d="M15.8,57.8C15.8,57.9,15.8,57.9,15.8,57.8C15.8,57.9,15.8,57.9,15.8,57.8z"/>
			<path class="st1" d="M88.2,93c-0.2-0.1-0.4-0.1-0.6-0.2c0.1,0,0.1,0.1,0.2,0.1C87.9,93,88.1,93,88.2,93z"/>
			<path class="st1" d="M138.8,115.5c-0.4-0.3-0.8-0.5-1.2-0.8c-4.4-3.5-6.1-9.5-10.8-12.6c-3.7-2.4-7.8-4.2-12.1-5
				c3.2-1.1,6.6-1.7,8.9-4.3c0.1-0.1,0.2-0.2,0.3-0.3c2.4-2.9,3.5-6.8,4.4-10.4c1.1-4.1,2-8.5,1.7-12.7c-0.2-3.3-1.3-6.8-4.7-7.9
				c-0.7-0.2-1.2,0.4-1.4,1c-0.6,1.8-1.5,3.4-2.6,4.8c-1.5,1.9-3.4,3.5-5.5,4.9c-3.4,2.4-6.7,4.6-9.6,7.6c-2.5,2.5-4.7,5.3-6.3,8.4
				c-0.1,0.2-1.5,3.8-1.5,3.8c0,0,0,0,0,0l0,0c0,0,0.8,1.4-0.2,2.1c-7.3,4.4-20.2,8.5-29.3,8.1c-6-0.3-11.8-2.1-16.1-6.3
				c-6.4-6.3-6.8-16.7-0.1-24.3c8.2-9.3,27-3.4,28.1,3.2c5.8-4.7,15.5-12.1,17.7-18c7.2-18.8,4-32.4-7.3-44.2
				C81.7,2.7,67.3,0.7,52.4,5.8c-7.9,2.7-16.3,7-22.8,14.1c-7.4,8-15.3,21.2-13.9,37.1c0,0,0,0,0,0.1c0,0.3,0,0.5,0.1,0.8
				c0,0,0,0,0,0.1c0.1,0.9,0.2,1.8,0.4,2.7c-0.9,0.8-1.8,1.6-2.7,2.5C8.1,68.5,3.9,75.7,3.2,81.5c-0.4,3.5,0.3,6.2,2.2,8.1
				c1.9,1.9,4.5,2.7,7.8,2.5c3.4-0.2,8-1.9,12.6-4.6c0.9-0.5,1.8-1.1,2.6-1.6c3.9-2.6,7.6-5.8,10.7-9.6c0.6-0.7,1.6-0.8,2.3-0.3
				c0.6,0.5,0.7,1.4,0.2,2c-2.9,3.6-7,7.3-11.3,10.3c4.7,5.3,10.6,10.8,18.1,16.3c23.7,17.4,50.1,0,50.2,0c0.3,0,4.7,8.7,8.2,11.8
				c3.1,2.8,6.8,4.5,10.8,5.4c7,1.5,16.5,1.6,21.4-4.4C139.8,116.7,139.5,115.9,138.8,115.5z"/>
			<path class="st3" d="M52.6,71.5c-6.7,7.7-6.3,18.1,0.1,24.3c4.3,4.2,10.1,6,16.1,6.3c9.1,0.5,22-3.7,29.3-8.1
				c1-0.6,0.3-2.1,0.2-2.1l0,0c-3.3,2-6.9,2.1-10.2,1.1c-0.2,0-0.3-0.1-0.5-0.1c-0.1,0-0.1-0.1-0.2-0.1
				c-7.5-2.6-13.3-10.6-11.5-14.3c0.3-0.6,2.1-1.9,4.6-3.9l0,0C79.6,68.1,60.8,62.2,52.6,71.5z"/>
			<path class="st1" d="M96.5,60c0,0.1-0.1,0.1-0.1,0.2C96.4,60.1,96.5,60.1,96.5,60z"/>
			<path class="st1" d="M96.9,59.5C96.9,59.5,96.9,59.5,96.9,59.5C96.9,59.5,96.9,59.5,96.9,59.5z"/>
			<path class="st1" d="M95.6,61.2c0,0-0.1,0.1-0.1,0.1C95.5,61.3,95.5,61.3,95.6,61.2z"/>
			<path class="st1" d="M96.1,60.6c0,0-0.1,0.1-0.1,0.1C96,60.7,96.1,60.6,96.1,60.6z"/>
			<path class="st1" d="M91,66c-0.1,0.1-0.1,0.1-0.2,0.2C90.9,66.1,90.9,66.1,91,66z"/>
			<path class="st1" d="M97.3,58.8c0,0-0.1,0.1-0.1,0.1C97.3,58.9,97.3,58.9,97.3,58.8z"/>
			<path class="st1" d="M97.6,58.3c0,0,0,0.1-0.1,0.1C97.6,58.4,97.6,58.4,97.6,58.3z"/>
			<path class="st1" d="M98,57.7c0,0,0,0.1-0.1,0.1C97.9,57.8,98,57.7,98,57.7z"/>
			<path class="st1" d="M92.3,64.8c-0.1,0.1-0.1,0.1-0.2,0.2C92.2,64.9,92.2,64.8,92.3,64.8z"/>
			<path class="st1" d="M91.6,65.4C91.6,65.4,91.6,65.5,91.6,65.4C91.6,65.5,91.6,65.4,91.6,65.4z"/>
			<path class="st1" d="M92.8,64.2c0,0-0.1,0.1-0.1,0.1C92.7,64.3,92.8,64.3,92.8,64.2z"/>
			<path class="st1" d="M93.5,63.6c0,0-0.1,0.1-0.1,0.1C93.4,63.7,93.4,63.6,93.5,63.6z"/>
			<path class="st1" d="M94.6,62.4C94.5,62.4,94.5,62.5,94.6,62.4C94.5,62.5,94.5,62.4,94.6,62.4z"/>
			<path class="st1" d="M95.1,61.8c0,0.1-0.1,0.1-0.1,0.2C95,61.9,95.1,61.8,95.1,61.8z"/>
			<path class="st1" d="M94,63c-0.1,0.1-0.1,0.1-0.2,0.2C93.9,63.1,94,63.1,94,63z"/>
			<path class="st1" d="M98.2,57.2c0,0,0,0.1-0.1,0.1C98.2,57.3,98.2,57.2,98.2,57.2z"/>
			<path class="st1" d="M99.4,54.1c-0.2,0.6-0.4,1.1-0.6,1.7C99,55.2,99.2,54.6,99.4,54.1z"/>
			<path class="st1" d="M94.7,106.7c-0.3,0.2-0.7,0.3-1.1,0.5C94,107,94.4,106.8,94.7,106.7z"/>
			<path class="st1" d="M97.2,105.4c-0.2,0.1-0.3,0.2-0.5,0.3C96.9,105.5,97.1,105.4,97.2,105.4z"/>
			<path class="st1" d="M98.3,104.8c-0.1,0-0.1,0.1-0.2,0.1C98.1,104.8,98.2,104.8,98.3,104.8z"/>
			<path class="st1" d="M5.1,89.3c-0.2-0.3-0.4-0.5-0.6-0.8C4.7,88.8,4.9,89,5.1,89.3z"/>
			<path class="st1" d="M95.2,106.4c-0.2,0.1-0.3,0.2-0.5,0.2C94.9,106.6,95,106.5,95.2,106.4z"/>
			<path class="st1" d="M4.2,88.1c-0.8-1.3-1.1-2.9-1.1-4.6C3.1,85.2,3.5,86.8,4.2,88.1z"/>
			<path class="st1" d="M6.6,72.1c0.9-1.6,2-3.2,3.1-4.7C8.5,68.9,7.5,70.5,6.6,72.1z"/>
			<path class="st1" d="M12,64.6c0.3-0.4,0.7-0.7,1-1.1C12.7,63.9,12.3,64.3,12,64.6z"/>
			<path class="st1" d="M10.2,66.8c0.6-0.8,1.2-1.5,1.9-2.2C11.4,65.3,10.7,66.1,10.2,66.8z"/>
			<path class="st1" d="M3.4,80.4c0.1-0.4,0.2-0.8,0.3-1.1C3.5,79.7,3.4,80.1,3.4,80.4z"/>
			<path class="st1" d="M4.3,77c0.1-0.4,0.3-0.8,0.5-1.2C4.6,76.2,4.5,76.6,4.3,77z"/>
			<path class="st1" d="M5.3,74.6c0.3-0.6,0.6-1.2,0.9-1.8C5.9,73.4,5.6,74,5.3,74.6z"/>
			<path class="st1" d="M96.5,105.7c-0.3,0.2-0.7,0.4-1.1,0.6C95.8,106.1,96.2,105.9,96.5,105.7z"/>
			<path class="st1" d="M121,99c-2-0.9-4.1-1.5-6.3-1.9c0,0,0,0,0,0C116.8,97.5,119,98.1,121,99z"/>
			<path class="st1" d="M127.5,62.7c-0.6-0.5-1.3-1-2.2-1.2c0,0-0.1,0-0.1,0c0,0,0.1,0,0.1,0C126.1,61.8,126.9,62.2,127.5,62.7z"/>
			<path class="st1" d="M137.3,114.4c-3.3-2.8-5.1-7.1-8-10.3C132.2,107.2,134,111.5,137.3,114.4z"/>
			<path class="st1" d="M125,61.5C125,61.5,125.1,61.5,125,61.5C125.1,61.5,125,61.5,125,61.5z"/>
			<path class="st1" d="M127.3,102.4c0.3,0.2,0.6,0.4,0.8,0.6C127.8,102.8,127.5,102.6,127.3,102.4z"/>
			<path class="st1" d="M88.2,93c-0.2-0.1-0.4-0.1-0.6-0.2c0,0,0,0,0,0c0.1,0,0.1,0.1,0.2,0.1C87.9,93,88.1,93,88.2,93z"/>
			<path class="st1" d="M48.6,104.5c-1.9-1.4-3.7-2.8-5.4-4.2C44.8,101.7,46.7,103.1,48.6,104.5c17.4,12.8,36.2,6.8,45.1,2.7
				C84.8,111.3,65.9,117.3,48.6,104.5z"/>
			<path class="st1" d="M123.4,63.8c0.2-0.4,0.3-0.9,0.5-1.3C123.7,62.9,123.6,63.3,123.4,63.8z"/>
			<path class="st1" d="M99.4,54.1c5.4-15.8,3.1-27.8-5.4-38.3C102.5,26.3,104.8,38.3,99.4,54.1z"/>
			<path class="st1" d="M13.3,92.1c3.4-0.2,8-1.9,12.6-4.6c0.6-0.4,1.2-0.7,1.8-1.1c-0.6,0.4-1.2,0.8-1.8,1.1
				C21.2,90.3,16.7,91.9,13.3,92.1z"/>
			<path class="st1" d="M15.7,57c0,0.3,0,0.5,0.1,0.8c0,0,0,0,0,0c0,0,0,0,0,0C15.8,57.6,15.7,57.3,15.7,57z"/>
			<path class="st1" d="M29.6,19.9c-7.4,8-15.3,21.2-13.9,37.1c0,0,0,0,0,0.1C14.3,41.1,22.2,27.9,29.6,19.9z"/>
			<path class="st1" d="M88.4,68.3c0,0-0.1,0.1-0.1,0.1C88.3,68.4,88.3,68.4,88.4,68.3z"/>
			<path class="st1" d="M87.1,69.5c-0.1,0.1-0.1,0.1-0.2,0.2C86.9,69.6,87,69.5,87.1,69.5z"/>
			<path class="st1" d="M86.3,70.1c-0.1,0-0.1,0.1-0.2,0.1C86.2,70.2,86.3,70.1,86.3,70.1z"/>
			<path class="st1" d="M87.7,68.9c-0.1,0.1-0.1,0.1-0.2,0.2C87.6,69,87.6,69,87.7,68.9z"/>
			<path class="st1" d="M121.3,67.2c0.8-1,1.5-2.2,2.1-3.5C122.9,65,122.1,66.2,121.3,67.2z"/>
			<path class="st1" d="M89.1,67.8c-0.1,0.1-0.1,0.1-0.2,0.2C88.9,67.9,89,67.8,89.1,67.8z"/>
			<path class="st1" d="M85.7,70.6c-0.1,0.1-0.1,0.1-0.2,0.2C85.6,70.7,85.7,70.6,85.7,70.6z"/>
			<path class="st1" d="M89.7,67.2c-0.1,0-0.1,0.1-0.2,0.1C89.5,67.3,89.6,67.3,89.7,67.2z"/>
			<path class="st1" d="M90.4,66.6c-0.1,0.1-0.1,0.1-0.2,0.2C90.3,66.7,90.3,66.6,90.4,66.6z"/>
			<path class="st1" d="M98.4,92c0.1,0,0.5-1.2,0.9-2.2C98.9,90.8,98.5,92,98.4,92z"/>
			<path class="st1" d="M85.1,71.1c-0.1,0-0.1,0.1-0.2,0.1C85,71.2,85,71.1,85.1,71.1z"/>
			<path class="st1" d="M83.2,72.7c-0.2,0.1-0.3,0.3-0.5,0.4C82.9,72.9,83,72.8,83.2,72.7z"/>
			<path class="st1" d="M82.6,73.1c-0.7,0.5-1.3,1-1.9,1.5C81.3,74.1,82,73.6,82.6,73.1z"/>
			<path class="st1" d="M84.4,71.7c-0.1,0.1-0.2,0.1-0.2,0.2C84.2,71.8,84.3,71.7,84.4,71.7z"/>
			<path class="st1" d="M83.8,72.1c-0.1,0.1-0.2,0.1-0.2,0.2C83.7,72.3,83.7,72.2,83.8,72.1z"/>
			<ellipse transform="matrix(0.961 -0.2764 0.2764 0.961 -9.5403 17.4297)" class="st4" cx="57.1" cy="42.6" rx="5.9" ry="7.7"/>
			<ellipse transform="matrix(0.961 -0.2764 0.2764 0.961 -9.241 18.2421)" class="st0" cx="60.1" cy="41.9" rx="2.9" ry="3.7"/>
			<path class="st0" d="M142.5,116c-0.2-1.3-1-2.4-2.1-3.1c-0.3-0.2-0.6-0.4-0.9-0.6c-1.7-1.3-2.9-3.2-4.3-5.3
				c-1.7-2.6-3.7-5.5-6.8-7.5c-1.6-1-3.2-1.9-4.9-2.7c0.8-0.5,1.6-1.2,2.3-2l0.1-0.1c0.1-0.1,0.2-0.2,0.3-0.4
				c2.9-3.6,4.1-8.2,5-11.5c1-3.8,2.1-8.7,1.8-13.7c-0.4-7.2-4-9.8-6.9-10.6c0,0,0,0-0.1,0c-0.4-0.1-0.7-0.2-1.1-0.2
				c-1.8,0-3.5,1.3-4.1,3.2c-0.4,1.3-1.1,2.6-2,3.8c-1.1,1.4-2.7,2.8-4.8,4.3l-0.6,0.4c-3.2,2.2-6.5,4.6-9.4,7.5
				c-2.9,2.9-5.3,6.1-6.9,9.2c-0.2,0.3-1,2.6-1.1,2.8c-1.4,0.5-2.9,0.7-4.3,0.7c-4.3,0.3-13.1-6.7-12.6-10.3
				c0.8-0.8,3.1-2.7,4.9-4.2c6.3-5.1,14.9-12,17.3-18.1c7.3-19,4.8-34.1-8-47.5C86.9,3.6,78.1,0,67.9,0C62.6,0,57,1,51.4,2.9
				c-9.9,3.4-18,8.4-24.1,14.9c-3.2,3.4-7.7,9.1-10.9,16.6c-3.3,7.6-4.5,15.4-3.8,23.2c0.1,0.6,0.1,1.2,0.2,1.8
				C6.2,65.5,1,74,0.1,81.2c-0.5,4.4,0.5,8.1,3.1,10.7c2.3,2.3,5.3,3.4,8.9,3.4c0.4,0,0.9,0,1.3,0c5.2-0.4,10.5-2.9,14.4-5.3
				c5.1,5.8,11.4,11.5,18.9,17c7.5,5.5,16,8.3,25.3,8.3c11.1,0,20.5-4,25.7-6.7c2.2,3.8,4.8,7.8,7.2,10c3.4,3,7.5,5.1,12.2,6.1
				c2.8,0.6,5.7,1,8.4,1c0,0,0,0,0,0c7.1,0,12.6-2.2,16-6.4C142.4,118.4,142.7,117.2,142.5,116z M139.5,116.8c0,0.2-0.1,0.3-0.3,0.5
				c-0.5,0.6-1,1.1-1.5,1.5c-3.2,2.8-7.7,3.7-12.1,3.7c-0.5,0-1,0-1.5,0c-0.2,0-0.5,0-0.7,0c-0.5,0-1-0.1-1.5-0.1s-1-0.1-1.4-0.2
				c-0.5-0.1-0.9-0.1-1.4-0.2c-0.5-0.1-0.9-0.2-1.3-0.3c-4-0.9-7.7-2.7-10.8-5.4c-3.5-3.1-7.9-11.8-8.2-11.8c0,0-0.2,0.1-0.5,0.3
				c-0.1,0-0.1,0.1-0.2,0.1c-0.2,0.1-0.5,0.3-0.8,0.5c-0.2,0.1-0.3,0.2-0.5,0.3c-0.1,0-0.1,0.1-0.2,0.1c-0.3,0.2-0.7,0.4-1.1,0.6
				c-0.1,0-0.2,0.1-0.2,0.1c-0.2,0.1-0.3,0.2-0.5,0.2c-0.3,0.2-0.7,0.3-1.1,0.5c-8.8,4.1-27.7,10.1-45.1-2.7
				c-1.9-1.4-3.7-2.8-5.4-4.2c-5-4.1-9.2-8.1-12.6-12c4.3-3,8.4-6.6,11.3-10.3c0.5-0.6,0.4-1.5-0.2-2c-0.7-0.5-1.8-0.4-2.3,0.3
				c-3.1,3.8-6.9,7.1-10.7,9.6c-0.3,0.2-0.5,0.4-0.8,0.5c-0.6,0.4-1.2,0.8-1.8,1.1c-4.6,2.7-9.2,4.3-12.6,4.6
				c-3.3,0.2-5.9-0.6-7.8-2.5c-0.1-0.1-0.2-0.2-0.3-0.4c-0.2-0.3-0.4-0.5-0.6-0.8c-0.1-0.1-0.2-0.3-0.3-0.4
				c-0.8-1.3-1.1-2.9-1.1-4.6c0-0.4,0-0.8,0-1.2c0-0.2,0-0.4,0.1-0.6c0-0.4,0.1-0.7,0.2-1.1c0.1-0.4,0.2-0.8,0.3-1.1
				c0.2-0.8,0.4-1.5,0.7-2.3c0.1-0.4,0.3-0.8,0.5-1.2C5,75.4,5.2,75,5.3,74.6c0.3-0.6,0.6-1.2,0.9-1.8c0.1-0.2,0.2-0.4,0.3-0.6
				c0.9-1.6,2-3.2,3.1-4.7c0.1-0.2,0.3-0.4,0.4-0.6c0.6-0.8,1.2-1.5,1.9-2.2c0.3-0.4,0.7-0.7,1-1.1c0.2-0.2,0.3-0.3,0.5-0.5
				c0.9-0.9,1.8-1.7,2.7-2.5c0-0.2-0.1-0.5-0.1-0.7c-0.1-0.7-0.2-1.3-0.3-2c0,0,0,0,0-0.1c0,0,0,0,0,0c0-0.3-0.1-0.5-0.1-0.8
				c0,0,0,0,0-0.1c-1.4-15.9,6.5-29.1,13.9-37.1c6.5-7,14.8-11.4,22.8-14.1c6.1-2.1,12-3,17.6-2.7c0.9,0,1.7,0.1,2.6,0.2
				c0.6,0.1,1.3,0.2,1.9,0.3c0.4,0.1,0.8,0.2,1.2,0.2c0.2,0,0.4,0.1,0.6,0.1c0.8,0.2,1.6,0.4,2.4,0.7c0.2,0.1,0.4,0.1,0.6,0.2
				c4.5,1.5,8.5,4,11.8,7.6c1,1.1,2,2.2,2.9,3.3c8.4,10.5,10.8,22.5,5.4,38.3c-0.2,0.6-0.4,1.1-0.6,1.7c-0.1,0.3-0.2,0.6-0.3,0.9
				c-0.1,0.2-0.1,0.3-0.2,0.5c0,0,0,0.1-0.1,0.1c-0.1,0.1-0.1,0.3-0.2,0.4c0,0,0,0.1-0.1,0.1c-0.1,0.2-0.2,0.3-0.3,0.5
				c0,0,0,0.1-0.1,0.1c-0.1,0.1-0.2,0.3-0.2,0.4c0,0-0.1,0.1-0.1,0.1c-0.1,0.2-0.2,0.3-0.3,0.5c0,0,0,0,0,0
				c-0.1,0.2-0.2,0.3-0.4,0.5c0,0.1-0.1,0.1-0.1,0.2c-0.1,0.1-0.2,0.3-0.3,0.4c0,0-0.1,0.1-0.1,0.1c-0.1,0.2-0.3,0.3-0.4,0.5
				c0,0-0.1,0.1-0.1,0.1c-0.1,0.1-0.2,0.3-0.4,0.4c0,0.1-0.1,0.1-0.1,0.2c-0.1,0.2-0.3,0.3-0.4,0.5c0,0,0,0-0.1,0.1
				c-0.2,0.2-0.3,0.4-0.5,0.5c-0.1,0.1-0.1,0.1-0.2,0.2c-0.1,0.1-0.3,0.3-0.4,0.4c0,0-0.1,0.1-0.1,0.1c-0.2,0.2-0.3,0.3-0.5,0.5
				c0,0-0.1,0.1-0.1,0.1c-0.1,0.1-0.3,0.3-0.4,0.4c-0.1,0.1-0.1,0.1-0.2,0.2c-0.2,0.1-0.3,0.3-0.5,0.4c0,0-0.1,0.1-0.1,0.1
				c-0.2,0.2-0.4,0.3-0.5,0.5c-0.1,0.1-0.1,0.1-0.2,0.2c-0.1,0.1-0.3,0.3-0.4,0.4c-0.1,0.1-0.1,0.1-0.2,0.2
				c-0.2,0.2-0.4,0.3-0.6,0.5c-0.1,0-0.1,0.1-0.2,0.1c-0.1,0.1-0.3,0.3-0.4,0.4c-0.1,0.1-0.1,0.1-0.2,0.2c-0.2,0.1-0.3,0.3-0.5,0.4
				c0,0-0.1,0.1-0.1,0.1c-0.2,0.2-0.4,0.3-0.6,0.5c-0.1,0.1-0.1,0.1-0.2,0.2c-0.1,0.1-0.3,0.2-0.4,0.3c-0.1,0.1-0.1,0.1-0.2,0.2
				c-0.2,0.2-0.4,0.3-0.6,0.5c-0.1,0-0.1,0.1-0.2,0.1c-0.1,0.1-0.3,0.2-0.4,0.3c-0.1,0.1-0.1,0.1-0.2,0.2c-0.1,0.1-0.3,0.2-0.4,0.3
				c-0.1,0-0.1,0.1-0.2,0.1c-0.2,0.1-0.4,0.3-0.5,0.4c-0.1,0.1-0.2,0.1-0.2,0.2C84,72,83.9,72,83.8,72.1c-0.1,0.1-0.2,0.1-0.2,0.2
				c-0.1,0.1-0.3,0.2-0.4,0.3c-0.2,0.1-0.3,0.3-0.5,0.4c0,0,0,0-0.1,0.1c-0.7,0.5-1.3,1-1.9,1.5c0,0,0,0,0,0c-2.5,2-4.3,3.3-4.6,3.9
				c-1.8,3.6,4,11.7,11.5,14.3c0,0,0,0,0,0c0.2,0.1,0.4,0.1,0.6,0.2l0,0c3.3,1,6.9,0.9,10.2-1.1c0,0,0,0,0,0c0,0,0.5-1.2,0.9-2.2
				c0.3-0.8,0.6-1.5,0.6-1.6c1.6-3.1,3.8-6,6.3-8.4c1.3-1.3,2.6-2.4,4-3.5c0.4-0.3,0.8-0.6,1.2-0.9c1.4-1.1,2.9-2.1,4.4-3.1
				c2.1-1.5,4-3,5.5-4.9c0.8-1,1.5-2.2,2.1-3.5c0.2-0.4,0.3-0.9,0.5-1.3c0-0.1,0.1-0.2,0.1-0.3c0.2-0.4,0.6-0.7,1-0.7c0,0,0,0,0,0
				c0,0,0.1,0,0.1,0c0,0,0.1,0,0.1,0c0.9,0.3,1.6,0.7,2.2,1.2c0.1,0.1,0.3,0.3,0.4,0.4c0.7,0.8,1.2,1.8,1.6,2.9
				c0.1,0.3,0.2,0.6,0.2,0.9c0.1,0.3,0.1,0.6,0.2,0.9c0.1,0.5,0.1,1,0.2,1.6c0.3,4.2-0.6,8.6-1.7,12.7c-1,3.6-2,7.4-4.4,10.4
				c-0.1,0.1-0.2,0.2-0.3,0.3c-1.1,1.2-2.4,2-3.9,2.6c-0.2,0.1-0.4,0.2-0.6,0.2c-0.1,0-0.2,0.1-0.3,0.1c-1.4,0.5-2.8,0.9-4.2,1.4
				c0,0,0,0,0,0c2.2,0.4,4.3,1.1,6.3,1.9c2,0.9,4,1.9,5.8,3.1c0.1,0.1,0.3,0.2,0.4,0.3c0.3,0.2,0.6,0.4,0.8,0.6
				c0.4,0.3,0.8,0.7,1.1,1.1c3,3.1,4.8,7.4,8,10.3c0.1,0.1,0.3,0.2,0.4,0.3c0.2,0.1,0.4,0.3,0.6,0.4c0.2,0.1,0.4,0.3,0.6,0.4
				c0.2,0.1,0.4,0.3,0.5,0.5C139.5,116.3,139.5,116.6,139.5,116.8z"/>
			<path class="st0" d="M137.3,3.3c-0.2-1.2-0.9-1.6-2.2-1.7c-0.2,0-0.4,0-0.6,0c-1.5,0.1-3,0.4-4.5,0.9c-3.9,1.1-7.7,2.5-11.5,3.9
				c-2.2,0.9-4.4,1.7-6.5,2.6c-3.8,1.6-7.6,3.2-11.4,4.9l0,0c-0.2,0.1-0.3,0.2-0.5,0.2c-0.1,0-0.2,0.1-0.3,0.1
				c-0.7,0.3-3.5,1.6-6.8,3.2c-0.9,0.4-0.6,0.3-2.1,1c-0.3,0.1-0.6,0.3-1.1,0.5c-2.4,1.2-1.9,0.9-4.7,2.3c-1.4,0.7-5.1,2.5-5.8,3.2
				c-0.5,0.5-0.8,1.2-0.9,1.4c-0.2,0.3-0.3,0.7-0.4,1.1c-0.8,3-0.4,5.8,1.4,8.3c1.6,2.2,3.8,3.2,6.4,3.1c1.7-0.1,3.2-0.6,4.7-1.4
				c0.2-0.1,0.4-0.2,0.7-0.4c1-0.6,2.1-1.2,3.1-1.8c0,0,1.3-0.7,3.3-2c4.1-2.6,11.6-7.3,18.4-11.7c0.9-0.6,1.8-1.2,2.7-1.8
				c3.7-2.5,7.1-4.7,9.4-6.4c2.4-1.7,4.7-3.5,6.8-5.6c1-1,2.2-2,2.4-3.5C137.3,3.6,137.3,3.4,137.3,3.3z M85.7,35.6
				c0.2,0.4,0.1,0.5-0.3,0.5c-1.1,0-2.1-0.3-3-1c-1.3-1-2-2.4-2.3-4c-0.1-0.9-0.2-1.8,0-2.6c0.3-1.3,0.8-2.3,1.9-3.1
				c0.3-0.2,3.7-2,3.9-2.1c0,0.3-0.3,1.2-0.3,1.2c0,0.1-0.9,4.1-1,5.7C84.6,32,84.9,33.9,85.7,35.6z M93.8,19.6c0,0,0,0.1,0,0.1
				c-0.9,1.8-0.6,8.2-0.1,11.1c0.1,0.3,0.1,0.6,0.2,0.9c0.2,0.3-0.3,0.7-0.6,0.9c-0.7,0.4-1,0.6-1.7,1c-0.2,0.1-0.4,0.2-0.6,0.3
				c-0.7,0.4-1.5,0.9-2.3,1.2c-0.4,0.2-0.5,0.2-0.8-0.2c-0.3-0.5-0.5-1.1-0.7-1.7c-0.2-0.9-0.2-1.8-0.3-2.7c-0.1-1,0.2-7.7,3.3-9.4
				c0,0,0.2-0.1,0.6-0.3c0.8-0.4,2.2-1.1,2.9-1.2c0,0,0,0,0,0C93.9,19.5,93.9,19.5,93.8,19.6z M102.6,15.8
				c-0.1,0.4-1.4,4.4-0.6,11.1c0,0.3,0,0.5-0.3,0.6c-1,0.6-2.1,1.2-3.1,1.9c-0.7,0.4-1.4,0.8-2,1.2c-0.4,0.2-2.3-10.9,0.7-12.6
				c0.4-0.2,4.9-2.4,5.2-2.4C102.7,15.5,102.6,15.7,102.6,15.8z M110.3,12.6c-0.5,1.4-0.8,2.9-1,4.4c-0.1,1.6,0,3.3,0.5,4.9
				c0.1,0.3,0.1,0.5-0.2,0.6c-1.7,1.1-3.4,2.1-5.1,3.2c-0.4,0.2-0.4,0.2-0.5-0.2c-0.2-1-1.2-7.5,1.6-11c0.7-0.8,3.5-1.8,4.5-2.2
				c0.1,0,0.2-0.1,0.3,0C110.4,12.4,110.3,12.5,110.3,12.6z M118.1,16.7c0.1,0.3,0.1,0.5-0.2,0.6c-1.9,1.2-3.7,2.4-5.5,3.6
				c-0.3,0.2-0.4,0.1-0.4-0.2c-0.4-1.7-0.4-3.4,0-5.2c0.3-1.7,0.9-3.4,2-4.8c0.2-0.2,0.4-0.4,0.7-0.5c1.2-0.4,3.6-1.4,3.6-1.4
				c0.1,0.1-0.6,1.8-0.7,2.6C117.2,13.3,117.4,15,118.1,16.7z M125.9,11.3c0.1,0.2,0.1,0.3-0.1,0.4c-1.9,1.3-3.7,2.7-5.6,4
				c0,0-0.1,0-0.1,0.1c-0.5-1.4-0.6-2.8-0.3-4.3c0,0,0,0,0,0c0,0,0,0,0,0c0.3-1.7,1.1-3,2.4-4.1c0,0,2.1-0.8,3.2-1.2
				c0,0,0.1,0,0.1,0c0.2-0.1,0.3-0.2,0.6-0.2c-0.3,0.9-0.5,1.8-0.5,2.7C125.5,9.6,125.6,10.5,125.9,11.3z M133.1,6
				c-1.6,1.5-3.3,2.8-5,4.2c0,0-0.1,0.1-0.2,0.1c-0.2-0.9,0-2.8,0-2.8c0,0,0,0,0,0c0.2-1.1,0.8-1.9,1.6-2.6c0.1-0.1,0.2-0.1,0.3-0.1
				c1.5-0.4,2.9-0.8,4.5-1c0.2,0,0.4,0,0.6,0C135,3.7,133.7,5.4,133.1,6z"/>
			<g>
				<path class="st5" d="M85.9,23.2c-0.2,0.1-3.6,1.9-3.9,2.1c-1.1,0.7-1.6,1.8-1.9,3.1c-0.2,0.9-0.1,1.8,0,2.6c0.3,1.6,1,3,2.3,4
					c0.9,0.7,1.9,1,3,1c0.5,0,0.5-0.1,0.3-0.5c-0.8-1.7-1-3.5-1-5.4c0-1.7,1-5.6,1-5.7C85.6,24.5,85.9,23.5,85.9,23.2z"/>
				<path class="st5" d="M102.5,15.6c-0.3,0.1-4.8,2.2-5.2,2.4c-3,1.7-1,12.8-0.7,12.6c0.7-0.4,1.4-0.8,2-1.2c1-0.6,2-1.2,3.1-1.9
					c0.3-0.2,0.3-0.3,0.3-0.6c-0.8-6.7,0.5-10.7,0.6-11.1C102.6,15.7,102.7,15.5,102.5,15.6z"/>
				<path class="st5" d="M110.1,12.3c-1,0.4-3.8,1.4-4.5,2.2c-2.7,3.5-1.8,10-1.6,11c0.1,0.4,0.1,0.5,0.5,0.2
					c1.7-1.1,3.4-2.1,5.1-3.2c0.3-0.2,0.3-0.4,0.2-0.6c-0.5-1.6-0.7-3.2-0.5-4.9c0.1-1.5,0.4-3,1-4.4c0-0.1,0.1-0.2,0.1-0.4
					C110.3,12.2,110.2,12.2,110.1,12.3z"/>
				<path class="st5" d="M118.2,8.9c0,0-2.5,1-3.6,1.4c-0.3,0.1-0.5,0.3-0.7,0.5c-1.1,1.4-1.7,3.1-2,4.8c-0.4,1.7-0.4,3.4,0,5.2
					c0.1,0.3,0.2,0.4,0.4,0.2c1.8-1.2,3.7-2.4,5.5-3.6c0.3-0.2,0.3-0.3,0.2-0.6c-0.6-1.7-0.8-3.4-0.6-5.2
					C117.6,10.7,118.3,8.9,118.2,8.9z"/>
				<path class="st5" d="M90.9,20.7c-0.4,0.2-0.6,0.3-0.6,0.3c-3,1.7-3.3,8.4-3.3,9.4c0.1,0.9,0.1,1.8,0.3,2.7
					c0.1,0.6,0.4,1.2,0.7,1.7c0.2,0.4,0.4,0.4,0.8,0.2c0.8-0.4,1.5-0.8,2.3-1.2c0.2-0.1,0.4-0.2,0.6-0.3c0.7-0.4,1-0.6,1.7-1
					c0.3-0.2,0.8-0.6,0.6-0.9c-0.1-0.2-0.1-0.5-0.2-0.9c-0.5-2.9-0.8-9.3,0.1-11.1c0,0,0-0.1,0-0.1c0-0.1,0-0.1,0-0.1c0,0,0,0,0,0
					C93.2,19.6,91.7,20.3,90.9,20.7z"/>
				<path class="st5" d="M134.8,3.7c-0.2,0-0.4,0-0.6,0c-1.5,0.2-3,0.6-4.5,1c-0.1,0-0.2,0.1-0.3,0.1c-0.8,0.7-1.5,1.5-1.6,2.6
					c0,0,0,0,0,0c0,0-0.2,1.8,0,2.8c0.1,0,0.1-0.1,0.2-0.1c1.7-1.3,3.5-2.7,5-4.2C133.7,5.4,135,3.7,134.8,3.7z"/>
				<path class="st5" d="M122.1,7.4c-1.3,1.1-2.2,2.4-2.4,4.1c0,0,0,0,0,0c0,0,0,0,0,0c-0.3,1.5-0.2,2.9,0.3,4.3
					c0.1,0,0.1,0,0.1-0.1c1.9-1.3,3.8-2.6,5.6-4c0.2-0.1,0.1-0.3,0.1-0.4c-0.3-0.9-0.5-1.8-0.4-2.7c0-0.9,0.2-1.8,0.5-2.7
					C125.8,6,122.2,7.3,122.1,7.4z"/>
			</g>
		</g>
	</g>
</g>
</svg>
