<?xml version="1.0" encoding="UTF-8"?> <svg xmlns="http://www.w3.org/2000/svg" id="Layer_1" data-name="Layer 1" width="217.4533" height="217.4699" viewBox="0 0 217.4533 217.4699"><defs><style>.cls-1{fill:#00eaff;}.cls-2{fill:#fe712c;}.cls-3{fill:#fff;}.cls-4{fill:#231834;}</style></defs><title>NRicons</title><circle class="cls-1" cx="108.6951" cy="108.7681" r="108.7317" transform="translate(-18.1915 21.9067) rotate(-10.6253)"></circle><path class="cls-2" d="M81.8519,108.0882a27.6064,27.6064,0,1,0,27.6064-27.6064A27.6363,27.6363,0,0,0,81.8519,108.0882Zm9.2021,2.2993H86.4529v-4.6011H91.054Zm20.7048,20.7048h-4.6011v-4.601h4.6011Zm16.1037-25.3059h4.6011v4.6011h-4.6011Zm-.674-12.1755-9.812,9.812a9.2339,9.2339,0,1,1-3.2529-3.253l9.812-9.812Zm-15.43-3.9282h-4.6011V85.0816h4.6011Z"></path><path class="cls-3" d="M109.4583,103.4871a4.6005,4.6005,0,1,0,4.601,4.6011A4.6064,4.6064,0,0,0,109.4583,103.4871Z"></path><polygon class="cls-4" points="175.221 167.901 143.966 167.901 143.966 172.502 175.221 172.502 177.522 170.201 175.221 167.901"></polygon><path class="cls-4" d="M173.1992,159.3728a2.3,2.3,0,0,0-3.253,3.253l5.275,5.2751h5.5536v4.601h-5.5536l-5.275,5.2752a2.3,2.3,0,1,0,3.253,3.253l9.2021-9.2022a2.2993,2.2993,0,0,0,0-3.253Z"></path><polygon class="cls-4" points="180.775 167.901 175.221 167.901 177.522 170.201 175.221 172.502 180.775 172.502 180.775 167.901"></polygon><path class="cls-4" d="M109.4583,43.6732c1.7918,0,3.5613.0928,5.3166.2371l5.512-5.5122a2.3,2.3,0,0,0-3.2529-3.253l-9.2022,9.2021a2.2994,2.2994,0,0,0,0,3.2531l9.2022,9.2021a2.3,2.3,0,0,0,3.2529-3.253l-4.9857-4.9859c-1.9233-.1873-3.8712-.2892-5.8429-.2892Z"></path><path class="cls-4" d="M173.8732,108.0882A64.4881,64.4881,0,0,0,114.7749,43.91l-2.0634,2.0634,2.59,2.59a59.8116,59.8116,0,0,1-5.8429,119.3374H35.8412v4.601h73.6171A64.4869,64.4869,0,0,0,173.8732,108.0882Z"></path><path class="cls-4" d="M114.7749,43.91c-1.7553-.1443-3.5248-.2371-5.3166-.2371v4.6011c1.9717,0,3.92.1019,5.8429.2892l-2.59-2.59Z"></path><path class="cls-4" d="M76.0646,163.1852l2.39-3.9315A59.8319,59.8319,0,0,1,98.5443,49.2672l-.8358-4.5247A64.4332,64.4332,0,0,0,76.0646,163.1852Z"></path><path class="cls-4" d="M135.4382,78.8553l1.6093-1.6092a41.0716,41.0716,0,0,0-12.9751-7.9144l-1.6218,4.3046a36.8116,36.8116,0,1,1-25.9846.0023L94.8441,69.334A41.0719,41.0719,0,0,0,81.87,77.2472l1.6081,1.6081-3.253,3.2529-1.6-1.6a41.4087,41.4087,0,1,0,61.6667-.001l-1.6009,1.6009Z"></path><polygon class="cls-4" points="107.158 68.978 111.759 68.978 111.759 71.278 116.36 71.278 116.36 66.677 102.557 66.677 102.557 71.278 107.158 71.278 107.158 68.978"></polygon><path class="cls-4" d="M107.1577,75.9719c.7609-.054,1.5263-.0912,2.3006-.0912s1.54.0372,2.3.0912V71.2785h-4.6011Z"></path><rect class="cls-4" x="107.1577" y="68.9779" width="4.6011" height="2.3005"></rect><path class="cls-4" d="M81.87,77.2472l-5.2935-5.2935-3.253,3.2529,5.3016,5.3017A41.72,41.72,0,0,1,81.87,77.2472Z"></path><path class="cls-4" d="M83.4784,78.8553,81.87,77.2472a41.72,41.72,0,0,0-3.2449,3.2611l1.6,1.6Z"></path><path class="cls-4" d="M142.34,71.9537l-5.2923,5.2924a41.7179,41.7179,0,0,1,3.2446,3.2612l5.3007-5.3007Z"></path><path class="cls-4" d="M137.0475,77.2461l-1.6093,1.6092,3.253,3.2529,1.6009-1.6009A41.7179,41.7179,0,0,0,137.0475,77.2461Z"></path><path class="cls-4" d="M107.1577,78.18V75.9719a32.2076,32.2076,0,1,0,4.6011,0V78.18Zm29.907,29.9082a27.6064,27.6064,0,1,1-27.6064-27.6064A27.6363,27.6363,0,0,1,137.0647,108.0882Z"></path><path class="cls-4" d="M107.1577,75.9719V78.18h4.6011V75.9719c-.7608-.054-1.5261-.0912-2.3-.0912S107.9186,75.9179,107.1577,75.9719Z"></path><path class="cls-4" d="M117.3765,103.4229l9.812-9.812-3.2529-3.253-9.812,9.812A9.2553,9.2553,0,0,1,117.3765,103.4229Z"></path><rect class="cls-4" x="107.1577" y="85.0816" width="4.6011" height="4.6011"></rect><rect class="cls-4" x="86.4529" y="105.7864" width="4.6011" height="4.6011"></rect><rect class="cls-4" x="107.1577" y="126.4913" width="4.6011" height="4.601"></rect><rect class="cls-4" x="127.8625" y="105.7864" width="4.6011" height="4.6011"></rect><path class="cls-4" d="M112.4329,101.8606l1.6907-1.6907a9.2344,9.2344,0,1,0,3.2529,3.253l-1.6907,1.6907Zm-2.9746,10.8275a4.6005,4.6005,0,1,1,4.601-4.6A4.6062,4.6062,0,0,1,109.4583,112.6881Z"></path><path class="cls-4" d="M114.1236,100.17l-1.6907,1.6907,3.2529,3.253,1.6907-1.6907A9.2553,9.2553,0,0,0,114.1236,100.17Z"></path></svg> 