<?xml version="1.0" encoding="UTF-8"?> <svg xmlns="http://www.w3.org/2000/svg" width="3.0238in" height="3.5455in" viewBox="0 0 217.7136 255.276"><defs><style>.a{fill:#fff;}.b{fill:#3e4c59;}.c{fill:#7b8794;}.d{fill:#dedede;}.e{fill:#a6a6a6;}.f{fill:#0abe51;}.g{fill:none;stroke:#e4e7eb;stroke-miterlimit:10;}.h{fill:#e4e7eb;}.i{fill:#323f4b;}</style></defs><title>SelectRepo</title><rect class="a" y="0.0027" width="217.7136" height="255.2706" rx="10.679" ry="10.679"></rect><path class="b" d="M28.05,225.3662a4.1937,4.1937,0,0,1,.875.0762L28.73,227.873a2.9754,2.9754,0,0,0-.7647-.0849,2.7493,2.7493,0,0,0-1.9336.6367,2.306,2.306,0,0,0-.6923,1.7852v4.8349H22.7476v-9.5H24.71l.3824,1.5967H25.22a3.5782,3.5782,0,0,1,1.1939-1.2871A2.9488,2.9488,0,0,1,28.05,225.3662Z"></path><path class="b" d="M34.95,235.2148a4.9,4.9,0,0,1-3.5859-1.2666,4.7908,4.7908,0,0,1-1.292-3.5849,5.2711,5.2711,0,0,1,1.1938-3.6924,4.25,4.25,0,0,1,3.3018-1.3047,4.1815,4.1815,0,0,1,3.1357,1.1475,4.34,4.34,0,0,1,1.1216,3.1689V230.94h-6.127a2.4939,2.4939,0,0,0,.6543,1.7246,2.3,2.3,0,0,0,1.7168.6211,7.1182,7.1182,0,0,0,1.6231-.1787,8.1362,8.1362,0,0,0,1.5976-.5693v2.0058a6.0881,6.0881,0,0,1-1.4531.5049A9.1669,9.1669,0,0,1,34.95,235.2148ZM34.585,227.21a1.6467,1.6467,0,0,0-1.292.5224,2.4174,2.4174,0,0,0-.5352,1.4834H36.395a2.1646,2.1646,0,0,0-.5014-1.4834A1.701,1.701,0,0,0,34.585,227.21Z"></path><path class="b" d="M46.1509,235.2148A3.1518,3.1518,0,0,1,43.5249,234h-.1362q.1362,1.19.1362,1.376v3.85H40.9331V225.5449h2.1074l.3653,1.2315h.1191a2.9974,2.9974,0,0,1,2.6939-1.41,3.0844,3.0844,0,0,1,2.6342,1.3,6.0166,6.0166,0,0,1,.9517,3.6113,7.1242,7.1242,0,0,1-.4463,2.6436,3.7149,3.7149,0,0,1-1.27,1.708A3.2588,3.2588,0,0,1,46.1509,235.2148Zm-.7652-7.7753a1.6362,1.6362,0,0,0-1.4018.5908,3.387,3.387,0,0,0-.459,1.95v.28a4.003,4.003,0,0,0,.4546,2.1924,1.6235,1.6235,0,0,0,1.44.6631q1.7418,0,1.7422-2.8721a4.106,4.106,0,0,0-.4292-2.1035A1.4646,1.4646,0,0,0,45.3857,227.44Z"></path><path class="b" d="M60.58,230.2773a5.1066,5.1066,0,0,1-1.2237,3.629,4.4386,4.4386,0,0,1-3.4077,1.3085,4.7667,4.7667,0,0,1-2.4135-.5986,3.9876,3.9876,0,0,1-1.606-1.7217,5.7781,5.7781,0,0,1-.561-2.6172,5.0789,5.0789,0,0,1,1.2153-3.62A4.4648,4.4648,0,0,1,56,225.3662a4.7962,4.7962,0,0,1,2.4136.5947,3.97,3.97,0,0,1,1.6059,1.708A5.7278,5.7278,0,0,1,60.58,230.2773Zm-6.5689,0a3.9887,3.9887,0,0,0,.4629,2.1329,1.6544,1.6544,0,0,0,1.5083.7226,1.63,1.63,0,0,0,1.4917-.7178,4.0486,4.0486,0,0,0,.4546-2.1377,3.92,3.92,0,0,0-.459-2.1152,1.95,1.95,0,0,0-3-.0049A3.9215,3.9215,0,0,0,54.0112,230.2773Z"></path><path class="b" d="M61.88,231.4414v-2.124h4.563v2.124Z"></path><path class="b" d="M72.3242,233.1494a5.6134,5.6134,0,0,0,1.6314-.2969v1.9288a5.8151,5.8151,0,0,1-2.3794.4335,2.9113,2.9113,0,0,1-2.2647-.7861,3.42,3.42,0,0,1-.7094-2.3584v-4.58H67.3613v-1.0957l1.4278-.8672.7475-2.0058h1.6572v2.0234h2.66V227.49h-2.66v4.58a1.013,1.013,0,0,0,.31.8164A1.2239,1.2239,0,0,0,72.3242,233.1494Z"></path><path class="b" d="M80.1763,235.2148a4.9,4.9,0,0,1-3.586-1.2666,4.7912,4.7912,0,0,1-1.292-3.5849,5.2711,5.2711,0,0,1,1.1939-3.6924,4.25,4.25,0,0,1,3.3017-1.3047,4.1817,4.1817,0,0,1,3.1358,1.1475,4.34,4.34,0,0,1,1.1216,3.1689V230.94h-6.127a2.4934,2.4934,0,0,0,.6543,1.7246,2.3,2.3,0,0,0,1.7168.6211,7.1182,7.1182,0,0,0,1.6231-.1787,8.1385,8.1385,0,0,0,1.5976-.5693v2.0058a6.09,6.09,0,0,1-1.4531.5049A9.1669,9.1669,0,0,1,80.1763,235.2148ZM79.811,227.21a1.6469,1.6469,0,0,0-1.292.5224,2.4179,2.4179,0,0,0-.5351,1.4834h3.6372a2.1641,2.1641,0,0,0-.5015-1.4834A1.7007,1.7007,0,0,0,79.811,227.21Z"></path><path class="b" d="M92.7876,232.2236A2.6165,2.6165,0,0,1,91.772,234.45a5.02,5.02,0,0,1-3.0381.7646,9.51,9.51,0,0,1-1.7676-.1406,6.6155,6.6155,0,0,1-1.3682-.4121v-2.1406a9.0664,9.0664,0,0,0,1.6275.5693,6.6142,6.6142,0,0,0,1.5932.23q1.4107,0,1.4107-.8164a.682.682,0,0,0-.187-.4971,2.7449,2.7449,0,0,0-.646-.4336q-.4586-.2417-1.2236-.5654a7.6415,7.6415,0,0,1-1.61-.8486,2.3938,2.3938,0,0,1-.7476-.8965,2.9525,2.9525,0,0,1-.2338-1.2451,2.2568,2.2568,0,0,1,.9814-1.959,4.78,4.78,0,0,1,2.7832-.6924,7.8932,7.8932,0,0,1,3.34.7481l-.7817,1.8691a14.24,14.24,0,0,0-1.3345-.501,4.1735,4.1735,0,0,0-1.2661-.1963q-1.1469,0-1.1474.6211a.7308.7308,0,0,0,.37.6035,10.0065,10.0065,0,0,0,1.6186.7559,7.5756,7.5756,0,0,1,1.6314.8408,2.4989,2.4989,0,0,1,.7651.9A2.7778,2.7778,0,0,1,92.7876,232.2236Z"></path><path class="b" d="M98.8125,233.1494a5.6122,5.6122,0,0,0,1.6313-.2969v1.9288a5.8146,5.8146,0,0,1-2.3793.4335,2.911,2.911,0,0,1-2.2647-.7861,3.42,3.42,0,0,1-.71-2.3584v-4.58H93.85v-1.0957l1.4277-.8672.7476-2.0058h1.6572v2.0234h2.66V227.49h-2.66v4.58a1.0126,1.0126,0,0,0,.31.8164A1.2239,1.2239,0,0,0,98.8125,233.1494Z"></path><path class="b" d="M29.3765,186.4922a2.6163,2.6163,0,0,1-1.0157,2.2266,5.02,5.02,0,0,1-3.038.7646,9.5179,9.5179,0,0,1-1.7676-.1406,6.6216,6.6216,0,0,1-1.3682-.4121V186.79a9.0558,9.0558,0,0,0,1.6275.5694,6.6185,6.6185,0,0,0,1.5932.23q1.4106,0,1.4107-.8164a.6815.6815,0,0,0-.1871-.4971,2.7377,2.7377,0,0,0-.6459-.4336q-.4585-.2417-1.2237-.5654a7.635,7.635,0,0,1-1.61-.8487,2.3928,2.3928,0,0,1-.7476-.8964,2.9529,2.9529,0,0,1-.2339-1.2452,2.257,2.257,0,0,1,.9815-1.959,4.78,4.78,0,0,1,2.7832-.6923,7.8946,7.8946,0,0,1,3.34.748l-.7817,1.8692a14.24,14.24,0,0,0-1.3345-.501,4.1708,4.1708,0,0,0-1.2661-.1963q-1.147,0-1.1475.6211a.731.731,0,0,0,.37.6035,10.0179,10.0179,0,0,0,1.6187.7559,7.5653,7.5653,0,0,1,1.6313.8408,2.4994,2.4994,0,0,1,.7652.9A2.7792,2.7792,0,0,1,29.3765,186.4922Z"></path><path class="b" d="M35.4014,187.418a5.6161,5.6161,0,0,0,1.6313-.2969V189.05a5.813,5.813,0,0,1-2.3794.4336,2.9109,2.9109,0,0,1-2.2646-.7861,3.4192,3.4192,0,0,1-.7095-2.3584v-4.58H30.4385v-1.0957l1.4277-.8672.7476-2.0059H34.271v2.0235h2.66v1.9453h-2.66v4.58a1.0128,1.0128,0,0,0,.31.8164A1.2237,1.2237,0,0,0,35.4014,187.418Z"></path><path class="b" d="M44.9868,189.3135l-.5014-1.292h-.0679a3.8332,3.8332,0,0,1-1.3467,1.1435,4.3628,4.3628,0,0,1-1.8062.3184,2.918,2.918,0,0,1-2.1538-.7822,2.9981,2.9981,0,0,1-.7861-2.2256,2.5062,2.5062,0,0,1,1.0576-2.23,6.1225,6.1225,0,0,1,3.1914-.7949l1.6485-.0508v-.417a1.2919,1.2919,0,0,0-1.4785-1.4443,6.738,6.738,0,0,0-2.6773.6885l-.8579-1.751a7.7221,7.7221,0,0,1,3.6372-.8584,4.533,4.533,0,0,1,2.9316.833,3.0787,3.0787,0,0,1,1.02,2.5322v6.3311Zm-.7646-4.4014-1.003.0332a3.2218,3.2218,0,0,0-1.6826.4082,1.2811,1.2811,0,0,0-.5522,1.1387q0,1.0958,1.2578,1.0967a1.9915,1.9915,0,0,0,1.44-.5186,1.8227,1.8227,0,0,0,.54-1.3769Z"></path><path class="b" d="M57.7334,179.8135V181.13l-1.4868.3828a2.5906,2.5906,0,0,1,.4077,1.4277,2.88,2.88,0,0,1-1.0664,2.3828,4.6189,4.6189,0,0,1-2.9614.8545l-.4673-.0254-.3828-.0429a.8628.8628,0,0,0-.3994.6806q0,.56,1.4277.5606h1.6147a3.6854,3.6854,0,0,1,2.3838.6709,2.4024,2.4024,0,0,1,.82,1.9717,2.9249,2.9249,0,0,1-1.3891,2.5839,7.2408,7.2408,0,0,1-3.99.917,5.5224,5.5224,0,0,1-3.038-.6923,2.1985,2.1985,0,0,1-1.05-1.9414,2.0349,2.0349,0,0,1,.5356-1.4366,3.042,3.042,0,0,1,1.5723-.8242,1.7329,1.7329,0,0,1-.6973-.5566,1.3672,1.3672,0,0,1,.0171-1.7246,3.625,3.625,0,0,1,.9092-.71,2.5453,2.5453,0,0,1-1.1851-1.0361,3.1558,3.1558,0,0,1-.438-1.6827,2.9683,2.9683,0,0,1,1.0112-2.4052,4.3743,4.3743,0,0,1,2.89-.85,7.457,7.457,0,0,1,.9473.0722q.5486.0718.7011.1065ZM50.4,190.6563a.9383.9383,0,0,0,.5142.8408,2.8262,2.8262,0,0,0,1.44.3066,5.1025,5.1025,0,0,0,2.1841-.3828,1.1653,1.1653,0,0,0,.79-1.0449.7393.7393,0,0,0-.4673-.7393,3.8131,3.8131,0,0,0-1.4448-.2041H52.0742a2.0279,2.0279,0,0,0-1.1943.336A1.035,1.035,0,0,0,50.4,190.6563Zm.9434-7.7334a1.9363,1.9363,0,0,0,.3525,1.2246,1.2818,1.2818,0,0,0,1.0752.45,1.2569,1.2569,0,0,0,1.0708-.45,1.9933,1.9933,0,0,0,.34-1.2246q0-1.7154-1.4106-1.7159Q51.3427,181.207,51.3433,182.9229Z"></path><path class="b" d="M59.187,177.3574q0-1.2671,1.4107-1.2666t1.4106,1.2666a1.2338,1.2338,0,0,1-.3525.9385,1.4832,1.4832,0,0,1-1.0581.3359Q59.187,178.6318,59.187,177.3574ZM61.89,189.3135H59.2979v-9.5H61.89Z"></path><path class="b" d="M73.3784,189.3135H70.7866v-5.5489a2.6638,2.6638,0,0,0-.3652-1.5419,1.33,1.33,0,0,0-1.1646-.5147,1.7493,1.7493,0,0,0-1.5717.7266,4.5016,4.5016,0,0,0-.4844,2.4092v4.47H64.6089v-9.5h1.98l.3481,1.2148h.1445a2.7423,2.7423,0,0,1,1.1939-1.041,4.0639,4.0639,0,0,1,1.73-.3525,3.3241,3.3241,0,0,1,2.5156.8965,3.5988,3.5988,0,0,1,.8579,2.5878Z"></path><path class="b" d="M84.3149,179.8135V181.13l-1.4868.3828a2.5906,2.5906,0,0,1,.4077,1.4277,2.8793,2.8793,0,0,1-1.0664,2.3828,4.6187,4.6187,0,0,1-2.9614.8545l-.4673-.0254-.3828-.0429a.8628.8628,0,0,0-.3994.6806q0,.56,1.4277.5606H81.001a3.6854,3.6854,0,0,1,2.3838.6709,2.4024,2.4024,0,0,1,.82,1.9717,2.925,2.925,0,0,1-1.3892,2.5839,7.24,7.24,0,0,1-3.99.917,5.5225,5.5225,0,0,1-3.0381-.6923,2.1988,2.1988,0,0,1-1.05-1.9414,2.0349,2.0349,0,0,1,.5356-1.4366,3.0424,3.0424,0,0,1,1.5723-.8242,1.7335,1.7335,0,0,1-.6973-.5566,1.3675,1.3675,0,0,1,.0171-1.7246,3.625,3.625,0,0,1,.9092-.71,2.5462,2.5462,0,0,1-1.1851-1.0361,3.1567,3.1567,0,0,1-.4379-1.6827,2.9683,2.9683,0,0,1,1.0112-2.4052,4.3738,4.3738,0,0,1,2.89-.85,7.4544,7.4544,0,0,1,.9473.0722q.5485.0718.7012.1065Zm-7.3335,10.8428a.9383.9383,0,0,0,.5142.8408,2.8267,2.8267,0,0,0,1.44.3066,5.1022,5.1022,0,0,0,2.1841-.3828,1.1653,1.1653,0,0,0,.79-1.0449.7394.7394,0,0,0-.4673-.7393,3.8141,3.8141,0,0,0-1.4449-.2041H78.6558a2.0282,2.0282,0,0,0-1.1944.336A1.035,1.035,0,0,0,76.9814,190.6563Zm.9434-7.7334a1.9369,1.9369,0,0,0,.3525,1.2246,1.2818,1.2818,0,0,0,1.0752.45,1.2567,1.2567,0,0,0,1.0708-.45,1.9933,1.9933,0,0,0,.34-1.2246q0-1.7154-1.4107-1.7159Q77.9244,181.207,77.9248,182.9229Z"></path><path class="b" d="M28,137.9258H25.7563v7.5547H23.1641v-7.5547H21.7368v-1.249l1.4273-.6963v-.6973a3.1152,3.1152,0,0,1,.7988-2.3711,3.6637,3.6637,0,0,1,2.5581-.748,6.6707,6.6707,0,0,1,2.3877.3994l-.6626,1.9043a4.81,4.81,0,0,0-1.4448-.2471.9369.9369,0,0,0-.7989.3272,1.3557,1.3557,0,0,0-.2461.8369v.5957H28Z"></path><path class="b" d="M34.79,135.8018a4.1958,4.1958,0,0,1,.875.0761l-.1954,2.4307a2.9737,2.9737,0,0,0-.7646-.085,2.7487,2.7487,0,0,0-1.9336.6368,2.3059,2.3059,0,0,0-.6924,1.7851v4.835H29.4868v-9.5H31.45l.3823,1.5966H31.96a3.5779,3.5779,0,0,1,1.1938-1.2871A2.9493,2.9493,0,0,1,34.79,135.8018Z"></path><path class="b" d="M46.0239,140.7129A5.1068,5.1068,0,0,1,44.8,144.3418a4.4384,4.4384,0,0,1-3.4077,1.3086,4.7674,4.7674,0,0,1-2.4136-.5986,3.9893,3.9893,0,0,1-1.606-1.7217,5.7784,5.7784,0,0,1-.561-2.6172,5.079,5.079,0,0,1,1.2153-3.62,4.4647,4.4647,0,0,1,3.4161-1.291,4.7945,4.7945,0,0,1,2.4135.5947,3.97,3.97,0,0,1,1.606,1.708A5.7288,5.7288,0,0,1,46.0239,140.7129Zm-6.5688,0a3.9883,3.9883,0,0,0,.4629,2.1328,1.6545,1.6545,0,0,0,1.5083.7227,1.6308,1.6308,0,0,0,1.4917-.7178,4.05,4.05,0,0,0,.4546-2.1377,3.9205,3.9205,0,0,0-.459-2.1152,1.95,1.95,0,0,0-3-.0049A3.92,3.92,0,0,0,39.4551,140.7129Z"></path><path class="b" d="M56.9351,145.4805H54.3433v-5.5489a2.6635,2.6635,0,0,0-.3653-1.542,1.33,1.33,0,0,0-1.1645-.5146,1.75,1.75,0,0,0-1.5718.7266,4.5024,4.5024,0,0,0-.4844,2.4091v4.47H48.1655v-9.5h1.98l.3482,1.2148h.1445a2.7409,2.7409,0,0,1,1.1938-1.041,4.0627,4.0627,0,0,1,1.73-.3525,3.3244,3.3244,0,0,1,2.5156.8964,3.5993,3.5993,0,0,1,.858,2.5879Z"></path><path class="b" d="M63.606,143.585a5.6161,5.6161,0,0,0,1.6313-.2969v1.9287a5.8134,5.8134,0,0,1-2.3794.4336,2.9109,2.9109,0,0,1-2.2646-.7861,3.4192,3.4192,0,0,1-.7095-2.3584v-4.58H58.6431V136.83l1.4277-.8672.7476-2.0059h1.6572v2.0235h2.66v1.9453h-2.66v4.58a1.0131,1.0131,0,0,0,.31.8164A1.2247,1.2247,0,0,0,63.606,143.585Z"></path><path class="b" d="M71.458,145.65a4.9,4.9,0,0,1-3.5859-1.2666,4.7912,4.7912,0,0,1-1.292-3.585,5.2715,5.2715,0,0,1,1.1938-3.6924,4.25,4.25,0,0,1,3.3018-1.3046,4.1817,4.1817,0,0,1,3.1357,1.1474,4.34,4.34,0,0,1,1.1216,3.169v1.2578H69.2061a2.4934,2.4934,0,0,0,.6543,1.7246,2.3,2.3,0,0,0,1.7167.6211A7.1238,7.1238,0,0,0,73.2,143.543a8.1376,8.1376,0,0,0,1.5977-.5694V144.98a6.0947,6.0947,0,0,1-1.4532.5049A9.1739,9.1739,0,0,1,71.458,145.65Zm-.3652-8.0049a1.6464,1.6464,0,0,0-1.292.5225,2.4175,2.4175,0,0,0-.5352,1.4834h3.6372a2.1642,2.1642,0,0,0-.5014-1.4834A1.7007,1.7007,0,0,0,71.0928,137.6455Z"></path><path class="b" d="M86.21,145.4805H83.6187v-5.5489a2.6635,2.6635,0,0,0-.3653-1.542,1.33,1.33,0,0,0-1.1645-.5146,1.75,1.75,0,0,0-1.5718.7266,4.5014,4.5014,0,0,0-.4844,2.4091v4.47H77.4409v-9.5h1.98l.3481,1.2148h.1446a2.7409,2.7409,0,0,1,1.1938-1.041,4.0624,4.0624,0,0,1,1.73-.3525,3.3244,3.3244,0,0,1,2.5156.8964,3.5993,3.5993,0,0,1,.8579,2.5879Z"></path><path class="b" d="M91.8872,145.65a3.0871,3.0871,0,0,1-2.63-1.3,7.2833,7.2833,0,0,1,.0171-7.2442,3.1592,3.1592,0,0,1,2.6812-1.3046,3.1,3.1,0,0,1,2.7363,1.3935h.085a10.5844,10.5844,0,0,1-.1953-1.8955v-3.042h2.6v13.2227H95.1929l-.5015-1.2325h-.11A2.9669,2.9669,0,0,1,91.8872,145.65Zm.9092-2.0654a1.7566,1.7566,0,0,0,1.457-.5772,3.36,3.36,0,0,0,.5059-1.9629v-.28a3.8806,3.8806,0,0,0-.4717-2.1923,1.7506,1.7506,0,0,0-1.5337-.6631,1.5218,1.5218,0,0,0-1.3472.7353,3.9215,3.9215,0,0,0-.48,2.1368,3.721,3.721,0,0,0,.4843,2.1035A1.5832,1.5832,0,0,0,92.7964,143.585Z"></path><path class="b" d="M28.0332,91.1611a3.0731,3.0731,0,0,1,2.6343,1.313,6.0266,6.0266,0,0,1,.9516,3.5987,5.917,5.917,0,0,1-.9814,3.6455,3.4272,3.4272,0,0,1-5.2983.0771h-.1788l-.4331,1.0449h-1.98V87.6177h2.5918v3.0761q0,.5861-.1021,1.878h.1021A2.9977,2.9977,0,0,1,28.0332,91.1611ZM27.2,93.2349a1.6362,1.6362,0,0,0-1.4019.59,3.3882,3.3882,0,0,0-.4589,1.95v.2808a4.0027,4.0027,0,0,0,.4545,2.1923,1.6237,1.6237,0,0,0,1.4405.6631,1.4458,1.4458,0,0,0,1.27-.7353,3.9789,3.9789,0,0,0,.4717-2.1372,3.77,3.77,0,0,0-.4761-2.1036A1.4926,1.4926,0,0,0,27.2,93.2349Z"></path><path class="b" d="M39.7939,100.84l-.5014-1.292h-.0679a3.8319,3.8319,0,0,1-1.3467,1.1436,4.364,4.364,0,0,1-1.8061.3184,2.9179,2.9179,0,0,1-2.1538-.7823,2.9981,2.9981,0,0,1-.7862-2.2256A2.5071,2.5071,0,0,1,34.19,95.7715a6.1306,6.1306,0,0,1,3.1914-.7949l1.6484-.0508v-.4165a1.2919,1.2919,0,0,0-1.4785-1.4444,6.7363,6.7363,0,0,0-2.6773.688l-.8579-1.7505a7.7233,7.7233,0,0,1,3.6372-.8584,4.5306,4.5306,0,0,1,2.9317.8331,3.0779,3.0779,0,0,1,1.02,2.5322v6.331Zm-.7646-4.4018-1.0029.0337a3.2107,3.2107,0,0,0-1.6826.4082,1.2809,1.2809,0,0,0-.5523,1.1386q0,1.0957,1.2578,1.0967a1.9914,1.9914,0,0,0,1.44-.5185,1.8228,1.8228,0,0,0,.54-1.377Z"></path><path class="b" d="M48.1309,101.01q-4.4364,0-4.4361-4.8692A5.1967,5.1967,0,0,1,44.9014,92.44a4.528,4.528,0,0,1,3.459-1.2788,6.5923,6.5923,0,0,1,2.957.646l-.7647,2.0054q-.6115-.2462-1.1386-.4038a3.6825,3.6825,0,0,0-1.0537-.1572q-2.023,0-2.0225,2.8725,0,2.7869,2.0225,2.7876a4.5926,4.5926,0,0,0,1.3852-.2,4.988,4.988,0,0,0,1.2744-.624v2.2178a4.1577,4.1577,0,0,1-1.2705.5517A7.1044,7.1044,0,0,1,48.1309,101.01Z"></path><path class="b" d="M55.7109,95.6738l1.13-1.4448,2.66-2.8892h2.9233l-3.7729,4.1211,4.0024,5.3794H59.6626l-2.7363-3.85-1.1133.8926v2.957H53.2212V87.6177H55.813v5.8974l-.1362,2.1587Z"></path><path class="b" d="M68.3135,101.01a4.9006,4.9006,0,0,1-3.586-1.2666,4.792,4.792,0,0,1-1.292-3.5855,5.2728,5.2728,0,0,1,1.1939-3.6924,4.2519,4.2519,0,0,1,3.3018-1.3047,4.184,4.184,0,0,1,3.1357,1.1475,4.34,4.34,0,0,1,1.1216,3.1694v1.2578h-6.127a2.4934,2.4934,0,0,0,.6543,1.7246,2.3,2.3,0,0,0,1.7168.6211,7.1182,7.1182,0,0,0,1.6231-.1787,8.1362,8.1362,0,0,0,1.5976-.5693v2.0059a6.0938,6.0938,0,0,1-1.4531.5048A9.1662,9.1662,0,0,1,68.3135,101.01Zm-.3653-8.0049a1.6448,1.6448,0,0,0-1.2919.5224,2.417,2.417,0,0,0-.5352,1.4829h3.6372a2.1637,2.1637,0,0,0-.5015-1.4829A1.699,1.699,0,0,0,67.9482,93.0054Z"></path><path class="b" d="M83.0654,100.84H80.4736V95.291a2.6647,2.6647,0,0,0-.3652-1.542,1.33,1.33,0,0,0-1.1646-.5141,1.75,1.75,0,0,0-1.5717.7265,4.5018,4.5018,0,0,0-.4844,2.4092v4.47H74.2959V91.34h1.98l.3481,1.2149h.1446a2.744,2.744,0,0,1,1.1938-1.041,4.07,4.07,0,0,1,1.73-.3526,3.3245,3.3245,0,0,1,2.5156.8965,3.6,3.6,0,0,1,.8579,2.5879Z"></path><path class="b" d="M88.7427,101.01a3.087,3.087,0,0,1-2.63-1.3,7.2841,7.2841,0,0,1,.0171-7.2446,3.16,3.16,0,0,1,2.6811-1.3047,3.1,3.1,0,0,1,2.7364,1.3936h.0849a10.5893,10.5893,0,0,1-.1953-1.895v-3.042h2.6V100.84H92.0483l-.5014-1.2324h-.11A2.9668,2.9668,0,0,1,88.7427,101.01Zm.9092-2.0655a1.7568,1.7568,0,0,0,1.457-.5771,3.3616,3.3616,0,0,0,.5058-1.9634v-.28a3.8842,3.8842,0,0,0-.4716-2.1924,1.7518,1.7518,0,0,0-1.5337-.663,1.5217,1.5217,0,0,0-1.3472.7353,3.9232,3.9232,0,0,0-.48,2.1372,3.72,3.72,0,0,0,.4844,2.1035A1.5832,1.5832,0,0,0,89.6519,98.9448Z"></path><path class="c" d="M22.0522,25.6431l-1.57-4.0122H15.4253l-1.5532,4.0122H12.3882l4.9873-12.667h1.2339l4.9614,12.667Zm-2.0278-5.3326-1.4668-3.9086q-.2849-.7421-.5869-1.8208a16.3394,16.3394,0,0,1-.5435,1.8208l-1.4838,3.9086Z"></path><path class="c" d="M31.5264,24.3745h-.0777a3.3649,3.3649,0,0,1-2.9682,1.4409,3.5109,3.5109,0,0,1-2.8863-1.268A5.5831,5.5831,0,0,1,24.563,20.94a5.6787,5.6787,0,0,1,1.0356-3.6328,3.4844,3.4844,0,0,1,2.8819-1.2939,3.44,3.44,0,0,1,2.9511,1.3974h.1119l-.06-.6816-.0347-.6641V12.2168h1.4326V25.6431h-1.165Zm-2.8648.2417a2.6074,2.6074,0,0,0,2.127-.7983,4.0321,4.0321,0,0,0,.66-2.5752V20.94a4.75,4.75,0,0,0-.6684-2.8691,2.54,2.54,0,0,0-2.1358-.8584,2.193,2.193,0,0,0-1.9287.9795,4.8691,4.8691,0,0,0-.6684,2.7651,4.67,4.67,0,0,0,.664,2.7354A2.25,2.25,0,0,0,28.6616,24.6162Z"></path><path class="c" d="M42.3555,24.3745h-.0777A3.3649,3.3649,0,0,1,39.31,25.8154a3.5109,3.5109,0,0,1-2.8863-1.268,5.5831,5.5831,0,0,1-1.0312-3.607,5.6787,5.6787,0,0,1,1.0356-3.6328A3.4844,3.4844,0,0,1,39.31,16.0137a3.44,3.44,0,0,1,2.9511,1.3974h.1119l-.06-.6816-.0347-.6641V12.2168H43.71V25.6431h-1.165Zm-2.8648.2417a2.6073,2.6073,0,0,0,2.127-.7983,4.0321,4.0321,0,0,0,.66-2.5752V20.94a4.75,4.75,0,0,0-.6684-2.8691,2.54,2.54,0,0,0-2.1358-.8584,2.193,2.193,0,0,0-1.9287.9795,4.8691,4.8691,0,0,0-.6684,2.7651,4.67,4.67,0,0,0,.664,2.7354A2.25,2.25,0,0,0,39.4907,24.6162Z"></path><path class="c" d="M53.0205,20.397v5.2461H51.5537V13.0278h3.46a5.4465,5.4465,0,0,1,3.43.8887,3.2243,3.2243,0,0,1,1.1084,2.6753,3.35,3.35,0,0,1-2.5366,3.3823l3.4258,5.669H58.707L55.6523,20.397Zm0-1.26h2.0108a3.4706,3.4706,0,0,0,2.2778-.6172,2.2955,2.2955,0,0,0,.7246-1.8506,2.106,2.106,0,0,0-.7378-1.8037,3.9994,3.9994,0,0,0-2.3682-.5522H53.0205Z"></path><path class="c" d="M66.2568,25.8154a4.3438,4.3438,0,0,1-3.309-1.2768,4.943,4.943,0,0,1-1.2124-3.5464,5.4842,5.4842,0,0,1,1.1259-3.6328,3.7417,3.7417,0,0,1,3.0244-1.3457,3.5669,3.5669,0,0,1,2.813,1.1689,4.4809,4.4809,0,0,1,1.0357,3.085v.9057H63.22a3.7486,3.7486,0,0,0,.8413,2.5284,2.9092,2.9092,0,0,0,2.2476.8628,7.6152,7.6152,0,0,0,3.02-.6387v1.2773a7.5825,7.5825,0,0,1-1.4365.47A8.0854,8.0854,0,0,1,66.2568,25.8154Zm-.3881-8.6025a2.34,2.34,0,0,0-1.8165.7422,3.42,3.42,0,0,0-.7983,2.0537h4.9443a3.1471,3.1471,0,0,0-.604-2.0752A2.1257,2.1257,0,0,0,65.8687,17.2129Z"></path><path class="c" d="M76.5767,25.8154a4.0871,4.0871,0,0,1-1.6871-.3408,3.17,3.17,0,0,1-1.2812-1.0483h-.1035a12.73,12.73,0,0,1,.1035,1.5708v3.8911H72.1758V16.186h1.165l.1983,1.2945h.0693a3.3226,3.3226,0,0,1,1.2856-1.1221,3.9093,3.9093,0,0,1,1.6827-.3447A3.4942,3.4942,0,0,1,79.48,17.2993a5.66,5.66,0,0,1,1.0224,3.6065,5.6306,5.6306,0,0,1-1.0395,3.62A3.5019,3.5019,0,0,1,76.5767,25.8154ZM76.37,17.23a2.5385,2.5385,0,0,0-2.0971.8027,4.1282,4.1282,0,0,0-.6641,2.5542v.3189a4.7333,4.7333,0,0,0,.6641,2.852,2.5267,2.5267,0,0,0,2.1313.8584,2.2157,2.2157,0,0,0,1.92-.9922,4.7065,4.7065,0,0,0,.6949-2.7353,4.5308,4.5308,0,0,0-.6949-2.7139A2.2844,2.2844,0,0,0,76.37,17.23Z"></path><path class="c" d="M91.1675,20.9058a5.2177,5.2177,0,0,1-1.1646,3.6113,4.1032,4.1032,0,0,1-3.2187,1.2983,4.2615,4.2615,0,0,1-2.252-.5952,3.9279,3.9279,0,0,1-1.5185-1.7085,5.9486,5.9486,0,0,1-.5352-2.6059,5.2072,5.2072,0,0,1,1.1563-3.6021,4.0884,4.0884,0,0,1,3.21-1.29,4.0011,4.0011,0,0,1,3.1538,1.32A5.1963,5.1963,0,0,1,91.1675,20.9058Zm-7.2046,0a4.4911,4.4911,0,0,0,.7246,2.7612,2.8769,2.8769,0,0,0,4.2671.0044,4.4681,4.4681,0,0,0,.729-2.7656,4.3947,4.3947,0,0,0-.729-2.7393,2.5632,2.5632,0,0,0-2.1528-.9365,2.5226,2.5226,0,0,0-2.1231.9233A4.4437,4.4437,0,0,0,83.9629,20.9058Z"></path><path class="c" d="M99.7793,23.063A2.3692,2.3692,0,0,1,98.7954,25.1a4.6235,4.6235,0,0,1-2.7612.7158,6.0025,6.0025,0,0,1-2.9336-.5952V23.8916a7.1033,7.1033,0,0,0,1.4629.5435,6.1052,6.1052,0,0,0,1.5053.1982,3.4118,3.4118,0,0,0,1.7256-.3579,1.2329,1.2329,0,0,0,.1255-2.0361,7.5508,7.5508,0,0,0-1.8681-.9278,10.1623,10.1623,0,0,1-1.877-.8584,2.5632,2.5632,0,0,1-.8281-.833,2.1707,2.1707,0,0,1-.272-1.1128,2.1222,2.1222,0,0,1,.94-1.8252,4.3834,4.3834,0,0,1,2.58-.6684,7.55,7.55,0,0,1,2.9854.6211L99.0718,17.8a6.8549,6.8549,0,0,0-2.58-.5869,2.9655,2.9655,0,0,0-1.5356.3193.9874.9874,0,0,0-.5181.88,1.0726,1.0726,0,0,0,.1943.6475,1.912,1.912,0,0,0,.6255.5088,14.0154,14.0154,0,0,0,1.6568.6992,6.1805,6.1805,0,0,1,2.2734,1.2339A2.1754,2.1754,0,0,1,99.7793,23.063Z"></path><path class="c" d="M101.9883,13.6235a.9511.9511,0,0,1,.2417-.7207.8945.8945,0,0,1,1.1992.0044.9354.9354,0,0,1,.25.7163.95.95,0,0,1-.25.72.8356.8356,0,0,1-.5952.2373.8264.8264,0,0,1-.604-.2373A.9679.9679,0,0,1,101.9883,13.6235Zm1.5532,12.02h-1.4326V16.186h1.4326Z"></path><path class="c" d="M109.6333,24.6333a5.0729,5.0729,0,0,0,1.2944-.1724v1.0957a2.6036,2.6036,0,0,1-.6865.1856,5.1513,5.1513,0,0,1-.8149.0732q-2.7444,0-2.7442-2.8906V17.2993h-1.3545v-.69l1.3545-.5952.604-2.0191h.8286V16.186h2.7437v1.1133h-2.7437v5.5654a1.9139,1.9139,0,0,0,.4053,1.3116A1.4123,1.4123,0,0,0,109.6333,24.6333Z"></path><path class="c" d="M120.98,20.9058a5.2183,5.2183,0,0,1-1.165,3.6113,4.1028,4.1028,0,0,1-3.2188,1.2983,4.2621,4.2621,0,0,1-2.2519-.5952,3.9305,3.9305,0,0,1-1.5186-1.7085,5.9571,5.9571,0,0,1-.5352-2.6059,5.21,5.21,0,0,1,1.1563-3.6021,4.0892,4.0892,0,0,1,3.21-1.29,4.0028,4.0028,0,0,1,3.1542,1.32A5.1963,5.1963,0,0,1,120.98,20.9058Zm-7.2051,0a4.4944,4.4944,0,0,0,.7246,2.7612,2.8775,2.8775,0,0,0,4.2676.0044,4.4708,4.4708,0,0,0,.7285-2.7656,4.3974,4.3974,0,0,0-.7285-2.7393,2.5635,2.5635,0,0,0-2.1533-.9365,2.5232,2.5232,0,0,0-2.1231.9233A4.4437,4.4437,0,0,0,113.7744,20.9058Z"></path><path class="c" d="M127.8047,16.0137a5.5919,5.5919,0,0,1,1.1308.1035l-.1992,1.3286a4.8669,4.8669,0,0,0-1.0351-.1294,2.5207,2.5207,0,0,0-1.9629.9321,3.3958,3.3958,0,0,0-.8154,2.3208v5.0738H123.49V16.186h1.1827l.164,1.7515h.0684a4.17,4.17,0,0,1,1.2685-1.4233A2.8532,2.8532,0,0,1,127.8047,16.0137Z"></path><path class="c" d="M129.2021,16.186h1.5362l2.0713,5.3931a20.5918,20.5918,0,0,1,.8457,2.666h.0683q.1128-.44.4707-1.5054t2.3428-6.5537h1.5361l-4.0644,10.7686a5.37,5.37,0,0,1-1.4111,2.2651,3.0013,3.0013,0,0,1-1.9805.6685,5.77,5.77,0,0,1-1.294-.1465V28.5942a5.0009,5.0009,0,0,0,1.0616.1036A2.1879,2.1879,0,0,0,132.49,27.041l.5264-1.3462Z"></path><rect class="d" x="22.8351" y="45.3162" width="8.7133" height="8.7133" rx="1.2786" ry="1.2786"></rect><path class="e" d="M30.27,44.5585H24.1137a2.0385,2.0385,0,0,0-2.0362,2.0363V52.751a2.0384,2.0384,0,0,0,2.0362,2.0362H30.27a2.0385,2.0385,0,0,0,2.0363-2.0362V46.5948A2.0386,2.0386,0,0,0,30.27,44.5585Zm1.2787,8.1925A1.28,1.28,0,0,1,30.27,54.03H24.1137a1.28,1.28,0,0,1-1.2786-1.2785V46.5948a1.28,1.28,0,0,1,1.2786-1.2786H30.27a1.28,1.28,0,0,1,1.2787,1.2786Z"></path><circle class="f" cx="181.3722" cy="140.5734" r="8.2369"></circle><path class="a" d="M181.3723,145.1861a.3293.3293,0,0,1-.3295-.3291V136.62a.3295.3295,0,1,1,.6589-.0112v8.248a.3293.3293,0,0,1-.3291.33Z"></path><path class="a" d="M185.4907,140.9029h-8.237a.3295.3295,0,0,1,0-.6589h8.237a.3295.3295,0,0,1,0,.6589Z"></path><line class="g" x1="15.3872" y1="117.3342" x2="199.3568" y2="117.3342"></line><line class="g" x1="15.3867" y1="161.8127" x2="199.3563" y2="161.8127"></line><circle class="f" cx="181.3722" cy="184.4061" r="8.2369"></circle><path class="a" d="M181.3723,189.0188a.3293.3293,0,0,1-.3295-.3291v-8.2373a.3295.3295,0,0,1,.6589-.0112v8.2481a.3293.3293,0,0,1-.3291.3295Z"></path><path class="a" d="M185.4907,184.7356h-8.237a.3295.3295,0,0,1,0-.6589h8.237a.3295.3295,0,0,1,0,.6589Z"></path><line class="g" x1="15.3867" y1="206.9995" x2="199.3563" y2="206.9995"></line><circle class="f" cx="181.3722" cy="230.138" r="8.2369"></circle><path class="a" d="M181.3723,234.7506a.3293.3293,0,0,1-.3295-.3291v-8.2372a.3295.3295,0,1,1,.6589-.0112v8.248a.3293.3293,0,0,1-.3291.3295Z"></path><path class="a" d="M185.4907,230.4675h-8.237a.33.33,0,0,1,0-.659h8.237a.33.33,0,0,1,0,.659Z"></path><rect class="h" x="149.0648" y="86.7484" width="45.0621" height="15.9998" rx="2.5641" ry="2.5641"></rect><path class="c" d="M154.453,95.8039,153.39,98.8287h-.6279l3.127-8.6384h.59l3.1016,8.6384h-.628l-1.0888-3.0248Zm3.23-.5127-1.0507-2.8837a12.6055,12.6055,0,0,1-.4492-1.5253h-.0381a13.7786,13.7786,0,0,1-.4492,1.4994l-1.0508,2.91Z"></path><path class="c" d="M160.909,90.3182a12.9,12.9,0,0,1,2.2176-.1924,4.683,4.683,0,0,1,3.4864,1.1792,4.1209,4.1209,0,0,1,1.0761,2.9994,4.7253,4.7253,0,0,1-1.1279,3.2686,4.9418,4.9418,0,0,1-3.73,1.32,18.8692,18.8692,0,0,1-1.9227-.0766Zm.6152,7.9979a10.6592,10.6592,0,0,0,1.3975.064c2.7684,0,4.14-1.5508,4.14-4.05.0254-2.1913-1.1924-3.6913-3.9735-3.6913a7.8707,7.8707,0,0,0-1.5635.1411Z"></path><path class="c" d="M169.1979,90.3182a12.9,12.9,0,0,1,2.2177-.1924,4.6829,4.6829,0,0,1,3.4863,1.1792,4.1208,4.1208,0,0,1,1.0762,2.9994A4.7253,4.7253,0,0,1,174.85,97.573a4.9419,4.9419,0,0,1-3.73,1.32,18.8711,18.8711,0,0,1-1.9228-.0766Zm.6152,7.9979a10.6584,10.6584,0,0,0,1.3974.064c2.7686,0,4.14-1.5508,4.14-4.05.0254-2.1913-1.1924-3.6913-3.9737-3.6913a7.8636,7.8636,0,0,0-1.5634.1411Z"></path><path class="c" d="M181.5493,94.5349h-3.4482v3.7812H181.96v.5126h-4.4737V90.19h4.2686v.5127h-3.6533v3.3192h3.4482Z"></path><path class="c" d="M183.4564,90.3182a12.902,12.902,0,0,1,2.2178-.1924,4.6829,4.6829,0,0,1,3.4863,1.1792,4.1167,4.1167,0,0,1,1.0761,2.9994,4.7252,4.7252,0,0,1-1.1278,3.2686,4.9419,4.9419,0,0,1-3.73,1.32,18.8711,18.8711,0,0,1-1.9228-.0766Zm.6153,7.9979a10.6584,10.6584,0,0,0,1.3974.064c2.7686,0,4.14-1.5508,4.14-4.05.0254-2.1913-1.1913-3.6913-3.9736-3.6913a7.863,7.863,0,0,0-1.5634.1411Z"></path><path class="i" d="M42.9253,51.5078a2.1012,2.1012,0,0,1-.82,1.7637,3.5569,3.5569,0,0,1-2.2266.6328,5.5767,5.5767,0,0,1-2.3437-.3926v-.9609a6.1678,6.1678,0,0,0,1.1484.3515,6.0383,6.0383,0,0,0,1.23.129,2.4826,2.4826,0,0,0,1.5-.378,1.24,1.24,0,0,0,.5039-1.0517,1.35,1.35,0,0,0-.1787-.7295,1.66,1.66,0,0,0-.5977-.5244,8.3634,8.3634,0,0,0-1.2744-.545,4.0674,4.0674,0,0,1-1.708-1.0136A2.2381,2.2381,0,0,1,37.646,47.26a1.9019,1.9019,0,0,1,.7441-1.5762,3.0927,3.0927,0,0,1,1.9688-.5859,5.8021,5.8021,0,0,1,2.35.4687l-.3106.8672a5.3092,5.3092,0,0,0-2.0625-.4453,1.9965,1.9965,0,0,0-1.2363.34,1.12,1.12,0,0,0-.4453.9434,1.4456,1.4456,0,0,0,.1641.7295,1.5442,1.5442,0,0,0,.5537.5215,6.8762,6.8762,0,0,0,1.1924.5244,4.7207,4.7207,0,0,1,1.8545,1.0312A2.0288,2.0288,0,0,1,42.9253,51.5078Z"></path><path class="i" d="M48.9253,53.7871V49.6328a1.6763,1.6763,0,0,0-.3574-1.1719,1.4563,1.4563,0,0,0-1.1192-.3867,1.8337,1.8337,0,0,0-1.48.5508,2.79,2.79,0,0,0-.4658,1.8047v3.3574h-.9726V44.67h.9726v2.76a6.0061,6.0061,0,0,1-.0469.8262h.0586a1.9836,1.9836,0,0,1,.8174-.7295,2.6567,2.6567,0,0,1,1.21-.2666,2.4781,2.4781,0,0,1,1.7666.5595,2.3568,2.3568,0,0,1,.5888,1.7784v4.1894Z"></path><path class="i" d="M57.439,50.57a3.5425,3.5425,0,0,1-.7911,2.4522,2.7856,2.7856,0,0,1-2.1855.8818A2.895,2.895,0,0,1,52.9331,53.5a2.6672,2.6672,0,0,1-1.0312-1.16,4.0429,4.0429,0,0,1-.3633-1.7695,3.5373,3.5373,0,0,1,.7851-2.4463,2.7768,2.7768,0,0,1,2.18-.876,2.7168,2.7168,0,0,1,2.1416.8965A3.5275,3.5275,0,0,1,57.439,50.57Zm-4.8926,0a3.0477,3.0477,0,0,0,.4922,1.875,1.9534,1.9534,0,0,0,2.8974.0029,3.0323,3.0323,0,0,0,.4952-1.8779,2.9834,2.9834,0,0,0-.4952-1.86,1.7393,1.7393,0,0,0-1.4619-.6358,1.7119,1.7119,0,0,0-1.4414.627A3.0171,3.0171,0,0,0,52.5464,50.57Z"></path><path class="i" d="M64.3882,53.7871,63.21,50.02q-.1113-.3456-.416-1.57h-.0468q-.2345,1.0254-.41,1.5821l-1.2129,3.7558H60l-1.7519-6.4219h1.02q.6212,2.42.9463,3.6856a14.911,14.911,0,0,1,.372,1.7051h.0469q.0645-.334.208-.8643t.2491-.8408l1.1777-3.6856h1.0547L64.47,51.0508a12.43,12.43,0,0,1,.4453,1.6933h.0469a6.1921,6.1921,0,0,1,.126-.65q.1025-.4395,1.2217-4.7286h1.0078l-1.7754,6.4219Z"></path><path class="i" d="M72.7378,53.7871h-.9961V45.2207h4.7754v.8848H72.7378V49.24h3.5508v.8848H72.7378Z"></path><path class="i" d="M83.3315,50.57a3.5425,3.5425,0,0,1-.791,2.4522,2.7856,2.7856,0,0,1-2.1855.8818A2.895,2.895,0,0,1,78.8257,53.5a2.668,2.668,0,0,1-1.0313-1.16,4.0429,4.0429,0,0,1-.3632-1.7695,3.5373,3.5373,0,0,1,.7851-2.4463,2.7767,2.7767,0,0,1,2.18-.876,2.7169,2.7169,0,0,1,2.1416.8965A3.5275,3.5275,0,0,1,83.3315,50.57Zm-4.8925,0a3.0477,3.0477,0,0,0,.4922,1.875,1.9534,1.9534,0,0,0,2.8974.0029,3.0323,3.0323,0,0,0,.4951-1.8779,2.9834,2.9834,0,0,0-.4951-1.86,1.74,1.74,0,0,0-1.4619-.6358,1.7119,1.7119,0,0,0-1.4414.627A3.0171,3.0171,0,0,0,78.439,50.57Z"></path><path class="i" d="M87.9663,47.248a3.8039,3.8039,0,0,1,.7676.07l-.1348.9023a3.3127,3.3127,0,0,0-.7031-.0879,1.7117,1.7117,0,0,0-1.333.6328,2.3073,2.3073,0,0,0-.5537,1.5762v3.4453h-.9727V47.3652h.8028l.1113,1.1895h.0469a2.8215,2.8215,0,0,1,.8613-.9668A1.9387,1.9387,0,0,1,87.9663,47.248Z"></path><path class="i" d="M90.896,50.5a11.429,11.429,0,0,1,.7676-.9375l2.0742-2.1973h1.1543l-2.6016,2.7364,2.7832,3.6855H93.896L91.6284,50.752l-.7324.6328v2.4023h-.9609V44.67h.9609v4.834q0,.3224-.0469.9961Z"></path><path class="i" d="M100.3765,52.0352a1.6087,1.6087,0,0,1-.668,1.3828,3.14,3.14,0,0,1-1.875.4863A4.0775,4.0775,0,0,1,95.8413,53.5v-.9023a4.8188,4.8188,0,0,0,.9932.3691,4.1491,4.1491,0,0,0,1.0224.1348,2.3188,2.3188,0,0,0,1.1719-.2432.8371.8371,0,0,0,.085-1.3828,5.1176,5.1176,0,0,0-1.2686-.63,6.886,6.886,0,0,1-1.2744-.583,1.74,1.74,0,0,1-.5625-.5654,1.4753,1.4753,0,0,1-.1846-.7559,1.441,1.441,0,0,1,.6387-1.2393,2.9764,2.9764,0,0,1,1.752-.4541,5.127,5.127,0,0,1,2.0273.4219l-.3457.791a4.6538,4.6538,0,0,0-1.752-.3984,2.0156,2.0156,0,0,0-1.0429.2168.67.67,0,0,0-.3516.5977.7285.7285,0,0,0,.1318.4394,1.3009,1.3009,0,0,0,.4249.3457,9.482,9.482,0,0,0,1.125.4746,4.2044,4.2044,0,0,1,1.5439.8379A1.4777,1.4777,0,0,1,100.3765,52.0352Z"></path></svg> 