<?xml version="1.0" encoding="UTF-8"?> <svg xmlns="http://www.w3.org/2000/svg" width="218.3142" height="212.6584" viewBox="0 0 218.3142 212.6584"><defs><style>.a{fill:#5ed45e;}.b{fill:#00eaff;}.c{fill:#efefef;}.d{fill:#afafaf;}.e{fill:#d3cec3;}</style></defs><title>team</title><polygon class="a" points="33.16 61.511 30.576 85.265 89.202 60.174 72.678 21.659 14.059 46.747 33.16 61.511"></polygon><path class="b" d="M88.7842,168.7169l-15.2663,4.6666-1.4362-4.6988,30.1346-9.2117,19.66-19.4571c6.3777-6.026,3.8144-15.1286,1.9268-19.6711l-25.9507,23.43L69.043,148.5763c-8.9631,1.6816-13.653,5.5653-15.157,12.5852l-10.8344,50.559H82.6892l-2.4094-.4819Z"></path><path class="b" d="M48.4671,162.9961l-21.4964,4.299c-9.0413,1.6961-13.7311,5.58-15.2352,12.6l-6.82,31.8257H40.5387l-2.4025-.5148Z"></path><path class="c" d="M24.147,148.3789a13.9348,13.9348,0,1,0-13.9348-13.9345A13.95,13.95,0,0,0,24.147,148.3789Z"></path><path class="d" d="M176.5339,115.8271a13.9348,13.9348,0,1,0,13.9351,13.9344A13.95,13.95,0,0,0,176.5339,115.8271Z"></path><path class="b" d="M183.559,162.6608h-53.04a28.1389,28.1389,0,0,0,2.5413,5.7854c3.15,5.3308,7.5342,8.0339,13.0316,8.0339H183.559v4.914H173.0149l10.7073,29.488-2.31.8384h31.9838l-10.3418-35.9918C201.7507,169.6445,198.3565,162.6608,183.559,162.6608Z"></path><path class="e" d="M70.9807,129.6456A13.9348,13.9348,0,1,0,57.046,115.7105,13.9509,13.9509,0,0,0,70.9807,129.6456Z"></path><polygon points="111.866 123.109 111.91 123.089 111.908 123.043 111.866 123.109"></polygon><path d="M70.9807,134.56a18.8487,18.8487,0,1,0-18.8487-18.849A18.87,18.87,0,0,0,70.9807,134.56Zm0-32.7833A13.9348,13.9348,0,1,1,57.046,115.7105,13.95,13.95,0,0,1,70.9807,101.7762Z"></path><path d="M24.147,153.2929A18.8488,18.8488,0,1,0,5.2983,134.4443,18.87,18.87,0,0,0,24.147,153.2929Zm0-32.7836a13.9349,13.9349,0,1,1-13.9347,13.935A13.9508,13.9508,0,0,1,24.147,120.5093Z"></path><path d="M176.5339,148.6105a18.8488,18.8488,0,1,0-18.8487-18.8489A18.87,18.87,0,0,0,176.5339,148.6105Zm0-32.7836a13.9348,13.9348,0,1,1-13.9347,13.9347A13.9506,13.9506,0,0,1,176.5339,115.8269Z"></path><path d="M207.8414,174.6147c-2.4659-11.3492-10.41-16.868-24.2824-16.868H135.8234L128.3782,139.72h0c6.3745-10.6081-1.294-24.0063-1.665-24.64l-1.5253-2.6062-5.9108,5.3365L68.7322,0,64.2164,1.9374,70.74,17.1431,4.4369,45.5194l23.54,18.1965L24.7815,93.09,91.14,64.69l24.2834,56.6L95.6265,139.1638l-27.44,4.574c-10.19,1.9105-16.3073,6.7039-18.65,14.62l-.1127-.5633L26.036,162.471c-10.9314,2.05-17.1808,7.4127-19.1055,16.394L0,211.2056l2.4025.515,2.4025.5146.11-.5146,6.82-31.826c1.5041-7.02,6.1939-10.9036,15.2353-12.6l21.4964-4.2989-10.331,48.2094,2.4025.515,2.4025.5146.11-.5146L53.886,161.1615c1.5041-7.02,6.1939-10.9037,15.157-12.5852l28.8094-4.8017,25.9507-23.43c1.8876,4.5423,4.4509,13.6449-1.9268,19.671l-19.66,19.457-30.1346,9.2117,1.4362,4.6987,15.2663-4.6664L80.28,211.2386l2.4094.482,2.4093.482.0964-.482,8.9271-44.6353,10.69-3.2674,20.0191-19.814,5.6761,13.7428h-6.0492l.4771,2.8608c1.0023,6.0136,5.3425,16.504,14.9229,19.7772l12.9428,31.3359.3874.9378,2.2708-.9378,2.2709-.9378-12.1449-29.4043c.17.0041.335.0156.5071.0156h21.695l11.0117,30.3265.3044.8383,2.31-.8383,2.31-.8384-10.7073-29.4881H183.559V176.48H146.0919c-5.4974,0-9.8818-2.7031-13.0316-8.0338a28.1477,28.1477,0,0,1-2.5413-5.7853h53.04c14.7969,0,18.1914,6.9828,19.4954,13.067l0,.0008,10.3418,35.9918.195.6787,2.3614-.6787,2.3614-.6788ZM30.5757,85.2647,33.16,61.5114,14.0592,46.7467,72.6778,21.6592,89.2022,60.1744Z"></path><path class="c" d="M48.3585,56.3732c.0288,1.763.1218,3.6438.2594,4.952a.2332.2332,0,0,1-.1507.2566l-2.4846.9749a.2309.2309,0,0,1-.2841-.0851c-.7836-1.037-1.9889-2.4635-3.1787-3.8069L40.3326,56.244c-.1171-.1152-.0915-.2329.0639-.2937l2.1277-.8354a.25.25,0,0,1,.2937.0633L43.796,56.3a21.7557,21.7557,0,0,1,2.1491,2.92c.11.19.3279.1043.28-.11a17.0774,17.0774,0,0,1-.4257-3.5959l-.0461-1.4879a.25.25,0,0,1,.1721-.2463l2.1277-.8349c.1551-.0607.2536.0084.2463.1721Z"></path><path class="c" d="M57.5794,58.0051a.2016.2016,0,0,1-.2809-.1228L54.842,51.6239a8.46,8.46,0,0,1-.4037-1.3466c-.0332-.1311-.1042-.1746-.2283-.126a.9678.9678,0,0,0-.2182.1753l-.8566.7843a.1937.1937,0,0,1-.3067-.0045l-1.3073-1.4586a.193.193,0,0,1,.0052-.3064L54.954,46.203a.2569.2569,0,0,1,.2981-.0627l.1452.05a.2865.2865,0,0,1,.222.2L59.7518,56.92a.2012.2012,0,0,1-.1228.2808Z"></path><path class="c" d="M63.9573,54.0325a1.5266,1.5266,0,1,1-1.9959-.8841A1.4163,1.4163,0,0,1,63.9573,54.0325Z"></path><path class="c" d="M66.77,54.3971a.2008.2008,0,0,1-.2808-.1222l-2.4565-6.2583a8.49,8.49,0,0,1-.4034-1.3466c-.0332-.1312-.1042-.1747-.2283-.1261a.9665.9665,0,0,0-.2182.1747l-.8569.7849a.1934.1934,0,0,1-.3064-.0045L60.7114,46.04a.1926.1926,0,0,1,.0051-.3058l3.428-3.1384a.2558.2558,0,0,1,.2978-.0627l.1455.05a.2864.2864,0,0,1,.2216.2l4.1333,10.5291a.2017.2017,0,0,1-.1232.2809Z"></path></svg> 