<svg xmlns="http://www.w3.org/2000/svg" viewBox="0 0 64 64" aria-labelledby="title"
aria-describedby="desc" role="img" xmlns:xlink="http://www.w3.org/1999/xlink"
width="48" height="48">
  <title>Lifebelt</title>
  <desc>A solid styled icon from Orion Icon Library.</desc>
  <path data-name="layer2"
  d="M4 23.4a2 2 0 0 0 1.6-.8l10.3 1.5a18 18 0 0 1 8.1-8.2L22.5 5.6A2 2 0 0 0 21.3 2h-7.8A11.5 11.5 0 0 0 2 13.5v7.9a2 2 0 0 0 2 2zM13.5 6h3.6A30.1 30.1 0 0 0 6 17.1v-3.6A7.5 7.5 0 0 1 13.5 6zM60 40.6a2 2 0 0 0-1.7.9L48.1 40a18 18 0 0 1-8.2 8.1l1.5 10.3a2 2 0 0 0 1.3 3.6h7.8A11.5 11.5 0 0 0 62 50.5v-7.9a2 2 0 0 0-2-2zM50.5 58h-3.6A30.1 30.1 0 0 0 58 47v3.5a7.5 7.5 0 0 1-7.5 7.5z"
  fill="#8d8ea3"></path>
  <path data-name="layer1" d="M61.4 37.9a30.1 30.1 0 0 0 0-11.7l-11.9 1.7a17.5 17.5 0 0 1 0 8.3z"
  fill="#253858"></path>
  <path data-name="layer2" d="M48.1 24l10.3-1.4a2 2 0 0 0 3.6-1.2v-7.9A11.5 11.5 0 0 0 50.5 2h-7.8a2 2 0 0 0-1.1 3.6L40 15.9a18 18 0 0 1 8.1 8.1zM58 13.5v3.6A30.1 30.1 0 0 0 46.9 6h3.6a7.5 7.5 0 0 1 7.5 7.5z"
  fill="#8d8ea3"></path>
  <path data-name="layer1" d="M26.1 2.6l1.7 11.9a17.4 17.4 0 0 1 8.4 0l1.7-11.9a30.1 30.1 0 0 0-11.8 0zM32 50a18 18 0 0 1-4.1-.5l-1.7 11.9a30.1 30.1 0 0 0 11.6 0l-1.7-11.9a18 18 0 0 1-4.1.5z"
  fill="#253858"></path>
  <path data-name="layer2" d="M15.9 40L5.7 41.6a2 2 0 0 0-3.7 1v7.9A11.5 11.5 0 0 0 13.5 62h7.8a2 2 0 0 0 1.3-3.5l1.5-10.3a18 18 0 0 1-8.2-8.2zM6 50.5v-3.6A30.1 30.1 0 0 0 17.1 58h-3.6A7.5 7.5 0 0 1 6 50.5z"
  fill="#8d8ea3"></path>
  <path data-name="layer1" d="M2.6 26.1a30.2 30.2 0 0 0 0 11.9l11.9-1.8a17.5 17.5 0 0 1 0-8.2z"
  fill="#253858"></path>
</svg>