<svg id="Multicolor" xmlns="http://www.w3.org/2000/svg" viewBox="0 0 100 112"><defs><style>.cls-1{fill:#e8f4fa;}.cls-2,.cls-9{fill:#191816;}.cls-2{opacity:0.15;}.cls-21,.cls-3{fill:#f0f0f0;}.cls-14,.cls-4{fill:#fff;}.cls-5{fill:none;}.cls-13,.cls-14,.cls-17,.cls-20,.cls-21,.cls-22,.cls-23,.cls-24,.cls-25,.cls-27,.cls-33,.cls-5,.cls-6{stroke:#191816;stroke-linecap:round;stroke-linejoin:round;}.cls-6{fill:#d18660;}.cls-20,.cls-7{fill:#00b8f0;}.cls-8{fill:#009fd9;}.cls-10{fill:#bd704a;}.cls-11{fill:#614b44;}.cls-12{fill:#947063;}.cls-13{fill:#947746;}.cls-15{fill:#a86c4d;}.cls-16{fill:#de926a;}.cls-17,.cls-19{fill:#ffda8f;}.cls-18{fill:#ffbe3d;}.cls-22{fill:#bf8df2;}.cls-23{fill:#00dba8;}.cls-24{fill:#ff6242;}.cls-25{fill:#ffcebf;}.cls-26{fill:#ffb59e;}.cls-27,.cls-28{fill:#ffdf3d;}.cls-29{fill:#ffef9e;}.cls-30,.cls-33{fill:#656769;}.cls-31{fill:#525252;}.cls-32{fill:#87898c;}</style></defs><title>06- business-team</title><g id="New_Symbol_53-36" data-name="New Symbol 53"><circle class="cls-1" cx="50" cy="56" r="40"/></g><ellipse class="cls-2" cx="49.61" cy="88.87" rx="28.98" ry="1.81"/><path class="cls-3" d="M44.78,54.46a11.48,11.48,0,1,0-23,0v1.81h3v9H40.55v-9h4.23Z"/><path class="cls-4" d="M33.3,43A11.48,11.48,0,0,0,21.83,54.46v1.81H22a11.46,11.46,0,0,1,22.63,0h.16V54.46A11.48,11.48,0,0,0,33.3,43Z"/><path class="cls-5" d="M44.78,54.46a11.48,11.48,0,1,0-23,0v1.81h3v9H40.55v-9h4.23Z"/><path class="cls-6" d="M32.7,23.66A7.26,7.26,0,0,1,40,30.91v1a1.48,1.48,0,0,1,1.2,1.44,1.5,1.5,0,0,1-1.36,1.48,7.24,7.24,0,0,1-14.33-1.48V30.91A7.25,7.25,0,0,1,32.7,23.66Z"/><path class="cls-7" d="M24.85,65.32V84.09a4.07,4.07,0,0,1,.61,0h4.83l.47-11.41a1.94,1.94,0,0,1,3.88,0L35,84.11a3.38,3.38,0,0,1,.72-.07h4.83V65.32Z"/><rect class="cls-8" x="24.85" y="65.32" width="15.7" height="3.02"/><path class="cls-5" d="M24.85,65.32V84.09a4.07,4.07,0,0,1,.61,0h4.83l.47-11.41a1.94,1.94,0,0,1,3.88,0L35,84.11a3.38,3.38,0,0,1,.72-.07h4.83V65.32Z"/><path class="cls-6" d="M36.61,43.48l-.08.13-3.83,6L29,43.82A11.12,11.12,0,0,1,33.3,43,11,11,0,0,1,36.61,43.48Z"/><path class="cls-9" d="M33.61,30.91a.91.91,0,1,0,.9.9.9.9,0,0,0-.9-.9Z"/><path class="cls-9" d="M28.78,30.91a.91.91,0,1,0,.9.9.9.9,0,0,0-.9-.9Z"/><circle class="cls-10" cx="36.02" cy="34.23" r="0.91"/><path class="cls-5" d="M33.3,36.4a3.27,3.27,0,0,1-3.62,0"/><path class="cls-11" d="M24.85,29.1a7.85,7.85,0,1,1,15.7,0v2.41a6.22,6.22,0,0,1-4.23-3.62C32.94,30.17,28.47,29.7,24.85,29.1Z"/><path class="cls-12" d="M32.7,24.27a7.85,7.85,0,0,0-7.28,4.92l-.57-.09a7.85,7.85,0,1,1,15.7,0v2.41h0A7.85,7.85,0,0,0,32.7,24.27Z"/><path class="cls-5" d="M24.85,29.1a7.85,7.85,0,1,1,15.7,0v2.41a6.22,6.22,0,0,1-4.23-3.62C32.94,30.17,28.47,29.7,24.85,29.1Z"/><path class="cls-5" d="M37.53,26.68a3.92,3.92,0,0,1-1.21,1.21"/><line class="cls-5" x1="40.55" y1="56.27" x2="40.55" y2="52.64"/><line class="cls-5" x1="24.85" y1="56.27" x2="24.85" y2="52.64"/><path class="cls-13" d="M21.83,87.66A3.63,3.63,0,0,1,25.46,84h4.83v2.41a1.21,1.21,0,0,1-1.21,1.21Z"/><path class="cls-13" d="M32.1,87.66A3.62,3.62,0,0,1,35.72,84h4.83v2.41a1.21,1.21,0,0,1-1.21,1.21Z"/><path class="cls-14" d="M39.34,47.21a11.28,11.28,0,0,0-6.64,2.42l3.83-6,.08-.13A10.43,10.43,0,0,1,38,44c.08.11.18.23.26.36A6.88,6.88,0,0,1,39.34,47.21Z"/><path class="cls-14" d="M32.7,49.63a11.25,11.25,0,0,0-6.64-2.42,6.69,6.69,0,0,1,.7-2.19A11,11,0,0,1,29,43.82Z"/><line class="cls-5" x1="32.7" y1="49.63" x2="32.7" y2="65.32"/><path class="cls-1" d="M33.41,63.12,25,64.58a1.2,1.2,0,0,1-1.36-.84L20.5,53.06a1.2,1.2,0,0,1,.69-1.46l7.86-3.27a1.2,1.2,0,0,1,1.62.77l3.69,12.48A1.22,1.22,0,0,1,33.41,63.12Z"/><path class="cls-4" d="M21.44,53.57l8.36-3.42a1.34,1.34,0,0,1,1.22.13l-.35-1.18a1.2,1.2,0,0,0-1.62-.77L21.19,51.6a1.2,1.2,0,0,0-.69,1.46l.31,1A1.29,1.29,0,0,1,21.44,53.57Z"/><path class="cls-5" d="M33.41,63.12,25,64.58a1.2,1.2,0,0,1-1.36-.84L20.5,53.06a1.2,1.2,0,0,1,.69-1.46l7.86-3.27a1.2,1.2,0,0,1,1.62.77l3.69,12.48A1.22,1.22,0,0,1,33.41,63.12Z"/><path class="cls-6" d="M40.55,56.27v1A3.86,3.86,0,0,1,34,60l-1-1a2.11,2.11,0,0,0-3,0,2.12,2.12,0,0,0,0,3l1,1a8,8,0,0,0,5.72,2.37,8.1,8.1,0,0,0,8.09-8.09v-1Z"/><path class="cls-6" d="M23.29,60.43a2.11,2.11,0,1,0-1-4.1l-.88.22A1.21,1.21,0,0,0,20.52,58L21,59.77a1.21,1.21,0,0,0,.55.74,1.16,1.16,0,0,0,.91.14Z"/><path class="cls-9" d="M23.64,52.64a.61.61,0,1,0,.61.61.6.6,0,0,0-.61-.61Z"/><path class="cls-3" d="M77.38,53.25a10.27,10.27,0,1,0-20.53,0v2.11h4.23v10H74.36V56.87h3Z"/><circle class="cls-15" cx="59.87" cy="24.27" r="3.62"/><path class="cls-16" d="M59.87,20.65a3.6,3.6,0,0,0-3.46,2.62,3.56,3.56,0,0,1,2.25-.81,3.62,3.62,0,0,1,3.62,3.62,3.66,3.66,0,0,1-.15,1,3.61,3.61,0,0,0-2.26-6.43Z"/><circle class="cls-5" cx="59.87" cy="24.27" r="3.62"/><path class="cls-17" d="M67.72,23.66a7.26,7.26,0,0,0-7.25,7.25v1a1.48,1.48,0,0,0-1.2,1.44,1.5,1.5,0,0,0,1.36,1.48A7.24,7.24,0,0,0,75,33.32V30.91A7.25,7.25,0,0,0,67.72,23.66Z"/><rect class="cls-4" x="61.08" y="60.49" height="4.83"/><path class="cls-4" d="M67.11,43A10.27,10.27,0,0,0,56.85,53.25v3.62a10.27,10.27,0,0,1,20.53,0V53.25A10.27,10.27,0,0,0,67.11,43Z"/><path class="cls-5" d="M77.38,53.25a10.27,10.27,0,1,0-20.53,0v2.11h4.23v10H74.36V56.87h3Z"/><path class="cls-9" d="M66.81,30.91a.91.91,0,0,0,0,1.81.91.91,0,1,0,0-1.81Z"/><path class="cls-9" d="M71.64,30.91a.91.91,0,0,0,0,1.81.91.91,0,1,0,0-1.81Z"/><circle class="cls-18" cx="64.4" cy="34.23" r="0.91"/><path class="cls-5" d="M67.11,36.4a3.28,3.28,0,0,0,3.63,0"/><polygon class="cls-19" points="72.16 84.04 72.55 77.4 62.89 77.4 63.28 84.04 72.16 84.04"/><polygon class="cls-18" points="72.37 80.42 72.55 77.4 62.89 77.4 63.07 80.42 72.37 80.42"/><polygon class="cls-5" points="72.16 84.04 72.55 77.4 62.89 77.4 63.28 84.04 72.16 84.04"/><line class="cls-5" x1="67.72" y1="77.4" x2="67.72" y2="84.04"/><path class="cls-7" d="M72.56,77.4a1.21,1.21,0,0,0,1.21-1.14l.59-10.94H61.08l.59,10.94a1.2,1.2,0,0,0,1.2,1.14Z"/><polygon class="cls-8" points="74.2 68.34 74.36 65.32 61.08 65.32 61.24 68.34 74.2 68.34"/><path class="cls-5" d="M72.56,77.4a1.21,1.21,0,0,0,1.21-1.14l.59-10.94H61.08l.59,10.94a1.2,1.2,0,0,0,1.2,1.14Z"/><path class="cls-20" d="M76.17,87.66A3.62,3.62,0,0,0,72.55,84H67.72v3.62Z"/><path class="cls-20" d="M71.72,87.66A3.62,3.62,0,0,0,68.09,84H63.26v2.41a1.21,1.21,0,0,0,1.21,1.21Z"/><line class="cls-5" x1="61.08" y1="52.64" x2="61.08" y2="55.66"/><path class="cls-21" d="M72.55,47.21l.6,1.81-5.43,4.23,3.46-9.42A10.32,10.32,0,0,1,74.34,46l0,0Z"/><path class="cls-21" d="M62.28,49l.61-1.81L61.08,46l1-1.66a9.94,9.94,0,0,1,2.08-.91l3.61,9.82Z"/><path class="cls-17" d="M71.18,43.83a10.19,10.19,0,0,0-7.07-.4l1.39,3.78h4.44Z"/><polygon class="cls-22" points="65.5 47.21 67.72 53.25 69.94 47.21 65.5 47.21"/><line class="cls-5" x1="67.72" y1="52.64" x2="67.72" y2="65.32"/><path class="cls-23" d="M70.73,45.6h4.43a0,0,0,0,1,0,0V63.11a0,0,0,0,1,0,0H70.73a1,1,0,0,1-1-1V46.6a1,1,0,0,1,1-1Z" transform="translate(34.44 -27.85) rotate(28.31)"/><path class="cls-24" d="M76.05,64.86a1.21,1.21,0,0,1-1.64.49l-3.72-2L79,47.93l3.72,2a1.18,1.18,0,0,1,.49,1.63Z"/><path class="cls-9" d="M75,48.66a.9.9,0,1,0,.43.11,1,1,0,0,0-.43-.11Z"/><path class="cls-9" d="M79.81,51.24a.9.9,0,0,0-.43,1.7.84.84,0,0,0,.43.11.9.9,0,0,0,.43-1.7,1,1,0,0,0-.43-.11Z"/><line class="cls-5" x1="67.62" y1="57.58" x2="72.41" y2="60.16"/><line class="cls-5" x1="72.41" y1="60.16" x2="77.19" y2="62.74"/><path class="cls-17" d="M79.73,54.69a2.12,2.12,0,0,0-1.94,3.76l.8.41a1.18,1.18,0,0,0,.92.08,1.21,1.21,0,0,0,.71-.6l.83-1.6a1.21,1.21,0,0,0-.52-1.63Z"/><path class="cls-17" d="M61.08,55.36v1.81a1.51,1.51,0,0,0,1.51,1.51h7.85a2.12,2.12,0,0,1,0,4.23H62.59a5.75,5.75,0,0,1-5.74-5.74V55.36Z"/><path class="cls-15" d="M60.47,31.88c1.81-1.57,2.42-5.2,2.42-5.2s4.22,3,12.07,4.23v1.92a8.35,8.35,0,0,0,.61-3.13A8.46,8.46,0,1,0,59.33,33,1.47,1.47,0,0,1,60.47,31.88Z"/><path class="cls-16" d="M67.11,24a8.45,8.45,0,0,1,8.34,7.07,8.73,8.73,0,0,0,.12-1.37,8.46,8.46,0,0,0-16.91,0,9,9,0,0,0,.12,1.38A8.45,8.45,0,0,1,67.11,24Z"/><path class="cls-5" d="M60.47,31.88c1.81-1.57,2.42-5.2,2.42-5.2s4.22,3,12.07,4.23v1.92a8.35,8.35,0,0,0,.61-3.13A8.46,8.46,0,1,0,59.33,33,1.47,1.47,0,0,1,60.47,31.88Z"/><path class="cls-25" d="M59.27,33.32a1.49,1.49,0,0,0-1.21-1.44v-1a7.25,7.25,0,1,0-14.49,0v1a1.47,1.47,0,0,0,.15,2.92,7.25,7.25,0,0,0,14.19,0A1.5,1.5,0,0,0,59.27,33.32Z"/><path class="cls-9" d="M48.1,30.91a.91.91,0,1,0,.9.9.9.9,0,0,0-.9-.9Z"/><path class="cls-9" d="M53.53,30.91a.91.91,0,1,0,.91.9.9.9,0,0,0-.91-.9Z"/><circle class="cls-26" cx="46.89" cy="34.23" r="0.91"/><circle class="cls-26" cx="54.74" cy="34.23" r="0.91"/><path class="cls-27" d="M57.67,35.67l-3.28.51a1.88,1.88,0,0,1-1.82-.82A1.86,1.86,0,0,0,51,34.53h-.41a1.87,1.87,0,0,0-1.56.83,1.87,1.87,0,0,1-1.82.82L44,35.67c0,3,5.18,5.5,6.85,5.5h0C52.49,41.17,57.67,38.66,57.67,35.67Z"/><path class="cls-27" d="M55.56,40.33s-1.45-2.54-2.9-2.9c-.77-.19-1.45-.65-1.45-1.45a1.45,1.45,0,0,1,1.45-1.45C56.41,34.53,55.56,40.33,55.56,40.33Z"/><path class="cls-27" d="M46.14,40.33s1.45-2.54,2.9-2.9c.78-.19,1.45-.65,1.45-1.45A1.45,1.45,0,0,0,49,34.53C45.3,34.53,46.14,40.33,46.14,40.33Z"/><path class="cls-28" d="M58.66,29.1a7.85,7.85,0,0,0-8.09-7.85A8.08,8.08,0,0,0,43,29.43v2.08a6.55,6.55,0,0,0,2.45-3,2.38,2.38,0,0,1,2.53-1.46,19.11,19.11,0,0,0,5.75,0,2.38,2.38,0,0,1,2.53,1.46,6.59,6.59,0,0,0,2.44,3Z"/><path class="cls-29" d="M50.57,21.25A8.08,8.08,0,0,0,43,29.43v2.08a.18.18,0,0,0,.07-.05,8,8,0,0,1,7.54-7.19,7.85,7.85,0,0,1,8.06,7.22l0,0V29.1A7.85,7.85,0,0,0,50.57,21.25Z"/><path class="cls-5" d="M58.66,29.1a7.85,7.85,0,0,0-8.09-7.85A8.08,8.08,0,0,0,43,29.43v2.08a6.55,6.55,0,0,0,2.45-3,2.38,2.38,0,0,1,2.53-1.46,19.11,19.11,0,0,0,5.75,0,2.38,2.38,0,0,1,2.53,1.46,6.59,6.59,0,0,0,2.44,3Z"/><path class="cls-30" d="M56.25,84h.6a3.67,3.67,0,0,1,1.81.48V65.32H43v19.2A3.74,3.74,0,0,1,44.78,84h.6a3.62,3.62,0,0,1,3.08,1.71l.42-13.12a1.94,1.94,0,0,1,3.87,0l.42,13.12A3.62,3.62,0,0,1,56.25,84Z"/><polygon class="cls-31" points="48.88 72.57 42.97 72.57 42.97 75.59 48.78 75.59 48.88 72.57"/><polygon class="cls-31" points="52.84 75.59 58.66 75.59 58.66 72.57 52.75 72.57 52.84 75.59"/><path class="cls-5" d="M56.25,84h.6a3.67,3.67,0,0,1,1.81.48V65.32H43v19.2A3.74,3.74,0,0,1,44.78,84h.6a3.62,3.62,0,0,1,3.08,1.71l.42-13.12a1.94,1.94,0,0,1,3.87,0l.42,13.12A3.62,3.62,0,0,1,56.25,84Z"/><path class="cls-30" d="M50.81,43A12.68,12.68,0,0,0,38.13,55.66v1.81A6.05,6.05,0,0,0,43,63.39v9.18H46.9a4.4,4.4,0,0,0,3.92-2.42,4.37,4.37,0,0,0,3.9,2.42h3.94V63.39a6.05,6.05,0,0,0,4.83-5.92V55.66A12.68,12.68,0,0,0,50.81,43Z"/><path class="cls-32" d="M50.81,43A12.68,12.68,0,0,0,38.13,55.66v1.81a5.32,5.32,0,0,0,.06.81,12.68,12.68,0,0,1,25.25,0,7,7,0,0,0,.05-.81V55.66A12.68,12.68,0,0,0,50.81,43Z"/><path class="cls-5" d="M50.81,43A12.68,12.68,0,0,0,38.13,55.66v1.81A6.05,6.05,0,0,0,43,63.39v9.18H46.9a4.4,4.4,0,0,0,3.92-2.42,4.37,4.37,0,0,0,3.9,2.42h3.94V63.39a6.05,6.05,0,0,0,4.83-5.92V55.66A12.68,12.68,0,0,0,50.81,43Z"/><path class="cls-14" d="M50.81,58.08l5-14.06a12.64,12.64,0,0,0-10,0Z"/><polyline class="cls-5" points="54.58 47.53 50.81 42.98 47.05 47.53"/><path class="cls-13" d="M58.94,87.66a1.23,1.23,0,0,0,1.05-.6,1.24,1.24,0,0,0,0-1.21A3.63,3.63,0,0,0,56.85,84h-.6a3.63,3.63,0,0,0-3.14,1.81,1.21,1.21,0,0,0,1,1.81Z"/><path class="cls-13" d="M47.47,87.66a1.23,1.23,0,0,0,1.05-.6,1.24,1.24,0,0,0,0-1.21A3.63,3.63,0,0,0,45.38,84h-.6a3.62,3.62,0,0,0-3.14,1.81,1.21,1.21,0,0,0,1,1.81Z"/><polygon class="cls-24" points="50.81 42.98 48.75 52.29 50.81 58.08 52.88 52.29 50.81 42.98"/><line class="cls-5" x1="50.81" y1="63.51" x2="50.81" y2="70.15"/><line class="cls-5" x1="50.81" y1="58.08" x2="50.81" y2="58.68"/><path class="cls-33" d="M50.81,58.08l6.64-7.85-1.2-2.42h2.41l-.72-2.63A12.32,12.32,0,0,0,55.83,44Z"/><path class="cls-33" d="M50.81,58.08,45.79,44a12.7,12.7,0,0,0-2.11,1.16L43,47.81h2.42l-1.21,2.42Z"/><path class="cls-5" d="M48.4,63.51H44.17a6,6,0,0,1-1.2-.12"/><path class="cls-5" d="M43,52.64v4.83a1.21,1.21,0,0,0,1.21,1.21H48.4"/><path class="cls-25" d="M57.45,58.68a1.21,1.21,0,0,0,1-.6,2.14,2.14,0,0,0-.34-1.16,2.12,2.12,0,0,0-2.92-.63l-2.93,2.18.14.21Z"/><path class="cls-5" d="M58.66,52.64v4.83a1.21,1.21,0,0,1-1.21,1.21H48.4a2.42,2.42,0,1,0,0,4.83h9.05a6.16,6.16,0,0,0,1.22-.12"/><path class="cls-25" d="M45.68,59a2.12,2.12,0,0,0,0,4.23h2.11V59Z"/></svg>