<svg id="Multicolor" xmlns="http://www.w3.org/2000/svg" viewBox="0 0 178 178"><defs><style>.cls-1,.cls-8{fill:#e8f4fa;}.cls-2,.cls-24{fill:#191816;}.cls-2{opacity:0.15;}.cls-3{fill:#c0dceb;}.cls-12,.cls-13,.cls-14,.cls-18,.cls-19,.cls-20,.cls-21,.cls-3,.cls-6,.cls-7,.cls-8,.cls-9{stroke:#191816;stroke-linecap:round;stroke-linejoin:round;}.cls-21,.cls-4{fill:#00b8f0;}.cls-5{fill:#4acfff;}.cls-6{fill:none;}.cls-26,.cls-7{fill:#656769;}.cls-9{fill:#fff;}.cls-10{fill:#bf8256;}.cls-11{fill:#915e3a;}.cls-12{fill:#ffe500;}.cls-13{fill:#9ceb60;}.cls-14{fill:#fff5e3;}.cls-15,.cls-20{fill:#ff6242;}.cls-16,.cls-18{fill:#ff8a14;}.cls-17,.cls-19{fill:#6dd627;}.cls-22{fill:#e0e0e0;}.cls-23{fill:#f0f0f0;}.cls-25{fill:#ff866e;}.cls-27{fill:#87898c;}</style></defs><title>100- desktop-macbook-business-graph</title><g id="New_Symbol_53" data-name="New Symbol 53"><circle class="cls-1" cx="88.67" cy="88.67" r="81"/></g><path class="cls-2" d="M119.81,115.36a1.49,1.49,0,0,0-1-1.85L114,112.18l-.1-4.63a1.49,1.49,0,0,0-1.53-1.46l-18.69.41-16.82-4.7a1.5,1.5,0,0,0-1.85,1l-1.14,4.1-5,.11a1.5,1.5,0,0,0-1.47,1.53l.44,19.86-1.32,4.73a1.5,1.5,0,0,0,1,1.85l.43.12.11,4.93a1.5,1.5,0,0,0,1.53,1.47l19.69-.44,20.13,5.64a1.51,1.51,0,0,0,1.85-1l1.43-5.11h.39a1.51,1.51,0,0,0,1.47-1.54l-.1-4.73Z"/><rect class="cls-2" x="62.87" y="55.29" width="54" height="37.5" rx="4.5" ry="4.5"/><path class="cls-3" d="M118.09,30.54H61.65a3.75,3.75,0,0,0-3.75,3.75h63.94A3.75,3.75,0,0,0,118.09,30.54Z"/><path class="cls-4" d="M113.18,54.54H66.56a3,3,0,0,1-2.86-2.08L57.94,34.52a.75.75,0,0,1,.71-1h62.44a.76.76,0,0,1,.72,1L116,52.46A3,3,0,0,1,113.18,54.54Z"/><path class="cls-5" d="M66.56,54.54h8.31l21-21H58.65a.75.75,0,0,0-.71,1L63.7,52.46A3,3,0,0,0,66.56,54.54Z"/><path class="cls-6" d="M113.18,54.54H66.56a3,3,0,0,1-2.86-2.08L57.94,34.52a.75.75,0,0,1,.71-1h62.44a.76.76,0,0,1,.72,1L116,52.46A3,3,0,0,1,113.18,54.54Z"/><rect class="cls-3" x="63.62" y="53.04" width="52.5" height="36" rx="4.5" ry="4.5"/><rect class="cls-7" x="69.62" y="53.04" width="40.5" height="3"/><rect class="cls-6" x="69.62" y="53.04" width="40.5" height="6"/><rect class="cls-8" x="69.62" y="62.04" width="40.5" height="12" rx="1.5" ry="1.5"/><line class="cls-6" x1="73.37" y1="71.04" x2="76.37" y2="71.04"/><line class="cls-6" x1="79.37" y1="71.04" x2="100.37" y2="71.04"/><line class="cls-6" x1="103.37" y1="71.04" x2="106.37" y2="71.04"/><line class="cls-6" x1="73.37" y1="68.04" x2="76.37" y2="68.04"/><line class="cls-6" x1="79.37" y1="68.04" x2="82.37" y2="68.04"/><line class="cls-6" x1="85.37" y1="68.04" x2="88.37" y2="68.04"/><line class="cls-6" x1="91.37" y1="68.04" x2="94.37" y2="68.04"/><line class="cls-6" x1="97.37" y1="68.04" x2="100.37" y2="68.04"/><line class="cls-6" x1="103.37" y1="68.04" x2="106.37" y2="68.04"/><line class="cls-6" x1="73.37" y1="65.04" x2="76.37" y2="65.04"/><line class="cls-6" x1="79.37" y1="65.04" x2="82.37" y2="65.04"/><line class="cls-6" x1="85.37" y1="65.04" x2="88.37" y2="65.04"/><line class="cls-6" x1="91.37" y1="65.04" x2="94.37" y2="65.04"/><line class="cls-6" x1="97.37" y1="65.04" x2="100.37" y2="65.04"/><line class="cls-6" x1="103.37" y1="65.04" x2="106.37" y2="65.04"/><rect class="cls-8" x="83.12" y="77.04" width="13.5" height="9" rx="1.5" ry="1.5"/><circle class="cls-2" cx="134.12" cy="75.54" r="10.5"/><path class="cls-9" d="M142.48,82.18A2.25,2.25,0,1,0,145.67,79L142,75.28l-3.18,3.19Z"/><circle class="cls-9" cx="134.53" cy="71.04" r="9.75"/><circle class="cls-10" cx="134.53" cy="71.04" r="6.75"/><path class="cls-11" d="M134.53,67.29a6.75,6.75,0,0,1,6.57,5.25,6.75,6.75,0,1,0-13.14,0A6.74,6.74,0,0,1,134.53,67.29Z"/><circle class="cls-6" cx="134.53" cy="71.04" r="6.75"/><path class="cls-2" d="M53.87,74.79a1.5,1.5,0,0,0-1.5-1.5H44.91l-.34-.67a1.5,1.5,0,0,0-2-.67L31.84,77.34a1.5,1.5,0,0,0-.67,2l5.39,10.73a1.49,1.49,0,0,0,2,.66l4.88-2.45h8.92a1.5,1.5,0,0,0,1.5-1.5Z"/><rect class="cls-12" x="39.62" y="72.54" width="13.5" height="13.5" rx="1.5" ry="1.5"/><rect class="cls-13" x="34.37" y="72.54" width="13.5" height="13.5" rx="1.5" ry="1.5" transform="translate(-30.16 25.46) rotate(-25.53)"/><path class="cls-12" d="M80.71,88.1a1.49,1.49,0,0,1-1.33,1.65l-7.46.79-5-4-.79-7.46a1.51,1.51,0,0,1,1.34-1.65L78,76.33a1.5,1.5,0,0,1,1.65,1.33Z"/><path class="cls-12" d="M67,86.54l3-.32a1.51,1.51,0,0,1,1.65,1.34l.31,3Z"/><rect class="cls-14" x="68.94" y="105.46" width="45" height="33" rx="1.5" ry="1.5" transform="matrix(1, -0.01, 0.01, 1, -1.73, 1.32)"/><rect class="cls-14" x="76.46" y="99.57" width="33" height="45" rx="1.5" ry="1.5" transform="translate(-49.63 178.73) rotate(-74.38)"/><path class="cls-15" d="M90.05,119.06a8.25,8.25,0,1,1-1.44-11.58A8.26,8.26,0,0,1,90.05,119.06Z"/><path class="cls-4" d="M78.47,120.49a8.25,8.25,0,0,1,10.14-13Z"/><path class="cls-16" d="M83.54,114l5.07-6.51a8.21,8.21,0,0,0-6.08-1.68Z"/><path class="cls-17" d="M90.05,119.06a8.25,8.25,0,0,0-1.44-11.58L83.54,114Z"/><path class="cls-6" d="M90.05,119.06a8.25,8.25,0,1,1-1.44-11.58A8.26,8.26,0,0,1,90.05,119.06Z"/><line class="cls-6" x1="73.61" y1="124.45" x2="80.83" y2="126.47"/><line class="cls-6" x1="74.24" y1="127.74" x2="82.91" y2="130.16"/><line class="cls-6" x1="108.11" y1="140.32" x2="84.99" y2="133.86"/><path class="cls-18" d="M90.34,131.46a.74.74,0,0,0-.52-.92l-1.45-.41a.74.74,0,0,0-.92.52l-1,3.62,2.89.8Z"/><path class="cls-19" d="M97.33,128.74a.74.74,0,0,0-.52-.92l-1.45-.4a.74.74,0,0,0-.92.52l-2.22,7.94,2.89.81Z"/><path class="cls-20" d="M103.11,130.36a.77.77,0,0,0-.52-.93l-1.45-.4a.75.75,0,0,0-.92.52L98,137.5l2.89.8Z"/><path class="cls-21" d="M110.5,126.2a.76.76,0,0,0-.52-.93l-1.45-.4a.75.75,0,0,0-.92.52l-3.84,13.72,2.89.81Z"/><line class="cls-6" x1="97.64" y1="110.92" x2="103.42" y2="112.53"/><line class="cls-6" x1="101.16" y1="115.02" x2="111.28" y2="117.85"/><line class="cls-6" x1="97.47" y1="117.1" x2="104.69" y2="119.12"/><line class="cls-6" x1="88.61" y1="107.48" x2="78.47" y2="120.49"/><line class="cls-6" x1="83.54" y1="113.99" x2="90.05" y2="119.06"/><line class="cls-6" x1="82.53" y1="105.8" x2="83.54" y2="113.99"/><path class="cls-2" d="M128.47,99.85l-2.34,8.21a6.83,6.83,0,0,0,13.13,3.74l2.34-8.2a6.83,6.83,0,1,0-13.13-3.75Z"/><path class="cls-22" d="M128.5,97.9l-2.06,7.21A6,6,0,1,0,138,108.4l2.06-7.21A6,6,0,1,0,128.5,97.9Z"/><path class="cls-23" d="M135.91,93.77a6,6,0,0,0-7.41,4.13l-1,3.6A6,6,0,0,1,139,104.8l1-3.61A6,6,0,0,0,135.91,93.77Z"/><path class="cls-24" d="M134.47,98.32l.14,0a.51.51,0,0,1,.3.24.49.49,0,0,1,0,.38.5.5,0,0,1-.48.36.36.36,0,0,1-.14,0,.5.5,0,0,1,.14-1m0-1A1.5,1.5,0,0,0,133,98.41a1.49,1.49,0,0,0,1,1.85,1.51,1.51,0,0,0,.41.06,1.5,1.5,0,0,0,.41-2.94,1.4,1.4,0,0,0-.41-.06Z"/><path class="cls-6" d="M128.5,97.9l-2.06,7.21A6,6,0,1,0,138,108.4l2.06-7.21A6,6,0,1,0,128.5,97.9Z"/><path class="cls-2" d="M36.63,137.73a1.49,1.49,0,0,0,.48,2.06L39,141a1.5,1.5,0,0,0,2.07-.48l13.14-21a.76.76,0,0,0-.24-1l-.11-.07.6-1A3,3,0,0,0,57.11,116c.63-1,.23-3.43,0-4.65a.75.75,0,0,0-.93-.57c-1.21.33-3.53,1.06-4.16,2.09a3,3,0,0,0-.07,3l-.59,1-.53-.33a.75.75,0,0,0-1,.24Z"/><path class="cls-15" d="M40.43,137.59a1.49,1.49,0,0,1-2.07.45l-1.26-.81a1.5,1.5,0,0,1-.45-2.08l13-20.16a1.49,1.49,0,0,1,.94-.66,1.54,1.54,0,0,1,1.13.21l1.26.81a1.5,1.5,0,0,1,.45,2.08Z"/><path class="cls-25" d="M52.37,115,37.73,137.63l-.63-.4a1.5,1.5,0,0,1-.45-2.08l13-20.16a1.49,1.49,0,0,1,.94-.66,1.54,1.54,0,0,1,1.13.21Z"/><line class="cls-6" x1="40.72" y1="128.85" x2="44.5" y2="131.29"/><path class="cls-6" d="M36.65,135.15a3,3,0,0,1-.89-4.15l4.88-7.56"/><path class="cls-26" d="M55.48,114.28a2.25,2.25,0,1,1-3.78-2.44c.67-1,3.92-1.93,3.92-1.93S56.15,113.23,55.48,114.28Z"/><path class="cls-27" d="M55.62,109.91s-3.25.88-3.92,1.93a2.26,2.26,0,0,0,.67,3.11Z"/><path class="cls-6" d="M55.48,114.28a2.25,2.25,0,1,1-3.78-2.44c.67-1,3.92-1.93,3.92-1.93S56.15,113.23,55.48,114.28Z"/><path class="cls-6" d="M40.43,137.59a1.49,1.49,0,0,1-2.07.45l-1.26-.81a1.5,1.5,0,0,1-.45-2.08l13-20.16a1.49,1.49,0,0,1,.94-.66,1.54,1.54,0,0,1,1.13.21l1.26.81a1.5,1.5,0,0,1,.45,2.08Z"/></svg>