<svg id="Multicolor" xmlns="http://www.w3.org/2000/svg" viewBox="0 0 100 112"><defs><style>.cls-1{fill:#e8f4fa;}.cls-2,.cls-7{fill:#fff;}.cls-3{fill:none;}.cls-10,.cls-3,.cls-6,.cls-7,.cls-8,.cls-9{stroke:#191816;stroke-linecap:round;stroke-linejoin:round;}.cls-4{fill:#dea47a;}.cls-5{fill:#bf8256;}.cls-6{fill:#656769;}.cls-8{fill:#00b8f0;}.cls-9{fill:#ffe500;}.cls-10,.cls-11{fill:#ff6242;}.cls-12{fill:#ff866e;}</style></defs><title>17- business-target-1</title><g id="New_Symbol_25-7" data-name="New Symbol 25"><path class="cls-1" d="M90,56A40,40,0,1,0,13.56,72.5H86.44A39.85,39.85,0,0,0,90,56Z"/><path class="cls-2" d="M13.56,72.5a40,40,0,0,0,72.88,0Z"/><line class="cls-3" x1="11" y1="72.5" x2="89" y2="72.5"/><line class="cls-3" x1="6.5" y1="72.5" x2="9" y2="72.5"/><line class="cls-3" x1="91" y1="72.5" x2="93.5" y2="72.5"/></g><polygon class="cls-4" points="38.68 72.57 31.78 72.57 35.23 60.15 42.13 60.15 38.68 72.57"/><path class="cls-5" d="M35.23,60.15h6.9l-2.65,9.54a23.07,23.07,0,0,1-6-3.29Z"/><polygon class="cls-4" points="56.62 72.57 63.52 72.57 60.07 60.15 53.17 60.15 56.62 72.57"/><path class="cls-5" d="M60.07,60.15h-6.9l2.66,9.54a23.07,23.07,0,0,0,6-3.29Z"/><polygon class="cls-3" points="38.68 72.57 31.78 72.57 35.23 60.15 42.13 60.15 38.68 72.57"/><polygon class="cls-3" points="56.62 72.57 63.52 72.57 60.07 60.15 53.17 60.15 56.62 72.57"/><circle class="cls-6" cx="47.65" cy="47.73" r="20.7"/><circle class="cls-7" cx="47.65" cy="47.73" r="16.56"/><circle class="cls-8" cx="47.65" cy="47.73" r="12.42"/><circle class="cls-9" cx="47.65" cy="47.73" r="8.28"/><circle class="cls-10" cx="47.65" cy="47.73" r="4.14"/><path class="cls-11" d="M69.26,21.45A11.49,11.49,0,0,0,65.9,29.7a12,12,0,0,0,8.27-3.44l2-2-3.43-1.42-1.5-3.4Z"/><path class="cls-3" d="M69.26,21.45A11.49,11.49,0,0,0,65.9,29.7a12,12,0,0,0,8.27-3.44l2-2-3.43-1.42-1.5-3.4Z"/><path class="cls-12" d="M72.79,22.83l-1.5-3.4-2,2A11.49,11.49,0,0,0,65.9,29.7Z"/><path class="cls-3" d="M69.26,21.45A11.49,11.49,0,0,0,65.9,29.7a12,12,0,0,0,8.27-3.44l2-2-3.43-1.42-1.5-3.4Z"/><line class="cls-3" x1="72.79" y1="22.83" x2="47.81" y2="47.73"/><path class="cls-11" d="M77.41,31.72a11.49,11.49,0,0,0-6.26,6.34,12,12,0,0,0,9,0L82.77,37l-2.63-2.63-.09-3.72Z"/><path class="cls-12" d="M80.14,34.34l-.09-3.72-2.64,1.1a11.49,11.49,0,0,0-6.26,6.34Z"/><path class="cls-3" d="M77.41,31.72a11.49,11.49,0,0,0-6.26,6.34,12,12,0,0,0,9,0L82.77,37l-2.63-2.63-.09-3.72Z"/><line class="cls-3" x1="80.14" y1="34.34" x2="47.82" y2="47.73"/></svg>